<?xml version="1.0" encoding="UTF-8"?><svg xmlns="http://www.w3.org/2000/svg" viewBox="0 0 1920 1080"><g id="a"/><g id="b"/><g id="c"/><g id="d"/><g id="e"><g><path d="M1277.33008,655c-5.98999,32.89996-14.3501,59.91998-24.45007,81.95001-31.30994-.26001-77.64001-2.39001-102.98999-11.95001-40.67004-15.33002-84.45007,0-84.45007,0-30.90991,12.70996-52.71997,27.66998-67.51996,40.54999-.23999-.42999-.42999-.83002-.58997-1.22003-77,19-86.33002-47-86.33002-47l111.33002-76.65997,255.00006,14.33002Z" style="fill:#de2a43;"/><path d="M748.33333,662.33333s-238-50-128-268.66667c0,0,17.33333-29.33333,96.66667-80.66667s55.21692-80.98479,192-126.66667c143.94067-48.07234,371.65686,42.04486,427.33337,171.33333,62.66663,74,91.99996,305.33334-75.33337,366.00001,0,0-73.33337-3.99998-177.33337-35.33335,.31604,1.2702-202.92877,70.29266-253.99994,53.33337-50.23853-16.6828-81.33335-79.33335-81.33335-79.33335Z" style="fill:#f5adbb;"/><path d="M1252.88,736.95001c-73.65002,160.51996-239.94,56.06995-254.96002,28.59998,14.79999-12.88,36.61005-27.84003,67.51996-40.54999,0,0,43.78003-15.33002,84.45007,0,25.34998,9.56,71.68005,11.69,102.98999,11.95001Z" style="fill:#eb596e;"/><path d="M742.33333,630.66667s61.33333-100.66667,153-105.33333c0,0,46-2.66667,85.66667-16s88.33333-32.33333,129.33333-29,96.33333-32.33333,96.33333-32.33333" style="fill:none; stroke:#ec596c; stroke-linecap:round; stroke-linejoin:round; stroke-width:26px;"/><path d="M650.83333,438.5s18.83333-32.33333,49-48.16667,43.16667-19,59.66667-36.5" style="fill:none; stroke:#fec9db; stroke-linecap:round; stroke-miterlimit:10; stroke-width:25px;"/><path d="M953.33333,363.5s19-15.66667,48.66667-12.33333" style="fill:none; stroke:#fec9db; stroke-linecap:round; stroke-miterlimit:10; stroke-width:24px;"/><path d="M826.83333,298.5s19.5-42.66667,61.83333-51.33333" style="fill:none; stroke:#fec9db; stroke-linecap:round; stroke-miterlimit:10; stroke-width:23px;"/></g></g></svg>