<?xml version="1.0" encoding="UTF-8"?><svg xmlns="http://www.w3.org/2000/svg" xmlns:xlink="http://www.w3.org/1999/xlink" viewBox="0 0 719.33375 1000.97894"><defs><style>.ak,.al,.am,.an,.ao,.ap,.aq,.ar,.as,.at,.au,.av,.aw,.ax,.ay,.b`,.ba,.bb,.bc,.bd,.be,.bf,.bg,.bh,.bi,.bj,.bk,.bl,.bm,.bn,.bo,.bp,.bq{stroke:#000;}.ak,.al,.am,.an,.ao,.ap,.aq,.as,.at,.au,.av,.ax,.ay,.b`,.ba,.bb,.bc,.bd,.be,.bg,.bh,.bi,.bj,.bk,.bl,.bm,.bn,.bo,.bp,.bq{stroke-linecap:round;stroke-linejoin:round;}.ak,.al,.am,.ap,.aq,.as,.ax,.ay,.ba,.bc,.bd,.be,.bh,.bo,.bp{fill:#365938;}.ak,.bq{stroke-width:.82884px;}.br{fill:url(#t);}.al,.au{stroke-width:.88092px;}.am,.ao{stroke-width:.72548px;}.an,.ao,.ar,.at,.au,.av,.aw,.b`,.bb,.bf,.bg,.bi,.bj,.bk,.bl,.bm,.bn,.bq{fill:none;}.an,.bc{stroke-width:1.11325px;}.ap,.bi{stroke-width:.84861px;}.bs{fill:url(#r);}.aq,.av{stroke-width:1.26632px;}.bt{fill:url(#y);}.bu{fill:url(#l);}.ar{stroke-width:1.11028px;}.ar,.aw,.bf{stroke-miterlimit:10;}.at,.bh{stroke-width:.63155px;}.bv{fill:url(#c);}.bw{fill:url(#u);}.bx{fill:#4f3832;}.by{fill:url(#v);}.aw{stroke-width:.72106px;}.c`{fill:url(#a`);}.ca{fill:url(#m);}.ax,.bk{stroke-width:.77793px;}.ay,.bb{stroke-width:.68212px;}.ba,.bg{stroke-width:1.09927px;}.cb{fill:url(#f);}.cc{fill:url(#ae);}.cd{fill:#42210b;}.ce{fill:url(#p);}.cf{fill:url(#g);}.bd,.bn{stroke-width:.91375px;}.be,.bj{stroke-width:1.06713px;}.cg{fill:url(#ad);}.ch{fill:url(#ab);}.bf{stroke-width:.91382px;}.ci{fill:url(#i);}.cj{fill:#925a4b;}.ck{fill:url(#h);}.cl{fill:url(#d);}.cm{fill:url(#e);}.cn{fill:url(#x);}.bl,.bo{stroke-width:1.01553px;}.co{fill:url(#aa);}.cp{fill:url(#s);}.cq{fill:url(#n);}.cr{fill:url(#ac);}.cs{fill:url(#w);}.ct{fill:url(#j);}.cu{fill:url(#o);}.cv{fill:url(#q);}.bm,.bp{stroke-width:.51401px;}.cw{fill:url(#k);}</style><linearGradient id="c" x1="579.3284" y1="680.02047" x2="654.19466" y2="703.78155" gradientTransform="translate(-213.65663 285.72499) rotate(-22.33068)" gradientUnits="userSpaceOnUse"><stop offset="0" stop-color="#365938"/><stop offset="1" stop-color="#609e64"/></linearGradient><linearGradient id="d" x1="640.84598" y1="575.25212" x2="715.71224" y2="599.0132" gradientTransform="translate(-240.93788 589.39799) rotate(-41.68707)" xlink:href="#c"/><linearGradient id="e" x1="629.24111" y1="514.81832" x2="704.10737" y2="538.5794" gradientTransform="translate(-127.60754 931.23515) rotate(-66.4148)" xlink:href="#c"/><linearGradient id="f" x1="624.66729" y1="445.49275" x2="699.53355" y2="469.25383" gradientTransform="translate(179.52677 1212.50877) rotate(-96.46138)" xlink:href="#c"/><linearGradient id="g" x1="537.6483" y1="341.0192" x2="593.36498" y2="358.70259" gradientTransform="translate(327.01914 1261.50969) rotate(-108.77707)" xlink:href="#c"/><linearGradient id="h" x1="663.69971" y1="375.30949" x2="719.41639" y2="392.99287" gradientTransform="translate(-198.70467 959.34411) rotate(-62.30229)" xlink:href="#c"/><linearGradient id="i" x1="686.60444" y1="308.69209" x2="750.60791" y2="329.00554" gradientTransform="translate(327.01914 1261.50969) rotate(-108.77707)" xlink:href="#c"/><linearGradient id="j" x1="664.34484" y1="161.11219" x2="728.34831" y2="181.42563" gradientTransform="translate(-223.16905 1130.70366) rotate(-62.75477)" xlink:href="#c"/><linearGradient id="k" x1="506.60876" y1="18.93207" x2="587.22165" y2="44.51702" gradientTransform="translate(487.32696 999.61179) rotate(-139.85138)" xlink:href="#c"/><linearGradient id="l" x1="338.6641" y1="262.67884" x2="398.12746" y2="281.55134" gradientTransform="translate(-109.1867 653.22663) rotate(-34.94454)" xlink:href="#c"/><linearGradient id="m" x1="314.23091" y1="194.77529" x2="373.69427" y2="213.64779" gradientTransform="translate(-6.4381 862.08266) rotate(-68.12196)" xlink:href="#c"/><linearGradient id="n" x1="645.61403" y1="47.61707" x2="709.6175" y2="67.93052" gradientTransform="translate(413.82301 1171.82077) rotate(-117.11035)" xlink:href="#c"/><linearGradient id="o" x1="711.03588" y1="134.82132" x2="784.15774" y2="158.02876" gradientTransform="translate(-67.31981 1217.90734) rotate(-76.66358)" xlink:href="#c"/><linearGradient id="p" x1="758.32752" y1="-110.29336" x2="870.04469" y2="-74.83653" gradientTransform="translate(779.33424 793.76886) rotate(-140.7093)" xlink:href="#c"/><linearGradient id="q" x1="761.25416" y1="15.56298" x2="855.39874" y2="45.44261" gradientTransform="translate(662.51485 900.91667) rotate(-129.62221)" xlink:href="#c"/><linearGradient id="r" x1="853.21551" y1="124.36509" x2="947.36009" y2="154.24473" gradientTransform="translate(767.94444 832.23655) rotate(-137.62273)" xlink:href="#c"/><linearGradient id="s" x1="675.72945" y1="252.16971" x2="769.87402" y2="282.04934" gradientTransform="translate(132.33129 843.55829) rotate(-92.50246)" xlink:href="#c"/><linearGradient id="t" x1="615.92036" y1="394.1575" x2="684.55128" y2="415.93961" gradientTransform="translate(-313.75535 272.19042) rotate(-35.19309)" xlink:href="#c"/><linearGradient id="u" x1="486.19675" y1="415.58029" x2="531.54391" y2="429.97259" gradientTransform="translate(-313.75535 272.19042) rotate(-35.19309)" xlink:href="#c"/><linearGradient id="v" x1="824.40979" y1="75.92091" x2="918.55436" y2="105.80054" gradientTransform="translate(747.37097 842.21548) rotate(-136.33278)" xlink:href="#c"/><linearGradient id="w" x1="413.69231" y1="277.75718" x2="507.83689" y2="307.63682" gradientTransform="translate(-156.68902 423.87859) rotate(-38.68428)" xlink:href="#c"/><linearGradient id="x" x1="410.72501" y1="845.38286" x2="508.93875" y2="876.55397" gradientTransform="translate(438.27032 -50.17682) rotate(28.58579)" xlink:href="#c"/><linearGradient id="y" x1="508.55115" y1="803.84957" x2="596.77337" y2="831.84957" gradientTransform="translate(42.1766 -26.18601) rotate(3.17477)" xlink:href="#c"/><linearGradient id="a`" x1="573.55023" y1="201.96145" x2="637.5537" y2="222.2749" gradientTransform="translate(137.15397 1315.68626) rotate(-97.88974)" xlink:href="#c"/><linearGradient id="aa" x1="899.51009" y1="309.26806" x2="989.1028" y2="337.70303" gradientTransform="translate(-578.13272 796.34989) rotate(-39.56567)" xlink:href="#c"/><linearGradient id="ab" x1="1102.86899" y1="-3.22736" x2="1180.58538" y2="21.4383" gradientTransform="translate(544.70906 1197.19563) rotate(-102.34261)" xlink:href="#c"/><linearGradient id="ac" x1="1037.4739" y1="93.94459" x2="1115.19029" y2="118.61024" gradientTransform="translate(-4.00319 1144.91447) rotate(-72.89397)" xlink:href="#c"/><linearGradient id="ad" x1="1023.68365" y1="220.01034" x2="1120.66351" y2="250.78984" gradientTransform="translate(-588.72155 166.35944) rotate(-4.81463)" xlink:href="#c"/><linearGradient id="ae" x1="567.98575" y1="288.05293" x2="631.98923" y2="308.36637" gradientTransform="translate(-229.71372 1085.24738) rotate(-59.78458)" xlink:href="#c"/></defs><g id="a"/><g id="b"><g><path d="M677.48729,689.62284c-102.386,59.35801-181.10923,16.27373-181.10923,16.27373l.00463-.01108c.81133-.88368,66.59128-72.30582,181.1046-16.26264Z" style="fill:url(#c);"/><path d="M519.18381,701.16181s14.71232,10.32217,15.91726,10.95342" style="fill:#365938; stroke:#000; stroke-linecap:round; stroke-linejoin:round; stroke-width:.84861px;"/><path d="M513.79172,702.28507s8.78092-9.35406,15.37172-12.64979" style="fill:#365938; stroke:#000; stroke-linecap:round; stroke-linejoin:round; stroke-width:.84861px;"/><path d="M559.30697,695.34421s13.10755,7.99318,16.95939,9.09384" style="fill:#365938; stroke:#000; stroke-linecap:round; stroke-linejoin:round; stroke-width:.84861px;"/><path d="M548.52771,696.58283c.38897-.37078,14.37715-13.62091,24.48033-20.09189" style="fill:#365938; stroke:#000; stroke-linecap:round; stroke-linejoin:round; stroke-width:.84861px;"/><path d="M608.8939,691.37099s17.04902,8.14297,21.55818,7.5294" style="fill:#365938; stroke:#000; stroke-linecap:round; stroke-linejoin:round; stroke-width:.84861px;"/><path d="M599.87454,691.84419s11.10124-8.67164,20.15102-12.43062" style="fill:#365938; stroke:#000; stroke-linecap:round; stroke-linejoin:round; stroke-width:.84861px;"/><path d="M640.26615,690.44405s1.30954-2.93144,10.63772-4.45693" style="fill:#365938; stroke:#000; stroke-linecap:round; stroke-linejoin:round; stroke-width:.84861px;"/><path d="M485.23942,709.28086s57.18378-19.36021,171.57143-18.94606" style="fill:none; stroke:#000; stroke-linecap:round; stroke-linejoin:round; stroke-width:.84861px;"/></g><g><path d="M709.96664,555.94928c-76.92485,89.93795-165.47825,75.38127-165.47825,75.38127l.00069-.01199c.47258-1.10264,38.86196-90.28997,165.47755-75.36928Z" style="fill:url(#d);"/><path d="M564.43575,619.30461s17.30192,4.86242,18.64798,5.05861" style="fill:#365938; stroke:#000; stroke-linecap:round; stroke-linejoin:round; stroke-width:.84861px;"/><path d="M559.72074,622.15155s5.18424-11.7357,10.31015-17.02962" style="fill:#365938; stroke:#000; stroke-linecap:round; stroke-linejoin:round; stroke-width:.84861px;"/><path d="M600.36276,600.51731s15.01594,3.19696,19.01486,2.95874" style="fill:#365938; stroke:#000; stroke-linecap:round; stroke-linejoin:round; stroke-width:.84861px;"/><path d="M590.60332,605.25862c.24409-.47874,9.04993-17.6162,16.43726-27.07004" style="fill:#365938; stroke:#000; stroke-linecap:round; stroke-linejoin:round; stroke-width:.84861px;"/><path d="M645.8299,580.33342s18.78425,2.03191,22.83517-.04151" style="fill:#365938; stroke:#000; stroke-linecap:round; stroke-linejoin:round; stroke-width:.84861px;"/><path d="M637.47719,583.76928s7.59959-11.8609,14.89195-18.4069" style="fill:#365938; stroke:#000; stroke-linecap:round; stroke-linejoin:round; stroke-width:.84861px;"/><path d="M675.12161,569.06076s.26391-3.19977,8.55921-7.7308" style="fill:#365938; stroke:#000; stroke-linecap:round; stroke-linejoin:round; stroke-width:.84861px;"/><path d="M535.10107,638.21537s47.53467-37.21905,155.59384-74.74131" style="fill:none; stroke:#000; stroke-linecap:round; stroke-linejoin:round; stroke-width:.84861px;"/></g><g><path d="M662.08403,489.53896c-32.24965,113.86934-118.77238,137.6899-118.77238,137.6899l-.00439-.01118c-.03199-1.19922-2.47035-98.26713,118.77676-137.67872Z" style="fill:url(#e);"/><path d="M556.39941,607.96151s17.74942-2.82095,19.05412-3.20581" style="fill:#365938; stroke:#000; stroke-linecap:round; stroke-linejoin:round; stroke-width:.84861px;"/><path d="M553.30765,612.51973s-.20025-12.82821,2.24116-19.7809" style="fill:#365938; stroke:#000; stroke-linecap:round; stroke-linejoin:round; stroke-width:.84861px;"/><path d="M581.17327,575.86839s14.97637-3.37745,18.50897-5.2666" style="fill:#365938; stroke:#000; stroke-linecap:round; stroke-linejoin:round; stroke-width:.84861px;"/><path d="M574.29205,584.25739c.02145-.53695,.85113-19.78654,3.60648-31.46369" style="fill:#365938; stroke:#000; stroke-linecap:round; stroke-linejoin:round; stroke-width:.84861px;"/><path d="M614.02829,538.51604s17.91181-6.01199,20.72396-9.58981" style="fill:#365938; stroke:#000; stroke-linecap:round; stroke-linejoin:round; stroke-width:.84861px;"/><path d="M607.87873,545.13085s1.94126-13.95229,5.82672-22.94849" style="fill:#365938; stroke:#000; stroke-linecap:round; stroke-linejoin:round; stroke-width:.84861px;"/><path d="M635.9187,516.02409s-1.09877-3.01677,4.54054-10.60231" style="fill:#365938; stroke:#000; stroke-linecap:round; stroke-linejoin:round; stroke-width:.84861px;"/><path d="M537.66505,637.40916s27.60704-53.69035,110.06201-132.97391" style="fill:none; stroke:#000; stroke-linecap:round; stroke-linejoin:round; stroke-width:.84861px;"/></g><g><path d="M573.56899,447.11289c29.09892,114.71494-33.86971,178.65673-33.86971,178.65673l-.0094-.00748c-.62815-1.02205-51.34112-83.82494,33.87911-178.64925Z" style="fill:url(#f);"/><path d="M541.38106,602.53836s13.95177-11.32907,14.88844-12.31548" style="fill:#365938; stroke:#000; stroke-linecap:round; stroke-linejoin:round; stroke-width:.84861px;"/><path d="M540.98708,608.0321s-6.59647-11.00407-7.96438-18.24488" style="fill:#365938; stroke:#000; stroke-linecap:round; stroke-linejoin:round; stroke-width:.84861px;"/><path d="M546.75662,562.35358s11.27273-10.42231,13.3847-13.82638" style="fill:#365938; stroke:#000; stroke-linecap:round; stroke-linejoin:round; stroke-width:.84861px;"/><path d="M545.00051,573.06071c-.25028-.47554-9.17045-17.55376-12.63215-29.04134" style="fill:#365938; stroke:#000; stroke-linecap:round; stroke-linejoin:round; stroke-width:.84861px;"/><path d="M556.49407,513.57006s12.49457-14.1726,13.13739-18.67768" style="fill:#365938; stroke:#000; stroke-linecap:round; stroke-linejoin:round; stroke-width:.84861px;"/><path d="M554.48295,522.37507s-5.30558-13.04935-6.44669-22.7821" style="fill:#365938; stroke:#000; stroke-linecap:round; stroke-linejoin:round; stroke-width:.84861px;"/><path d="M564.18101,483.14s-2.46163-2.06121-1.37824-11.45102" style="fill:#365938; stroke:#000; stroke-linecap:round; stroke-linejoin:round; stroke-width:.84861px;"/><path d="M539.90879,637.40916s-2.9858-60.29833,28.69118-170.21317" style="fill:none; stroke:#000; stroke-linecap:round; stroke-linejoin:round; stroke-width:.84861px;"/></g><g><path d="M477.5756,570.50944c39.36736,78.7889,3.73361,135.27595,3.73361,135.27595l-.00802-.00395c-.61896-.64341-50.63595-52.79838-3.72559-135.272Z" style="fill:url(#g);"/><path d="M478.84429,688.62721s8.34581-10.45195,8.87027-11.31784" style="fill:#365938; stroke:#000; stroke-linecap:round; stroke-linejoin:round; stroke-width:.63155px;"/><path d="M479.42991,692.68419s-6.54301-6.95383-8.68701-12.0014" style="fill:#365938; stroke:#000; stroke-linecap:round; stroke-linejoin:round; stroke-width:.63155px;"/><path d="M476.37388,658.55596s6.54185-9.36739,7.53708-12.1777" style="fill:#365938; stroke:#000; stroke-linecap:round; stroke-linejoin:round; stroke-width:.63155px;"/><path d="M476.79668,666.61977c-.25747-.30603-9.45422-11.30744-13.79473-19.11043" style="fill:#365938; stroke:#000; stroke-linecap:round; stroke-linejoin:round; stroke-width:.63155px;"/><path d="M475.70999,621.54024s6.83492-12.28814,6.58717-15.66578" style="fill:#365938; stroke:#000; stroke-linecap:round; stroke-linejoin:round; stroke-width:.63155px;"/><path d="M475.64544,628.26152s-5.92908-8.64585-8.30375-15.54129" style="fill:#365938; stroke:#000; stroke-linecap:round; stroke-linejoin:round; stroke-width:.63155px;"/><path d="M476.46863,598.19463s-2.11702-1.10793-2.81984-8.10714" style="fill:#365938; stroke:#000; stroke-linecap:round; stroke-linejoin:round; stroke-width:.63155px;"/><path d="M483.30921,714.21512s-11.74269-43.36833-6.15855-128.31468" style="fill:none; stroke:#000; stroke-linecap:round; stroke-linejoin:round; stroke-width:.63155px;"/></g><g><path d="M494.95465,496.9654c-30.0163,82.80399-95.51347,95.86814-95.51347,95.86814l-.00266-.00854c.04026-.89189,3.41093-73.07554,95.51613-95.85961Z" style="fill:url(#h);"/><path d="M410.18456,579.22991s13.32595-1.14667,14.31497-1.36272" style="fill:#365938; stroke:#000; stroke-linecap:round; stroke-linejoin:round; stroke-width:.63155px;"/><path d="M407.64626,582.44846s.53602-9.53307,2.71936-14.56375" style="fill:#365938; stroke:#000; stroke-linecap:round; stroke-linejoin:round; stroke-width:.63155px;"/><path d="M430.28706,556.7294s11.29722-1.70777,14.02029-2.92154" style="fill:#365938; stroke:#000; stroke-linecap:round; stroke-linejoin:round; stroke-width:.63155px;"/><path d="M424.73139,562.58929c.04458-.39743,1.68783-14.64212,4.35636-23.16301" style="fill:#365938; stroke:#000; stroke-linecap:round; stroke-linejoin:round; stroke-width:.63155px;"/><path d="M456.66889,530.75628s13.61681-3.50672,15.89522-6.01244" style="fill:#365938; stroke:#000; stroke-linecap:round; stroke-linejoin:round; stroke-width:.63155px;"/><path d="M451.75102,535.33824s2.18565-10.25317,5.54997-16.72369" style="fill:#365938; stroke:#000; stroke-linecap:round; stroke-linejoin:round; stroke-width:.63155px;"/><path d="M474.11857,515.22883s-.65461-2.29799,3.9363-7.62776" style="fill:#365938; stroke:#000; stroke-linecap:round; stroke-linejoin:round; stroke-width:.63155px;"/><path d="M394.70637,600.08901s23.35825-38.38092,88.79606-92.83235" style="fill:none; stroke:#000; stroke-linecap:round; stroke-linejoin:round; stroke-width:.63155px;"/></g><g><path d="M399.13336,429.14877c45.2225,90.50724,4.28892,155.39566,4.28892,155.39566l-.00921-.00454c-.71102-.7391-58.16708-60.65112-4.2797-155.39112Z" style="fill:url(#i);"/><path d="M400.59074,564.83429s9.58709-12.00648,10.18956-13.00116" style="fill:#365938; stroke:#000; stroke-linecap:round; stroke-linejoin:round; stroke-width:.72548px;"/><path d="M401.26346,569.49467s-7.51616-7.98807-9.97904-13.78638" style="fill:#365938; stroke:#000; stroke-linecap:round; stroke-linejoin:round; stroke-width:.72548px;"/><path d="M397.75291,530.29052s7.51482-10.76061,8.65808-13.9889" style="fill:#365938; stroke:#000; stroke-linecap:round; stroke-linejoin:round; stroke-width:.72548px;"/><path d="M398.23859,539.55366c-.29576-.35154-10.86035-12.98921-15.84643-21.95274" style="fill:#365938; stroke:#000; stroke-linecap:round; stroke-linejoin:round; stroke-width:.72548px;"/><path d="M396.99028,487.76942s7.85148-14.11576,7.56689-17.99576" style="fill:#365938; stroke:#000; stroke-linecap:round; stroke-linejoin:round; stroke-width:.72548px;"/><path d="M396.91612,495.49036s-6.81092-9.93175-9.53877-17.85276" style="fill:#365938; stroke:#000; stroke-linecap:round; stroke-linejoin:round; stroke-width:.72548px;"/><path d="M397.86174,460.9516s-2.43189-1.27271-3.23924-9.31292" style="fill:#365938; stroke:#000; stroke-linecap:round; stroke-linejoin:round; stroke-width:.72548px;"/><path d="M405.71973,594.22791s-13.48919-49.81854-7.07451-147.39903" style="fill:none; stroke:#000; stroke-linecap:round; stroke-linejoin:round; stroke-width:.72548px;"/></g><g><path d="M284.48367,556.85229c-33.7284,95.38884-108.84615,110.98973-108.84615,110.98973l-.00313-.00978c.03815-1.02488,3.25519-83.97245,108.84928-110.97995Z" style="fill:url(#j);"/><path d="M187.85498,652.11814s15.29705-1.43807,16.43117-1.69521" style="fill:#365938; stroke:#000; stroke-linecap:round; stroke-linejoin:round; stroke-width:.72548px;"/><path d="M184.96844,655.8383s.52924-10.95545,2.99159-16.75398" style="fill:#365938; stroke:#000; stroke-linecap:round; stroke-linejoin:round; stroke-width:.72548px;"/><path d="M210.7425,626.08955s12.96157-2.06419,16.07854-3.48315" style="fill:#365938; stroke:#000; stroke-linecap:round; stroke-linejoin:round; stroke-width:.72548px;"/><path d="M204.41389,632.87118c.04761-.45693,1.80597-16.83464,4.794-26.64676" style="fill:#365938; stroke:#000; stroke-linecap:round; stroke-linejoin:round; stroke-width:.72548px;"/><path d="M240.81155,596.01502s15.60974-4.15168,18.20421-7.05066" style="fill:#365938; stroke:#000; stroke-linecap:round; stroke-linejoin:round; stroke-width:.72548px;"/><path d="M235.20399,601.32291s2.41763-11.7976,6.22351-19.26076" style="fill:#365938; stroke:#000; stroke-linecap:round; stroke-linejoin:round; stroke-width:.72548px;"/><path d="M260.71505,578.02043s-.7728-2.63375,4.45241-8.79768" style="fill:#365938; stroke:#000; stroke-linecap:round; stroke-linejoin:round; stroke-width:.72548px;"/><path d="M170.26449,676.2193s26.48332-44.29987,101.15744-107.44159" style="fill:none; stroke:#000; stroke-linecap:round; stroke-linejoin:round; stroke-width:.72548px;"/></g><g><path d="M59.30738,568.46658c107.62277,68.23731,105.64857,164.84747,105.64857,164.84747l-.01289,.00109c-1.24751-.33509-102.17766-27.61433-105.63568-164.84856Z" style="fill:url(#k);"/><path d="M149.08794,713.89218s2.5369-19.1847,2.54018-20.64939" style="fill:#365938; stroke:#000; stroke-linecap:round; stroke-linejoin:round; stroke-width:.91375px;"/><path d="M152.84333,718.48231s-13.30118-3.73106-19.7275-8.38497" style="fill:#365938; stroke:#000; stroke-linecap:round; stroke-linejoin:round; stroke-width:.91375px;"/><path d="M123.56987,678.47236s1.11133-16.49353,.24594-20.71933" style="fill:#365938; stroke:#000; stroke-linecap:round; stroke-linejoin:round; stroke-width:.91375px;"/><path d="M130.11572,688.1494c-.54759-.18696-20.16-6.95208-31.36595-13.38022" style="fill:#365938; stroke:#000; stroke-linecap:round; stroke-linejoin:round; stroke-width:.91375px;"/><path d="M95.10444,633.09779s-.70666-20.33182-3.53604-24.33242" style="fill:#365938; stroke:#000; stroke-linecap:round; stroke-linejoin:round; stroke-width:.91375px;"/><path d="M100.04378,641.47509s-13.80397-6.2863-21.89608-13.05786" style="fill:#365938; stroke:#000; stroke-linecap:round; stroke-linejoin:round; stroke-width:.91375px;"/><path d="M78.61044,603.60108s-3.45082,.208-9.54866-7.94066" style="fill:#365938; stroke:#000; stroke-linecap:round; stroke-linejoin:round; stroke-width:.91375px;"/><path d="M173.72955,742.26671s-46.93843-44.97334-103.45502-154.41008" style="fill:none; stroke:#000; stroke-linecap:round; stroke-linejoin:round; stroke-width:.91375px;"/></g><g><path d="M391.6027,649.06911c-69.55233,71.08994-134.67092,53.26119-134.67092,53.26119l.00204-.01008c.49692-.90102,40.81498-73.76971,134.66888-53.25111Z" style="fill:url(#l);"/><path d="M273.53755,693.42938s12.46766,5.18683,13.46067,5.43667" style="fill:#365938; stroke:#000; stroke-linecap:round; stroke-linejoin:round; stroke-width:.68212px;"/><path d="M269.61185,695.53698s5.40565-9.5801,9.95179-13.72716" style="fill:#365938; stroke:#000; stroke-linecap:round; stroke-linejoin:round; stroke-width:.68212px;"/><path d="M303.08246,679.82236s10.94989,3.63812,14.00389,3.6874" style="fill:#365938; stroke:#000; stroke-linecap:round; stroke-linejoin:round; stroke-width:.68212px;"/><path d="M295.10254,683.21298c.24518-.38877,9.0731-14.30111,15.85582-21.81747" style="fill:#365938; stroke:#000; stroke-linecap:round; stroke-linejoin:round; stroke-width:.68212px;"/><path d="M340.01808,665.63384s13.94684,2.89074,17.27246,1.39441" style="fill:#365938; stroke:#000; stroke-linecap:round; stroke-linejoin:round; stroke-width:.68212px;"/><path d="M333.26713,668.01076s7.24791-9.53457,13.59073-14.60273" style="fill:#365938; stroke:#000; stroke-linecap:round; stroke-linejoin:round; stroke-width:.68212px;"/><path d="M363.59439,657.95362s.60459-2.68401,7.45075-5.98881" style="fill:#365938; stroke:#000; stroke-linecap:round; stroke-linejoin:round; stroke-width:.68212px;"/><path d="M248.96192,707.55328s40.65532-28.43633,127.11565-53.33983" style="fill:none; stroke:#000; stroke-linecap:round; stroke-linejoin:round; stroke-width:.68212px;"/></g><g><path d="M338.31982,581.92465c-19.31112,97.56222-83.57057,118.27498-83.57057,118.27498l-.00381-.00955c-.07715-1.02607-6.20793-84.0791,83.57437-118.26543Z" style="fill:url(#m);"/><path d="M263.77707,683.66251s13.27359-2.48145,14.24144-2.81575" style="fill:#365938; stroke:#000; stroke-linecap:round; stroke-linejoin:round; stroke-width:.68212px;"/><path d="M261.64469,687.5748s-.71813-10.97651,.81749-16.93531" style="fill:#365938; stroke:#000; stroke-linecap:round; stroke-linejoin:round; stroke-width:.68212px;"/><path d="M281.05935,656.10574s11.15574-2.94711,13.73885-4.57712" style="fill:#365938; stroke:#000; stroke-linecap:round; stroke-linejoin:round; stroke-width:.68212px;"/><path d="M276.23578,663.3105c-.00754-.45956-.23204-16.93485,1.33176-26.93762" style="fill:#365938; stroke:#000; stroke-linecap:round; stroke-linejoin:round; stroke-width:.68212px;"/><path d="M304.20929,624.01783s13.25513-5.21269,15.21977-8.28498" style="fill:#365938; stroke:#000; stroke-linecap:round; stroke-linejoin:round; stroke-width:.68212px;"/><path d="M299.85961,629.7016s.84871-11.94654,3.38407-19.6595" style="fill:#365938; stroke:#000; stroke-linecap:round; stroke-linejoin:round; stroke-width:.68212px;"/><path d="M319.73933,604.68789s-.96275-2.57731,2.95886-9.08981" style="fill:#365938; stroke:#000; stroke-linecap:round; stroke-linejoin:round; stroke-width:.68212px;"/><path d="M250.93682,708.93253s18.46638-46.04859,77.20392-114.20631" style="fill:none; stroke:#000; stroke-linecap:round; stroke-linejoin:round; stroke-width:.68212px;"/></g><g><path d="M150.82967,493.25671c57.86233,82.9975,26.76528,153.13336,26.76528,153.13336l-.00977-.00315c-.81063-.62825-66.34317-51.58054-26.7555-153.1302Z" style="fill:url(#n);"/><path d="M171.9367,627.29841s7.74576-13.26917,8.1977-14.34067" style="fill:#365938; stroke:#000; stroke-linecap:round; stroke-linejoin:round; stroke-width:.72548px;"/><path d="M173.27775,631.81209s-8.59452-6.81441-11.87175-12.19455" style="fill:#365938; stroke:#000; stroke-linecap:round; stroke-linejoin:round; stroke-width:.72548px;"/><path d="M164.12237,593.53065s5.87593-11.73612,6.53924-15.09603" style="fill:#365938; stroke:#000; stroke-linecap:round; stroke-linejoin:round; stroke-width:.72548px;"/><path d="M165.94544,602.6256c-.34358-.30497-12.62822-11.27807-18.86075-19.42432" style="fill:#365938; stroke:#000; stroke-linecap:round; stroke-linejoin:round; stroke-width:.72548px;"/><path d="M157.20517,551.56902s5.72277-15.10465,4.87885-18.90244" style="fill:#365938; stroke:#000; stroke-linecap:round; stroke-linejoin:round; stroke-width:.72548px;"/><path d="M158.2508,559.21919s-8.17843-8.83978-12.02547-16.2818" style="fill:#365938; stroke:#000; stroke-linecap:round; stroke-linejoin:round; stroke-width:.72548px;"/><path d="M154.1807,524.90805s-2.59067-.90682-4.55477-8.74512" style="fill:#365938; stroke:#000; stroke-linecap:round; stroke-linejoin:round; stroke-width:.72548px;"/><path d="M181.27158,655.63834s-20.56701-47.33754-28.3625-144.81744" style="fill:none; stroke:#000; stroke-linecap:round; stroke-linejoin:round; stroke-width:.72548px;"/></g><g><path d="M279.08069,477.41449c-11.20779,115.0459-90.22671,152.97588-90.22671,152.97588l-.00616-.00999c-.23915-1.14703-19.45086-94.01683,90.23287-152.96589Z" style="fill:url(#o);"/><path d="M198.08462,609.59786s16.56903-5.7957,17.75612-6.39232" style="fill:#365938; stroke:#000; stroke-linecap:round; stroke-linejoin:round; stroke-width:.82884px;"/><path d="M195.90518,614.51612s-2.42171-12.2946-1.28345-19.40121" style="fill:#365938; stroke:#000; stroke-linecap:round; stroke-linejoin:round; stroke-width:.82884px;"/><path d="M216.31813,574.44752s13.80711-5.84867,16.87405-8.27824" style="fill:#365938; stroke:#000; stroke-linecap:round; stroke-linejoin:round; stroke-width:.82884px;"/><path d="M211.16229,583.70612c-.07269-.5198-2.62041-19.16507-2.00142-30.86698" style="fill:#365938; stroke:#000; stroke-linecap:round; stroke-linejoin:round; stroke-width:.82884px;"/><path d="M241.40464,532.83813s16.17058-8.89088,18.25164-12.81827" style="fill:#365938; stroke:#000; stroke-linecap:round; stroke-linejoin:round; stroke-width:.82884px;"/><path d="M236.64369,540.26438s-.55881-13.74711,1.61223-23.06871" style="fill:#365938; stroke:#000; stroke-linecap:round; stroke-linejoin:round; stroke-width:.82884px;"/><path d="M258.53528,507.41672s-1.5803-2.70852,2.52155-10.97909" style="fill:#365938; stroke:#000; stroke-linecap:round; stroke-linejoin:round; stroke-width:.82884px;"/><path d="M185.19604,641.15607s17.20343-56.40013,82.67457-146.9296" style="fill:none; stroke:#000; stroke-linecap:round; stroke-linejoin:round; stroke-width:.82884px;"/></g><g><path d="M47.29555,275.26501c150.54796,92.32273,149.81701,226.23562,149.81701,226.23562l-.01784,.00178c-1.73562-.43845-142.15979-36.14475-149.79917-226.2374Z" style="fill:url(#p);"/><path d="M174.72138,474.91716s3.11727-26.63673,3.09143-28.66641" style="fill:#365938; stroke:#000; stroke-linecap:round; stroke-linejoin:round; stroke-width:1.26632px;"/><path d="M180.02044,481.19975s-18.50877-4.89409-27.51023-11.20964" style="fill:#365938; stroke:#000; stroke-linecap:round; stroke-linejoin:round; stroke-width:1.26632px;"/><path d="M138.62622,426.3657s1.19772-22.87801-.08913-28.71572" style="fill:#365938; stroke:#000; stroke-linecap:round; stroke-linejoin:round; stroke-width:1.26632px;"/><path d="M147.89756,439.63927c-.76267-.24771-28.07981-9.21511-43.7412-17.89002" style="fill:#365938; stroke:#000; stroke-linecap:round; stroke-linejoin:round; stroke-width:1.26632px;"/><path d="M98.24038,364.08118s-1.4011-28.15898-5.40476-33.64387" style="fill:#365938; stroke:#000; stroke-linecap:round; stroke-linejoin:round; stroke-width:1.26632px;"/><path d="M105.25861,375.58705s-19.25849-8.42444-30.61218-17.63983" style="fill:#365938; stroke:#000; stroke-linecap:round; stroke-linejoin:round; stroke-width:1.26632px;"/><path d="M74.77271,323.55008s-4.77746,.35983-13.39627-10.80517" style="fill:#365938; stroke:#000; stroke-linecap:round; stroke-linejoin:round; stroke-width:1.26632px;"/><path d="M209.45583,513.72422s-65.97542-61.34522-146.56084-211.81813" style="fill:none; stroke:#000; stroke-linecap:round; stroke-linejoin:round; stroke-width:1.26632px;"/></g><g><path d="M146.80611,190.16676c109.53845,100.74543,87.23301,211.36979,87.23301,211.36979l-.01504-.00142c-1.36427-.64385-111.70543-52.92825-87.21797-211.36837Z" style="fill:url(#q);"/><path d="M219.83006,375.92409s6.89447-21.52279,7.20201-23.20547" style="fill:#365938; stroke:#000; stroke-linecap:round; stroke-linejoin:round; stroke-width:1.06713px;"/><path d="M223.19415,381.97836s-14.51321-7.0467-20.93376-13.72822" style="fill:#365938; stroke:#000; stroke-linecap:round; stroke-linejoin:round; stroke-width:1.06713px;"/><path d="M197.84812,329.92385s4.69793-18.72548,4.57975-23.76166" style="fill:#365938; stroke:#000; stroke-linecap:round; stroke-linejoin:round; stroke-width:1.06713px;"/><path d="M203.36428,342.40323c-.59057-.32844-21.728-12.17109-33.27381-21.883" style="fill:#365938; stroke:#000; stroke-linecap:round; stroke-linejoin:round; stroke-width:1.06713px;"/><path d="M174.54336,271.87139s3.40456-23.51386,.98247-28.69854" style="fill:#365938; stroke:#000; stroke-linecap:round; stroke-linejoin:round; stroke-width:1.06713px;"/><path d="M178.48272,282.52379s-14.56111-10.08771-22.45697-19.54851" style="fill:#365938; stroke:#000; stroke-linecap:round; stroke-linejoin:round; stroke-width:1.06713px;"/><path d="M161.70433,234.55012s-4.00916-.47663-9.32739-11.10652" style="fill:#365938; stroke:#000; stroke-linecap:round; stroke-linejoin:round; stroke-width:1.06713px;"/><path d="M242.26584,413.64542s-44.61895-61.42255-86.87663-198.91919" style="fill:none; stroke:#000; stroke-linecap:round; stroke-linejoin:round; stroke-width:1.06713px;"/></g><g><path d="M163.73125,57.82451c122.49425,84.51907,115.80284,197.17121,115.80284,197.17121l-.01509,.00069c-1.4406-.4477-117.98484-36.8657-115.78775-197.1719Z" style="fill:url(#r);"/><path d="M261.89854,231.6102s3.83178-22.27289,3.90212-23.98199" style="fill:#365938; stroke:#000; stroke-linecap:round; stroke-linejoin:round; stroke-width:1.06713px;"/><path d="M266.07253,237.13733s-15.35272-4.95813-22.64073-10.681" style="fill:#365938; stroke:#000; stroke-linecap:round; stroke-linejoin:round; stroke-width:1.06713px;"/><path d="M233.72815,189.11719s2.04596-19.19709,1.22798-24.16781" style="fill:#365938; stroke:#000; stroke-linecap:round; stroke-linejoin:round; stroke-width:1.06713px;"/><path d="M240.92752,200.70735c-.63053-.24305-23.21052-9.02848-35.99567-17.03889" style="fill:#365938; stroke:#000; stroke-linecap:round; stroke-linejoin:round; stroke-width:1.06713px;"/><path d="M202.57035,134.87336s.09872-23.75885-3.02141-28.55596" style="fill:#365938; stroke:#000; stroke-linecap:round; stroke-linejoin:round; stroke-width:1.06713px;"/><path d="M207.95399,144.8738s-15.82341-7.96288-24.95919-16.23264" style="fill:#365938; stroke:#000; stroke-linecap:round; stroke-linejoin:round; stroke-width:1.06713px;"/><path d="M184.66184,99.70231s-4.03647,.08601-10.78243-9.70022" style="fill:#365938; stroke:#000; stroke-linecap:round; stroke-linejoin:round; stroke-width:1.06713px;"/><path d="M289.36608,265.84172s-52.73358-54.61456-113.71703-184.8914" style="fill:none; stroke:#000; stroke-linecap:round; stroke-linejoin:round; stroke-width:1.06713px;"/></g><g><path d="M390.15817,40.71436c26.54519,146.43657-58.00053,221.18482-58.00053,221.18482l-.01114-.01021c-.69928-1.3367-57.12994-109.61603,58.01166-221.17461Z" style="fill:url(#s);"/><path d="M336.28436,232.9015s18.48611-13.00106,19.74681-14.15719" style="fill:#365938; stroke:#000; stroke-linecap:round; stroke-linejoin:round; stroke-width:1.06713px;"/><path d="M335.31316,239.7592s-7.31992-14.37734-8.40733-23.57971" style="fill:#365938; stroke:#000; stroke-linecap:round; stroke-linejoin:round; stroke-width:1.06713px;"/><path d="M346.51684,182.95629s15.04653-12.09613,17.99154-16.18318" style="fill:#365938; stroke:#000; stroke-linecap:round; stroke-linejoin:round; stroke-width:1.06713px;"/><path d="M343.38421,196.23595c-.2727-.61829-9.98034-22.81741-13.32572-37.52915" style="fill:#365938; stroke:#000; stroke-linecap:round; stroke-linejoin:round; stroke-width:1.06713px;"/><path d="M362.96785,122.60262s16.90493-16.69479,18.10248-22.29062" style="fill:#365938; stroke:#000; stroke-linecap:round; stroke-linejoin:round; stroke-width:1.06713px;"/><path d="M359.68045,133.47393s-5.52292-16.83108-6.10946-29.13991" style="fill:#365938; stroke:#000; stroke-linecap:round; stroke-linejoin:round; stroke-width:1.06713px;"/><path d="M375.25306,85.09541s-2.90917-2.79951-.73484-14.48499" style="fill:#365938; stroke:#000; stroke-linecap:round; stroke-linejoin:round; stroke-width:1.06713px;"/><path d="M331.40994,276.51919s1.48938-75.90364,50.77097-211.04194" style="fill:none; stroke:#000; stroke-linecap:round; stroke-linejoin:round; stroke-width:1.06713px;"/></g><g><path d="M502.31643,215.07789c-79.3903,73.94283-158.53833,51.50299-158.53833,51.50299l.00188-.01085c.54476-.95533,44.75791-78.2098,158.53645-51.49214Z" style="fill:url(#t);"/><path d="M363.19362,257.6954s15.25501,6.22269,16.4607,6.54095" style="fill:#365938; stroke:#000; stroke-linecap:round; stroke-linejoin:round; stroke-width:.77793px;"/><path d="M358.60388,259.79965s5.93872-10.15175,11.15643-14.44217" style="fill:#365938; stroke:#000; stroke-linecap:round; stroke-linejoin:round; stroke-width:.77793px;"/><path d="M397.86494,244.30822s13.34554,4.46873,17.01258,4.66636" style="fill:#365938; stroke:#000; stroke-linecap:round; stroke-linejoin:round; stroke-width:.77793px;"/><path d="M388.48416,247.6149c.27196-.41075,10.06939-15.1071,17.77818-22.95205" style="fill:#365938; stroke:#000; stroke-linecap:round; stroke-linejoin:round; stroke-width:.77793px;"/><path d="M441.37051,230.63809s16.89863,3.79826,20.80331,2.32973" style="fill:#365938; stroke:#000; stroke-linecap:round; stroke-linejoin:round; stroke-width:.77793px;"/><path d="M433.40637,232.90158s8.15168-10.01537,15.47247-15.2216" style="fill:#365938; stroke:#000; stroke-linecap:round; stroke-linejoin:round; stroke-width:.77793px;"/><path d="M469.21908,223.40754s.57213-2.88709,8.59753-6.15405" style="fill:#365938; stroke:#000; stroke-linecap:round; stroke-linejoin:round; stroke-width:.77793px;"/><path d="M334.51401,271.87853s47.15494-28.97194,149.46895-51.94491" style="fill:none; stroke:#000; stroke-linecap:round; stroke-linejoin:round; stroke-width:.77793px;"/></g><g><path d="M379.62176,315.5754c-52.45631,48.85695-104.75254,34.03006-104.75254,34.03006l.00124-.00717c.35995-.63122,29.57332-51.67631,104.7513-34.02289Z" style="fill:url(#u);"/><path d="M287.69783,343.73447s10.07959,4.11158,10.87623,4.32187" style="fill:#365938; stroke:#000; stroke-linecap:round; stroke-linejoin:round; stroke-width:.51401px;"/><path d="M284.6652,345.12483s3.92395-6.70766,7.37149-9.54251" style="fill:#365938; stroke:#000; stroke-linecap:round; stroke-linejoin:round; stroke-width:.51401px;"/><path d="M310.60654,334.88903s8.81792,2.95267,11.24088,3.08325" style="fill:#365938; stroke:#000; stroke-linecap:round; stroke-linejoin:round; stroke-width:.51401px;"/><path d="M304.40828,337.07389c.1797-.2714,6.65325-9.98186,11.74675-15.16533" style="fill:#365938; stroke:#000; stroke-linecap:round; stroke-linejoin:round; stroke-width:.51401px;"/><path d="M339.35238,325.85663s11.16559,2.50966,13.74557,1.53934" style="fill:#365938; stroke:#000; stroke-linecap:round; stroke-linejoin:round; stroke-width:.51401px;"/><path d="M334.09016,327.35221s5.38614-6.61755,10.22328-10.05751" style="fill:#365938; stroke:#000; stroke-linecap:round; stroke-linejoin:round; stroke-width:.51401px;"/><path d="M357.75303,321.07912s.37803-1.90762,5.68073-4.06622" style="fill:#365938; stroke:#000; stroke-linecap:round; stroke-linejoin:round; stroke-width:.51401px;"/><path d="M268.74807,353.10582s31.15713-19.1429,98.76004-34.32205" style="fill:none; stroke:#000; stroke-linecap:round; stroke-linejoin:round; stroke-width:.51401px;"/></g><g><path d="M148.13217,109.32984c120.56053,87.25523,111.33479,199.72819,111.33479,199.72819l-.0151,.00035c-1.43016-.48002-117.12503-39.51242-111.31969-199.72854Z" style="fill:url(#v);"/><path d="M242.36234,285.28143s4.33221-22.18098,4.44102-23.88807" style="fill:#365938; stroke:#000; stroke-linecap:round; stroke-linejoin:round; stroke-width:1.06713px;"/><path d="M246.41085,290.90112s-15.23722-5.30249-22.39454-11.18798" style="fill:#365938; stroke:#000; stroke-linecap:round; stroke-linejoin:round; stroke-width:1.06713px;"/><path d="M215.15568,242.16501s2.4776-19.14617,1.77173-24.13404" style="fill:#365938; stroke:#000; stroke-linecap:round; stroke-linejoin:round; stroke-width:1.06713px;"/><path d="M222.09231,253.91431c-.6249-.25718-23.00139-9.54871-35.60297-17.84491" style="fill:#365938; stroke:#000; stroke-linecap:round; stroke-linejoin:round; stroke-width:1.06713px;"/><path d="M185.22691,187.23351s.63355-23.75061-2.3778-28.61674" style="fill:#365938; stroke:#000; stroke-linecap:round; stroke-linejoin:round; stroke-width:1.06713px;"/><path d="M190.38406,197.35261s-15.64014-8.31708-24.58744-16.7904" style="fill:#365938; stroke:#000; stroke-linecap:round; stroke-linejoin:round; stroke-width:1.06713px;"/><path d="M168.1147,151.66822s-4.03739-.00488-10.56133-9.94049" style="fill:#365938; stroke:#000; stroke-linecap:round; stroke-linejoin:round; stroke-width:1.06713px;"/><path d="M269.0523,320.12262s-51.49074-55.78785-109.52596-187.40453" style="fill:none; stroke:#000; stroke-linecap:round; stroke-linejoin:round; stroke-width:1.06713px;"/></g><g><path d="M454.9788,341.77867c-102.52499,107.87466-212.76939,83.76138-212.76939,83.76138l.00166-.01501c.66609-1.35354,54.74968-110.82408,212.76773-83.74637Z" style="fill:url(#w);"/><path d="M268.05102,411.75216s21.40705,7.24585,23.08447,7.5809" style="fill:#365938; stroke:#000; stroke-linecap:round; stroke-linejoin:round; stroke-width:1.06713px;"/><path d="M261.94249,415.01669s7.28332-14.39592,14.06905-20.70623" style="fill:#365938; stroke:#000; stroke-linecap:round; stroke-linejoin:round; stroke-width:1.06713px;"/><path d="M314.40492,390.52614s18.64607,5.00382,23.68351,4.9681" style="fill:#365938; stroke:#000; stroke-linecap:round; stroke-linejoin:round; stroke-width:1.06713px;"/><path d="M301.83692,395.83728c.33807-.58511,12.52513-21.52586,22.42474-32.91114" style="fill:#365938; stroke:#000; stroke-linecap:round; stroke-linejoin:round; stroke-width:1.06713px;"/><path d="M372.83109,368.17477s23.45498,3.78901,28.67862,1.45211" style="fill:#365938; stroke:#000; stroke-linecap:round; stroke-linejoin:round; stroke-width:1.06713px;"/><path d="M362.11562,371.93923s10.32471-14.39403,19.91349-22.13397" style="fill:#365938; stroke:#000; stroke-linecap:round; stroke-linejoin:round; stroke-width:1.06713px;"/><path d="M410.35752,355.94838s.54219-4.00082,11.25772-9.14433" style="fill:#365938; stroke:#000; stroke-linecap:round; stroke-linejoin:round; stroke-width:1.06713px;"/><path d="M229.96749,433.56747s62.1447-43.60754,200.31463-83.60886" style="fill:none; stroke:#000; stroke-linecap:round; stroke-linejoin:round; stroke-width:1.06713px;"/></g><g><path d="M479.66655,983.19355c-145.12386-55.16672-166.36026-170.96391-166.36026-170.96391l.01512-.00445c1.57088,.09532,128.70412,8.00835,166.34514,170.96836Z" style="fill:url(#x);"/><path d="M336.98949,831.53675s1.65696,23.51862,2.01073,25.26769" style="fill:#365938; stroke:#000; stroke-linecap:round; stroke-linejoin:round; stroke-width:1.11325px;"/><path d="M331.38607,826.97501s16.7876,1.2052,25.59465,5.19082" style="fill:#365938; stroke:#000; stroke-linecap:round; stroke-linejoin:round; stroke-width:1.11325px;"/><path d="M376.09792,867.58261s2.70133,19.95827,4.76624,24.79091" style="fill:#365938; stroke:#000; stroke-linecap:round; stroke-linejoin:round; stroke-width:1.11325px;"/><path d="M365.92152,857.63052c.69927,.08943,25.76096,3.37488,40.70632,8.31102" style="fill:#365938; stroke:#000; stroke-linecap:round; stroke-linejoin:round; stroke-width:1.11325px;"/><path d="M421.15537,914.79081s5.80864,24.09574,10.16279,28.17995" style="fill:#365938; stroke:#000; stroke-linecap:round; stroke-linejoin:round; stroke-width:1.11325px;"/><path d="M413.21392,905.99778s18.01174,4.13239,29.32425,10.23886" style="fill:#365938; stroke:#000; stroke-linecap:round; stroke-linejoin:round; stroke-width:1.11325px;"/><path d="M448.0461,945.9705s4.06815-1.09098,13.33655,7.14622" style="fill:#365938; stroke:#000; stroke-linecap:round; stroke-linejoin:round; stroke-width:1.11325px;"/><path d="M300.64772,803.6862s67.00907,42.21806,161.19313,159.04139" style="fill:none; stroke:#000; stroke-linecap:round; stroke-linejoin:round; stroke-width:1.11325px;"/></g><g><path d="M611.01439,848.42898c-139.01236,11.17843-200.87734-74.58943-200.87734-74.58943l.01055-.00944c1.31129-.52816,107.51259-43.11191,200.86679,74.59887Z" style="fill:url(#y);"/><path d="M436.79472,780.37583s10.40975,18.44345,11.37098,19.72622" style="fill:#365938; stroke:#000; stroke-linecap:round; stroke-linejoin:round;"/><path d="M430.48997,778.83447s14.08539-5.49301,22.76737-5.65393" style="fill:#365938; stroke:#000; stroke-linecap:round; stroke-linejoin:round;"/><path d="M482.41989,794.54757s9.88476,15.15216,13.42292,18.27725" style="fill:#365938; stroke:#000; stroke-linecap:round; stroke-linejoin:round;"/><path d="M470.32705,790.39536c.60183-.19697,22.20235-7.19143,36.23112-8.94718" style="fill:#365938; stroke:#000; stroke-linecap:round; stroke-linejoin:round;"/><path d="M537.17444,815.48295s14.00073,17.31142,19.10781,18.94687" style="fill:#365938; stroke:#000; stroke-linecap:round; stroke-linejoin:round;"/><path d="M527.34173,811.40968s16.2069-3.58984,27.73922-2.99574" style="fill:#365938; stroke:#000; stroke-linecap:round; stroke-linejoin:round;"/><path d="M571.01094,830.41584s2.88022-2.45327,13.57533,.65754" style="fill:#365938; stroke:#000; stroke-linecap:round; stroke-linejoin:round;"/><path d="M396.57324,771.78703s70.64181,8.42521,192.08934,66.90763" style="fill:none; stroke:#000; stroke-linecap:round; stroke-linejoin:round;"/></g><path d="M96.51164,957.84876c.84394-2.00092,2.43174-5.10272,3.44364-7.08063,10.90923-20.68908,24.93124-39.56461,39.81646-57.48804,30.50675-35.94251,66.26026-67.65589,104.44605-95.21498l5.84878-4.24814,2.92773-2.1167c1.41319-.76935,2.82686-.68448,4.6072,.11518,.30355,1.92379,.04839,3.35428-1.0624,4.54504-6.2513,5.31493-12.99758,10.83443-19.17417,16.17624-14.0385,12.59287-28.49598,25.75191-41.49961,39.32184-16.42943,16.75292-32.36775,34.97424-46.56659,53.64108-13.29895,17.70511-25.85008,36.20668-35.54844,56.10129l-.6825,1.49393-.33441,.73438c-1.58412,4.84585-6.96317,7.51426-11.70989,5.45267-4.42488-1.88158-6.45847-7.03691-4.51185-11.43314h0Z" style="fill:#42210b;"/><path d="M242.30809,798.54877c101.96782-1.04735,208.00085-43.18358,269.25194-127.22885,8.70784-11.8815,16.50911-24.43631,23.42598-37.47489,.91486-1.75329,3.08863-2.42858,4.83557-1.5,1.72327,.91418,2.38867,3.04254,1.50672,4.77417-6.86182,13.45245-14.6532,26.45459-23.40344,38.80231-43.82749,62.40246-112.61867,103.89537-185.79182,122.66905-29.4317,7.57319-59.67416,12.48517-90.12679,12.82508-8.5846-.39345-8.40962-12.83299,.30186-12.86686h0Z" style="fill:#42210b;"/><path d="M151.15513,884.41065c-1.57346-1.65046-2.42665-4.0009-2.47314-6.25476-.01866-.52134-.03579-1.27483-.0329-1.79752,.0839-5.19572,.39887-10.72105,.7298-15.85889,11.48004-146.81575,45.78481-407.2424,128.98547-526.40186,.83298-1.17469,2.46453-1.45007,3.63482-.61095,1.15839,.82959,1.43024,2.43704,.61597,3.60168-81.19807,118.31148-113.88874,386.79109-122.38111,532.73787l-.12243,4.33254-.01636,2.12421c.00197,.49999,.0114,.95814,.04424,1.40515l.00569,.08429c.00079-.01135-.00018-.02271-.00281-.03375-.10027-.44177-.34172-.92887-.68122-1.23942,5.03586,5.57646-2.83845,13.27115-8.30602,7.91142h0Z" style="fill:#42210b;"/><path d="M243.93584,793.74597c8.03685-6.19385,15.21204-14.42893,22.07846-22.10857,48.30536-57.15395,91.34689-118.80836,133.29093-180.72729,.99356-1.51788,3.03586-1.93896,4.54858-.93623,1.50336,.9953,1.91864,3.018,.93372,4.52521-35.60299,53.75334-72.69841,106.42078-112.32986,157.2928-10.05255,12.68221-20.24727,25.30938-31.44975,37.07376-3.81774,3.93276-7.62865,7.82277-12.29619,11.35262-4.3334,3.08025-9.07023-3.13828-4.77588-6.47229h0Z" style="fill:#42210b;"/><path d="M277.55833,335.4577c1.56681-22.38448,4.32799-44.54933,8.73381-66.53922,3.47345-16.4306,7.54401-33.04064,15.27611-48.11299,2.65836-5.00916,5.79807-9.89377,10.08701-13.90873,.62708-.58704,1.61133-.55457,2.19836,.07254,.5924,.63124,.55102,1.62649-.0835,2.20926-18.65365,18.93614-24.84386,67.12655-28.0859,93.44135-1.21985,11.02226-2.16681,22.12969-2.70817,33.15155-.26529,3.55508-5.53658,3.347-5.41772-.31375h0Z" style="fill:#42210b;"/><path d="M278.99565,335.82788c21.58482-28.11785,43.66977-55.99128,69.5352-80.35091,2.52075-2.21356,5.93606,1.40608,3.47449,3.78787-19.10296,18.07227-35.87977,38.56484-52.21731,59.15258-5.43472,6.91878-10.82023,13.91375-16.03847,20.95932-2.38696,3.07562-7.04648-.3256-4.75391-3.54886h0Z" style="fill:#42210b;"/><path d="M276.69847,339.86719c-2.17042-1.57288-3.71347-3.83451-5.17785-5.99561-2.61273-4.0156-4.64496-8.23767-6.52412-12.60265-.91607-2.15213-1.76123-4.3248-2.58642-6.50031-.25391-.66956,.08295-1.41815,.7525-1.67212,.63619-.24192,1.34483,.05244,1.63049,.65466,2.01457,4.09202,4.14488,8.11602,6.59211,11.95794,2.27081,3.43974,4.84721,7.30482,8.00827,9.61023,2.95091,1.84707,.35229,6.25139-2.69498,4.54785h0Z" style="fill:#42210b;"/><path d="M204.30876,507.98194c-6.00719-54.83322-19.1916-132.71795-50.59499-178.28632-.49023-.67613-.33499-1.62495,.34597-2.10898,.67749-.48251,1.6145-.32904,2.09698,.34842,9.17385,12.90246,15.9711,27.28292,21.62397,41.99469,11.19673,29.40485,18.25394,60.16031,23.71481,91.07139,2.66934,15.4728,4.92294,30.97952,6.50998,46.64779,.19521,2.37012-3.40837,2.87425-3.69672,.33301h0Z" style="fill:#42210b;"/><path d="M152.43144,326.44263c-2.67596-9.45635-4.77946-19.08079-4.62201-28.97423,.01507-.56005,.48114-1.00191,1.0412-.98696,.5515,.01419,.98809,.46818,.98743,1.01437,.14018,7.10834,1.70194,14.22235,3.59464,21.08835,.64805,2.30452,1.3544,4.62564,2.12545,6.85128,.68054,2.08956-2.4523,3.1136-3.12671,1.00717h0Z" style="fill:#42210b;"/><path d="M152.39519,327.54349c-5.05528-1.73027-11.25168-3.88662-16.32288-5.46883-1.49609-.47024-3.83567-1.18625-5.32737-1.60336-.05635-.06684-.1653,.20002-.03086-.67517,.05031-.31749,.13283-.66759,.22054-.96828,.25854-.86377,.24683-.5372,.32001-.58524,.09868,.01545,.43167,.08258,.53837,.10033,7.42071,1.37243,14.7138,3.33759,21.79276,5.96662,2.06201,.83114,.92884,3.94145-1.19056,3.23392h0Z" style="fill:#42210b;"/><path d="M169.46336,742.31806c13.10846-12.32245,28.98209-21.252,44.96771-29.12969,11.73188-5.68675,24.1568-10.53799,36.47818-14.76257l12.45578-3.95912c2.55918-.7636,3.95111,2.92324,1.44028,3.99966-11.63118,4.53604-24.39963,9.91773-35.37966,15.69298-11.28702,5.79183-22.45556,12.47913-32.66154,19.91706-6.56221,4.89917-13.11159,10.08394-18.57993,16.12529-5.41563,6.01586-14.18202-1.8329-8.72083-7.88362h0Z" style="fill:#42210b;"/><path d="M309.65019,796.76508c44.84556,9.2446,91.34191,12.68255,137.08665,9.74677,3.15328-.28044,11.00384-.98475,14.2187-1.27057,.95018-.1199,1.82368,.57542,1.9057,1.53327,.08228,.92041-.58874,1.73498-1.50243,1.83728-3.29152,.36987-11.16777,1.23923-14.31793,1.5918-6.85801,.56626-17.04886,1.30692-23.95881,1.50783-5.34404,.30554-13.7898,.29608-19.20392,.37933-32.1064-.23371-64.03442-2.83074-95.65851-8.78045-4.35967-.97411-3.07692-7.46277,1.43055-6.54525h0Z" style="fill:#42210b;"/><path d="M461.06608,804.71784c6.36052-4.54824,12.37018-9.9579,16.78911-16.4676,.2371-.49701,1.05399-.19905,1.17509,.26693,.10347,.23187-.20466,.53381-.2884,.73052-4.0852,6.93988-9.67877,12.84134-15.93818,17.88763-1.62527,1.22141-3.425-1.25236-1.73762-2.41748h0Z" style="fill:#42210b;"/><path d="M465.15568,805.36615c4.95031,2.71285,10.11013,5.94797,15.3763,7.92887,.26343,.10286,.82041,.26916,1.09867,.32232,.40576,.1498,.6117-.04783,1.02356,.59042,.76268,1.04308-.44886,1.67534-1.36119,1.38875-.34506-.04159-1.01412-.16819-1.34597-.26616-5.79346-1.59919-11.12573-4.37548-16.34404-7.28777-1.7399-1.04512-.22968-3.6721,1.55266-2.67644h0Z" style="fill:#42210b;"/><path d="M464.26579,807.55621c2.45463,7.23065,4.07061,14.86386,6.95116,21.89226-.13503,.32748-.39087,.56221-.63414,.91555-.26697,.40843-.89291,.68797-1.29529,.75942-.40865,.08658-.52671-.0693-.72081-.36811-3.83203-6.91501-5.94915-14.61221-7.85183-22.23614-.46307-2.25452,2.80808-3.14383,3.5509-.96298h0Z" style="fill:#42210b;"/><path d="M445.2129,950.18866s1.61091,11.87677,4.94424,14.37677" style="fill:none; stroke:#000; stroke-miterlimit:10; stroke-width:.91382px;"/><g><path d="M483.03207,835.09246s-6.46997-1.96002-8.79004,1.17999c-2.31982,3.13995-5.70996,.88995-5.70996,.88995,0,0-3.72998-.31995-5.35986,1.64001,2.59985-5.84998,6.0199-10.32001,6.0199-10.32001,13.57996,2.06,13.83997,6.61005,13.83997,6.61005Z" style="fill:#925a4b;"/><path d="M463.17212,838.80245c-.38,.44-.65,.99-.73,1.69,0,.01-.01,.01-.01,.02" style="fill:none; stroke:#000; stroke-miterlimit:10; stroke-width:.91382px;"/><path d="M482.25204,856.63244s-3.5,3.19-3.10986,5.28998c0,0-.77002-2.26001-4.03003-3.07996-3.26001-.81006-18.39001-5.53003-12.68005-18.33002-.00989,.01996-.00989,.03998-.00989,.06,.23999-.60004,.48999-1.19,.75-1.77002,1.62988-1.95996,5.35986-1.64001,5.35986-1.64001,0,0,3.39014,2.25,5.70996-.88995,2.32007-3.14001,8.79004-1.17999,8.79004-1.17999,0,0,10.68005,14.07996-.78003,21.53998Z" style="fill:#4f3832;"/><path d="M462.44212,840.49245c0,.01-.01,.01-.01,.02" style="fill:none; stroke:#000; stroke-miterlimit:10; stroke-width:.91382px;"/><g><circle cx="481.98089" cy="843.08943" r=".72381" style="fill:#925a4b;"/><circle cx="479.50857" cy="841.18683" r=".72381" style="fill:#925a4b;"/><circle cx="477.71645" cy="844.22854" r=".72381" style="fill:#925a4b;"/><circle cx="466.72892" cy="846.63998" r=".72381" style="fill:#925a4b;"/><circle cx="472.08037" cy="845.08342" r=".72381" style="fill:#925a4b;"/><circle cx="468.9824" cy="841.12914" r=".72381" style="fill:#925a4b;"/></g></g><g><path d="M121.16216,329.87677s4.42442-5.11143,2.50104-8.50893c-1.92342-3.39726,1.51192-5.57761,1.51192-5.57761,0,0,1.81086-3.27657,.6843-5.56323,4.28465,4.75639,6.97497,9.70008,6.97497,9.70008-7.41051,11.56473-11.67223,9.9497-11.67223,9.9497Z" style="fill:#925a4b;"/><path d="M125.85943,310.22691c-.24717-.52622-.63959-.99676-1.24637-1.35483-.00913-.00407-.00506-.01321-.0142-.01728" style="fill:none; stroke:#000; stroke-miterlimit:10; stroke-width:.91382px;"/><path d="M101.8059,320.39447s-1.48863-4.49556-3.56552-4.99422c0,0,2.37772,.21684,4.45392-2.4269,2.06717-2.64777,12.5383-14.54527,21.90458-4.11857-.0142-.01716-.03249-.02531-.05077-.03346,.45034,.4635,.88741,.93204,1.31132,1.40567,1.12656,2.28666-.6843,5.56323-.6843,5.56323,0,0-3.43534,2.18036-1.51192,5.57761,1.92338,3.3975-2.50104,8.50893-2.50104,8.50893,0,0-17.20844,4.02222-19.35627-9.4823Z" style="fill:#4f3832;"/><path d="M124.61306,308.87208c-.00913-.00407-.00506-.01321-.0142-.01728" style="fill:none; stroke:#000; stroke-miterlimit:10; stroke-width:.91382px;"/><g><circle cx="114.286" cy="325.66075" r=".72381" style="fill:#925a4b;"/><circle cx="117.03035" cy="324.17725" r=".72381" style="fill:#925a4b;"/><circle cx="114.9818" cy="321.30198" r=".72381" style="fill:#925a4b;"/><circle cx="117.25279" cy="310.28456" r=".72381" style="fill:#925a4b;"/><circle cx="116.49568" cy="315.80613" r=".72381" style="fill:#925a4b;"/><circle cx="121.3687" cy="314.58651" r=".72381" style="fill:#925a4b;"/></g></g><g><path d="M132.65444,289.37187s7.84959,2.41841,10.68638-1.38333c2.83649-3.80166,6.94252-1.04858,6.94252-1.04858,0,0,4.52998,.41008,6.52146-1.96188-3.19223,7.09265-7.37307,12.50402-7.37307,12.50402-16.48743-2.58058-16.77728-8.11024-16.77728-8.11024Z" style="fill:#925a4b;"/><path d="M156.8049,284.97805c.46421-.53241,.7954-1.1991,.8966-2.04912,.00006-.01215,.01221-.01209,.01226-.02424" style="fill:none; stroke:#000; stroke-miterlimit:10; stroke-width:1.11028px;"/><path d="M133.72547,263.20593s4.27065-3.85572,3.80867-6.40935c0,0,.92261,2.75025,4.87873,3.76512,3.95617,1.00286,22.31163,6.8241,15.30093,22.34299,.01213-.02419,.01224-.04852,.01236-.07284-.29502,.72765-.60214,1.44301-.92136,2.14622-1.99148,2.37196-6.52146,1.96188-6.52146,1.96188,0,0-4.10603-2.75309-6.94252,1.04858-2.83679,3.80174-10.68638,1.38333-10.68638,1.38333,0,0-12.89532-17.16785,1.07103-26.16594Z" style="fill:#4f3832;"/><path d="M157.7015,282.92893c.00006-.01215,.01221-.01209,.01226-.02424" style="fill:none; stroke:#000; stroke-miterlimit:10; stroke-width:1.11028px;"/><g><circle cx="133.97738" cy="279.66182" r=".87942" style="fill:#925a4b;"/><circle cx="136.97028" cy="281.98757" r=".87942" style="fill:#925a4b;"/><circle cx="139.16506" cy="278.30224" r=".87942" style="fill:#925a4b;"/><circle cx="152.52837" cy="275.43533" r=".87942" style="fill:#925a4b;"/><circle cx="146.01762" cy="277.29586" r=".87942" style="fill:#925a4b;"/><circle cx="149.75891" cy="282.11793" r=".87942" style="fill:#925a4b;"/></g></g><g><path d="M494.87056,806.96094s-5.3262,4.16338-4.09334,7.86777c1.23296,3.70415-2.55806,5.18189-2.55806,5.18189,0,0-2.40814,2.86636-1.74317,5.32721-3.28813-5.49269-4.97572-10.86204-4.97572-10.86204,9.49952-9.92058,13.37029-7.51482,13.37029-7.51482Z" style="fill:#925a4b;"/><path d="M486.47596,825.33789c.14117,.56398,.43559,1.1013,.96204,1.56955,.00818,.00575,.00242,.01393,.0106,.01969" style="fill:none; stroke:#000; stroke-miterlimit:10; stroke-width:.91382px;"/><path d="M512.03763,819.99439s.59474,4.69813,2.53666,5.58753c0,0-2.29141-.67082-4.83801,1.52345-2.53851,2.19996-15.10543,11.85748-22.2877-.17822,.01063,.01957,.02701,.03109,.04338,.04261-.35262-.54157-.69124-1.08553-1.01597-1.63196-.66496-2.46085,1.74317-5.32721,1.74317-5.32721,0,0,3.79102-1.47774,2.55806-5.18189-1.23286-3.70438,4.09334-7.86777,4.09334-7.86777,0,0,17.66096-.63189,17.16707,13.03345Z" style="fill:#4f3832;"/><path d="M487.43799,826.90744c.00818,.00575,.00242,.01393,.0106,.01969" style="fill:none; stroke:#000; stroke-miterlimit:10; stroke-width:.91382px;"/><g><circle cx="500.80577" cy="812.42261" r=".72381" style="fill:#925a4b;"/><circle cx="497.82703" cy="813.34965" r=".72381" style="fill:#925a4b;"/><circle cx="499.28333" cy="816.5657" r=".72381" style="fill:#925a4b;"/><circle cx="494.93251" cy="826.93928" r=".72381" style="fill:#925a4b;"/><circle cx="496.73909" cy="821.66698" r=".72381" style="fill:#925a4b;"/><circle cx="491.72241" cy="821.92502" r=".72381" style="fill:#925a4b;"/></g></g><g><path d="M473.99104,778.5677s2.17076,4.87269,5.24228,4.63598c3.07136-.23682,3.47901,2.94778,3.47901,2.94778,0,0,1.73481,2.39094,3.74584,2.35162-4.83306,1.46887-9.26613,1.73586-9.26613,1.73586-5.78187-9.16697-3.20101-11.67124-3.20101-11.67124Z" style="fill:#925a4b;"/><path d="M486.45823,788.50312c.45874-.00041,.92634-.12325,1.38534-.43691,.00597-.00516,.01113,.0008,.0171-.00436" style="fill:none; stroke:#000; stroke-miterlimit:10; stroke-width:.72106px;"/><path d="M487.24708,767.91241s3.71053,.44157,4.76221-.87541c0,0-.95104,1.62629,.24277,3.99493,1.19971,2.36353,6.19459,13.82875-4.39137,17.02993,.01701-.0044,.02896-.01474,.04091-.02508-.48196,.16658-.96307,.32199-1.44342,.46629-2.01103,.03931-3.74584-2.35162-3.74584-2.35162,0,0-.40765-3.1846-3.47901-2.94778-3.07152,.23671-5.24228-4.63598-5.24228-4.63598,0,0,2.88785-13.64226,13.25605-10.65529Z" style="fill:#4f3832;"/><path d="M487.84358,788.06621c.00597-.00516,.01113,.0008,.0171-.00436" style="fill:none; stroke:#000; stroke-miterlimit:10; stroke-width:.72106px;"/><g><circle cx="479.30569" cy="775.06626" r=".57114" style="fill:#925a4b;"/><circle cx="479.44679" cy="777.52382" r=".57114" style="fill:#925a4b;"/><circle cx="482.18709" cy="777.02282" r=".57114" style="fill:#925a4b;"/><circle cx="489.29873" cy="782.33432" r=".57114" style="fill:#925a4b;"/><circle cx="485.60703" cy="779.94463" r=".57114" style="fill:#925a4b;"/><circle cx="484.84686" cy="783.83478" r=".57114" style="fill:#925a4b;"/></g></g><g><path d="M274.9833,638.56286c27.31367,97.4197-25.13913,153.4087-25.13913,153.4087l-.00819-.0062c-.55862-.8601-45.66443-70.54593,25.14732-153.4025Z" style="fill:url(#a`);"/><path d="M250.78642,772.08138s11.68229-9.97957,12.46179-10.84256" style="fill:#365938; stroke:#000; stroke-linecap:round; stroke-linejoin:round; stroke-width:.72548px;"/><path d="M250.56678,776.78494s-5.8721-9.26393-7.19547-15.42305" style="fill:#365938; stroke:#000; stroke-linecap:round; stroke-linejoin:round; stroke-width:.72548px;"/><path d="M254.52423,737.62337s9.412-9.14753,11.14444-12.10179" style="fill:#365938; stroke:#000; stroke-linecap:round; stroke-linejoin:round; stroke-width:.72548px;"/><path d="M253.25156,746.81152c-.22404-.40108-8.21149-14.80669-11.4148-24.55065" style="fill:#365938; stroke:#000; stroke-linecap:round; stroke-linejoin:round; stroke-width:.72548px;"/><path d="M261.80664,695.72358s10.37632-12.37871,10.82969-16.24263" style="fill:#365938; stroke:#000; stroke-linecap:round; stroke-linejoin:round; stroke-width:.72548px;"/><path d="M260.27549,703.29154s-4.81244-11.03942-5.99508-19.33308" style="fill:#365938; stroke:#000; stroke-linecap:round; stroke-linejoin:round; stroke-width:.72548px;"/><path d="M267.72772,669.55307s-2.14773-1.70913-1.42193-9.75711" style="fill:#365938; stroke:#000; stroke-linecap:round; stroke-linejoin:round; stroke-width:.72548px;"/><path d="M250.27127,801.91468s-3.83675-51.46964,20.89329-146.08215" style="fill:none; stroke:#000; stroke-linecap:round; stroke-linejoin:round; stroke-width:.72548px;"/></g><g><path d="M421.24962,421.73096c-95.97724,104.14764-201.23194,82.81679-201.23194,82.81679l.00136-.01431c.614-1.2977,50.47406-106.25475,201.23058-82.80248Z" style="fill:url(#aa);"/><path d="M244.40512,491.04976s20.47568,6.58133,22.07671,6.87558" style="fill:#365938; stroke:#000; stroke-linecap:round; stroke-linejoin:round; stroke-width:1.01553px;"/><path d="M238.64041,494.24551s6.71962-13.80488,13.08412-19.90871" style="fill:#365938; stroke:#000; stroke-linecap:round; stroke-linejoin:round; stroke-width:1.01553px;"/><path d="M288.20187,470.17385s17.81569,4.48837,22.60848,4.38064" style="fill:#365938; stroke:#000; stroke-linecap:round; stroke-linejoin:round; stroke-width:1.01553px;"/><path d="M276.3207,475.41158c.31312-.56171,11.60302-20.66602,20.8562-31.64446" style="fill:#365938; stroke:#000; stroke-linecap:round; stroke-linejoin:round; stroke-width:1.01553px;"/><path d="M343.46938,448.05039s22.37377,3.26203,27.31004,.96192" style="fill:#365938; stroke:#000; stroke-linecap:round; stroke-linejoin:round; stroke-width:1.01553px;"/><path d="M333.32832,451.78927s9.61364-13.84761,18.62443-21.35281" style="fill:#365938; stroke:#000; stroke-linecap:round; stroke-linejoin:round; stroke-width:1.01553px;"/><path d="M378.99821,435.86718s.45735-3.81486,10.57828-8.86598" style="fill:#365938; stroke:#000; stroke-linecap:round; stroke-linejoin:round; stroke-width:1.01553px;"/><path d="M208.48655,512.36535s58.49466-42.40394,189.38299-82.48933" style="fill:none; stroke:#000; stroke-linecap:round; stroke-linejoin:round; stroke-width:1.01553px;"/></g><g><path d="M318.13384,20.5547c42.24967,115.36012-15.97077,188.0846-15.97077,188.0846l-.0105-.00673c-.75734-.98856-61.93139-81.09708,15.98127-188.07787Z" style="fill:url(#ab);"/><path d="M301.42863,184.47167s13.20163-13.18247,14.06392-14.30068" style="fill:#365938; stroke:#000; stroke-linecap:round; stroke-linejoin:round; stroke-width:.88092px;"/><path d="M301.60616,190.18644s-7.98203-10.66122-10.16473-17.99261" style="fill:#365938; stroke:#000; stroke-linecap:round; stroke-linejoin:round; stroke-width:.88092px;"/><path d="M302.7051,142.40486s10.53169-11.96119,12.35044-15.70089" style="fill:#365938; stroke:#000; stroke-linecap:round; stroke-linejoin:round; stroke-width:.88092px;"/><path d="M302.03062,153.6479c-.30903-.46442-11.33661-17.15067-16.13309-28.6446" style="fill:#365938; stroke:#000; stroke-linecap:round; stroke-linejoin:round; stroke-width:.88092px;"/><path d="M307.57106,90.99497s11.39446-15.96372,11.57904-20.68407" style="fill:#365938; stroke:#000; stroke-linecap:round; stroke-linejoin:round; stroke-width:.88092px;"/><path d="M306.43094,100.30099s-6.8666-12.9105-9.08016-22.83921" style="fill:#365938; stroke:#000; stroke-linecap:round; stroke-linejoin:round; stroke-width:.88092px;"/><path d="M312.27187,58.75508s-2.76114-1.86658-2.6412-11.67779" style="fill:#365938; stroke:#000; stroke-linecap:round; stroke-linejoin:round; stroke-width:.88092px;"/><path d="M303.61748,220.63606s-9.49694-61.9468,11.5215-178.8149" style="fill:none; stroke:#000; stroke-linecap:round; stroke-linejoin:round; stroke-width:.88092px;"/></g><g><path d="M450.82126,99.98963c-19.92515,121.22698-106.37781,155.93153-106.37781,155.93153l-.00583-.01102c-.17347-1.23318-14.05882-101.06722,106.38365-155.92051Z" style="fill:url(#ac);"/><path d="M355.68575,234.51499s17.97701-4.98876,19.27764-5.53855" style="fill:#365938; stroke:#000; stroke-linecap:round; stroke-linejoin:round; stroke-width:.88092px;"/><path d="M353.03071,239.57867s-1.70921-13.20806-.00547-20.66533" style="fill:#365938; stroke:#000; stroke-linecap:round; stroke-linejoin:round; stroke-width:.88092px;"/><path d="M377.47916,198.51092s15.0516-5.23793,18.47396-7.60028" style="fill:#365938; stroke:#000; stroke-linecap:round; stroke-linejoin:round; stroke-width:.88092px;"/><path d="M371.36426,207.96971c-.04077-.55634-1.43987-20.50832,.03428-32.87535" style="fill:#365938; stroke:#000; stroke-linecap:round; stroke-linejoin:round; stroke-width:.88092px;"/><path d="M406.99175,156.13566s17.77071-8.29915,20.25218-12.31887" style="fill:#365938; stroke:#000; stroke-linecap:round; stroke-linejoin:round; stroke-width:.88092px;"/><path d="M401.42369,163.67878s.36795-14.61833,3.32177-24.35251" style="fill:#365938; stroke:#000; stroke-linecap:round; stroke-linejoin:round; stroke-width:.88092px;"/><path d="M426.93572,130.37239s-1.4867-2.98291,3.44136-11.46751" style="fill:#365938; stroke:#000; stroke-linecap:round; stroke-linejoin:round; stroke-width:.88092px;"/><path d="M339.81182,267.08295s22.18582-58.61218,97.94602-150.04696" style="fill:none; stroke:#000; stroke-linecap:round; stroke-linejoin:round; stroke-width:.88092px;"/></g><g><path d="M571.45392,331.25948c-149.62069,33.40813-230.07102-50.50643-230.07102-50.50643l.01004-.01189c1.34677-.77531,110.45106-63.3581,230.06098,50.51832Z" style="fill:url(#ad);"/><path d="M371.40106,283.79548s14.14996,18.48703,15.39234,19.73659" style="fill:#365938; stroke:#000; stroke-linecap:round; stroke-linejoin:round; stroke-width:1.09927px;"/><path d="M364.30222,283.08084s14.49407-8.13174,23.92067-9.63342" style="fill:#365938; stroke:#000; stroke-linecap:round; stroke-linejoin:round; stroke-width:1.09927px;"/><path d="M423.2338,292.25187s13.07559,14.98435,17.40469,17.84573" style="fill:#365938; stroke:#000; stroke-linecap:round; stroke-linejoin:round; stroke-width:1.09927px;"/><path d="M409.43515,289.5794c.62506-.30638,23.07068-11.22081,38.07412-15.27554" style="fill:#365938; stroke:#000; stroke-linecap:round; stroke-linejoin:round; stroke-width:1.09927px;"/><path d="M486.03816,306.67629s17.88613,16.70605,23.69556,17.7061" style="fill:#365938; stroke:#000; stroke-linecap:round; stroke-linejoin:round; stroke-width:1.09927px;"/><path d="M474.71195,303.74444s17.09433-6.3841,29.73915-7.49935" style="fill:#365938; stroke:#000; stroke-linecap:round; stroke-linejoin:round; stroke-width:1.09927px;"/><path d="M525.15406,317.76242s2.76057-3.11068,14.87854-1.35834" style="fill:#365938; stroke:#000; stroke-linecap:round; stroke-linejoin:round; stroke-width:1.09927px;"/><path d="M326.30377,280.59105s78.18782-1.6215,219.33074,43.48674" style="fill:none; stroke:#000; stroke-linecap:round; stroke-linejoin:round; stroke-width:1.09927px;"/></g><g><path d="M368.19351,685.6226c-38.6258,93.51301-114.45102,105.20061-114.45102,105.20061l-.00262-.00993c.0912-1.02152,7.60197-83.69097,114.45364-105.19068Z" style="fill:url(#ae);"/><path d="M266.75829,775.75351s15.35102-.6435,16.49694-.84153" style="fill:#365938; stroke:#000; stroke-linecap:round; stroke-linejoin:round; stroke-width:.72548px;"/><path d="M263.68287,779.3191s1.0962-10.91331,3.8557-16.57646" style="fill:#365938; stroke:#000; stroke-linecap:round; stroke-linejoin:round; stroke-width:.72548px;"/><path d="M290.96377,750.94584s13.05112-1.38979,16.23742-2.64534" style="fill:#365938; stroke:#000; stroke-linecap:round; stroke-linejoin:round; stroke-width:.72548px;"/><path d="M284.29226,757.39043c.07122-.45385,2.67586-16.71845,6.1683-26.36255" style="fill:#365938; stroke:#000; stroke-linecap:round; stroke-linejoin:round; stroke-width:.72548px;"/><path d="M322.55079,722.46979s15.8039-3.33726,18.5451-6.09791" style="fill:#365938; stroke:#000; stroke-linecap:round; stroke-linejoin:round; stroke-width:.72548px;"/><path d="M316.67572,727.47998s3.02569-11.65648,7.21317-18.91241" style="fill:#365938; stroke:#000; stroke-linecap:round; stroke-linejoin:round; stroke-width:.72548px;"/><path d="M343.35997,705.53069s-.63529-2.67026,4.9023-8.55515" style="fill:#365938; stroke:#000; stroke-linecap:round; stroke-linejoin:round; stroke-width:.72548px;"/><path d="M247.94259,798.91082s28.74321-42.86809,106.58879-102.05564" style="fill:none; stroke:#000; stroke-linecap:round; stroke-linejoin:round; stroke-width:.72548px;"/></g></g><g id="af"/><g id="ag"/><g id="ah"/><g id="ai"/><g id="aj"/></svg>