<?xml version="1.0" encoding="UTF-8"?><svg xmlns="http://www.w3.org/2000/svg" xmlns:xlink="http://www.w3.org/1999/xlink" viewBox="0 0 1445.31727 702.46223"><defs><style>.b`{filter:url(#ab);}.b`,.ba,.bb,.bc,.bd,.be,.bf,.bg,.bh{fill:#6a4121;}.bi,.bj,.bk,.bl,.bm,.bn,.bo,.bp{fill:#774a23;}.bj{filter:url(#l);}.bq{filter:url(#a`);}.bq,.br,.bs,.bt,.bu,.bv,.bw,.bx{fill:#3a2311;}.bk{filter:url(#al);}.bl{filter:url(#ax);}.ba{filter:url(#af);}.by{fill:#623b1a;}.br{filter:url(#an);}.bs{filter:url(#h);}.bc{filter:url(#av);}.bt{filter:url(#n);}.bd{filter:url(#t);}.c`{fill:#52770e;}.bu{filter:url(#r);}.be{filter:url(#aj);}.bf{filter:url(#ap);}.bv{filter:url(#ad);}.bg{filter:url(#p);}.bm{filter:url(#j);}.bn{filter:url(#v);}.bo{filter:url(#x);}.bx{filter:url(#ah);}.bh{filter:url(#ar);}.bp{filter:url(#at);}</style><filter id="h" filterUnits="userSpaceOnUse"><feOffset dx="5.71488" dy="9.52479"/><feGaussianBlur result="i" stdDeviation="17.14463"/><feFlood flood-color="#000" flood-opacity=".7"/><feComposite in2="i" operator="in"/><feComposite in="SourceGraphic"/></filter><filter id="j" filterUnits="userSpaceOnUse"><feOffset dx="5.71488" dy="9.52479"/><feGaussianBlur result="k" stdDeviation="17.14463"/><feFlood flood-color="#000" flood-opacity=".7"/><feComposite in2="k" operator="in"/><feComposite in="SourceGraphic"/></filter><filter id="l" filterUnits="userSpaceOnUse"><feOffset dx="5.71488" dy="9.52479"/><feGaussianBlur result="m" stdDeviation="17.14463"/><feFlood flood-color="#000" flood-opacity=".7"/><feComposite in2="m" operator="in"/><feComposite in="SourceGraphic"/></filter><filter id="n" filterUnits="userSpaceOnUse"><feOffset dx="5.71488" dy="9.52479"/><feGaussianBlur result="o" stdDeviation="17.14463"/><feFlood flood-color="#000" flood-opacity=".7"/><feComposite in2="o" operator="in"/><feComposite in="SourceGraphic"/></filter><filter id="p" filterUnits="userSpaceOnUse"><feOffset dx="5.71488" dy="9.52479"/><feGaussianBlur result="q" stdDeviation="17.14463"/><feFlood flood-color="#000" flood-opacity=".7"/><feComposite in2="q" operator="in"/><feComposite in="SourceGraphic"/></filter><filter id="r" filterUnits="userSpaceOnUse"><feOffset dx="5.71488" dy="9.52479"/><feGaussianBlur result="s" stdDeviation="17.14463"/><feFlood flood-color="#000" flood-opacity=".7"/><feComposite in2="s" operator="in"/><feComposite in="SourceGraphic"/></filter><filter id="t" filterUnits="userSpaceOnUse"><feOffset dx="5.71488" dy="9.52479"/><feGaussianBlur result="u" stdDeviation="17.14463"/><feFlood flood-color="#000" flood-opacity=".7"/><feComposite in2="u" operator="in"/><feComposite in="SourceGraphic"/></filter><filter id="v" filterUnits="userSpaceOnUse"><feOffset dx="5.71488" dy="9.52479"/><feGaussianBlur result="w" stdDeviation="17.14463"/><feFlood flood-color="#000" flood-opacity=".7"/><feComposite in2="w" operator="in"/><feComposite in="SourceGraphic"/></filter><filter id="x" filterUnits="userSpaceOnUse"><feOffset dx="5.71488" dy="9.52479"/><feGaussianBlur result="y" stdDeviation="17.14463"/><feFlood flood-color="#000" flood-opacity=".7"/><feComposite in2="y" operator="in"/><feComposite in="SourceGraphic"/></filter><filter id="a`" filterUnits="userSpaceOnUse"><feOffset dx="5.71488" dy="9.52479"/><feGaussianBlur result="aa" stdDeviation="17.14463"/><feFlood flood-color="#000" flood-opacity=".7"/><feComposite in2="aa" operator="in"/><feComposite in="SourceGraphic"/></filter><filter id="ab" filterUnits="userSpaceOnUse"><feOffset dx="5.71488" dy="9.52479"/><feGaussianBlur result="ac" stdDeviation="17.14463"/><feFlood flood-color="#000" flood-opacity=".7"/><feComposite in2="ac" operator="in"/><feComposite in="SourceGraphic"/></filter><filter id="ad" filterUnits="userSpaceOnUse"><feOffset dx="5.71488" dy="9.52479"/><feGaussianBlur result="ae" stdDeviation="17.14463"/><feFlood flood-color="#000" flood-opacity=".7"/><feComposite in2="ae" operator="in"/><feComposite in="SourceGraphic"/></filter><filter id="af" filterUnits="userSpaceOnUse"><feOffset dx="5.71488" dy="9.52479"/><feGaussianBlur result="ag" stdDeviation="17.14463"/><feFlood flood-color="#000" flood-opacity=".7"/><feComposite in2="ag" operator="in"/><feComposite in="SourceGraphic"/></filter><filter id="ah" filterUnits="userSpaceOnUse"><feOffset dx="5.71488" dy="9.52479"/><feGaussianBlur result="ai" stdDeviation="17.14463"/><feFlood flood-color="#000" flood-opacity=".7"/><feComposite in2="ai" operator="in"/><feComposite in="SourceGraphic"/></filter><filter id="aj" filterUnits="userSpaceOnUse"><feOffset dx="5.71488" dy="9.52479"/><feGaussianBlur result="ak" stdDeviation="17.14463"/><feFlood flood-color="#000" flood-opacity=".7"/><feComposite in2="ak" operator="in"/><feComposite in="SourceGraphic"/></filter><filter id="al" filterUnits="userSpaceOnUse"><feOffset dx="5.71488" dy="9.52479"/><feGaussianBlur result="am" stdDeviation="17.14463"/><feFlood flood-color="#000" flood-opacity=".7"/><feComposite in2="am" operator="in"/><feComposite in="SourceGraphic"/></filter><filter id="an" filterUnits="userSpaceOnUse"><feOffset dx="5.71488" dy="9.52479"/><feGaussianBlur result="ao" stdDeviation="17.14463"/><feFlood flood-color="#000" flood-opacity=".7"/><feComposite in2="ao" operator="in"/><feComposite in="SourceGraphic"/></filter><filter id="ap" filterUnits="userSpaceOnUse"><feOffset dx="5.71488" dy="9.52479"/><feGaussianBlur result="aq" stdDeviation="17.14463"/><feFlood flood-color="#000" flood-opacity=".7"/><feComposite in2="aq" operator="in"/><feComposite in="SourceGraphic"/></filter><filter id="ar" filterUnits="userSpaceOnUse"><feOffset dx="5.71488" dy="9.52479"/><feGaussianBlur result="as" stdDeviation="17.14463"/><feFlood flood-color="#000" flood-opacity=".7"/><feComposite in2="as" operator="in"/><feComposite in="SourceGraphic"/></filter><filter id="at" filterUnits="userSpaceOnUse"><feOffset dx="5.71488" dy="9.52479"/><feGaussianBlur result="au" stdDeviation="17.14463"/><feFlood flood-color="#000" flood-opacity=".7"/><feComposite in2="au" operator="in"/><feComposite in="SourceGraphic"/></filter><filter id="av" filterUnits="userSpaceOnUse"><feOffset dx="5.71488" dy="9.52479"/><feGaussianBlur result="aw" stdDeviation="17.14463"/><feFlood flood-color="#000" flood-opacity=".7"/><feComposite in2="aw" operator="in"/><feComposite in="SourceGraphic"/></filter><filter id="ax" filterUnits="userSpaceOnUse"><feOffset dx="5.71488" dy="9.52479"/><feGaussianBlur result="ay" stdDeviation="17.14463"/><feFlood flood-color="#000" flood-opacity=".7"/><feComposite in2="ay" operator="in"/><feComposite in="SourceGraphic"/></filter></defs><g id="a"/><g id="b"/><g id="c"/><g id="d"/><g id="e"/><g id="f"/><g id="g"><g><path d="M72.47754,472.04437s18.41464-1.27001,26.03448-8.88985,19.68454-27.93932,24.1294-28.57438c4.44498-.63495,22.64789-25.39941,36.19422-32.17257,0,0,12.06482-2.54002,18.83798-7.83156,0,0,2.11657,10.37147,6.56155,10.79481,6.56143,5.29154,55.87875-62.22869,57.99532-82.7599,0,0,15.66301-12.0647,24.12952-37.46411,8.46651-25.39953,44.02578-30.47934,44.02578-30.47934,0,0,30.056-37.6759,68.57852-9.73652,0,0,3.80992,11.85309,29.20933,2.11669,25.39941-9.73652,25.39941-2.11669,25.39941-2.11669,0,0,33.44258-8.46645,47.8357-24.97613,0,0,20.74282,8.46651,34.92421-21.16621l22.22456-24.97607s13.12298-12.27643,22.43617-5.92654c9.31307,6.34982,63.49859-15.23967,76.19835-32.17263,0,0-13.1231-17.3563,9.7364-28.78605s39.79252-37.6759,39.79252-37.6759c0,0,13.96978-6.34982,31.74924,17.77963,17.77969,24.12946,41.48587,63.49864,41.48587,63.49864,0,0,3.80992,11.85309,20.74294,7.1965,0,0,0,5.50321,6.34971,10.1598,6.34994,4.65653,60.53546,8.88979,60.53546,8.88979,0,0,6.77316,22.43617,22.01283,21.16621,15.23967-1.26995,49.95215,8.04317,73.23511-3.80992,0,0,9.7364,11.00642,32.59591,4.65653,22.85951-6.34982,20.74294-30.47934,93.55459-17.35624,72.81189,13.12304,96.51807,62.65191,96.51807,62.65191,0,0,75.7749,31.74935,104.13767,73.23511,0,0,26.24597,2.11669,52.91539,60.53534,1.51336-1.25478,12.15597-9.79919,25.04537-6.81246,15.09247,3.49715,20.37366,19.81673,21.09709,22.05213,5.02633,15.53174-5.53094,20.14043-2.16959,35.10942,4.66101,20.75596,28.4023,27.22868,25.45231,41.30065-.9283,4.42777-4.24988,8.41896-4.60357,8.83683-.38253,.45182-6.59713,7.60844-14.44601,7.88446-7.82796,.27521-11.7674-6.48725-21.16616-13.96978-5.77487-4.59753-14.69483-10.32984-27.93932-14.393,0,0-22.85951,33.01936-93.97804,14.81633,0,0-57.57198,28.57438-41.06242,66.03861,16.50957,37.46423-151.12681,0-151.12681,0,0,0,11.42975-8.88985,2.85744-13.65224-8.57231-4.7624-35.24174,3.17497-38.09918,28.25697-2.85744,25.08188-25.3993,22.22444-25.3993,22.22444,0,0,4.12733-24.44693-9.84244-34.92421,0,0-34.60667,38.73412-57.46618,42.22662-22.85951,3.49239-27.30449-14.60472-27.30449-14.60472,0,0-22.22444,15.23967-52.38637-.95248,0,0-14.92202,17.46216-41.90909,6.03241,0,0-32.3843,11.74717-40.00413,31.64343,0,0-15.66289,6.13821-12.69965-9.52479s-16.08634-1.27001-16.08634-1.27001c0,0-17.9913,10.79481-10.37147-10.37135,7.61984-21.16627,1.05828-16.72129-9.52479-2.75163-10.58308,13.96966-26.66942-1.05828-26.66942-1.05828,0,0-9.31318-6.77328-17.9913,7.83145-8.67812,14.60472-31.3259-32.3843-31.3259-32.3843,0,0-13.54644,4.8682-19.47292-7.1965s-12.69976-5.71488-12.69976-5.71488c0,0-11.21803-2.11657-13.33471-7.83145-2.11657-5.71488-23.49445,3.80992-23.49445,3.80992,0,0-41.59156-7.40822-61.27621,.84656-19.68454,8.2549-92.07297,1.90496-92.07297,1.90496,0,0,3.80992,24.76446-19.04959,28.89191-22.85951,4.12745-60.32373-3.80992-60.32373-3.80992,0,0-58.73619,9.52479-96.20042-44.13158,0,0-3.28078-23.17692-27.83351-20.00207-24.55285,3.17497-19.31422,15.87473-35.18883-6.98477,0,0-27.14566-11.58858-40.48037-2.54002-13.33471,9.04855-33.17807,28.09814-43.65534,16.19215,0,0-8.88973-4.44487-13.17589-13.81095,0,0,9.20726-5.07981,7.3023-23.01821Z" style="fill:#623b1a;"/><path d="M41.36321,469.92774s-34.50092-7.19651-27.09275,14.60468c0,0-.63499,7.19651,8.88981,4.55073s10.37144,3.80992,10.37144,3.80992c0,0,19.7904-10.5831,7.8315-22.96534Z" style="fill:#623b1a;"/><path d="M607.77095,585.28358s22.22452-26.66942,16.08632,2.53995c-6.1382,29.20937-6.77319,41.90909-2.32828,46.14233,0,0-18.20294-1.50809-13.75804-32.46367,0,0,1.03185-5.68842,0-16.21861Z" style="fill:#623b1a;"/><path d="M1233.65573,505.9103s4.4449-13.75804,23.70615-20.31956c0,0,3.28076,6.03237,13.12305-2.22245,9.84229-8.25482,35.34757,4.97406,40.42746,14.39302,5.07989,9.41896-13.9697,8.14899-13.9697,8.14899,0,0-11.42975,.10583-16.50964,8.57231-5.07989,8.46648-11.85308-8.67815-11.85308-10.68894,0,0-9.31313,3.28076-14.28719-4.4449-4.97406-7.72567-20.63705,6.56152-20.63705,6.56152Z" style="fill:#623b1a;"/><path d="M1396.63549,433.52185c3.47808-3.76853,13.13496,.06244,17.77969,1.90496,5.87951,2.33237,10.50588,5.42188,13.96978,8.25478,0,0,11.64136,4.65659-6.34994,8.88985,0,0-6.95849,5.10632-14.10209,4.15384-7.1436-.95248,1.50825-11.03281,1.50825-11.03281,0,0,4.44475-5.00052-6.74688-3.80992-5.44048,.57879-6.19972-1.21618-6.51714-1.60091-1.34803-1.63382-1.1792-4.9854,.45833-6.75979Z" style="fill:#623b1a;"/><path d="M664.28473,114.38836s9.68354-4.4449,9.68354-10.79477,10.63602-14.60468,20.95455-13.9697,11.27101-4.28616,11.27101-4.28616c0,0,4.4449,13.49346-6.66736,18.09711-11.11226,4.60365-25.39945,8.41357-16.0334,28.41563s-7.61984-1.42872-7.61984-1.42872c0,0,3.20539-7.21458-11.5885-16.0334Z" style="fill:#3a2311; filter:url(#h);"/><path d="M647.93391,162.17109c6.66712,3.3953,8.73858,13.4554,9.71385,13.06874,.37043-.14685,.06604-1.59539-.03046-2.43276-.36416-3.15887,1.03224-7.98748,9.29435-15.0809,23.58131-18.57335-.08697-20.31954-.08697-20.31954,1.42872,4.28616-15.23967,8.73102-15.23967,8.73102,0,0-8.41349-3.96863-21.6131,16.83849,1.11665,1.92095,10.49192-4.60921,17.962-.80505Z" style="fill:#774a23; filter:url(#j);"/><path d="M270.75199,289.32707l29.05062-22.06577s17.62087-19.04959,13.49346-.79373c0,0,10.79477-2.85744,18.4146-13.6522,7.61984-10.79477,6.8261,4.12741,6.8261,4.12741,0,0,10.15978-20.00207,15.71591-10.63602,0,0,33.65427-6.98485,10.00103,12.38223-23.65324,19.36708-26.82817,14.60468-33.17803,27.6219-6.34986,13.01722-15.87466-6.50861-.79373-13.01722,0,0,8.0167-5.15926,6.19112-7.1436s-11.98537,3.96866-11.98537,3.96866c0,0-12.54098,10.95351-12.93784,20.24019s-11.50913-3.5718-3.96866-9.68354-3.09556-5.23864-3.09556-5.23864c0,0-11.50913,10.23915-7.54046,20.00207,3.96866,9.76291-29.36811,4.36553-28.49501-.95248s2.30183-5.15926,2.30183-5.15926Z" style="fill:#774a23; filter:url(#l);"/><path d="M118.99028,449.18486s29.20937-42.22659,56.03754-48.10021c0,0,8.41357,6.8261-4.28616,15.23967-12.69973,8.41357-12.06474,16.98588-12.06474,16.98588,0,0-15.71591,20.63705-22.54201,24.76446-6.8261,4.12741-17.14463-8.88981-17.14463-8.88981Z" style="fill:#3a2311; filter:url(#n);"/><path d="M100.41693,465.6945s9.84229-.79373,6.50861,6.66736-10.47727,14.12844-10.47727,14.12844c0,0-6.66736,10.79477,4.12741,2.3812,10.79477-8.41357,12.78602-19.51326,12.22349-4.28616-.56253,15.22711-13.17596,18.09711-13.17596,18.09711,0,0-1.26997-6.58798-6.90548-4.36553-5.6355,2.22245-13.49346-4.4449-12.62035-6.8261s2.3812-15.08092,10.15978-17.06526c7.77858-1.98433,10.15978-8.73106,10.15978-8.73106Z" style="fill:#6a4121;"/><path d="M162.80433,481.72791s10.79477-6.98485,22.85951-26.51068c0,0,30.16185-2.56438,11.90599,28.95903,0,0-1.74621,10.38568,8.73106,0,10.47727-10.38568,14.92218-11.17942,14.92218-11.17942,0,0,10.31853,0-.79373,9.04855-11.11226,9.04855-20.31956,17.14463-20.31956,17.14463l-22.34942,5.39738s4.41106-9.68354-2.73254-8.57231-12.22349-14.28719-12.22349-14.28719Z" style="fill:#6a4121; filter:url(#p);"/><path d="M190.58498,472.5206s4.28616,8.25482-2.85744,13.49346-10.15978,5.71488-11.90599,4.4449-1.11123-5.23864,2.85744-9.68354,3.96866-7.46109,11.90599-8.25482Z" style="fill:#774a23;"/><path d="M210.90454,393.30607c-.21166-16.7213,53.76217-58.6304,53.76217-58.6304,0,0,19.04959-24.12948-5.92654-5.71488-24.97613,18.4146,5.92654-21.80119,5.92654-21.80119,0,0-20.00207,15.87466-20.1079,17.56795s-2.75161,13.22888-1.79913,16.7213-17.0388,21.27204-17.0388,21.27204c0,0-20.00207,26.66942-19.15542,28.46855s4.33907,2.11662,4.33907,2.11662Z" style="fill:#3a2311; filter:url(#r);"/><path d="M483.94258,188.68269s27.51607-14.39302,9.31313,6.77319c-18.20294,21.16621-24.4875-5.1551-9.31313-6.77319Z" style="fill:#774a23;"/><path d="M495.97571,135.28931s27.51607-14.39302,9.31313,6.77319c-18.20294,21.16621-24.4875-5.1551-9.31313-6.77319Z" style="fill:#774a23;"/><path d="M709.58041,340.16093s27.51607-14.39302,9.31313,6.77319-24.4875-5.1551-9.31313-6.77319Z" style="fill:#774a23;"/><path d="M318.8522,321.55262s29.20937-34.62576,46.14233-20.69947c0,0,18.83793-16.12973,20.95455-10.62651,2.11662,5.50321-21.16621,33.86593-21.16621,33.86593,0,0-14.8967,22.01286,7.89715,2.53995s38.03352-31.74931,38.03352-31.74931c0,0,19.89624-9.94812,7.61984,6.98485,0,0-10.37144,8.59063-10.37144,10.01019s13.71576,1.2079,14.37188-2.60202,7.21765,1.90496,3.6194,7.40817c-3.59826,5.50321-2.53995,14.60468-2.53995,14.60468,0,0,34.28926-16.93297,15.87466,12.91139,0,0-4.23324,12.69973-3.80992,14.60468s6.34986,9.94812-12.48806,28.15106-23.91782,15.23967-23.91782,15.23967c0,0-13.75804-1.90496,5.07989-21.58953,18.83793-19.68457,16.50964-19.47291,16.50964-19.47291,0,0-5.50321,6.56152-14.39302,2.11662,0,0-4.55073-3.28076-4.39199-6.61444s-47.78272,42.38533-47.78272,42.38533c0,0-40.32163,28.89187-42.22659,44.44904s-1.90496-22.54201-1.90496-22.54201l68.89601-59.37121s38.73416-16.19215,14.60468-15.23967c-24.12948,.95248-72.90642,44.44904-72.90642,44.44904l-48.93974,47.94146s-40.90279,2.22245-3.18362-36.19422c37.71917-38.41667,65.02358-43.17907,65.02358-43.17907,0,0,19.36708-3.49242,12.38223-14.28719-6.98485-10.79477-25.28245-2.22245-25.28245-2.22245,0,0-20.75405,18.09711-22.02402,22.54201-1.26997,4.4449-29.84435,16.66394-21.27204,2.77584,8.57231-13.8881,41.5916-46.58989,41.5916-46.58989Z" style="fill:#6a4121; filter:url(#t);"/><path d="M406.00407,319.96516s-14.28719,4.28616-16.66839,12.85847c-2.3812,8.57231,6.66736,11.42975,10.00103,8.57231s15.71591-11.74725,16.66839-15.71591,1.58747-9.04855-1.26997-7.93733-8.73106,2.22245-8.73106,2.22245Z" style="fill:#774a23;"/><path d="M1134.80954,359.6518s32.06681-27.6219,49.52893,11.11226c0,0,9.52479,10.15978,19.36708,6.98485s23.177,25.08196,23.177,25.08196c0,0-.95248,4.7624,13.6522,5.07989,13.9697,5.39738,39.36915,13.33471,48.57645,26.51068,19.04959,1.11123,15.55716,24.76446,15.55716,24.76446,0,0-3.96866,7.77858-11.90599,4.60365s-15.23967-3.49242-15.23967-3.49242c0,0-12.22349,5.23864-13.81095,10.79477s-7.1436,1.90496-10.47727-2.22245c-9.68354,2.22245-18.4146-.15875-17.77962-7.46109s-8.25482-3.01618-8.25482-3.01618c0,0-16.3509,5.71488-10.63602-4.92114s12.38223-8.57231,12.38223-8.57231c0,0-.10583-11.5885,4.70948-14.44594,4.81531-2.85744,19.57874-10.47727,16.88005,4.12741-2.69869,14.60468,22.17893-1.26997,22.17893-1.26997,0,0-15.98781-14.76343-26.94132-16.3509-10.95351-1.58747-25.39945-1.74621-34.13051-10.79477-8.73106-9.04855-20.7958-22.54201-24.76446-22.85951-3.96866-.31749-24.28822-11.11226-23.81198-14.76343s-21.11329-4.92114-22.06577-3.17493-47.78272,37.62294-47.14773,45.24277-18.73209,12.54098-2.43411,51.91013c16.29798,39.36915,62.22865,18.25061,62.22865,18.25061l26.2461-2.79928s22.01286,5.92654-.63499,12.91139-40.2158,5.92654-40.2158,5.92654c0,0-43.17907,.63499-51.64555-7.40817-8.46648-8.04316-24.34114,4.23324-29.20937,14.60468s-7.61984,15.45133-7.61984,15.45133c0,0-12.2764,7.19651-10.5831-11.21809,1.6933-18.4146,34.28926-28.99771,34.28926-28.99771l13.54637-3.38659s1.6933-.42332-4.02158-15.66299-11.85308-39.58081-9.73646-43.81405,13.9697-17.35629,24.12948-25.61111c10.15978-8.25482,36.61754-31.11433,36.61754-31.11433Z" style="fill:#774a23; filter:url(#v);"/><path d="M1269.42662,323.66924c.21166,.63499,60.32369,87.41644,60.74702,88.47475s19.68457,8.25482,24.34114,1.6933c4.65657-6.56152,12.91139-19.26125,7.8315-21.80119s-18.62626,.21166-17.35629,5.71488-16.29798,2.11662-13.9697-2.11662,13.54637-7.61984,14.39302-11.64141-9.52479-10.15978-9.52479-10.15978c0,0-13.75804,6.77319-13.54637,8.25482s-13.9697-23.91782-13.9697-23.91782l-19.26125-24.97613-19.68457-9.52479Z" style="fill:#6a4121;"/><path d="M1167.51133,255.83155s26.35193,55.2438,44.13154,59.37121,20.63705-3.80992,20.63705-3.80992c0,0-10.15978-2.85744-18.09711-6.66736s-36.51171-48.89394-36.51171-48.89394c0,0-10.47727-5.39738-10.15978,0Z" style="fill:#774a23; filter:url(#x);"/><path d="M1002.09741,238.05193l37.72717-31.11433s3.22944-8.88981,1.32448-10.15978-12.69973-4.7624-20.63705-1.90496c-7.93733,2.85744-25.08196,16.36705-25.39945,21.042s-9.84229,12.29478-9.84229,12.29478c0,0,1.26997,9.2073,8.88981,4.12741,7.61984-5.07989,7.93733,5.71488,7.93733,5.71488Z" style="fill:#3a2311; filter:url(#a`);"/><path d="M252.45659,492.89308l15.97672-15.55716s19.09291-5.79222,5.54654,6.84034c-13.54637,12.63257,38.94582-8.16577,38.94582-8.16577,0,0,14.39302-6.29441,11.85308,2.17207s-3.38659,26.2461,2.11662,19.89624,26.66942-38.83999,43.60239-25.5582c16.93297,13.2818,0,20.37248,0,20.37248,0,0,19.47291,1.6933,12.69973,11.69433-6.77319,10.00103,10.15978,19.73749,10.15978,19.73749,0,0,7.61984,35.13591-9.73646,35.55923-17.35629,.42332-17.35629-7.61984-17.35629-7.61984,0,0-9.73646-12.69973-13.12305-10.15978s-6.34986,16.93297-19.47291,13.12305-14.81635-14.81635-14.81635-14.81635c0,0-4.65657,16.50964-13.54637,11.00643-8.88981-5.50321,10.15978-16.08632-7.61984-16.50964s-20.31956,11.85308-20.31956,11.85308c0,0-13.9697,5.07989-20.74288-7.61984-6.77319-12.69973-19.04959-17.69513-15.66299-24.51056s5.63577-7.23875,11.49603-8.50872,0-13.22888,0-13.22888Z" style="fill:#774a23;"/><path d="M455.16259,438.39009s12.69973-4.95923,11.85308-8.40615,10.15978-13.6067,8.46648-16.56997,0-16.08632-13.12305-9.31313c-13.12305,6.77319-18.34054,14.16949-17.63676,16.18622s2.39709,8.36659,5.78368,7.09661,4.65657,11.00643,4.65657,11.00643Z" style="fill:#6a4121; filter:url(#ab);"/><path d="M429.76314,451.08982s-20.74288,15.45133-20.74288,20.31956,1.6933,11.42975,5.71488,9.10147c0,0,3.17493,11.42975,10.15978,9.31313s11.85308-6.77319,11.85308-6.77319c0,0-2.96327-2.53995-11.21809-2.11662s9.10147-23.07117,9.10147-23.07117c0,0,4.65657-5.92654-4.86823-6.77319Z" style="fill:#3a2311; filter:url(#ad);"/><path d="M516.33293,264.72135s18.4146-.95248,0,11.74725-28.89187,8.88981-28.89187,8.88981c0,0-26.03444,18.09711-28.57438,18.4146s-5.39738,10.47727,12.38223,6.98485c17.77962-3.49242,20.95455-11.1578,20.95455-11.1578,0,0,3.80992,8.93535,11.74725,2.90298,7.93733-6.03237,12.38223-5.71488,12.38223-5.71488,0,0,13.9697-10.79477,13.9697-15.55716s6.66736-19.36708,6.66736-19.36708l20.3315-16.19215-8.26676-4.7624s9.79354-12.69973,16.48527-6.34986c6.69173,6.34986,14.31156-5.71488,14.31156-5.71488,0,0,7.30234-19.68457,13.33471-19.36708s7.61984-10.79477,2.85744-8.88981-17.77962,5.07989-17.77962,5.07989l-12.7241-10.15978s-17.12026,2.53995-22.51764,11.11226-8.88981,13.74778-2.85744,16.87493c6.03237,3.12714,.63499,12.01695,.63499,12.01695,0,0-16.19215,8.57231-22.54201,13.6522s-12.38223,9.2073-9.2073,12.06474,7.30234,3.49242,7.30234,3.49242Z" style="fill:#6a4121; filter:url(#af);"/><path d="M505.85566,322.8226s-10.47727,17.06526-11.42975,19.64489-12.38223,5.75456-3.80992,9.24699,15.23967-3.80992,15.23967-3.80992c0,0,17.77962-6.34986,23.49449-3.49242s18.4146,1.26997,18.4146,1.26997c0,0,6.03237,12.69973,7.93733,12.69973s17.46212-6.98485,17.46212-6.98485c0,0,10.47727-12.38223,8.57231,1.26997s4.4449,15.47557,4.4449,15.47557c0,0,11.42975,4.5265,13.9697-5.95077s-6.34986-9.52479-6.34986-9.52479c0,0,6.03237-6.03237-3.17493-7.93733,0,0-1.58747-5.71488-9.04855-5.87362,0,0-1.11123-6.8261-11.11226-6.34986-10.00103,.47624-13.17596,.95248-16.66839-.31749,0,0-.47624-10.00103-5.87362-8.09607s-10.79477,3.17493-12.06474,6.03237-22.85951,9.52479-22.85951,9.52479c0,0-8.09607-2.85744-1.74621-10.00103s-5.39738-6.8261-5.39738-6.8261Z" style="fill:#3a2311; filter:url(#ah);"/><path d="M569.33461,265.25051s10.92027,4.65657,11.97858,9.73646c0,0,18.12357,11.56204,10.42436,18.2294-7.69921,6.66736-15.23967-11.50913-15.23967-11.50913,0,0-7.1436-.87311-2.22245,7.1436,4.92114,8.0167,10.71539,9.76291,10.71539,9.76291,0,0-6.66736,5.55613-12.54098,2.30183-5.87362-3.2543-23.81198-25.39945-20.87517-31.90806,2.93681-6.50861,3.80992-8.57231,6.98485-5.55613s10.7751,1.79913,10.7751,1.79913Z" style="fill:#774a23;"/><path d="M750.00787,161.53609s-36.8292,39.39958-39.36915,52.08409-41.90909,39.87757-41.90909,39.87757c0,0,4.02158,16.40933-13.54637,11.32944s-19.26125-.42332-19.26125-.42332c0,0-18.20294,10.15978-18.20294,11.64141s2.53995,6.01188,10.79477,5.96921,14.60468-2.15929,14.60468-2.15929c0,0,5.29155-3.38659,7.19651,.63499,1.90496,4.02158,12.69973-3.38659,12.69973-3.38659l8.88981-9.52479s2.46384-5.50321,5.46516-2.53995c3.00132,2.96327,11.04448-11.54111,11.04448-11.54111,0,0,16.29798-25.92308,13.75804-10.04843s-9.10147,16.08632-9.10147,16.08632l17.56795-.84665s7.40817,14.60468-6.56152,19.68457c-13.9697,5.07989,8.46648,5.50321,8.46648,5.50321l-24.12948,41.90909s-38.09918,23.70615-36.8292,54.60882c0,0,3.80992,19.47291,15.66299,11.85308s14.81635,5.92654,14.81635,5.92654c0,0,0,24.97613,14.81635,24.12948,0,0-13.12305,28.78604,2.96327,33.86593,0,0-8.40377,24.97613,7.22787,22.85951s21.63167-11.42975,21.63167-11.42975c0,0-22.08635,38.75272-18.27644,53.2423,3.80992,14.48957,14.39302,0,14.39302,0l15.23967-16.41309s41.90909-6.34986,49.52893-38.5225c7.61984-32.17264-28.36272-3.80992-28.36272-3.80992,0,0-10.5831,11.42975-18.62626,11.85308s16.08632-47.83563,16.08632-47.83563c0,0,2.11662-20.74288-11.00643-2.96327l-2.75161,11.21809s-10.37144,7.61984-10.37144-10.5831-3.59826-46.98898-3.59826-46.98898c0,0-7.6845-3.59826-2.25479-13.33471s12.62623-19.26125,14.10786-36.8292c1.48163-17.56795,15.66299-31.53765,15.66299-31.53765,0,0-7.19651-7.61984,.42332-19.04959s29.63269-55.2438,29.63269-55.2438c0,0,4.65877-13.12305,2.11772-12.91139s-15.24077,8.77372-16.08742,15.60495-15.02801,19.53095-9.52479,2.59799,17.14463-33.44261,17.14463-33.44261c0,0,10.15978-16.08632-.42332-8.46648s-23.49449,36.19422-23.49449,36.19422c0,0-20.31956,10.15978-10.15978-7.61984,10.15978-17.77962,15.66299-25.82277,15.66299-25.82277,0,0,12.06474-8.55337,5.71488-11.68486-6.34986-3.13149-15.87466,9.7799-15.87466,9.7799l-18.62626,27.72773s-15.66299,25.61111-17.35629,24.76446-9.52479,.94223,0-14.02774c9.52479-14.96997,24.97613-38.04113,24.97613-38.04113l13.33471-16.93297s6.77319-12.2764-5.92654-6.98485Z" style="fill:#6a4121; filter:url(#aj);"/><path d="M498.34165,529.40479s-8.25482-10.37144,0-19.68457c0,0-4.4449-8.67815,0-11.42975,0,0-4.3038-1.6933-1.8344-9.94812s-4.93878-6.98485-4.93878-6.98485c0,0-14.80458,4.65657-4.12153-5.92654s31.42594-28.78604,33.11924-33.23095,23.07117-26.88108,32.59596-27.9394,12.2764-.63499,15.23967-1.26997,10.15978-9.10147,10.15978-9.10147c0,0,3.80992-7.8315,11.00643,0,0,0,25.18779-.63499,33.23095-15.02801,8.04316-14.39302,17.77962-11.21809,13.75804,0,0,0-7.8315,9.94812-1.6933,7.8315,6.1382-2.11662,11.64141-7.8315,11.64141-7.8315,0,0,9.94812,3.59826,7.61984,7.40817s-21.58953,4.23324-20.74288,12.06474-12.67231-1.90496-8.45278-8.67815-5.30526-1.48163-5.30526-1.48163c0,0-13.9697,15.87466-21.58953,17.77962-7.61984,1.90496-19.89624,1.6933-19.89624,1.6933,0,0-7.85334-1.48163-9.11239,4.65657s-11.20717-2.01672-11.20717-2.01672c0,0-15.23967,3.07503-16.50964,14.92811s-18.62626,11.98779-18.62626,11.98779c0,0-11.64141,19.80053-18.83793,28.01635,0,0-3.59826,8.67815,0,13.9697,3.59826,5.29155,2.11662,13.33471,2.11662,13.33471,0,0,9.52479,2.75161,2.11662,10.37144s-6.77319,12.69973-1.48163,15.66299-8.25482,.84665-8.25482,.84665Z" style="fill:#774a23; filter:url(#al);"/><path d="M564.59188,520.51498s16.08632-28.57438,22.43618-16.93297c6.34986,11.64141,12.69973,11.21809,16.50964,6.1382s24.5528-6.98485,14.18136,3.80992,5.29155,13.75143,5.29155,13.75143c0,0,22.85951-7.63008,14.18136,2.85562-8.67815,10.4857-6.56152,18.74052-6.56152,18.74052,0,0-8.46648,8.67815-12.91139,3.59826s-4.99656-14.39302-10.64727-14.18136c-5.65071,.21166-13.90553,1.05831-16.23382-1.05831s-6.77319-9.52479-11.42975-8.46648c-4.65657,1.05831-16.08632,2.53995-19.68457,4.02158-3.59826,1.48163,4.86823-12.2764,4.86823-12.2764Z" style="fill:#3a2311; filter:url(#an);"/><path d="M663.43808,562.63574s7.19651-11.00643,10.79477-12.06474,9.94812-.84665,5.50321,7.8315c-4.4449,8.67815-5.71488,9.31313-.63499,7.19651,5.07989-2.11662,14.60468-13.54637,14.60468-13.54637,0,0,6.77319,0,5.92654,3.80992s7.40817,4.65657,7.40817,4.65657c0,0,3.38659-4.29239,5.92654-2.1462s6.77319,4.68614,9.31313,1.51121,12.2764-15.66299,13.75804-2.53995c1.48163,13.12305,9.10147,14.60468,11.64141,13.33471s6.1382-1.9502,6.98485,3.46981,2.11662,10.28823,4.02158,7.74829-9.73646,14.60468-9.73646,14.60468c0,0-3.80992,4.86823-6.56152-1.48163-2.75161-6.34986,2.75161-14.18136-8.46648-12.91139s-15.23967,6.77319-15.23967,6.77319c0,0-5.92654,2.53995-5.07989-2.32828s2.53995-12.34717,2.53995-12.34717c0,0,4.65657-3.73915-.21166-6.2791-4.86823-2.53995-13.9697-1.05831-14.39302,.63499s-6.77319,11.21809-6.77319,11.21809c0,0-7.61984,3.38659-9.10147,.21166s-7.40817-2.53995-7.40817-2.53995l-14.81635-2.11662s-5.71488,.21166-7.8315,2.32828-6.98485-4.02158-5.07989-6.56152,12.91139-8.46648,12.91139-8.46648Z" style="fill:#3a2311;"/><path d="M806.94497,177.41074s-15.66299,4.4449-9.10147,11.85308c6.56152,7.40817,15.23967-7.61984,15.23967-7.61984,0,0-5.92654,16.0128,4.23324,12.13381s12.91139-1.12738,8.88981,5.01082c-4.02158,6.1382-5.34064,14.81635,1.77458,11.42975,7.11522-3.38659,16.00503-8.88981,16.42836-14.39302,.42332-5.50321,1.48163-14.39302,1.48163-14.39302,0,0-11.64141-5.71488-18.4146-1.6933-6.77319,4.02158-20.53122-2.32828-20.53122-2.32828Z" style="fill:#774a23;"/><path d="M885.73618,202.01646s-20.31956,14.92218,1.74621,10.79477c22.06577-4.12741,11.74725,5.71488,11.74725,5.71488,0,0,9.2073,4.60365,13.9697,.79373s8.25482-.31749,8.25482-.31749c0,0,11.5885-6.50861,6.34986-10.79477s-12.22349-4.92114-12.22349-4.92114l-14.60468-1.26997h-15.23967Z" style="fill:#6a4121;"/><path d="M1054.00754,182.01439c.84382-.13705,16.82714,.63499,31.59057,7.93733,14.76343,7.30234,32.70179,16.66839,32.70179,16.66839,0,0,26.98692,17.46212,28.09814,21.43079s4.92114,9.2073,0,8.41357c-4.92114-.79373-12.22349-10.47727-12.22349-10.47727l-15.08092-10.07233-19.84332-9.4535-20.47831-8.88981s-22.70076-6.98485-23.97073-6.03237-10.22817-7.99253-.79373-9.52479Z" style="fill:#3a2311;"/><path d="M904.52119,251.9158s12.2764-13.9697,18.62626-6.1382c6.34986,7.8315,9.94812,10.37144,9.94812,10.37144,0,0,11.64141,13.33471,11.21809,26.03444-.42332,12.69973,7.19651,15.87466,7.19651,15.87466,0,0,4.4449,11.64141,4.02158,18.62626-.42332,6.98485,12.48806,6.77319,12.48806,6.77319,0,0,2.32828,19.47291-7.61984,29.42103-9.94812,9.94812,5.50321,15.45133,5.50321,15.45133,0,0-2.96327,12.48806-8.88981,17.99128s-8.88981,8.46648-15.87466,6.34986c-6.98485-2.11662-10.5831-3.17493-14.39302-1.48163s-39.79247,2.16805-39.79247,2.16805l-25.61111,1.00688s-10.79477-4.02158-12.48806-11.64141c-1.6933-7.61984-6.34986-19.47291-5.29155-21.37787s6.98485-6.98485,9.94812-7.19651,6.34986-6.77319,6.34986-6.77319c0,0,13.75804-3.59826,15.87466-1.05831s5.92654-.06078,8.25482-2.57034,5.71488-10.55271,4.23324-16.47925,3.17493-13.9697,3.17493-13.9697c0,0-1.26997-5.29155-6.77319-3.17493s-12.06474,4.65657-12.06474,2.32828,1.6933-13.12305,5.50321-15.66299,4.02158-6.34986,4.02158-6.34986c0,0-6.1382-2.75161-1.05831-8.88981,5.07989-6.1382-5.50321-6.1382-5.50321-6.1382,0,0-2.99433-3.59826,1.67776-8.67815,4.6721-5.07989-2.31275-4.4449-2.31275-4.4449,0,0-6.98485,6.1382-8.25482,5.50321s-2.96327-7.8315,.84665-9.52479,18.4146-9.94812,18.4146-9.94812c0,0,8.04316-3.38659,13.33471,1.6933s5.29155,1.90496,5.29155,1.90496Z" style="fill:#6a4121; filter:url(#ap);"/><path d="M1062.20944,248.5292s16.08632-2.75161,14.18136,9.73646c0,0,6.56152-2.96327,8.25482,5.07989,0,0,12.06474-5.50321,9.73646,6.56152-2.32828,12.06474-3.59826,18.83793,2.32828,17.56795,5.92654-1.26997,11.85308,16.08632-3.80992,27.30441-15.66299,11.21809,8.04316,13.9697,8.04316,13.9697,0,0,2.53995,14.39302-5.92654,23.91782s-.42332,13.75804,1.90496,12.2764,15.02801-9.94812,15.02801-9.94812c0,0,17.77962,.63499,11.00643,8.67815-6.77319,8.04316-23.66079,23.07117-23.66079,23.07117,0,0-18.88329,2.96327-14.22673-3.38659,4.65657-6.34986,5.50321-10.5831,0-8.88981-5.50321,1.6933-17.14463,11.00643-6.98485-5.29155,10.15978-16.29798,.21166-11.85308,.21166-11.85308,0,0-14.60468-5.49652-6.98485-19.99872s10.5831-20.93238,10.5831-20.93238c0,0,5.50321-11.34944-5.71488-12.40775s-3.80992-11.00643-3.80992-11.00643c0,0,9.31313-16.93297,1.90496-15.02801s-16.93297,.42332-15.23967-5.29155-11.64141,.63499-11.64141,.63499c0,0-13.9697-11.00643,14.81635-24.76446Z" style="fill:#6a4121; filter:url(#ar);"/><path d="M788.31871,560.73078s14.39302-30.90266,24.12948-37.25253,11.42975-24.68513,11.42975-24.68513c0,0,38.5225-33.31028,46.98898-30.34701s22.85951-10.5831,22.85951-10.5831c0,0-15.23967-11.00643-8.46648-17.77962,6.77319-6.77319,27.51607-15.56793,31.74931-4.60903,4.23324,10.9589,7.19651,41.86156,14.81635,42.70821,7.61984,.84665,22.85951-4.65657,23.28283,5.92654s4.65657,37.48275,8.88981,36.73265-7.19651,16.60619-7.19651,16.60619c0,0-11.42975,17.35629-15.23967,14.39302s-17.17694-17.35629-12.39839-27.09275c4.77855-9.73646,14.09168-17.85326,9.43512-23.95464-4.65657-6.10138-16.08632,6.17502-16.08632,6.17502,0,0-20.45708-5.13595-19.33001-11.45778s0-16.48161,0-16.48161c0,0-6.06944-7.94782-14.1126,1.74097-8.04316,9.68879-21.16621,18.50495-25.39945,20.02341s-1.6933-18.28244,1.6933-20.02341-16.93297,9.68879-16.93297,9.68879l-23.70615,36.97332-17.77962,22.69537-10.7076,16.95298s-6.64869,.42332-7.91866-6.34986Z" style="fill:#774a23; filter:url(#at);"/><path d="M1010.14057,400.29092s-14.18136,1.05831-7.19651,20.74288c6.98485,19.68457,.84665,29.63269,.84665,29.63269,0,0,11.64141,12.69973,0,20.74288s-25.82277,30.26768-25.82277,30.26768c0,0-7.19651,16.73987-2.96327,19.1647s16.08632-2.4434,18.20294-8.79326,10.15978-16.29798,10.15978-16.29798c0,0,10.37144-26.03444,14.18136-27.72773,0,0-4.23324-7.61984,1.90496-10.37144s7.19651-13.33471,1.90496-19.68457c-5.29155-6.34986-11.21809-21.58953-8.04316-24.34114,3.17493-2.75161,3.80992-14.39302-3.17493-13.33471Z" style="fill:#6a4121; filter:url(#av);"/><path d="M1341.49756,442.5175s4.4449-14.84045,9.2073-10.59516,12.50695,19.16747,13.23833,22.97739,10.57366,4.4449,10.57366,4.4449c0,0,8.57231,6.98485,6.66736,13.33471s-10.79477,9.52479-12.38223,4.12741-14.92218-12.06474-14.92218-12.06474c0,0-19.68457-2.46194-17.46212-7.89832s5.07989-14.32619,5.07989-14.32619Z" style="fill:#774a23; filter:url(#ax);"/><path d="M556.90998,212.3841s27.51607-14.39302,9.31313,6.77319-24.4875-5.1551-9.31313-6.77319Z" style="fill:#774a23;"/><path d="M898.87078,238.52163s7.57559-46.91704-3.20182-72.27813c0,0,37.14874,36.00323,31.28731,66.00748-12.06388,11.60039-28.08549,6.27065-28.08549,6.27065Z" style="fill:#52770e;"/><path d="M902.7171,233.73562s23.75534-41.16166,22.69488-68.69732c0,0,21.9279,46.8554,5.78562,72.81765-15.39906,6.55554-28.4805-4.12033-28.4805-4.12033Z" style="fill:#52770e;"/><path d="M613.44021,362.03511s-.09213-47.52463-14.81956-70.81497c0,0,42.47012,29.53897,41.52564,60.09579-10.03454,13.39456-26.70609,10.71918-26.70609,10.71918Z" style="fill:#52770e;"/><path d="M616.4641,356.69131s16.80414-44.45469,11.31561-71.45864c0,0,29.19927,42.70438,17.45655,70.93062-14.13985,8.95381-28.77216,.52802-28.77216,.52802Z" style="fill:#52770e;"/><path d="M895.95175,560.9787s-.09213-47.52463-14.81956-70.81497c0,0,42.47012,29.53897,41.52564,60.09579-10.03454,13.39456-26.70609,10.71918-26.70609,10.71918Z" style="fill:#52770e;"/><path d="M898.97564,555.6349s16.80414-44.45469,11.31561-71.45864c0,0,29.19927,42.70438,17.45655,70.93062-14.13985,8.95381-28.77216,.52802-28.77216,.52802Z" style="fill:#52770e;"/><path d="M903.4925,548.15509s33.49852-33.71124,39.52045-60.60127c0,0,9.20614,50.90686-13.04295,71.87326-16.56395,2.39621-26.4775-11.27199-26.4775-11.27199Z" style="fill:#52770e;"/></g></g></svg>