<?xml version="1.0" encoding="UTF-8"?><svg xmlns="http://www.w3.org/2000/svg" xmlns:xlink="http://www.w3.org/1999/xlink" viewBox="0 0 1920 1080"><defs><style>.cd{fill:#3f562a;}.ce{stroke:#226135;}.ce,.cf,.cg,.ch,.ci,.cj{stroke-miterlimit:10;}.ce,.cg{stroke-width:3px;}.ce,.cg,.ck{fill:none;}.cl{fill:url(#be);}.cm{fill:url(#t);}.cn{fill:url(#bu);}.co{fill:url(#bq);}.cp{fill:url(#ca);}.cq{fill:url(#ap);}.cr{fill:url(#r);}.cs{fill:url(#bk);}.ct{fill:url(#ai);}.cu{fill:url(#y);}.cv{fill:url(#l);}.cf{stroke-width:.10341px;}.cf,.ch,.ci,.cj{fill:#497015;stroke:#000;}.cw{fill:url(#bl);}.cx{fill:url(#bp);}.cy{fill:url(#af);}.d`{fill:url(#c);}.da{fill:url(#br);}.db{fill:url(#aq);}.dc{fill:url(#u);}.dd{fill:url(#ah);}.de{isolation:isolate;}.df{fill:url(#b`);}.dg{fill:url(#v);}.dh{fill:url(#av);}.di{fill:url(#a`);}.dj{fill:url(#as);}.dk{fill:url(#m);}.dl{fill:#597634;}.dm{fill:url(#bh);}.dn{fill:url(#aw);}.do{fill:url(#bm);}.dp{fill:url(#ba);}.dq{fill:url(#ao);}.cg{stroke:#355c2e;}.dr{fill:url(#bj);}.ds{fill:url(#bd);}.dt{fill:url(#f);}.du{fill:url(#bg);}.dv{fill:url(#ae);}.dw{fill:url(#bi);}.dx{fill:url(#bo);}.dy{fill:url(#p);}.e`{opacity:.31;}.e`,.ea{mix-blend-mode:multiply;}.eb{fill:url(#g);}.ec{fill:url(#bb);}.ed{fill:url(#ad);}.ee{fill:url(#ab);}.ef{fill:url(#cb);}.eg{clip-path:url(#b);}.eh{fill:url(#ak);}.ei{fill:url(#au);}.ej{fill:url(#bf);}.ek{fill:url(#c`);}.el{fill:url(#i);}.ch{stroke-width:.16457px;}.em{fill:url(#bc);}.ea{opacity:.29;}.en{fill:url(#aj);}.eo{fill:url(#ar);}.ep{fill:url(#bv);}.eq{fill:url(#h);}.er{fill:url(#d);}.es{fill:url(#e);}.et{fill:url(#by);}.eu{fill:url(#am);}.ev{fill:url(#bw);}.ew{fill:url(#x);}.ci{stroke-width:.5px;}.ex{fill:url(#at);}.ey{fill:url(#aa);}.f`{fill:url(#s);}.fa{fill:url(#bx);}.fb{fill:url(#bn);}.fc{fill:url(#n);}.fd{fill:url(#ac);}.fe{fill:url(#cc);}.ff{fill:url(#w);}.fg{fill:url(#al);}.fh{fill:url(#j);}.fi{fill:url(#o);}.fj{fill:url(#an);}.fk{fill:url(#bt);}.fl{fill:url(#ax);}.fm{fill:url(#q);}.fn{fill:url(#ag);}.fo{fill:url(#ay);}.fp{fill:url(#k);}.fq{fill:url(#bs);}.cj{stroke-width:.37709px;}</style><clipPath id="b"><rect width="1920" height="1080" style="fill:none;"/></clipPath><linearGradient id="c" x1="960" y1="-12.33333" x2="960" y2="890.33333" gradientTransform="matrix(1, 0, 0, 1, 0, 0)" gradientUnits="userSpaceOnUse"><stop offset="0" stop-color="#6a724d"/><stop offset="1" stop-color="#dbb872"/></linearGradient><linearGradient id="d" x1="1570.97026" y1="1003.31722" x2="1574.97026" y2="-190.01611" xlink:href="#c"/><linearGradient id="e" x1="63.41384" y1="998.26396" x2="67.41384" y2="-195.06938" xlink:href="#c"/><linearGradient id="f" x1="540.39362" y1="999.86277" x2="544.39362" y2="-193.47056" xlink:href="#c"/><linearGradient id="g" x1="986.28953" y1="1001.3574" x2="990.28953" y2="-191.97594" xlink:href="#c"/><linearGradient id="h" x1="379.69988" y1="1.93067" x2="387.69988" y2="435.264" xlink:href="#c"/><linearGradient id="i" x1="1808.58448" y1="-24.44874" x2="1816.58448" y2="408.88459" xlink:href="#c"/><linearGradient id="j" x1="746.76377" y1="-4.8459" x2="754.76377" y2="428.48744" xlink:href="#c"/><linearGradient id="k" x1="161.59601" y1="5.9572" x2="169.59601" y2="439.29054" xlink:href="#c"/><linearGradient id="l" x1="1598.06613" y1="-20.56225" x2="1606.06613" y2="412.77109" xlink:href="#c"/><linearGradient id="m" x1="583.65987" y1="-1.83475" x2="591.65987" y2="431.49859" xlink:href="#c"/><linearGradient id="n" x1="1200.06724" y1="-13.21457" x2="1208.06724" y2="420.11876" xlink:href="#c"/><linearGradient id="o" x1="1362.6171" y1="-16.2155" x2="1370.6171" y2="417.11784" xlink:href="#c"/><linearGradient id="p" x1="1004.53321" y1="-9.60472" x2="1012.53321" y2="423.72862" xlink:href="#c"/><linearGradient id="q" x1="1105.75012" y1="-11.47334" x2="1113.75012" y2="421.86" xlink:href="#c"/><linearGradient id="r" x1="1080.32091" y1="-11.00387" x2="1088.32091" y2="422.32946" xlink:href="#c"/><linearGradient id="s" x1="140.66769" y1="196.98813" x2="148.66769" y2="-27.01187" gradientTransform="matrix(1, 0, 0, 1, 0, 0)" gradientUnits="userSpaceOnUse"><stop offset="0" stop-color="#004223"/><stop offset="1" stop-color="#009245"/></linearGradient><linearGradient id="t" x1="1837.17045" y1="257.57752" x2="1845.17045" y2="33.57752" xlink:href="#s"/><linearGradient id="u" x1="575.93852" y1="212.53352" x2="583.93852" y2="-11.46648" xlink:href="#s"/><linearGradient id="v" x1="1587.48816" y1="248.66029" x2="1595.48816" y2="24.66029" xlink:href="#s"/><linearGradient id="w" x1="383.2508" y1="205.65181" x2="391.2508" y2="-18.34819" xlink:href="#s"/><linearGradient id="x" x1="1115.09577" y1="231.78913" x2="1123.09577" y2="7.78913" xlink:href="#s"/><linearGradient id="y" x1="1309.02219" y1="238.71508" x2="1317.02219" y2="14.71508" xlink:href="#s"/><linearGradient id="a`" x1="882.22105" y1="223.47218" x2="890.22105" y2="-.52782" xlink:href="#s"/><linearGradient id="aa" x1="-46.02165" y1="-274.75755" x2="-66.02165" y2="106.57579" gradientTransform="matrix(1, 0, 0, 1, 0, 0)" gradientUnits="userSpaceOnUse"><stop offset="0" stop-color="#786837"/><stop offset=".07995" stop-color="#716738"/><stop offset=".69479" stop-color="#406642"/><stop offset="1" stop-color="#2e6646"/></linearGradient><linearGradient id="ab" x1="126.97694" y1="-265.68419" x2="106.97694" y2="115.64914" xlink:href="#aa"/><linearGradient id="ac" x1="703.3611" y1="950.29892" x2="724.69443" y2="347.63225" gradientTransform="matrix(1, 0, 0, 1, 0, 0)" gradientUnits="userSpaceOnUse"><stop offset="0" stop-color="#635144"/><stop offset=".5929" stop-color="#405e45"/><stop offset="1" stop-color="#2e6646"/></linearGradient><linearGradient id="ad" x1="1320.70358" y1="972.15175" x2="1342.03691" y2="369.48508" gradientTransform="matrix(1, 0, 0, 1, 0, 0)" gradientUnits="userSpaceOnUse"><stop offset="0" stop-color="#485144"/><stop offset=".24809" stop-color="#405644"/><stop offset="1" stop-color="#2e6646"/></linearGradient><linearGradient id="ae" x1="1713.91785" y1="986.07084" x2="1735.25118" y2="383.40417" gradientTransform="matrix(1, 0, 0, 1, 0, 0)" gradientUnits="userSpaceOnUse"><stop offset="0" stop-color="#a25144"/><stop offset=".37639" stop-color="#715944"/><stop offset=".79288" stop-color="#406245"/><stop offset="1" stop-color="#2e6646"/></linearGradient><linearGradient id="af" x1="173.44693" y1="931.54089" x2="194.78026" y2="328.87423" xlink:href="#ae"/><linearGradient id="ag" x1="120.04446" y1="-266.04778" x2="100.04446" y2="115.28555" xlink:href="#aa"/><linearGradient id="ah" x1="126.73469" y1="-265.6969" x2="106.73469" y2="115.63643" xlink:href="#aa"/><linearGradient id="ai" x1="1973.57279" y1="-168.83476" x2="1953.57279" y2="212.49857" xlink:href="#aa"/><linearGradient id="aj" x1="530.61797" y1="-244.42044" x2="510.61797" y2="136.9129" xlink:href="#aa"/><linearGradient id="ak" x1="1676.43687" y1="-184.41881" x2="1656.43687" y2="196.91452" xlink:href="#aa"/><linearGradient id="al" x1="242.91445" y1="-259.60355" x2="222.91445" y2="121.72978" xlink:href="#aa"/><linearGradient id="am" x1="1114.13363" y1="-213.91024" x2="1094.13363" y2="167.42309" xlink:href="#aa"/><linearGradient id="an" x1="1370.36872" y1="-200.47134" x2="1350.36872" y2="180.862" xlink:href="#aa"/><linearGradient id="ao" x1="1313.51686" y1="809.9837" x2="1313.51686" y2="699.45863" gradientTransform="matrix(1, 0, 0, 1, 0, 0)" gradientUnits="userSpaceOnUse"><stop offset="0" stop-color="#823423"/><stop offset="1" stop-color="#009245"/></linearGradient><linearGradient id="ap" x1="1356.50944" y1="808.47849" x2="1356.50944" y2="664.0163" xlink:href="#ao"/><linearGradient id="aq" x1="1402.05003" y1="808.68017" x2="1402.05003" y2="680.02725" xlink:href="#ao"/><linearGradient id="ar" x1="428.47446" y1="635.72377" x2="428.47446" y2="544.46991" xlink:href="#ao"/><linearGradient id="as" x1="456.12908" y1="636.70382" x2="456.12908" y2="555.55497" xlink:href="#ao"/><linearGradient id="at" x1="477.68038" y1="640.37867" x2="477.68038" y2="595.62899" xlink:href="#ao"/><linearGradient id="au" x1="836.64484" y1="-228.46385" x2="816.64484" y2="152.86948" xlink:href="#aa"/><linearGradient id="av" x1="957.67657" y1="894.40099" x2="983.0099" y2="641.06766" gradientTransform="matrix(1, 0, 0, 1, 0, 0)" gradientUnits="userSpaceOnUse"><stop offset="0" stop-color="#004826"/><stop offset="1" stop-color="#009245"/></linearGradient><linearGradient id="aw" x1="1036.59635" y1="974.22019" x2="1059.26301" y2="846.22019" gradientTransform="matrix(1, 0, 0, 1, 0, 0)" gradientUnits="userSpaceOnUse"><stop offset="0" stop-color="#a25144"/><stop offset=".26543" stop-color="#85664d"/><stop offset=".75617" stop-color="#548a5c"/><stop offset="1" stop-color="#429962"/></linearGradient><linearGradient id="ax" x1="1187.93764" y1="1001.02021" x2="1210.60431" y2="873.02021" xlink:href="#aw"/><linearGradient id="ay" x1="915.59346" y1="952.79259" x2="938.26012" y2="824.79259" xlink:href="#aw"/><linearGradient id="b`" x1="1072.9782" y1="1065.80971" x2="362.31153" y2="715.14305" xlink:href="#s"/><linearGradient id="ba" x1="1689.38204" y1="977.76596" x2="1333.38237" y2="735.09952" gradientTransform="matrix(1, 0, 0, 1, 0, 0)" gradientUnits="userSpaceOnUse"><stop offset="0" stop-color="#405144"/><stop offset=".65402" stop-color="#12613a"/><stop offset="1" stop-color="#006837"/></linearGradient><linearGradient id="bb" x1="980.54752" y1="1092.06152" x2="2188.54752" y2="484.06152" gradientTransform="matrix(1, 0, 0, 1, 0, 0)" gradientUnits="userSpaceOnUse"><stop offset="0" stop-color="#495144"/><stop offset=".06912" stop-color="#435242"/><stop offset=".69119" stop-color="#12623a"/><stop offset="1" stop-color="#006837"/></linearGradient><linearGradient id="bc" x1="1133.26579" y1="232.43806" x2="1141.26579" y2="8.43806" xlink:href="#s"/><linearGradient id="bd" x1="1273.02375" y1="237.42942" x2="1281.02375" y2="13.42942" xlink:href="#s"/><linearGradient id="be" x1="1923.93986" y1="260.67642" x2="1931.93986" y2="36.67642" xlink:href="#s"/><linearGradient id="bf" x1="227.82582" y1="200.10092" x2="235.82582" y2="-23.89908" xlink:href="#s"/><linearGradient id="bg" x1="1610.21451" y1="1080" x2="1610.21451" y2="878.12206" xlink:href="#s"/><linearGradient id="bh" x1="1875.72572" y1="1526.47559" x2="1875.72572" y2="-1.27382" gradientTransform="matrix(1, 0, 0, 1, 0, 0)" gradientUnits="userSpaceOnUse"><stop offset="0" stop-color="#292821"/><stop offset="1" stop-color="#16164f"/></linearGradient><linearGradient id="bi" x1="118.5861" y1="1011.77043" x2="118.5861" y2="696.59133" xlink:href="#ao"/><linearGradient id="bj" x1="194.60576" y1="1073.95" x2="194.60576" y2="781.84132" xlink:href="#ao"/><linearGradient id="bk" x1="118.05444" y1="1233" x2="118.05444" y2="-74.33238" xlink:href="#bh"/><linearGradient id="bl" x1="144.42491" y1="118.15877" x2="144.42491" y2="-74.45865" xlink:href="#bh"/><linearGradient id="bm" x1="387.03886" y1="74.03218" x2="387.03886" y2="-112.37621" xlink:href="#bh"/><linearGradient id="bn" x1="112.64854" y1="160.60019" x2="112.64854" y2="135.11412" xlink:href="#bh"/><linearGradient id="bo" x1="427.90669" y1="114.21313" x2="427.90669" y2="86.46164" xlink:href="#bh"/><linearGradient id="bp" x1="604.18693" y1="54.72959" x2="604.18693" y2="33.19751" xlink:href="#bh"/><linearGradient id="bq" x1="910.05258" y1="58.87575" x2="910.05258" y2="38.86073" xlink:href="#bh"/><linearGradient id="br" x1="679.91128" y1="394.01502" x2="679.91128" y2="374" gradientTransform="translate(-100.50432 447.43947) rotate(-34.00984)" xlink:href="#bh"/><linearGradient id="bs" x1="1525.05258" y1="155.78177" x2="1525.05258" y2="135.76675" xlink:href="#bh"/><linearGradient id="bt" x1="1769.36316" y1="204.86682" x2="1769.36316" y2="162.97716" xlink:href="#bh"/><linearGradient id="bu" x1="1250.01312" y1="60.77939" x2="1250.01312" y2="29.98899" xlink:href="#bh"/><linearGradient id="bv" x1="1402.66539" y1="335.84144" x2="1402.66539" y2="305.05104" gradientTransform="translate(2586.35438 1051.8926) rotate(-134.87366) scale(.96035 -.99771) skewX(1.12575)" xlink:href="#bh"/><linearGradient id="bw" x1="210.37554" y1="1080" x2="210.37554" y2="908.63" xlink:href="#s"/><linearGradient id="bx" x1="1721.32034" y1="1075.24446" x2="1719.32034" y2="824.24446" xlink:href="#bh"/><linearGradient id="by" x1="1641.03581" y1="-153.65739" x2="1078.17026" y2="1152.265" gradientTransform="matrix(1, 0, 0, 1, 0, 0)" gradientUnits="userSpaceOnUse"><stop offset="0" stop-color="#ffff9f" stop-opacity=".3"/><stop offset=".10617" stop-color="#ffa" stop-opacity=".26348"/><stop offset=".70347" stop-color="#ffffe7" stop-opacity=".07355"/><stop offset="1" stop-color="#fff" stop-opacity="0"/></linearGradient><linearGradient id="c`" x1="1969.76551" y1="-153.42218" x2="1404.4484" y2="1158.18813" xlink:href="#by"/><linearGradient id="ca" x1="1552.83638" y1="130.52168" x2="1552.83638" y2="-76.22564" xlink:href="#bh"/><linearGradient id="cb" x1="824.87324" y1="73.99103" x2="824.87324" y2="-132.75629" xlink:href="#bh"/><linearGradient id="cc" x1="1859.70227" y1="197.78443" x2="1859.70227" y2="-71.31913" xlink:href="#bh"/></defs><g style="isolation:isolate;"><g id="a"><g style="clip-path:url(#b);"><rect width="1920" height="1080" style="fill:url(#c);"/><g><path d="M1657,786.49996l-41.33333-503.70145S1609,262.16667,1741,.00003h-20.66667l-104.72278,183.1965L1605.66667,.00003h-49.33333l-32.66667,250.42784-69.33333-189.77735L1483.66667,.00003h-20l-12.66667,31.6592L1433.66667,.00003h-26l110.66667,432.9129,13,353.58703h125.66667Z" style="fill:url(#d);"/><path d="M142.69346,683.99997l-4.5709-248.37076s6.1745-26.57478,29.0944-56.57691c.09394-.12297-.00642-.33851-.11928-.25443l-28.97511,21.584-10.28452-306.56985S140.97937,51.18734,167.83339-1.27382h-25.13993l-10.28452,21.76773L122.69579-1.27382h-39.99534l-6.28498,173.77756L-4.71793-1.27382h-30.28219L72.9873,283.16399l-9.14179,394.27834,75.99114,6.55764" style="fill:url(#e);"/><polygon points="536.63137 811.00005 392.03022 811.00005 378.68732 554.0388 315.0002 479.2273 315.0002 444.53211 385.05603 497.65912 385.05603 0 481.86045 0 504.78781 229.85563 633.4358 63.96926 610.50843 0 643.62574 0 666.5531 58.54813 718.77654 0 770.99998 0 516.2515 376.22596 536.63137 811.00005" style="fill:url(#f);"/><path d="M1004.02547,786.49997v-229.05496l133.56661-199.44922-18.72429-35.83853-48.05901,74.79346-5.61729-152.70331h-26.21401l-3.74486,179.19266s-23.50939,81.41579-31.20715,71.02781c-13.38317-18.06032,9.98629-385.78361,9.98629-385.78361L1052.70863,.00002h-88.62831l-37.44858,124.26621L866.71401,.00002h-26.21401l69.90402,202.17606-3.74486,584.32388h97.36631Z" style="fill:url(#g);"/></g><path d="M302.47499,203.74995s10.69135,30.59938,20.09237,22.67304,14.74669-12.35035,14.74669-12.35035c0,0,4.79267,27.09704,15.85269,16.59003,11.06002-10.50702,14.56236-16.22136,14.56236-16.22136,0,0,4.42401,19.1707,13.45636,14.19369,9.03235-4.97701,9.21668-18.24903,9.21668-18.24903,0,0,7.37335,13.82502,16.95869,8.84801s5.89868-15.48403,5.89868-15.48403c0,0,15.29969,12.53469,23.0417,4.23967s0-18.98636,0-18.98636c0,0,19.1707,9.40102,28.01871,2.39634s-4.23967-20.64537-4.23967-20.64537c0,0,10.69135,10.13835,20.64537,6.26734s0-14.74669,0-14.74669c0,0,7.74201,7.18901,19.7237-4.42401s-11.61302-11.61302-11.61302-11.61302c0,0,18.24903,8.66368,8.11068-18.43336s-205.16334-13.64069-205.16334-13.64069c0,0-37.97273,15.48403-29.86205,23.22604s12.90335,4.60834,12.90335,4.60834c0,0-17.88036,8.47935-9.21668,17.5117s16.59003-.18433,16.59003-.18433c0,0-19.1707,17.88036-8.66368,21.9357s17.69603-4.97701,17.69603-4.97701c0,0-15.66836,22.4887-6.26734,27.09704s17.5117,.36867,17.5117,.36867Z" style="fill:url(#h);"/><path d="M1731.84659,203.74995s10.69135,30.59938,20.09237,22.67304,14.74669-12.35035,14.74669-12.35035c0,0,4.79267,27.09704,15.85269,16.59003,11.06002-10.50702,14.56236-16.22136,14.56236-16.22136,0,0,4.42401,19.1707,13.45636,14.19369s9.21668-18.24903,9.21668-18.24903c0,0,7.37335,13.82502,16.95869,8.84801s5.89868-15.48403,5.89868-15.48403c0,0,15.29969,12.53469,23.0417,4.23967,7.74201-8.29501,0-18.98636,0-18.98636,0,0,19.1707,9.40102,28.01871,2.39634,8.84801-7.00468-4.23967-20.64537-4.23967-20.64537,0,0,10.69135,10.13835,20.64537,6.26734s0-14.74669,0-14.74669c0,0,7.74201,7.18901,19.7237-4.42401,11.98169-11.61302-11.61302-11.61302-11.61302-11.61302,0,0,18.24903,8.66368,8.11068-18.43336s-205.16334-13.64069-205.16334-13.64069c0,0-37.97273,15.48403-29.86205,23.22604s12.90335,4.60834,12.90335,4.60834c0,0-17.88036,8.47935-9.21668,17.5117s16.59003-.18433,16.59003-.18433c0,0-19.1707,17.88036-8.66368,21.9357,10.50702,4.05534,17.69603-4.97701,17.69603-4.97701,0,0-15.66836,22.4887-6.26734,27.09704s17.5117,.36867,17.5117,.36867Z" style="fill:url(#i);"/><path d="M669.50863,195.33528s10.69135,30.59938,20.09237,22.67304,14.74669-12.35035,14.74669-12.35035c0,0,4.79267,27.09704,15.85269,16.59003s14.56236-16.22136,14.56236-16.22136c0,0,4.42401,19.1707,13.45636,14.19369s9.21668-18.24903,9.21668-18.24903c0,0,7.37335,13.82502,16.95869,8.84801s5.89868-15.48403,5.89868-15.48403c0,0,15.29969,12.53469,23.0417,4.23967s0-18.98636,0-18.98636c0,0,19.1707,9.40102,28.01871,2.39634s-4.23967-20.64537-4.23967-20.64537c0,0,10.69135,10.13835,20.64537,6.26734s0-14.74669,0-14.74669c0,0,7.74201,7.18901,19.7237-4.42401,11.98169-11.61302-11.61302-11.61302-11.61302-11.61302,0,0,18.24903,8.66368,8.11068-18.43336s-205.16334-13.64069-205.16334-13.64069c0,0-37.97273,15.48403-29.86205,23.22604s12.90335,4.60834,12.90335,4.60834c0,0-17.88036,8.47935-9.21668,17.5117s16.59003-.18433,16.59003-.18433c0,0-19.1707,17.88036-8.66368,21.9357s17.69603-4.97701,17.69603-4.97701c0,0-15.66836,22.4887-6.26734,27.09704,9.40102,4.60834,17.5117,.36867,17.5117,.36867Z" style="fill:url(#j);"/><path d="M84.02289,188.91399s10.69135,30.59938,20.09237,22.67304,14.74669-12.35035,14.74669-12.35035c0,0,4.79267,27.09704,15.85269,16.59003s14.56236-16.22136,14.56236-16.22136c0,0,4.42401,19.1707,13.45636,14.19369s9.21668-18.24903,9.21668-18.24903c0,0,7.37335,13.82502,16.95869,8.84801s5.89868-15.48403,5.89868-15.48403c0,0,15.29969,12.53469,23.0417,4.23967s0-18.98636,0-18.98636c0,0,19.1707,9.40102,28.01871,2.39634s-4.23967-20.64537-4.23967-20.64537c0,0,10.69135,10.13835,20.64537,6.26734s0-14.74669,0-14.74669c0,0,7.74201,7.18901,19.7237-4.42401,11.98169-11.61302-11.61302-11.61302-11.61302-11.61302,0,0,18.24903,8.66368,8.11068-18.43336s-205.16334-13.64069-205.16334-13.64069c0,0-37.97273,15.48403-29.86205,23.22604s12.90335,4.60834,12.90335,4.60834c0,0-17.88036,8.47935-9.21668,17.5117s16.59003-.18433,16.59003-.18433c0,0-19.1707,17.88036-8.66368,21.9357s17.69603-4.97701,17.69603-4.97701c0,0-15.66836,22.4887-6.26734,27.09704,9.40102,4.60834,17.5117,.36867,17.5117,.36867Z" style="fill:url(#k);"/><path d="M1537.93823,225.08199s17.66197,27.17871,24.90814,17.24397c7.24617-9.93474,11.38631-15.50316,11.38631-15.50316,0,0,11.09959,25.17973,19.34341,12.34381,8.24382-12.83592,10.28664-19.21926,10.28664-19.21926,0,0,8.85639,17.56849,16.44591,10.58614,7.58952-6.98235,4.61211-19.9174,4.61211-19.9174,0,0,10.44976,11.67476,18.57641,4.56089s2.0469-16.44262,2.0469-16.44262c0,0,17.8418,8.53634,23.38889-1.36193s-4.51548-18.4416-4.51548-18.4416c0,0,20.85646,4.57195,27.7847-4.33605,6.92824-8.908-9.02807-19.04469-9.02807-19.04469,0,0,12.79577,7.30475,21.54355,1.17748s-3.50717-14.32357-3.50717-14.32357c0,0,9.22962,5.14147,18.10562-8.98791,8.876-14.12939-14.04171-8.51791-14.04171-8.51791,0,0,19.78588,4.07497,3.494-19.83341-16.29188-23.90838-202.52079,35.54423-202.52079,35.54423,0,0-33.20066,24.07072-23.48143,29.66164,9.71923,5.59093,13.62911,1.40734,13.62911,1.40734,0,0-15.3507,12.4885-4.78746,19.20122s16.07018-4.12461,16.07018-4.12461c0,0-14.36819,21.92665-3.19818,23.36677s16.00461-9.04281,16.00461-9.04281c0,0-9.87036,25.56981,.35691,27.81011s17.09692-3.80668,17.09692-3.80668Z" style="fill:url(#l);"/><path d="M487.9298,182.50344s3.49959,35.07384,15.45887,29.09181c11.95928-5.98202,18.73846-9.29569,18.73846-9.29569,0,0-1.84303,29.86728,12.52809,21.58018s19.53067-13.43486,19.53067-13.43486c0,0-.2116,21.39407,10.60589,18.43588s14.39661-16.94148,14.39661-16.94148c0,0,4.26934,16.49504,15.67143,13.67786s10.18399-14.86457,10.18399-14.86457c0,0,12.97757,17.15213,23.27707,10.35735s4.84137-20.07112,4.84137-20.07112c0,0,17.8688,14.8265,29.00847,9.67779s.7825-22.90599,.7825-22.90599c0,0,8.71699,13.44379,20.22679,11.88982,11.5098-1.55398,3.76028-15.58922,3.76028-15.58922,0,0,6.3512,9.57389,21.97867,.35261,15.62747-9.22128-9.31529-15.23773-9.31529-15.23773,0,0,17.08249,13.81202,13.27443-17.41837-3.80807-31.23039-213.40676-66.73499-213.40676-66.73499,0,0-44.09054,6.68595-37.49062,16.93845s12.46548,8.16188,12.46548,8.16188c0,0-21.06409,4.40446-14.2086,16.16202,6.85549,11.75756,17.58488,4.03545,17.58488,4.03545,0,0-24.82533,14.01356-14.75209,20.9798,10.07324,6.96624,19.97616-.74902,19.97616-.74902,0,0-22.29798,19.77826-13.53494,27.04707,8.76304,7.26881,18.41819,4.85507,18.41819,4.85507Z" style="fill:url(#m);"/><path d="M1282.91897,210.17124s-10.69135,30.59938-20.09237,22.67304c-9.40102-7.92635-14.74669-12.35035-14.74669-12.35035,0,0-4.79267,27.09704-15.85269,16.59003s-14.56236-16.22136-14.56236-16.22136c0,0-4.42401,19.1707-13.45636,14.19369-9.03235-4.97701-9.21668-18.24903-9.21668-18.24903,0,0-7.37335,13.82502-16.95869,8.84801-9.58535-4.97701-5.89868-15.48403-5.89868-15.48403,0,0-15.29969,12.53469-23.0417,4.23967s0-18.98636,0-18.98636c0,0-19.1707,9.40102-28.01871,2.39634-8.84801-7.00468,4.23967-20.64537,4.23967-20.64537,0,0-10.69135,10.13835-20.64537,6.26734s0-14.74669,0-14.74669c0,0-7.74201,7.18901-19.7237-4.42401-11.98169-11.61302,11.61302-11.61302,11.61302-11.61302,0,0-18.24903,8.66368-8.11068-18.43336,10.13835-27.09704,205.16334-13.64069,205.16334-13.64069,0,0,37.97273,15.48403,29.86205,23.22604-8.11068,7.74201-12.90335,4.60834-12.90335,4.60834,0,0,17.88036,8.47935,9.21668,17.5117s-16.59003-.18433-16.59003-.18433c0,0,19.1707,17.88036,8.66368,21.9357-10.50702,4.05534-17.69603-4.97701-17.69603-4.97701,0,0,15.66836,22.4887,6.26734,27.09704s-17.5117,.36867-17.5117,.36867Z" style="fill:url(#n);"/><path d="M1464.4978,197.3394s-3.49959,35.07384-15.45887,29.09181c-11.95928-5.98202-18.73846-9.29569-18.73846-9.29569,0,0,1.84303,29.86728-12.52809,21.58018-14.37112-8.28711-19.53067-13.43486-19.53067-13.43486,0,0,.2116,21.39407-10.60589,18.43588-10.81749-2.95819-14.39661-16.94148-14.39661-16.94148,0,0-4.26934,16.49504-15.67143,13.67786-11.40209-2.81718-10.18399-14.86457-10.18399-14.86457,0,0-12.97757,17.15213-23.27707,10.35735s-4.84137-20.07112-4.84137-20.07112c0,0-17.8688,14.8265-29.00847,9.67779s-.7825-22.90599-.7825-22.90599c0,0-8.71699,13.44379-20.22679,11.88982-11.5098-1.55398-3.76028-15.58922-3.76028-15.58922,0,0-6.3512,9.57389-21.97867,.35261-15.62747-9.22128,9.31529-15.23773,9.31529-15.23773,0,0-17.08249,13.81202-13.27443-17.41837s213.40676-66.73499,213.40676-66.73499c0,0,44.09054,6.68595,37.49062,16.93845-6.59992,10.2525-12.46548,8.16188-12.46548,8.16188,0,0,21.06409,4.40446,14.2086,16.16202s-17.58488,4.03545-17.58488,4.03545c0,0,24.82533,14.01356,14.75209,20.9798-10.07324,6.96624-19.97616-.74902-19.97616-.74902,0,0,22.29798,19.77826,13.53494,27.04707s-18.41819,4.85507-18.41819,4.85507Z" style="fill:url(#o);"/><path d="M915.72586,197.47779s9.06372,34.06274,19.9124,26.24513c10.84868-7.81761,17.01067-12.17278,17.01067-12.17278,0,0,2.9572,29.77761,15.81804,19.29888,12.86084-10.47874,17.13073-16.38538,17.13073-16.38538,0,0,3.21255,21.15255,13.41773,16.50246,10.20518-4.65009,11.50196-19.0258,11.50196-19.0258,0,0,6.85235,15.59996,17.65715,10.99557,10.8048-4.60439,7.6757-16.30192,7.6757-16.30192,0,0,15.55359,14.85594,24.63387,6.50147,9.08029-8.35447,1.56919-20.58704,1.56919-20.58704,0,0,20.00994,11.77801,30.18283,4.91407,10.17289-6.86395-2.8908-22.73631-2.8908-22.73631,0,0,10.75479,11.8767,21.86793,8.50203,11.11314-3.37468,1.21879-15.98994,1.21879-15.98994,0,0,7.80056,8.43496,21.75218-3.16685,13.95162-11.60181-11.63228-13.55187-11.63228-13.55187,0,0,19.07151,10.90234,10.31795-19.31709-8.75356-30.21943-221.33261-31.7471-221.33261-31.7471,0,0-42.45382,13.65105-34.29922,22.7161s13.61032,6.0633,13.61032,6.0633c0,0-20.0886,7.71643-11.44102,18.22631s18.00391,1.17126,18.00391,1.17126c0,0-22.2647,17.80337-11.20704,23.06899,11.05766,5.26562,19.59927-3.93406,19.59927-3.93406,0,0-18.84796,23.08969-9.03525,28.86352,9.81271,5.77383,18.95758,1.84706,18.95758,1.84706Z" style="fill:url(#p);"/><path d="M1191.94073,292.66038s4.92564-26.98502-5.30544-25.08294c-10.23108,1.90208-16.014,2.92249-16.014,2.92249,0,0,7.80175-21.94194-4.72892-18.83454s-17.49669,5.84788-17.49669,5.84788c0,0,4.75932-15.95552-3.96749-16.06947-8.7268-.11395-14.41097,9.57469-14.41097,9.57469,0,0,.35433-13.25512-8.77937-13.60026-9.13371-.34514-10.8136,8.9273-10.8136,8.9273,0,0-6.0174-15.61939-15.18189-12.75247-9.16449,2.86692-7.93749,13.97038-7.93749,13.97038,0,0-10.1758-14.93192-19.61466-13.47682-9.43886,1.4551-5.51145,16.96354-5.51145,16.96354,0,0-3.62835-11.92956-12.57095-13.24263s-6.16504,10.85078-6.16504,10.85078c0,0-2.6912-8.5264-16.36243-4.9905-13.67122,3.53589,3.69002,13.39996,3.69002,13.39996,0,0-9.80588-14.00407-13.67423,10.1727-3.86835,24.17677,145.25879,95.80806,145.25879,95.80806,0,0,34.41404,4.48166,31.68276-4.60577-2.73128-9.08743-7.56786-8.78528-7.56786-8.78528,0,0,16.70147,1.23591,14.10272-9.03215-2.59875-10.26806-12.28419-6.80003-12.28419-6.80003,0,0,21.58112-5.14202,15.54533-12.51857-6.03579-7.37655-15.10163-3.73591-15.10163-3.73591,0,0,20.93064-9.99708,15.93984-17.31816-4.9908-7.32108-12.73117-7.59225-12.73117-7.59225Z" style="fill:url(#q);"/><path d="M1026.61378,311.35107s-4.96708,19.88248,2.75201,18.95526c7.71909-.92722,12.07954-1.41052,12.07954-1.41052,0,0-6.86942,15.98459,2.62198,14.26908s13.32532-3.52042,13.32532-3.52042c0,0-4.31388,11.66737,2.18696,12.17104,6.50084,.50367,11.20357-6.44701,11.20357-6.44701,0,0-.90016,9.86542,5.89296,10.56098,6.79312,.69556,8.49047-6.13695,8.49047-6.13695,0,0,3.73688,11.93383,10.70707,10.2361,6.97019-1.69773,6.58814-10.03484,6.58814-10.03484,0,0,6.87018,11.62081,13.97718,10.98883,7.107-.63198,4.92301-12.38281,4.92301-12.38281,0,0,2.13275,9.06823,8.73695,10.47627s5.117-7.79405,5.117-7.79405c0,0,1.59734,6.48602,11.95964,4.50577,10.3623-1.98025-2.10818-10.16745-2.10818-10.16745,0,0,6.6389,10.91129,10.68298-6.92821s-103.70151-78.39974-103.70151-78.39974c0,0-25.44253-4.99252-23.84223,1.91371,1.6003,6.90623,5.22073,6.91301,5.22073,6.91301,0,0-12.39256-1.72278-10.94772,6.05731,1.44484,7.78009,8.83227,5.6592,8.83227,5.6592,0,0-16.33663,2.79819-12.19054,8.58741,4.14609,5.78923,11.07985,3.50991,11.07985,3.50991,0,0-16.0846,6.44912-12.71496,12.14684,3.36965,5.69773,9.12751,6.27129,9.12751,6.27129Z" style="fill:url(#r);"/><g><path d="M49.54391,163.33577s12.70561,36.36434,23.87779,26.94466,17.52498-14.67717,17.52498-14.67717c0,0,5.69562,32.20216,18.83936,19.71561s17.30592-19.27748,17.30592-19.27748c0,0,5.25749,22.78248,15.99155,16.8678s10.95311-21.68717,10.95311-21.68717c0,0,8.76249,16.42967,20.15373,10.51499s7.00999-18.40123,7.00999-18.40123c0,0,18.18217,14.89624,27.38279,5.03843s0-22.56342,0-22.56342c0,0,22.78248,11.17218,33.29747,2.84781s-5.03843-24.53498-5.03843-24.53498c0,0,12.70561,12.04843,24.53498,7.44812s0-17.52498,0-17.52498c0,0,9.20062,8.54343,23.43966-5.25749,14.23905-13.80092-13.80092-13.80092-13.80092-13.80092,0,0,21.68717,10.29593,9.63874-21.90623S36.8383,56.8715,36.8383,56.8715c0,0-45.12683,18.40123-35.48809,27.60185s15.33436,5.47656,15.33436,5.47656c0,0-21.24904,10.07686-10.95311,20.81092s19.71561-.21906,19.71561-.21906c0,0-22.78248,21.24904-10.29593,26.06841,12.48655,4.81937,21.02998-5.91468,21.02998-5.91468,0,0-18.62029,26.7256-7.44812,32.20216s20.81092,.43812,20.81092,.43812Z" style="fill:url(#s);"/><path d="M1748.21058,163.33577s12.70561,36.36434,23.87779,26.94466c11.17218-9.41968,17.52498-14.67717,17.52498-14.67717,0,0,5.69562,32.20216,18.83936,19.71561,13.14374-12.48655,17.30592-19.27748,17.30592-19.27748,0,0,5.25749,22.78248,15.99155,16.8678s10.95311-21.68717,10.95311-21.68717c0,0,8.76249,16.42967,20.15373,10.51499,11.39124-5.91468,7.00999-18.40123,7.00999-18.40123,0,0,18.18217,14.89624,27.38279,5.03843s0-22.56342,0-22.56342c0,0,22.78248,11.17218,33.29747,2.84781s-5.03843-24.53498-5.03843-24.53498c0,0,12.70561,12.04843,24.53498,7.44812,11.82936-4.60031,0-17.52498,0-17.52498,0,0,9.20062,8.54343,23.43966-5.25749,14.23905-13.80092-13.80092-13.80092-13.80092-13.80092,0,0,21.68717,10.29593,9.63874-21.90623s-243.81632-16.21061-243.81632-16.21061c0,0-45.12683,18.40123-35.48809,27.60185s15.33436,5.47656,15.33436,5.47656c0,0-21.24904,10.07686-10.95311,20.81092,10.29593,10.73405,19.71561-.21906,19.71561-.21906,0,0-22.78248,21.24904-10.29593,26.06841,12.48655,4.81937,21.02998-5.91468,21.02998-5.91468,0,0-18.62029,26.7256-7.44812,32.20216s20.81092,.43812,20.81092,.43812Z" style="fill:url(#t);"/><path d="M485.72707,153.33577s12.70561,36.36434,23.87779,26.94466,17.52498-14.67717,17.52498-14.67717c0,0,5.69562,32.20216,18.83936,19.71561s17.30592-19.27748,17.30592-19.27748c0,0,5.25749,22.78248,15.99155,16.8678s10.95311-21.68717,10.95311-21.68717c0,0,8.76249,16.42967,20.15373,10.51499s7.00999-18.40123,7.00999-18.40123c0,0,18.18217,14.89624,27.38279,5.03843s0-22.56342,0-22.56342c0,0,22.78248,11.17218,33.29747,2.84781s-5.03843-24.53498-5.03843-24.53498c0,0,12.70561,12.04843,24.53498,7.44812s0-17.52498,0-17.52498c0,0,9.20062,8.54343,23.43966-5.25749,14.23905-13.80092-13.80092-13.80092-13.80092-13.80092,0,0,21.68717,10.29593,9.63874-21.90623s-243.81632-16.21061-243.81632-16.21061c0,0-45.12683,18.40123-35.48809,27.60185s15.33436,5.47656,15.33436,5.47656c0,0-21.24904,10.07686-10.95311,20.81092s19.71561-.21906,19.71561-.21906c0,0-22.78248,21.24904-10.29593,26.06841,12.48655,4.81937,21.02998-5.91468,21.02998-5.91468,0,0-18.62029,26.7256-7.44812,32.20216s20.81092,.43812,20.81092,.43812Z" style="fill:url(#u);"/><path d="M1517.76969,188.68679s20.9895,32.2992,29.60086,20.49275,13.53151-18.42397,13.53151-18.42397c0,0,13.19076,29.92361,22.98772,14.66939,9.79696-15.25422,12.22465-22.84019,12.22465-22.84019,0,0,10.52495,20.87841,19.54434,12.58058,9.01939-8.29783,5.48103-23.66986,5.48103-23.66986,0,0,12.4185,13.8743,22.07622,5.42017s2.43253-19.54042,2.43253-19.54042c0,0,21.20321,10.1446,27.79538-1.61852s-5.36621-21.91601-5.36621-21.91601c0,0,24.78584,5.43331,33.01936-5.15296,8.23352-10.58627-10.72896-22.63272-10.72896-22.63272,0,0,15.2065,8.68098,25.60237,1.39931s-4.16793-17.02214-4.16793-17.02214c0,0,10.96849,6.11013,21.51674-10.68125s-16.68718-10.1227-16.68718-10.1227c0,0,23.51356,4.8427,4.15227-23.57004-19.36129-28.41274-240.67592,42.2408-240.67592,42.2408,0,0-39.4557,28.60566-27.90536,35.24993,11.55034,6.64427,16.19685,1.67248,16.19685,1.67248,0,0-18.24279,14.84134-5.68943,22.81875s19.09781-4.90169,19.09781-4.90169c0,0-17.07518,26.05765-3.80072,27.7691s19.0199-10.74649,19.0199-10.74649c0,0-11.72994,30.38719,.42415,33.04956,12.15409,2.66237,20.31799-4.52386,20.31799-4.52386Z" style="fill:url(#v);"/><path d="M269.9386,138.08639s4.15892,41.68178,18.37134,34.57274c14.21242-7.10904,22.2688-11.047,22.2688-11.047,0,0-2.19025,35.49431,14.8884,25.64591s23.21027-15.966,23.21027-15.966c0,0-.25147,25.42474,12.60405,21.90922s17.10895-20.13327,17.10895-20.13327c0,0,5.07369,19.60272,18.62395,16.25478,13.55025-3.34794,12.10266-17.66507,12.10266-17.66507,0,0,15.42256,20.38361,27.6625,12.30868,12.23994-8.07493,5.75348-23.85254,5.75348-23.85254,0,0,21.23531,17.61982,34.4737,11.50109,13.23839-6.11873,.92992-27.2215,.92992-27.2215,0,0,10.35928,15.97662,24.03753,14.12987s4.46873-18.52624,4.46873-18.52624c0,0,7.54777,11.37763,26.11947,.41905,18.5717-10.95858-11.0703-18.10854-11.0703-18.10854,0,0,20.30085,16.41422,15.77534-20.70001-4.52551-37.11422-253.61281-79.30793-253.61281-79.30793,0,0-52.39724,7.94559-44.55389,20.12967s14.81399,9.69959,14.81399,9.69959c0,0-25.03259,5.23426-16.88551,19.20696s20.89788,4.79574,20.89788,4.79574c0,0-29.50245,16.65373-17.5314,24.93241,11.97105,8.27868,23.73969-.89014,23.73969-.89014,0,0-26.49894,23.5045-16.08494,32.14277,10.414,8.63826,21.8882,5.76977,21.8882,5.76977Z" style="fill:url(#w);"/><path d="M1214.70454,170.96684s-12.70561,36.36434-23.87779,26.94466c-11.17218-9.41968-17.52498-14.67717-17.52498-14.67717,0,0-5.69562,32.20216-18.83936,19.71561s-17.30592-19.27748-17.30592-19.27748c0,0-5.25749,22.78248-15.99155,16.8678-10.73405-5.91468-10.95311-21.68717-10.95311-21.68717,0,0-8.76249,16.42967-20.15373,10.51499-11.39124-5.91468-7.00999-18.40123-7.00999-18.40123,0,0-18.18217,14.89624-27.38279,5.03843s0-22.56342,0-22.56342c0,0-22.78248,11.17218-33.29747,2.84781-10.51499-8.32437,5.03843-24.53498,5.03843-24.53498,0,0-12.70561,12.04843-24.53498,7.44812-11.82936-4.60031,0-17.52498,0-17.52498,0,0-9.20062,8.54343-23.43966-5.25749-14.23905-13.80092,13.80092-13.80092,13.80092-13.80092,0,0-21.68717,10.29593-9.63874-21.90623s243.81632-16.21061,243.81632-16.21061c0,0,45.12683,18.40123,35.48809,27.60185-9.63874,9.20062-15.33436,5.47656-15.33436,5.47656,0,0,21.24904,10.07686,10.95311,20.81092s-19.71561-.21906-19.71561-.21906c0,0,22.78248,21.24904,10.29593,26.06841-12.48655,4.81937-21.02998-5.91468-21.02998-5.91468,0,0,18.62029,26.7256,7.44812,32.20216s-20.81092,.43812-20.81092,.43812Z" style="fill:url(#x);"/><path d="M1430.49301,155.71746s-4.15892,41.68178-18.37134,34.57274c-14.21242-7.10904-22.2688-11.047-22.2688-11.047,0,0,2.19025,35.49431-14.8884,25.64591-17.07865-9.8484-23.21027-15.966-23.21027-15.966,0,0,.25147,25.42474-12.60405,21.90922-12.85552-3.51551-17.10895-20.13327-17.10895-20.13327,0,0-5.07369,19.60272-18.62395,16.25478-13.55025-3.34794-12.10266-17.66507-12.10266-17.66507,0,0-15.42256,20.38361-27.6625,12.30868s-5.75348-23.85254-5.75348-23.85254c0,0-21.23531,17.61982-34.4737,11.50109s-.92992-27.2215-.92992-27.2215c0,0-10.35928,15.97662-24.03753,14.12987-13.67826-1.84675-4.46873-18.52624-4.46873-18.52624,0,0-7.54777,11.37763-26.11947,.41905s11.0703-18.10854,11.0703-18.10854c0,0-20.30085,16.41422-15.77534-20.70001s253.61281-79.30793,253.61281-79.30793c0,0,52.39724,7.94559,44.55389,20.12967-7.84335,12.18408-14.81399,9.69959-14.81399,9.69959,0,0,25.03259,5.23426,16.88551,19.20696s-20.89788,4.79574-20.89788,4.79574c0,0,29.50245,16.65373,17.5314,24.93241-11.97105,8.27868-23.73969-.89014-23.73969-.89014,0,0,26.49894,23.5045,16.08494,32.14277-10.414,8.63826-21.8882,5.76977-21.8882,5.76977Z" style="fill:url(#y);"/><path d="M778.33188,155.88193s10.77133,40.4802,23.66392,31.18974c12.89259-9.29046,20.2155-14.46615,20.2155-14.46615,0,0,3.51434,35.38775,18.79818,22.93481,15.28384-12.45294,20.35818-19.4724,20.35818-19.4724,0,0,3.8178,25.13772,15.94565,19.61154,12.12784-5.52618,13.66894-22.61028,13.66894-22.61028,0,0,8.14334,18.53901,20.98378,13.06715,12.84044-5.47186,9.12181-19.37322,9.12181-19.37322,0,0,18.4839,17.65481,29.27492,7.72635,10.79102-9.92847,1.86483-24.46566,1.86483-24.46566,0,0,23.77983,13.997,35.8693,5.83988,12.08947-8.15712-3.43543-27.01986-3.43543-27.01986,0,0,12.781,14.11429,25.98786,10.10382s1.44841-19.00246,1.44841-19.00246c0,0,9.27019,10.02411,25.85031-3.76349,16.58012-13.7876-13.82381-16.10506-13.82381-16.10506,0,0,22.6646,12.95635,12.26186-22.95644-10.40273-35.9128-263.0319-37.72829-263.0319-37.72829,0,0-50.45216,16.22292-40.76122,26.99584s16.17452,7.20563,16.17452,7.20563c0,0-23.87332,9.17021-13.59652,21.66016,10.27679,12.48995,21.39587,1.39193,21.39587,1.39193,0,0-26.45939,21.15754-13.31845,27.41521,13.14094,6.25767,23.29179-4.67524,23.29179-4.67524,0,0-22.39894,27.43981-10.7375,34.30144,11.66144,6.86163,22.52921,2.19505,22.52921,2.19505Z" style="fill:url(#a`);"/></g><path d="M-173.69201,88.02483s15.14763,43.35355,28.46709,32.12342,20.89328-17.49812,20.89328-17.49812c0,0,6.79032,38.3914,22.46027,23.50494,15.66996-14.88646,20.63211-22.98261,20.63211-22.98261,0,0,6.26798,27.16126,19.06512,20.10978,12.79713-7.05148,13.0583-25.85543,13.0583-25.85543,0,0,10.44664,19.58745,24.02727,12.53597,13.58063-7.05148,8.35731-21.93794,8.35731-21.93794,0,0,21.67678,17.75929,32.64575,6.00682,10.96897-11.75247,0-26.9001,0-26.9001,0,0,27.16126,13.31946,39.69723,3.39516,12.53597-9.92431-6.00682-29.25059-6.00682-29.25059,0,0,15.14763,14.36413,29.25059,8.87964s0-20.89328,0-20.89328c0,0,10.96897,10.18547,27.94476-6.26798C123.77604,6.54104,90.34679,6.54104,90.34679,6.54104c0,0,25.85543,12.2748,11.4913-26.1166-14.36413-38.3914-290.67774-19.32628-290.67774-19.32628,0,0-53.80019,21.93794-42.30889,32.90691,11.4913,10.96897,18.28162,6.52915,18.28162,6.52915,0,0-25.3331,12.01364-13.0583,24.81077s23.50494-.26117,23.50494-.26117c0,0-27.16126,25.3331-12.2748,31.07875,14.88646,5.74565,25.07193-7.05148,25.07193-7.05148,0,0-22.19911,31.86225-8.87964,38.3914s24.81077,.52233,24.81077,.52233Z" style="fill:url(#aa);"/><path d="M75.46142,350.57698s16.67443,12.95696,19.01302,5.29487c2.33859-7.66209,3.69778-11.97349,3.69778-11.97349,0,0,12.20846,13.12788,14.5416,3.4671,2.33314-9.66079,2.22743-14.02591,2.22743-14.02591,0,0,9.20253,8.92219,12.38288,3.00397s-1.4143-13.24391-1.4143-13.24391c0,0,8.92473,4.95439,12.4076-1.15947s-2.25119-10.55744-2.25119-10.55744c0,0,12.80435,1.44426,14.10494-5.83257,1.3006-7.27683-6.71716-10.38652-6.71716-10.38652,0,0,13.81333-1.63953,16.17547-8.60178s-9.62341-9.79413-9.62341-9.79413c0,0,9.43555,1.76372,13.51139-3.87553,4.07584-5.63926-5.21721-8.0672-5.21721-8.0672,0,0,6.77867,1.19372,9.22471-9.39818,2.44605-10.5919-10.46147-2.24437-10.46147-2.24437,0,0,13.04827-1.71682-2.08455-12.95346-15.13282-11.23664-117.0608,65.12227-117.0608,65.12227,0,0-15.29496,21.90487-8.11897,23.27069,7.17599,1.36581,8.68918-2.04406,8.68918-2.04406,0,0-6.78158,10.9645,1.15344,12.84055,7.93502,1.87605,9.01038-5.9702,9.01038-5.9702,0,0-4.16149,16.56385,3.02112,15.06507s7.91983-8.98333,7.91983-8.98333c0,0-.61515,17.84576,6.15806,17.04079s9.71023-5.99376,9.71023-5.99376Z" style="fill:url(#ab);"/><g><g><path d="M348.42508,658.33333l37.67584-392-62.43425-72,5.38226-48s55.97554,86.66667,63.5107,73.33333S401.17125,12.33339,373.18349,.00003,434.54128,.00003,434.54128,.00003l6.45872,658.3333h-92.57492Z" style="fill:#597634;"/><path d="M1499,796.49073l-46.66667-476.2484,77.33333-87.4742-6.66667-58.31613s-69.33333,105.29301-78.66667,89.09409c-9.33333-16.19893-10.66667-251.89321,24-266.87725,34.66667-14.98404-76,0-76,0l-8,799.82189h114.66667Z" style="fill:#597634;"/></g><path d="M1080.14967,836l4.53824-259.94433s-15.39779-25.30198-35.02124-54.389c-.35723-.5295,2.89169-2.31797,6.88889-4.77778,1.44444-.88889,28.13235,22.27699,28.13235,22.27699l10.21104-320.85538s-13.04743-44.61091-39.70958-99.51664h24.96031l10.21104,22.78207,9.64376-22.78207h39.70958l6.24008,181.87524,80.55373-181.87524h30.06583l-107.21588,297.69202,9.07648,412.6509-75.44821,6.86322" style="fill:#597634;"/></g><path d="M320.95037,580.31744s-9.30004-18.97506-14.76875-13.11335c-5.46871,5.86171-8.58483,9.14104-8.58483,9.14104,0,0-5.20954-17.16679-11.5514-9.50562-6.34186,7.66116-8.16447,11.63234-8.16447,11.63234,0,0-4.35448-12.06485-9.81393-8.14087-5.45944,3.92398-4.54661,12.5291-4.54661,12.5291,0,0-5.84782-8.37531-11.66521-4.40832s-2.61394,10.48131-2.61394,10.48131c0,0-10.87807-6.92367-15.24426-.95234s1.47655,12.28959,1.47655,12.28959c0,0-13.14001-4.59425-18.32245,.62788-5.18244,5.22213,4.34985,13.03372,4.34985,13.03372,0,0-7.7088-5.73094-13.85084-2.45118-6.14204,3.27976,1.14684,9.54531,1.14684,9.54531,0,0-5.57037-4.05125-12.4228,4.39749-6.85243,8.44874,8.42007,6.6138,8.42007,6.6138,0,0-12.48609-4.18866-3.81637,12.5624,8.66972,16.75106,133.85996-7.12598,133.85996-7.12598,0,0,23.37499-12.97568,17.52298-17.35621-5.85201-4.38053-8.71053-1.97943-8.71053-1.97943,0,0,10.91426-6.8791,4.60395-12.05183s-10.72414,1.40951-10.72414,1.40951c0,0,11.01836-13.06458,3.90195-14.87242-7.11641-1.80784-11.06731,4.59775-11.06731,4.59775,0,0,8.39296-15.77511,1.94944-18.02691s-11.36373,1.12324-11.36373,1.12324Z" style="fill:#3f562a;"/><path d="M1285.35853,735.2031s-9.30004-18.97506-14.76875-13.11335c-5.46871,5.86171-8.58483,9.14104-8.58483,9.14104,0,0-5.20954-17.16679-11.5514-9.50562-6.34186,7.66116-8.16447,11.63234-8.16447,11.63234,0,0-4.35448-12.06485-9.81393-8.14087s-4.54661,12.5291-4.54661,12.5291c0,0-5.84782-8.37531-11.66521-4.40832-5.81739,3.96699-2.61394,10.48131-2.61394,10.48131,0,0-10.87807-6.92367-15.24426-.95234s1.47655,12.28959,1.47655,12.28959c0,0-13.14001-4.59425-18.32245,.62788-5.18244,5.22213,4.34985,13.03372,4.34985,13.03372,0,0-7.7088-5.73094-13.85084-2.45118-6.14204,3.27976,1.14684,9.54531,1.14684,9.54531,0,0-5.57037-4.05125-12.4228,4.39749-6.85243,8.44874,8.42007,6.6138,8.42007,6.6138,0,0-12.48609-4.18866-3.81637,12.5624s133.85996-7.12598,133.85996-7.12598c0,0,23.37499-12.97568,17.52298-17.35621s-8.71053-1.97943-8.71053-1.97943c0,0,10.91426-6.8791,4.60395-12.05183-6.31031-5.17274-10.72414,1.40951-10.72414,1.40951,0,0,11.01836-13.06458,3.90195-14.87242-7.11641-1.80784-11.06731,4.59775-11.06731,4.59775,0,0,8.39296-15.77511,1.94944-18.02691s-11.36373,1.12324-11.36373,1.12324Z" style="fill:#3f562a;"/><path d="M802.89386,657.49931s17.39601-12.17287,19.66829-4.27389c2.27228,7.89899,3.59544,12.34617,3.59544,12.34617,0,0,12.80112-12.60256,15.03247-2.67843,2.23135,9.92413,2.04538,14.34163,2.04538,14.34163,0,0,9.63207-8.51318,12.80179-2.33307s-1.69012,13.34003-1.69012,13.34003c0,0,9.27595-4.5082,12.75367,1.88754s-2.50426,10.56952-2.50426,10.56952c0,0,13.20815-.72827,14.41858,6.72069s-7.09914,10.13984-7.09914,10.13984c0,0,14.19244,2.45476,16.50134,9.64588,2.3089,7.19112-10.08079,9.37262-10.08079,9.37262,0,0,9.74547-1.24547,13.84207,4.70336,4.0966,5.94883-5.5139,7.8756-5.5139,7.8756,0,0,7.00003-.82042,9.33116,10.05378s-10.8102,1.67364-10.8102,1.67364c0,0,13.40342,2.48914-2.37504,13.0072-15.77846,10.51805-119.36836-72.71683-119.36836-72.71683,0,0-15.35974-23.07654-7.94761-24.04854,7.41213-.972,8.90976,2.57043,8.90976,2.57043,0,0-6.78818-11.50077,1.41442-12.94625s9.17108,6.56759,9.17108,6.56759c0,0-3.99173-17.02462,3.37659-15.09329,7.36832,1.93133,7.99506,9.55844,7.99506,9.55844,0,0-.31797-18.12004,6.64112-16.91532s9.89118,6.63165,9.89118,6.63165Z" style="fill:#3f562a;"/><path d="M654.33333,737l41.33333-472s6.66667-19.33333-125.33333-265h20.66667l104.72278,171.66667L705.66667,0h49.33333l32.66667,234.66667,69.33333-177.83333L827.66667,0h20l12.66667,29.66667L877.66667,0h26l-110.66667,405.66667-13,331.33333h-125.66667Z" style="fill:url(#ac);"/><path d="M1221.61603,836l8-303s-10.80664-32.41991-50.92113-69.02102c-.16442-.15002,.01124-.41296,.20877-.3104l50.71235,26.33141,18-374s-23-52-70-116h44l18,26.55556,17-26.55556h70l11,212L1479.61603,0h53l-189,347,16,481-133,8" style="fill:url(#ad);"/><polygon points="1746 748 1859.52465 748 1870 511 1920 442 1920 410 1865 459 1865 0 1789 0 1771 212 1670 59 1688 0 1662 0 1644 54 1603 0 1562 0 1762 347 1746 748" style="fill:url(#ae);"/><path d="M185,673v-196L42.33333,306.33333l20-30.66667,51.33333,64,6-130.66667h28l4,153.33333s25.11111,69.66667,33.33333,60.77778c14.29498-15.45403-10.66667-330.11111-10.66667-330.11111L133,0h94.66667l40,106.33333L331.66667,0h28l-74.66667,173,4,500h-104Z" style="fill:url(#af);"/><path d="M116.83349,193.28555s-20.9076-15.14142-23.44823-5.68351c-2.54063,9.4579-4.02311,14.78158-4.02311,14.78158,0,0-15.4583-15.53477-17.90968-3.63515-2.45138,11.89962-2.14187,17.22841-2.14187,17.22841,0,0-11.61198-10.5206-15.2531-3.15852s2.27515,16.12252,2.27515,16.12252c0,0-11.10864-5.68436-15.11128,1.92926s3.18664,12.80571,3.18664,12.80571c0,0-15.70359-1.2355-16.99195,7.70882s8.63594,12.41235,8.63594,12.41235c0,0-16.80891,2.57386-19.40723,11.17769s12.16223,11.56851,12.16223,11.56851c0,0-11.60091-1.765-16.34763,5.29326s6.70753,9.64066,6.70753,9.64066c0,0-8.33127-1.17837-10.88213,11.86352-2.55086,13.04189,12.8742,2.30984,12.8742,2.30984,0,0-15.87099,2.63668,3.08204,15.73997s140.33018-84.40086,140.33018-84.40086c0,0,17.7818-27.39458,8.95799-28.76679s-10.53168,2.85638-10.53168,2.85638c0,0,7.83248-13.67626-1.93977-15.64049s-10.7619,7.66648-10.7619,7.66648c0,0,4.39998-20.40909-4.31356-18.28116s-9.305,11.30276-9.305,11.30276c0,0,.01422-21.82876-8.2278-20.56542s-11.61598,7.72417-11.61598,7.72417Z" style="fill:url(#ag);"/><path d="M81.36188,327.46153s11.53898,9.30629,13.27779,3.95805,2.74761-8.3571,2.74761-8.3571c0,0,8.40218,9.3695,10.16256,2.61833s1.74166-9.81636,1.74166-9.81636c0,0,6.34579,6.37936,8.65326,2.26583s-.82437-9.31376-.82437-9.31376c0,0,6.20123,3.59087,8.72353-.65614s-1.44592-7.43879-1.44592-7.43879c0,0,8.96891,1.17644,9.97426-3.91458,1.00536-5.09102-4.58272-7.37557-4.58272-7.37557,0,0,9.71629-.97523,11.46274-5.83195,1.74645-4.85672-6.63012-6.99671-6.63012-6.99671,0,0,6.60032,1.35785,9.53278-2.5485s-3.55939-5.7286-3.55939-5.7286c0,0,4.74272,.92401,6.59418-6.47927s-7.3143-1.70825-7.3143-1.70825c0,0,9.18029-1.0392-1.29851-9.11842-10.4788-8.07922-82.99159,44.22111-82.99159,44.22111,0,0-11.01378,15.18047-5.99437,16.23032s6.12484-1.32428,6.12484-1.32428c0,0-4.89928,7.60971,.64641,9.02733s6.40018-4.07593,6.40018-4.07593c0,0-3.13142,11.57314,1.92905,10.61244s5.67303-6.20468,5.67303-6.20468c0,0-.65856,12.51797,4.10573,12.03905s6.8917-4.08357,6.8917-4.08357Z" style="fill:url(#ah);"/><path d="M1851.45782,88.02483s15.14763,43.35355,28.46709,32.12342,20.89328-17.49812,20.89328-17.49812c0,0,6.79032,38.3914,22.46027,23.50494,15.66996-14.88646,20.63211-22.98261,20.63211-22.98261,0,0,6.26798,27.16126,19.06512,20.10978,12.79713-7.05148,13.0583-25.85543,13.0583-25.85543,0,0,10.44664,19.58745,24.02727,12.53597,13.58063-7.05148,8.35731-21.93794,8.35731-21.93794,0,0,21.67678,17.75929,32.64575,6.00682,10.96897-11.75247,0-26.9001,0-26.9001,0,0,27.16126,13.31946,39.69723,3.39516s-6.00682-29.25059-6.00682-29.25059c0,0,15.14763,14.36413,29.25059,8.87964,14.10296-5.48449,0-20.89328,0-20.89328,0,0,10.96897,10.18547,27.94476-6.26798,16.97579-16.45346-16.45346-16.45346-16.45346-16.45346,0,0,25.85543,12.2748,11.4913-26.1166-14.36413-38.3914-290.67774-19.32628-290.67774-19.32628,0,0-53.80019,21.93794-42.30889,32.90691,11.4913,10.96897,18.28162,6.52915,18.28162,6.52915,0,0-25.3331,12.01364-13.0583,24.81077,12.2748,12.79713,23.50494-.26117,23.50494-.26117,0,0-27.16126,25.3331-12.2748,31.07875s25.07193-7.05148,25.07193-7.05148c0,0-22.19911,31.86225-8.87964,38.3914,13.31946,6.52915,24.81077,.52233,24.81077,.52233Z" style="fill:url(#ai);"/><path d="M405.64115,67.00507s15.14763,43.35355,28.46709,32.12342,20.89328-17.49812,20.89328-17.49812c0,0,6.79032,38.3914,22.46027,23.50494,15.66996-14.88646,20.63211-22.98261,20.63211-22.98261,0,0,6.26798,27.16126,19.06512,20.10978,12.79713-7.05148,13.0583-25.85543,13.0583-25.85543,0,0,10.44664,19.58745,24.02727,12.53597,13.58063-7.05148,8.35731-21.93794,8.35731-21.93794,0,0,21.67678,17.75929,32.64575,6.00682,10.96897-11.75247,0-26.9001,0-26.9001,0,0,27.16126,13.31946,39.69723,3.39516,12.53597-9.92431-6.00682-29.25059-6.00682-29.25059,0,0,15.14763,14.36413,29.25059,8.87964,14.10296-5.48449,0-20.89328,0-20.89328,0,0,10.96897,10.18547,27.94476-6.26798,16.97579-16.45346-16.45346-16.45346-16.45346-16.45346,0,0,25.85543,12.2748,11.4913-26.1166-14.36413-38.3914-290.67774-19.32628-290.67774-19.32628,0,0-53.80019,21.93794-42.30889,32.90691s18.28162,6.52915,18.28162,6.52915c0,0-25.3331,12.01364-13.0583,24.81077s23.50494-.26117,23.50494-.26117c0,0-27.16126,25.3331-12.2748,31.07875s25.07193-7.05148,25.07193-7.05148c0,0-22.19911,31.86225-8.87964,38.3914s24.81077,.52233,24.81077,.52233Z" style="fill:url(#aj);"/><path d="M1576.72627,118.2483s25.02368,38.5071,35.29013,24.43145c10.26646-14.07565,16.13226-21.96505,16.13226-21.96505,0,0,15.72602,35.67492,27.40596,17.48884,11.67993-18.18608,14.57422-27.23006,14.57422-27.23006,0,0,12.54784,24.89123,23.30075,14.99856,10.75291-9.89267,6.53448-28.2192,6.53448-28.2192,0,0,14.80534,16.54093,26.31926,6.46193s2.90007-23.29608,2.90007-23.29608c0,0,25.27846,12.09439,33.13764-1.9296,7.85918-14.02399-6.39759-26.12826-6.39759-26.12826,0,0,29.54967,6.47759,39.36567-6.14336,9.816-12.62095-12.79107-26.98273-12.79107-26.98273,0,0,18.12919,10.34946,30.52314,1.66826s-4.969-20.29379-4.969-20.29379c0,0,13.07663,7.2845,25.65225-12.73418s-19.89445-12.06828-19.89445-12.06828c0,0,28.03286,5.77347,4.95034-28.10019-23.08252-33.87366-286.93375,50.35946-286.93375,50.35946,0,0-47.03907,34.10366-33.26876,42.02495,13.77031,7.92129,19.30988,1.99394,19.30988,1.99394,0,0-21.74905,17.69385-6.78293,27.20451,14.96612,9.51066,22.76841-5.8438,22.76841-5.8438,0,0-20.35702,31.06593-4.53122,33.10631s22.67552-12.81196,22.67552-12.81196c0,0-13.98443,36.2276,.50568,39.40167s24.22311-5.39334,24.22311-5.39334Z" style="fill:url(#ak);"/><path d="M89.06246,57.92253s4.95826,49.69301,21.90231,41.21761c16.94404-8.4754,26.54886-13.17023,26.54886-13.17023,0,0-2.61122,42.31631,17.74994,30.57504,20.36116-11.74127,27.67127-19.03466,27.67127-19.03466,0,0-.2998,30.31136,15.02654,26.12017s20.39729-24.00288,20.39729-24.00288c0,0,6.04885,23.37035,22.20346,19.37895,16.15461-3.99141,14.42879-21.06029,14.42879-21.06029,0,0,18.38677,24.30133,32.97922,14.6744,14.59245-9.62693,6.8593-28.43699,6.8593-28.43699,0,0,25.31672,21.00635,41.09953,13.7116,15.78281-7.29475,1.10865-32.45346,1.10865-32.45346,0,0,12.35033,19.04732,28.65754,16.84563,16.30721-2.20169,5.32761-22.08698,5.32761-22.08698,0,0,8.99845,13.5644,31.13962,.49959,22.14117-13.06481-13.198-21.58899-13.198-21.58899,0,0,24.20267,19.56902,18.80736-24.67854-5.39531-44.24757-302.3571-94.55088-302.3571-94.55088,0,0-62.46797,9.47273-53.11713,23.99858s17.66123,11.56384,17.66123,11.56384c0,0-29.84384,6.24028-20.13091,22.89853s24.91445,5.71748,24.91445,5.71748c0,0-35.17281,19.85457-20.90093,29.72441s28.30245-1.06122,28.30245-1.06122c0,0-31.59203,28.02206-19.17646,38.32059,12.41557,10.29854,26.0951,6.87872,26.0951,6.87872Z" style="fill:url(#al);"/><path d="M1215.41209,97.12259s-15.14763,43.35355-28.46709,32.12342c-13.31946-11.23014-20.89328-17.49812-20.89328-17.49812,0,0-6.79032,38.3914-22.46027,23.50494s-20.63211-22.98261-20.63211-22.98261c0,0-6.26798,27.16126-19.06512,20.10978-12.79713-7.05148-13.0583-25.85543-13.0583-25.85543,0,0-10.44664,19.58745-24.02727,12.53597-13.58063-7.05148-8.35731-21.93794-8.35731-21.93794,0,0-21.67678,17.75929-32.64575,6.00682s0-26.9001,0-26.9001c0,0-27.16126,13.31946-39.69723,3.39516-12.53597-9.92431,6.00682-29.25059,6.00682-29.25059,0,0-15.14763,14.36413-29.25059,8.87964-14.10296-5.48449,0-20.89328,0-20.89328,0,0-10.96897,10.18547-27.94476-6.26798-16.97579-16.45346,16.45346-16.45346,16.45346-16.45346,0,0-25.85543,12.2748-11.4913-26.1166,14.36413-38.3914,290.67774-19.32628,290.67774-19.32628,0,0,53.80019,21.93794,42.30889,32.90691-11.4913,10.96897-18.28162,6.52915-18.28162,6.52915,0,0,25.3331,12.01364,13.0583,24.81077-12.2748,12.79713-23.50494-.26117-23.50494-.26117,0,0,27.16126,25.3331,12.2748,31.07875-14.88646,5.74565-25.07193-7.05148-25.07193-7.05148,0,0,22.19911,31.86225,8.87964,38.3914s-24.81077,.52233-24.81077,.52233Z" style="fill:url(#am);"/><path d="M1498.00837,78.94229s-4.95826,49.69301-21.90231,41.21761c-16.94404-8.4754-26.54886-13.17023-26.54886-13.17023,0,0,2.61122,42.31631-17.74994,30.57504-20.36116-11.74127-27.67127-19.03466-27.67127-19.03466,0,0,.2998,30.31136-15.02654,26.12017s-20.39729-24.00288-20.39729-24.00288c0,0-6.04885,23.37035-22.20346,19.37895-16.15461-3.99141-14.42879-21.06029-14.42879-21.06029,0,0-18.38677,24.30133-32.97922,14.6744s-6.8593-28.43699-6.8593-28.43699c0,0-25.31672,21.00635-41.09953,13.7116s-1.10865-32.45346-1.10865-32.45346c0,0-12.35033,19.04732-28.65754,16.84563-16.30721-2.20169-5.32761-22.08698-5.32761-22.08698,0,0-8.99845,13.5644-31.13962,.49959-22.14117-13.06481,13.198-21.58899,13.198-21.58899,0,0-24.20267,19.56902-18.80736-24.67854,5.39531-44.24757,302.3571-94.55088,302.3571-94.55088,0,0,62.46797,9.47273,53.11713,23.99858-9.35084,14.52585-17.66123,11.56384-17.66123,11.56384,0,0,29.84384,6.24028,20.13091,22.89853-9.71294,16.65825-24.91445,5.71748-24.91445,5.71748,0,0,35.17281,19.85457,20.90093,29.72441-14.27188,9.86984-28.30245-1.06122-28.30245-1.06122,0,0,31.59203,28.02206,19.17646,38.32059-12.41557,10.29854-26.0951,6.87872-26.0951,6.87872Z" style="fill:url(#an);"/><path d="M1352.70474,765.607c7.24538,16.68883,8.63334,32.49085,8.36301,44.09812-.00107,.05748-.00253,.11654-.0036,.17402-.00058,.03552-.00232,.06904-.00288,.10456-11.68846-1.61743-28.50765-5.73329-45.19878-16.92752-45.06473-30.22541-49.41002-85.36108-49.9276-93.59755,7.94496,1.75861,64.67548,15.25518,86.76984,66.14837Z" style="fill:url(#ao);"/><path d="M1280.05027,718.17892l81.01748,91.5262c-.00107,.05748-.00253,.11654-.0036,.17402-24.98913-26.48529-38.03197-33.01655-81.01388-91.70022Z" style="fill:#497015; stroke:#000; stroke-miterlimit:10; stroke-width:.16457px;"/><path d="M1382.92858,766.67381c-2.9752,17.94884-10.3881,31.97307-16.91643,41.57425-.0321,.04769-.06539,.0965-.09749,.14419-.01977,.02952-.03943,.05672-.05918,.08625-8.93806-7.70372-20.82863-20.291-28.76898-38.75327-21.43731-49.84824,4.84528-98.51085,8.88199-105.70892,5.71757,5.79003,46.03365,47.92225,36.9601,102.65751Z" style="fill:url(#ap);"/><path d="M1347.65996,687.40073l18.35218,120.84732c-.0321,.04769-.06539,.0965-.09749,.14419-6.60797-35.80869-14.01587-48.37436-18.25469-120.99151Z" style="fill:#497015; stroke:#000; stroke-miterlimit:10; stroke-width:.16457px;"/><path d="M1406.86652,784.84384c-12.94008,12.78933-27.17119,19.79688-38.09092,23.74163-.05397,.01978-.10957,.03978-.16355,.05956-.03333,.01231-.0652,.0228-.09853,.03513-2.71815-11.4825-4.96201-28.65197-.56007-48.26134,11.88663-52.94443,61.72105-76.93098,69.21316-80.39158,1.233,8.04331,9.1614,65.81571-30.30009,104.81659Z" style="fill:url(#aq);"/><path d="M1424.81647,699.9563l-56.04087,108.62918c-.05397,.01978-.10957,.03978-.16355,.05956,15.65822-32.87472,17.03175-47.39665,56.20442-108.68874Z" style="fill:#497015; stroke:#000; stroke-miterlimit:10; stroke-width:.16457px;"/><path d="M444.27934,609.97564c-2.38574,11.18069-7.44374,19.76977-11.8188,25.608l-.06536,.08769-.03964,.05243c-5.38806-5.09371-12.48844-13.3381-16.93963-25.15621-12.01719-31.90892,5.88544-61.69592,8.62711-66.09765,3.42179,3.7995,27.51205,31.41006,20.23631,65.50573Z" style="fill:url(#ar);"/><path d="M424.42967,559.19728l8.03088,76.38636-.06536,.08769c-3.11406-22.66808-7.40126-30.7695-7.96552-76.47405Z" style="fill:#497015; stroke:#000; stroke-miterlimit:10; stroke-width:.10341px;"/><path d="M459.34891,621.55334c-8.0733,8.09453-16.98388,12.56188-23.82754,15.0898l-.1025,.03816-.06175,.02252c-1.75971-7.20281-3.24702-17.98118-.56943-30.32263,7.23039-33.32136,38.43589-48.61798,43.12797-50.82622,.81101,5.04848,6.05322,41.3142-18.56675,65.99837Z" style="fill:url(#as);"/><path d="M470.24523,568.13311l-34.72386,68.51003-.1025,.03816c9.69073-20.7275,10.48834-29.85859,34.82636-68.5482Z" style="fill:#497015; stroke:#000; stroke-miterlimit:10; stroke-width:.10341px;"/><path d="M464.96047,639.58463c-11.28688,1.81823-21.12368,.20795-28.14881-1.76021l-.10539-.02923-.06322-.018c2.80096-6.86526,7.92032-16.46617,17.32949-24.88925,25.40514-22.74138,59.64994-16.81993,64.74517-15.85526-2.30524,4.56407-19.33761,37.00759-53.75724,42.55195Z" style="fill:url(#at);"/><path d="M505.12649,602.71809l-68.31483,35.10634-.10539-.02923c20.00856-11.09941,26.01177-18.02576,68.42023-35.0771Z" style="fill:#497015; stroke:#000; stroke-miterlimit:10; stroke-width:.10341px;"/><path d="M695.16875,79.13836s12.84157,48.26048,28.21211,37.18439c15.37054-11.07608,24.10091-17.24654,24.10091-17.24654,0,0,4.1898,42.18926,22.41118,27.34287,18.22138-14.84639,24.27101-23.21498,24.27101-23.21498,0,0,4.55158,29.96918,19.01039,23.38087,14.45881-6.58831,16.29611-26.95597,16.29611-26.95597,0,0,9.70849,22.1022,25.01685,15.57865,15.30836-6.52355,10.87502-23.09674,10.87502-23.09674,0,0,22.0365,21.04806,34.90155,9.21135s2.22325-29.16796,2.22325-29.16796c0,0,28.35031,16.68722,42.76337,6.9623,14.41306-9.72492-4.09572-32.21307-4.09572-32.21307,0,0,15.2375,16.82705,30.98272,12.04577s1.7268-22.65472,1.7268-22.65472c0,0,11.05192,11.95074,30.81873-4.48683s-16.48074-19.20045-16.48074-19.20045c0,0,27.02073,15.44656,14.61859-27.36867-12.40214-42.81522-313.58654-44.97965-313.58654-44.97965,0,0-60.14905,19.34096-48.59552,32.18443s19.28326,8.59055,19.28326,8.59055c0,0-28.46176,10.93273-16.20977,25.82324,12.25199,14.89051,25.50815,1.65946,25.50815,1.65946,0,0-31.54488,25.22402-15.87826,32.68441,15.66662,7.46039,27.76846-5.57381,27.76846-5.57381,0,0-26.70401,32.71373-12.80124,40.89416,13.90276,8.18043,26.85931,2.61694,26.85931,2.61694Z" style="fill:url(#au);"/><path d="M0,662.33333s157-72,377-50.66667,460,125.33333,460,125.33333c0,0,169.33333,104.24931,580,38.79132s503-13.45799,503-13.45799v317.66667H0v-417.66667Z" style="fill:url(#av);"/><path d="M1110.09935,849.86377s-9.67723-23.6783-16.76207-17.04706c-7.08484,6.63123-11.11688,10.33642-11.11688,10.33642,0,0-4.88523-21.15931-13.17201-12.42639-8.28678,8.73291-10.8133,13.37964-10.8133,13.37964,0,0-4.27055-14.9276-11.18545-10.63583s-6.51743,14.75905-6.51743,14.75905c0,0-6.37633-10.59404-13.72705-6.27965s-4.01557,12.44425-4.01557,12.44425c0,0-12.57035-9.25298-18.33265-2.39904-5.7623,6.85394,.77643,14.96324,.77643,14.96324,0,0-15.49296-6.62502-22.17967-.74277-6.68671,5.88225,4.18558,16.09733,4.18558,16.09733,0,0-8.8405-7.55287-16.527-4.09505s.60305,11.62193,.60305,11.62193c0,0-6.3955-5.34909-15.36342,4.29316s9.62717,8.67737,9.62717,8.67737c0,0-14.73643-6.08161-5.63825,14.85909,9.09818,20.9407,162.24795,2.36035,162.24795,2.36035,0,0,29.29327-13.75588,22.58461-19.52572-6.70866-5.76984-10.35764-3.10418-10.35764-3.10418,0,0,13.74484-7.41381,6.54759-14.17795-7.19725-6.76414-13.06714,.82371-13.06714,.82371,0,0,14.37731-14.87556,5.93085-17.64192-8.44647-2.76636-13.74279,4.64606-13.74279,4.64606,0,0,11.42865-18.36419,3.83122-21.6116s-13.81612,.42557-13.81612,.42557Z" style="fill:url(#aw);"/><path d="M1246.78737,830.35815s-16.87786-19.22104-21.40934-10.64001c-4.53147,8.58103-7.13279,13.39962-7.13279,13.39962,0,0-11.52603-18.40469-16.50737-7.44472-4.98134,10.95996-5.85224,16.17694-5.85224,16.17694,0,0-8.91037-12.71519-14.04506-6.4009-5.13468,6.31429-1.34142,16.07815-1.34142,16.07815,0,0-9.48584-7.93158-15.02508-1.45362-5.53924,6.47796,.26755,13.07335,.26755,13.07335,0,0-14.90256-4.64166-18.11125,3.71805-3.20869,8.35972,5.61938,13.8897,5.61938,13.8897,0,0-16.80697-1.20349-21.20667,6.53961-4.3997,7.7431,9.21198,13.84855,9.21198,13.84855,0,0-10.82203-4.25252-16.95831,1.52544-6.13628,5.77796,4.36457,10.78812,4.36457,10.78812,0,0-7.79149-2.96781-13.11974,9.07404s11.93274,5.05855,11.93274,5.05855c0,0-15.91448-.93687-.47776,15.88566,15.43672,16.82253,154.12694-50.74303,154.12694-50.74303,0,0,23.19661-22.56629,14.97175-25.82954-8.22486-3.26325-10.80353,.44771-10.80353,.44771,0,0,10.57097-11.49521,1.55965-15.53875s-12.08208,5.04499-12.08208,5.04499c0,0,8.73252-18.75453-.15427-18.61151-8.88679,.14302-11.4727,8.87847-11.4727,8.87847,0,0,4.80641-21.08924-3.43494-21.67811s-12.92001,4.91322-12.92001,4.91322Z" style="fill:url(#ax);"/><path d="M1004.8164,852.99933s.86275-25.56494-8.31571-22.41469c-9.17846,3.15025-14.37387,4.8804-14.37387,4.8804,0,0,4.20382-21.30516-6.93154-16.72934-11.13536,4.57582-15.34256,7.78126-15.34256,7.78126,0,0,2.21386-15.36781-5.85195-14.2825-8.06581,1.08531-11.98769,10.79823-11.98769,10.79823,0,0-1.48127-12.27587-9.95398-11.34832s-8.75751,9.71031-8.75751,9.71031c0,0-7.68155-13.58768-15.7445-9.69288s-5.41644,13.97009-5.41644,13.97009c0,0-11.4238-12.38626-19.93243-9.75641-8.50863,2.62985-2.77018,16.40028-2.77018,16.40028,0,0-4.97438-10.50979-13.40283-10.50121-8.42845,.00859-4.20694,10.85056-4.20694,10.85056,0,0-3.64566-7.49829-15.7747-2.37162-12.12905,5.12667,5.23185,11.85778,5.23185,11.85778,0,0-10.95599-11.58079-11.22648,11.24938-.2705,22.83017,147.06697,68.56585,147.06697,68.56585,0,0,32.35748-.56021,28.59831-8.57057-3.75916-8.01036-8.17957-7.07187-8.17957-7.07187,0,0,15.57529-1.13815,11.77734-10.2557-3.79795-9.11755-12.25946-4.59718-12.25946-4.59718,0,0,19.20664-7.68728,12.63253-13.66863s-14.44051-1.38627-14.44051-1.38627c0,0,17.9443-12.07722,12.34174-18.14995s-12.77986-5.26701-12.77986-5.26701Z" style="fill:url(#ay);"/><path d="M269.99361,730.36142s1.00115-29.66606-9.64972-26.01045c-10.65087,3.65561-16.67972,5.66331-16.67972,5.66331,0,0,4.8782-24.72292-8.0435-19.41306-12.9217,5.30987-17.80381,9.02953-17.80381,9.02953,0,0,2.569-17.83311-6.79072-16.57369-9.35972,1.25942-13.91075,12.53048-13.91075,12.53048,0,0-1.7189-14.24516-11.55079-13.16881s-10.16239,11.26803-10.16239,11.26803c0,0-8.91383-15.76741-18.27023-11.24781s-6.28534,16.21117-6.28534,16.21117c0,0-13.2564-14.37326-23.12999-11.32153-9.87358,3.05173-3.21458,19.0312-3.21458,19.0312,0,0-5.77237-12.19577-15.55291-12.18581-9.78054,.00996-4.88182,12.5912-4.88182,12.5912,0,0-4.23049-8.70117-18.30528-2.75207-14.07478,5.94909,6.07114,13.76,6.07114,13.76,0,0-12.71354-13.43858-13.02743,13.054-.31389,26.49258,170.65941,79.56516,170.65941,79.56516,0,0,37.54825-.65008,33.18605-9.94546s-9.49173-8.20634-9.49173-8.20634c0,0,18.07388-1.32074,13.66666-11.90092-4.40722-10.58018-14.22612-5.33466-14.22612-5.33466,0,0,22.28777-8.92047,14.65904-15.86134-7.62873-6.94088-16.75706-1.60865-16.75706-1.60865,0,0,20.82292-14.01465,14.3216-21.06156-6.50132-7.04691-14.83001-6.11194-14.83001-6.11194Z" style="fill:#3f562a;"/><path d="M0,1080v-299.25s530.54167-37.5,911.79167,93.75,583.08333-66.66667,1008.20833,65.625v139.875H0Z" style="fill:url(#b`);"/><g style="mix-blend-mode:multiply; opacity:.29;"><path d="M-412.77778,1080S-35.00012,754.77778,475.66667,840.55556c295.742,49.67641,459.41801,188.31172,1490.08467,155.36999" style="fill:none; stroke:#226135; stroke-miterlimit:10; stroke-width:3px;"/><path d="M-437.66666,1273c-1.00708-.23206,565.28234-461.44434,890.49871-354,284.7475,94.07428,454.12924,194.17368,1484.7959,161.23196" style="fill:none; stroke:#226135; stroke-miterlimit:10; stroke-width:3px;"/></g><path d="M1920,611.66998v468.33002h-848.33008s25.33008-143,193.33008-233.67004c111.89001-60.37994,172.02002-40.32996,328.40991-89.52997,78.43018-24.66998,181.07007-66.75,326.59009-145.13Z" style="fill:url(#ba);"/><path d="M1593.40991,756.79999c-3.75,64.27002-28.97998,171.12-159.40991,136.20001-120.40991-32.23999-191.03003,95.70996-225.25,187h-137.08008s25.33008-143,193.33008-233.67004c111.89001-60.37994,172.02002-40.32996,328.40991-89.52997Z" style="fill:url(#bb);"/><path d="M1059.13184,54.78871s11.07526,31.69813,20.81384,23.48716c9.73858-8.21097,15.2762-12.79383,15.2762-12.79383,0,0,4.96478,28.07003,16.42193,17.18573,11.45715-10.8843,15.08525-16.80383,15.08525-16.80383,0,0,4.58287,19.85907,13.93955,14.70335s9.54762-18.90431,9.54762-18.90431c0,0,7.63811,14.32144,17.56764,9.16572s6.11048-16.04002,6.11048-16.04002c0,0,15.84907,12.98477,23.86908,4.3919s0-19.66812,0-19.66812c0,0,19.85907,9.73858,29.0248,2.48237s-4.39192-21.38669-4.39192-21.38669c0,0,11.07526,10.50239,21.38669,6.49238s0-15.27621,0-15.27621c0,0,8.02001,7.44715,20.43193-4.58287,12.41192-12.03002-12.03002-12.03001-12.03002-12.03001,0,0,18.90431,8.97477,8.40191-19.09526-10.5024-28.07003-212.53026-14.13042-212.53026-14.13042,0,0-39.33623,16.04003-30.93432,24.06004,8.40192,8.02001,13.36668,4.77381,13.36668,4.77381,0,0-18.5224,8.78383-9.54762,18.1405,8.97478,9.35667,17.18574-.19096,17.18574-.19096,0,0-19.85907,18.52241-8.97477,22.72336s18.33145-5.15573,18.33145-5.15573c0,0-16.23096,23.29622-6.49238,28.07004s18.1405,.3819,18.1405,.3819Z" style="fill:url(#bc);"/><g style="mix-blend-mode:multiply; opacity:.31;"><path d="M1095.66667,1233s-19.81528-143.25528,172.06377-324.37c87.38559-82.48329,391.93623-87.05977,478.60289-132.83868s314-148.12466,314-148.12466" style="fill:none; stroke:#355c2e; stroke-miterlimit:10; stroke-width:3px;"/><path d="M1201.32565,1288.52153s-19.81528-143.25528,172.06377-324.37c87.38559-82.48329,391.93623-87.05977,478.60289-132.83868s314-148.12466,314-148.12466" style="fill:none; stroke:#355c2e; stroke-miterlimit:10; stroke-width:3px;"/></g><path d="M1199.06807,54.78871s11.07526,31.69813,20.81384,23.48716c9.73858-8.21097,15.2762-12.79383,15.2762-12.79383,0,0,4.96478,28.07003,16.42193,17.18573,11.45715-10.8843,15.08525-16.80383,15.08525-16.80383,0,0,4.58287,19.85907,13.93955,14.70335s9.54762-18.90431,9.54762-18.90431c0,0,7.63811,14.32144,17.56764,9.16572s6.11048-16.04002,6.11048-16.04002c0,0,15.84907,12.98477,23.86908,4.3919s0-19.66812,0-19.66812c0,0,19.85907,9.73858,29.0248,2.48237s-4.39192-21.38669-4.39192-21.38669c0,0,11.07526,10.50239,21.38669,6.49238s0-15.27621,0-15.27621c0,0,8.02001,7.44715,20.43193-4.58287,12.41192-12.03002-12.03002-12.03001-12.03002-12.03001,0,0,18.90431,8.97477,8.40191-19.09526-10.5024-28.07003-212.53026-14.13042-212.53026-14.13042,0,0-39.33623,16.04003-30.93432,24.06004,8.40192,8.02001,13.36668,4.77381,13.36668,4.77381,0,0-18.5224,8.78383-9.54762,18.1405,8.97478,9.35667,17.18574-.19096,17.18574-.19096,0,0-19.85907,18.52241-8.97477,22.72336s18.33145-5.15573,18.33145-5.15573c0,0-16.23096,23.29622-6.49238,28.07004s18.1405,.3819,18.1405,.3819Z" style="fill:url(#bd);"/><path d="M1834.71318,12.71339s-3.42423,33.40221,8.87853,30.10041c12.30276-3.3018,19.26191-5.10132,19.26191-5.10132,0,0-7.41737,27.52378,7.57608,22.53069s20.79084-8.81332,20.79084-8.81332c0,0-4.27847,19.92687,6.38186,19.22944,10.66032-.69743,16.66809-13.06541,16.66809-13.06541,0,0,.83814,16.20932,12.01717,15.75501s12.34024-11.93058,12.34024-11.93058c0,0,8.84024,18.48371,19.74896,14.10674s8.3471-17.80901,8.3471-17.80901c0,0,13.84888,17.24619,25.22774,14.56579,11.37886-2.6804,5.09969-21.22905,5.09969-21.22905,0,0,5.57119,14.20997,16.60978,14.95516,11.0386,.74519,6.48318-13.83224,6.48318-13.83224,0,0,4.10137,10.14689,20.44558,4.52159,16.3442-5.6253-5.78738-15.9984-5.78738-15.9984,0,0,13.30853,16.14938,15.71171-13.72455s-186.44411-102.99211-186.44411-102.99211c0,0-42.42536-2.17034-38.2213,8.65733,4.20406,10.82768,10.07722,9.99536,10.07722,9.99536,0,0-20.49942,.09268-16.34393,12.3738,4.15549,12.28112,15.64231,7.12068,15.64231,7.12068,0,0-25.84277,8.34345-17.77018,16.76659,8.0726,8.42313,18.78676,3.11144,18.78676,3.11144,0,0-24.58361,14.20579-17.79155,22.66139,6.79206,8.4556,16.26371,8.04459,16.26371,8.04459Z" style="fill:url(#be);"/><path d="M171.19142,70.8394s18.76425,27.84485,26.09753,17.42934c7.33328-10.41551,11.52506-16.25477,11.52506-16.25477,0,0,11.93257,25.88802,20.24893,12.45029,8.31637-13.43773,10.3217-20.08472,10.3217-20.08472,0,0,9.47735,18.04343,17.21738,10.67995,7.74003-7.36348,4.43215-20.70957,4.43215-20.70957,0,0,11.02564,11.91133,19.31973,4.40233s1.83537-17.0661,1.83537-17.0661c0,0,18.62769,8.53267,24.20176-1.81565s-4.99631-19.02293-4.99631-19.02293c0,0,21.68152,4.3743,28.70327-4.97225,7.02175-9.34655-9.68072-19.56944-9.68072-19.56944,0,0,13.37987,7.34441,22.33439,.84653s-3.88063-14.77509-3.88063-14.77509c0,0,9.64873,5.16552,18.59749-9.62287,8.94876-14.7884-14.69138-8.57938-14.69138-8.57938,0,0,20.56404,3.87808,3.27551-20.60321-17.28854-24.48129-209.14801,40.32235-209.14801,40.32235,0,0-33.97119,25.50647-23.80756,31.12905,10.16363,5.62257,14.1409,1.22166,14.1409,1.22166,0,0-15.68343,13.20094-4.62618,19.97081s16.57347-4.5504,16.57347-4.5504c0,0-14.50235,22.95962-2.90792,24.25782s16.42039-9.64335,16.42039-9.64335c0,0-9.78057,26.65518,.85125,28.79849s17.64243-4.23887,17.64243-4.23887Z" style="fill:url(#bf);"/><path d="M1812.76236,1080h-405.0957c0-23.35871,3.95717-45.79303,11.23795-66.66954l47.97419,14.73818-29.97476-52.94919c10.31356-17.01272,23.07826-32.39485,37.7852-45.63734l57.28031,36.622-5.77476-70.43963c20.84525-9.53465,43.59115-15.62099,67.52116-17.54243l43.95471,86.4761,52.17022-77.24269c2.99125,2.64842,39.17705,25.5606,61.90215,47.75605l-6.39792,43.94425,49.14784,16.77385c6.35639,13.88644,11.19637,28.62462,14.27073,43.98583l-23.8365,4.03001,25.96568,8.4959c1.23597,9.0464,1.86952,18.27981,1.86952,27.65864Z" style="fill:url(#bg);"/><path d="M2025.21634,1526.47559l-74.74531-978.42296s-12.0557-40.07665,226.64707-549.32645h-37.37266l-189.37589,355.85298L1932.38749-1.27382h-89.21215l-59.07291,486.44757-99.10243-298.39598L1761.44444,.00003l-51.11799-.75855-51.99312,126.30685L1621.35055-1.27382h-47.01721l200.12454,840.9186,23.50861,686.8308h227.24986Z" style="fill:url(#bh);"/><path d="M143.79223,944.49686c-24.87969,33.44992-54.68616,54.25121-78.05316,66.96832-.1154,.0635-.2344,.12805-.3498,.19156-.07122,.03942-.13979,.07423-.211,.11369-10.13375-25.06653-21.16296-63.17837-17.98447-109.11847,8.58541-124.03681,113.15289-195.62735,128.92397-206.06063,5.57865,17.79111,43.54675,145.90014-32.32553,247.90554Z" style="fill:url(#bi);"/><path d="M155.04721,746.00846l-89.30815,265.45672c-.1154,.0635-.2344,.12805-.3498,.19156,24.07948-79.88503,22.1607-113.2531,89.65796-265.64828Z" style="fill:#497015; stroke:#000; stroke-miterlimit:10; stroke-width:.37709px;"/><path d="M162.62068,1047.2856c-50.50067,22.47434-98.46949,27.129-133.74041,26.62941-.17464-.00166-.35413-.00445-.52877-.00611-.10793-.00076-.2098-.00513-.31775-.00584,4.58989-35.55494,16.62792-86.76651,50.17392-137.78521,90.57726-137.74652,257.96165-152.47582,282.97011-154.27653-5.12255,24.1859-44.55346,196.91004-198.55709,265.44428Z" style="fill:url(#bj);"/><path d="M304.69584,825.24333L28.88027,1073.91501c-.17464-.00166-.35413-.00445-.52877-.00611,79.77101-76.65223,99.25179-116.45803,276.34434-248.66556Z" style="fill:#497015; stroke:#000; stroke-miterlimit:10; stroke-width:.5px;"/><polygon points="102.86412 1233 -95.6745 1233 -113.99442 842.33021 -201.43737 728.59091 -201.43737 675.84225 -105.25012 756.61364 -105.25012 0 27.66318 0 59.14264 349.45989 235.77742 97.25535 204.29795 0 249.76829 0 281.24776 89.01337 352.95098 0 437.54626 -74.33238 87.77443 497.66094 102.86412 1233" style="fill:url(#bk);"/><path d="M71.16625,95.40908s24.32183,32.72271,32.63281,19.67781c8.31098-13.04489,13.06804-20.36278,13.06804-20.36278,0,0,15.92548,30.73222,25.25945,13.96635,9.33397-16.76587,11.39365-24.94091,11.39365-24.94091,0,0,12.5075,21.35465,21.483,11.98897,8.9755-9.36568,4.21477-25.36857,4.21477-25.36857,0,0,14.04167,13.8298,23.68107,4.25653s1.26927-20.80354,1.26927-20.80354c0,0,23.07326,9.30531,29.25414-3.55943,6.18088-12.86474-7.12707-22.79403-7.12707-22.79403,0,0,26.54427,4.0901,34.53733-7.64071,7.99305-11.7308-12.83976-23.19426-12.83976-23.19426,0,0,16.64119,8.15827,27.13837-.22559,10.49718-8.38385-5.53559-17.7041-5.53559-17.7041,0,0,11.99325,5.72456,22.01856-12.71508s-18.30126-9.5827-18.30126-9.5827c0,0,25.16098,3.55086,2.81777-25.1747C253.78757-97.49322,24.70206-8.13003,24.70206-8.13003c0,0-39.77569,32.84345-27.13225,39.09353,12.64344,6.25008,17.22096,.68889,17.22096,.68889,0,0-18.28326,16.89176-4.49155,24.48336,13.79171,7.5916,19.84792-6.44884,19.84792-6.44884,0,0-16.30343,28.66249-2.16697,29.58701,14.13646,.92452,19.37666-12.61784,19.37666-12.61784,0,0-10.36883,32.88032,2.64741,34.88391s21.16201-6.13091,21.16201-6.13091Z" style="fill:url(#bl);"/><path d="M267.27846-4.69743s-4.61581,40.50952,10.36732,36.66927c14.98313-3.84025,23.4575-5.92974,23.4575-5.92974,0,0-9.38359,33.31724,8.88973,27.46036,18.27332-5.85688,25.36483-10.41583,25.36483-10.41583,0,0-5.46818,24.13623,7.485,23.43564,12.95318-.70059,20.41737-15.63521,20.41737-15.63521,0,0,.79532,19.69262,14.37497,19.29434,13.57965-.39828,15.14699-14.31668,15.14699-14.31668,0,0,10.48017,22.56391,23.78541,17.39909,13.30524-5.16482,10.3792-21.50895,10.3792-21.50895,0,0,16.57856,21.13004,30.43137,18.0316,13.85281-3.09843,6.48315-25.70606,6.48315-25.70606,0,0,6.56955,17.32996,19.96223,18.38617,13.39269,1.0562,8.06152-16.70598,8.06152-16.70598,0,0,4.84065,12.37646,24.76271,5.77048,19.92206-6.60598-6.80752-19.50441-6.80752-19.50441,0,0,15.93751,19.79089,19.26519-16.44865,3.32767-36.23954-224.9651-127.60889-224.9651-127.60889,0,0-51.4825-3.21712-46.52651,9.98735s12.09851,12.27445,12.09851,12.27445c0,0-24.89138-.16865-20.01429,14.79991,4.87709,14.96856,18.895,8.86038,18.895,8.86038,0,0-31.49237,9.77603-21.80627,20.11401,9.6861,10.33798,22.76794,4.03555,22.76794,4.03555,0,0-30.04392,16.91126-21.91308,27.2711,8.13084,10.35984,19.63682,9.9907,19.63682,9.9907Z" style="fill:url(#bm);"/><path d="M94.17788,135.70901s38.98813-5.6243,36.85705,17.71434-36.85705-17.71434-36.85705-17.71434Z" style="fill:url(#bn);"/><path d="M409.56116,114.21313s12.08423-37.49238,32.11109-25.32032-32.11109,25.32032-32.11109,25.32032Z" style="fill:url(#bo);"/><path d="M584.07433,37.8444s36.51224-14.78389,40.02366,8.38729-40.02366-8.38729-40.02366-8.38729Z" style="fill:url(#bp);"/><path d="M889.54295,58.66889s22.76441-32.14792,38.22318-14.53371c15.45877,17.61421-38.22318,14.53371-38.22318,14.53371Z" style="fill:url(#bq);"/><path d="M666.37189,405.0568s.8889-39.38168,23.55557-33.42717c22.66666,5.95452-23.55557,33.42717-23.55557,33.42717Z" style="fill:url(#br);"/><path d="M1504.54295,155.57491s22.76441-32.14792,38.22318-14.53371c15.45877,17.61421-38.22318,14.53371-38.22318,14.53371Z" style="fill:url(#bs);"/><path d="M1775.94275,204.86682s-28.69553-26.98655-9.11495-39.86424c19.58058-12.87769,9.11495,39.86424,9.11495,39.86424Z" style="fill:url(#bt);"/><path d="M1274.1135,59.06914s-49.01967,10.26848-48.19036-19.51677c.82932-29.78526,48.19036,19.51677,48.19036,19.51677Z" style="fill:url(#bu);"/><path d="M1378.92855,311.62215s25.8173,40.452,46.7113,19.31926c20.894-21.13274-46.7113-19.31926-46.7113-19.31926Z" style="fill:url(#bv);"/><path d="M382.3142,1080H38.43687c0-19.82873,3.35916-38.87276,9.53966-56.59439l40.72429,12.51094-25.44495-44.94747c8.75497-14.44174,19.59066-27.49931,32.07507-38.74059l48.62407,31.08766-4.90208-59.79474c17.6951-8.09377,37.00362-13.26034,57.31731-14.8914l37.31224,73.40777,44.28622-65.56972c2.53921,2.24819,33.25658,21.69786,52.54745,40.53912l-5.43106,37.30336,41.72058,14.23898c5.39581,11.78791,9.50436,24.29885,12.11412,37.33866l-20.23431,3.42099,22.04172,7.21199c1.04919,7.6793,1.58699,15.51735,1.58699,23.47885Z" style="fill:url(#bw);"/><path d="M1482.68167,1080.60839h477.35516c0-27.39375-4.66303-53.70342-13.24254-78.18618l-56.53165,17.28409,35.32155-62.09575c-12.15325-19.95153-27.19488-37.9908-44.52518-53.52083l-67.49776,42.94817,6.80485-82.60753c-24.56355-11.18169-51.36678-18.3194-79.56533-20.57274l-51.79518,101.41417-61.47615-90.58576c-3.52482,3.10592-46.1653,29.97599-72.94402,56.00554l7.53915,51.53527-57.91465,19.6714c-7.49022,16.28521-13.19353,33.5693-16.81629,51.58404l28.08837,4.72616-30.59734,9.9635c-1.45644,10.6091-2.20299,21.43751-2.20299,32.43646Z" style="fill:url(#bx);"/><polygon points="959.2229 1077.32208 1458.74942 -3.28628 1589.89189 -.29777 1260.43181 1080.31062 959.2229 1077.32208" style="fill:url(#by);"/><polygon points="1285.83557 1083.28628 1785.36209 2.67792 1918.04685 .4537 1588.58677 1081.06209 1285.83557 1083.28628" style="fill:url(#c`);"/><path d="M1465.62375,103.66331s25.40744,37.82067,35.3787,23.70178c9.97126-14.11889,15.67071-22.03421,15.67071-22.03421,0,0,16.14107,35.15197,27.45225,16.93404,11.31118-18.21793,14.04534-27.2336,14.04534-27.2336,0,0,12.82486,24.50248,23.34207,14.52583,10.51721-9.97665,6.05477-28.09302,6.05477-28.09302,0,0,14.93782,16.18461,26.20715,6.01158,11.26933-10.17303,2.52395-23.15413,2.52395-23.15413,0,0,25.26,11.61486,32.84397-2.41629,7.58398-14.03116-6.74243-25.82283-6.74243-25.82283,0,0,29.41202,5.97817,38.95846-6.6908,9.54644-12.66897-13.09783-26.5736-13.09783-26.5736,0,0,18.14133,9.99218,30.30484,1.19247,12.16351-8.79971-5.23684-20.05656-5.23684-20.05656,0,0,13.08265,7.02824,25.2546-13.02124,12.17195-20.04947-19.91855-11.67054-19.91855-11.67054,0,0,27.89664,5.30265,4.48507-27.95096-23.41157-33.25361-283.88102,54.30515-283.88102,54.30515,0,0-46.14698,34.54424-32.36653,42.19368,13.78045,7.64944,19.186,1.68545,19.186,1.68545,0,0-21.3074,17.88219-6.31661,27.09019,14.99079,9.208,22.49817-6.14215,22.49817-6.14215,0,0-19.72387,31.12647-3.99344,32.91078,15.73043,1.78431,22.30045-13.05329,22.30045-13.05329,0,0-13.32393,36.1504,1.09865,39.07959,14.42257,2.92919,23.94809-5.71733,23.94809-5.71733Z" style="fill:url(#ca);"/><path d="M737.66061,47.13266s25.40744,37.82067,35.3787,23.70178c9.97126-14.11889,15.67071-22.03421,15.67071-22.03421,0,0,16.14107,35.15197,27.45225,16.93404,11.31118-18.21793,14.04534-27.2336,14.04534-27.2336,0,0,12.82486,24.50248,23.34207,14.52583,10.51721-9.97665,6.05477-28.09302,6.05477-28.09302,0,0,14.93782,16.18461,26.20715,6.01158,11.26933-10.17303,2.52395-23.15413,2.52395-23.15413,0,0,25.26,11.61486,32.84397-2.41629,7.58398-14.03116-6.74243-25.82283-6.74243-25.82283,0,0,29.41202,5.97817,38.95846-6.6908,9.54644-12.66897-13.09783-26.5736-13.09783-26.5736,0,0,18.14133,9.99218,30.30484,1.19247,12.16351-8.79971-5.23684-20.05656-5.23684-20.05656,0,0,13.08265,7.02824,25.2546-13.02124,12.17195-20.04947-19.91855-11.67054-19.91855-11.67054,0,0,27.89664,5.30265,4.48507-27.95096-23.41157-33.25361-283.88102,54.30515-283.88102,54.30515,0,0-46.14698,34.54424-32.36653,42.19368,13.78045,7.64944,19.186,1.68545,19.186,1.68545,0,0-21.3074,17.88219-6.31661,27.09019,14.99079,9.208,22.49817-6.14215,22.49817-6.14215,0,0-19.72387,31.12647-3.99344,32.91078,15.73043,1.78431,22.30045-13.05329,22.30045-13.05329,0,0-13.32393,36.1504,1.09865,39.07959,14.42257,2.92919,23.94809-5.71733,23.94809-5.71733Z" style="fill:url(#cb);"/><path d="M1684.32639,87.90591s-5.1746,59.67764,16.67846,53.44417,34.21631-9.63788,34.21631-9.63788c0,0-12.46174,49.30345,14.14364,39.97792,26.60537-9.32553,36.83984-16.30198,36.83984-16.30198,0,0-7.07494,35.66457,11.92116,34.1226,18.9961-1.54197,29.36696-23.77152,29.36696-23.77152,0,0,1.94802,28.89032,21.87618,27.76752,19.92816-1.12279,21.67878-21.6263,21.67878-21.6263,0,0,16.28553,32.72369,35.62188,24.61133,19.33636-8.11236,14.39164-32.00049,14.39164-32.00049,0,0,25.18522,30.37627,45.40761,25.27705,20.22239-5.09922,8.50342-38.01032,8.50342-38.01032,0,0,10.33484,25.19167,30.04601,26.21244,19.71118,1.02076,11.17798-24.85475,11.17798-24.85475,0,0,7.59948,17.98513,36.59662,7.49412,28.99714-10.49101-10.77046-28.37577-10.77046-28.37577,0,0,24.1907,28.43491,27.64258-24.92055,3.45189-53.35547-335.45211-178.50423-335.45211-178.50423,0,0-75.73786-2.6858-67.93618,16.51083,7.80168,19.19663,18.25479,17.54784,18.25479,17.54784,0,0-36.56372,.73819-28.80807,22.52878,7.75566,21.7906,28.10132,12.26454,28.10132,12.26454,0,0-45.86447,15.60502-31.22941,30.40438s33.59827,5.02509,33.59827,5.02509c0,0-43.45459,26.0269-31.1028,40.91997,12.35179,14.89307,29.23557,13.89521,29.23557,13.89521Z" style="fill:url(#cc);"/></g></g></g></svg>