<?xml version="1.0" encoding="UTF-8"?><svg xmlns="http://www.w3.org/2000/svg" xmlns:xlink="http://www.w3.org/1999/xlink" viewBox="0 0 2263.43994 2263.43994"><defs><style>.t{fill:#3f562a;}.u{stroke:#226135;stroke-width:3px;}.u,.v,.w,.x,.y{stroke-miterlimit:10;}.u,.x,.a`{fill:none;}.v{fill:#453131;}.v,.w,.x,.y{stroke:#000;}.v,.x{stroke-width:5px;}.aa{fill:url(#l);}.w{fill:#497015;stroke-width:.10341px;}.ab{isolation:isolate;}.ac{fill:url(#m);}.ad{fill:#597634;}.ae{filter:url(#r);}.af{fill:url(#f);}.ag{fill:#86643e;}.ah{fill:url(#p);}.ai{fill:url(#g);}.aj{fill:url(#i);}.ak{clip-path:url(#e);}.al{mix-blend-mode:multiply;opacity:.29;}.am{clip-path:url(#d);}.an{fill:url(#h);}.ao{fill:url(#n);}.ap{fill:url(#j);}.aq{fill:url(#o);}.y{stroke-width:10px;}.ar{fill:url(#q);}.as{fill:url(#k);}</style><clipPath id="d"><ellipse cx="1125.02882" cy="1132.78951" rx="1123.97835" ry="1126.32626" style="fill:none;"/></clipPath><clipPath id="e"><rect x="-1596.36974" y="-1565.78687" width="8452.00525" height="4764.18425" style="fill:none;"/></clipPath><linearGradient id="f" x1="2629.63289" y1="-1620.19267" x2="2629.63289" y2="2361.72428" gradientTransform="matrix(1, 0, 0, 1, 0, 0)" gradientUnits="userSpaceOnUse"><stop offset="0" stop-color="#6a724d"/><stop offset="1" stop-color="#dbb872"/></linearGradient><linearGradient id="g" x1="782.46553" y1="2844.88213" x2="800.1106" y2="-2419.23022" xlink:href="#f"/><linearGradient id="h" x1="2745.33631" y1="2851.47893" x2="2762.98141" y2="-2412.64375" xlink:href="#f"/><linearGradient id="i" x1="1499.5788" y1="2626.1995" x2="1593.68382" y2="-32.26736" gradientTransform="matrix(1, 0, 0, 1, 0, 0)" gradientUnits="userSpaceOnUse"><stop offset="0" stop-color="#635144"/><stop offset=".5929" stop-color="#405e45"/><stop offset="1" stop-color="#2e6646"/></linearGradient><linearGradient id="j" x1="289.81172" y1="1238.56977" x2="289.81172" y2="836.02328" gradientTransform="matrix(1, 0, 0, 1, 0, 0)" gradientUnits="userSpaceOnUse"><stop offset="0" stop-color="#823423"/><stop offset="1" stop-color="#009245"/></linearGradient><linearGradient id="k" x1="411.54972" y1="1242.89304" x2="411.54972" y2="884.92262" xlink:href="#j"/><linearGradient id="l" x1="506.42041" y1="1259.10383" x2="506.42041" y2="1061.70038" xlink:href="#j"/><linearGradient id="m" x1="2619.37976" y1="2379.70601" x2="2731.04928" y2="1263.01083" gradientTransform="matrix(1, 0, 0, 1, 0, 0)" gradientUnits="userSpaceOnUse"><stop offset="0" stop-color="#004826"/><stop offset="1" stop-color="#009245"/></linearGradient><linearGradient id="n" x1="2433.99207" y1="2637.35935" x2="2533.99229" y2="2072.65224" gradientTransform="matrix(1, 0, 0, 1, 0, 0)" gradientUnits="userSpaceOnUse"><stop offset="0" stop-color="#a25144"/><stop offset=".26543" stop-color="#85664d"/><stop offset=".75617" stop-color="#548a5c"/><stop offset="1" stop-color="#429962"/></linearGradient><linearGradient id="o" x1="3126.77681" y1="3135.19078" x2="-2.10572" y2="1591.29565" gradientTransform="matrix(1, 0, 0, 1, 0, 0)" gradientUnits="userSpaceOnUse"><stop offset="0" stop-color="#004223"/><stop offset="1" stop-color="#009245"/></linearGradient><linearGradient id="p" x1="-1076.68392" y1="3873.32348" x2="-1076.68392" y2="-1893.68793" gradientTransform="matrix(1, 0, 0, 1, 0, 0)" gradientUnits="userSpaceOnUse"><stop offset="0" stop-color="#292821"/><stop offset="1" stop-color="#16164f"/></linearGradient><linearGradient id="q" x1="-1234.86214" y1="1570.61338" x2="-1234.86214" y2="1482.29824" gradientTransform="translate(1557.5809 -1821.43343) rotate(-34.00984)" xlink:href="#p"/><filter id="r" filterUnits="userSpaceOnUse"><feOffset dx="0" dy="0"/><feGaussianBlur result="s" stdDeviation="15"/><feFlood flood-color="#86643e" flood-opacity="1"/><feComposite in2="s" operator="in"/><feComposite in="SourceGraphic"/></filter></defs><g style="isolation:isolate;"><g id="a"/><g id="b"><g id="c"><g><g style="clip-path:url(#d);"><g style="clip-path:url(#e);"><rect x="-1596.36974" y="-1565.78687" width="8452.00525" height="4764.18425" style="fill:url(#f);"/><g><polygon points="765.92776 2011.76282 129.38101 2011.76282 70.64442 878.23438 -209.71177 548.21977 -209.71177 395.16951 98.68004 629.52771 98.68004 -1565.78687 524.82144 -1565.78687 625.74967 -551.82893 1192.06916 -1283.60046 1091.14094 -1565.78687 1236.92615 -1565.78687 1337.85438 -1307.51456 1567.74645 -1565.78687 1797.63853 -1565.78687 676.21378 93.85183 765.92776 2011.76282" style="fill:url(#g);"/><path d="M2823.4368,1903.68607V893.2601L3411.40849,13.43341l-82.42594-158.09386-211.55991,329.93501-24.72778-673.61731h-115.39631l-16.48519,790.46929s-103.49034,359.148-137.37656,313.3237c-58.91386-79.66916,43.9605-1701.80019,43.9605-1701.80019l170.34694-479.43681h-390.14944l-164.85188,548.17327-263.763-548.17327h-115.39631l307.7235,891.85557-16.48519,2577.61726h428.61488Z" style="fill:url(#h);"/></g><path d="M-62.57256,1338.30693L103.27973-390.9155-171.56121-708.52779l23.69318-211.74152S98.5411-537.95823,131.71156-596.77532c33.17046-58.81709,37.9091-914.60547-85.29547-969.01141-123.20456-54.40594,270.10231,0,270.10231,0l28.43182,2904.09366H-62.57256Z" style="fill:#597634;"/><path d="M1938.03812,1334.62783s76.57872-53.69796,86.58149-18.85331c10.00277,34.84465,15.82745,54.46243,15.82745,54.46243,0,0,56.35164-55.59342,66.17422-11.81529,9.82258,43.77813,9.00393,63.26499,9.00393,63.26499,0,0,42.40119-37.55403,56.3546-10.29184,13.95341,27.26219-7.44004,58.84662-7.44004,58.84662,0,0,40.83352-19.88695,56.14277,8.32648,15.30925,28.21343-11.02397,46.62514-11.02397,46.62514,0,0,58.1434-3.21262,63.47183,29.64685,5.32843,32.85946-31.25104,44.72968-31.25104,44.72968,0,0,62.47636,10.82864,72.64033,42.5507,10.16397,31.72206-44.37651,41.34526-44.37651,41.34526,0,0,42.90041-5.49413,60.934,20.74785,18.03359,26.24198-24.27266,34.7415-24.27266,34.7415,0,0,30.81472-3.61911,41.07659,44.35004,10.26187,47.96915-47.58741,7.38288-47.58741,7.38288,0,0,59.00299,10.98031-10.45513,57.37841-69.45812,46.3981-525.4698-320.77442-525.4698-320.77442,0,0-67.6149-101.79711-34.98607-106.08486,32.62884-4.28776,39.22153,11.3389,39.22153,11.3389,0,0-29.88213-50.73315,6.2264-57.10954,36.10854-6.3764,40.37187,28.97149,40.37187,28.97149,0,0-17.57195-75.10042,14.86404-66.58075,32.43599,8.51966,35.19494,42.16496,35.19494,42.16496,0,0-1.39974-79.93261,29.23479-74.61824,30.63453,5.31437,43.54183,29.25409,43.54183,29.25409Z" style="fill:#3f562a;"/><path d="M1284.06191,1685.32775L1466.0148-396.79721s29.34724-85.28478-551.72812-1168.98965h90.97645l460.99868,757.27003,43.77385-757.27003h217.16958l143.80148,1035.18077,305.2113-784.47293-129.12786-250.70784h88.04172l55.75976,130.86802,76.30283-130.86802h114.45424L1894.48452,223.72308l-57.22712,1461.60467h-553.19548Z" style="fill:url(#i);"/><path d="M359.38618,1124.98751c-10.50222,49.32117-32.76798,87.21001-52.02736,112.96412-.09477,.12796-.19295,.25888-.28772,.38684-.05837,.07922-.11615,.15203-.17449,.2313-23.7187-22.46981-54.97519-58.83813-74.56973-110.97112-52.90069-140.75922,25.90821-272.15808,37.9773-291.57536,15.06302,16.76067,121.11042,138.55863,89.082,288.96424Z" style="fill:url(#j);"/><path d="M272.00619,900.98987l35.35262,336.96176c-.09477,.12796-.19295,.25888-.28772,.38684-13.70835-99.9953-32.58098-135.73291-35.0649-337.3486Z" style="fill:#497015; stroke:#000; stroke-miterlimit:10; stroke-width:.10341px;"/><path d="M425.72369,1176.06003c-35.53936,35.70725-74.76448,55.414-104.8909,66.56535-.1489,.05591-.30229,.11244-.4512,.16835-.09194,.03478-.17991,.06449-.27184,.09932-7.74639-31.77364-14.29368-79.32007-2.50668-133.76166,31.82878-146.98992,169.19808-214.46758,189.85306-224.20877,3.57012,22.27026,26.64679,182.24859-81.73244,291.13741Z" style="fill:url(#k);"/><path d="M473.69024,940.40832l-152.85744,302.21705c-.1489,.05591-.30229,.11244-.4512,.16835,42.65941-91.43484,46.17057-131.71464,153.30864-302.3854Z" style="fill:#497015; stroke:#000; stroke-miterlimit:10; stroke-width:.10341px;"/><path d="M450.42627,1255.6011c-49.68581,8.02074-92.98824,.91733-123.91348-7.76476-.15331-.04227-.31063-.08667-.46394-.12895-.09481-.02589-.18345-.05355-.27829-.07939,12.33007-30.28458,34.86594-72.6369,76.28589-109.79351,111.83561-100.31865,262.58415-74.19745,285.01382-69.94202-10.14789,20.13339-85.12581,163.25092-236.644,187.70864Z" style="fill:url(#l);"/><path d="M627.24057,1092.9724l-300.72778,154.86393c-.15331-.04227-.31063-.08667-.46394-.12895,88.07941-48.96261,114.50606-79.51672,301.19172-154.73499Z" style="fill:#497015; stroke:#000; stroke-miterlimit:10; stroke-width:.10341px;"/><path d="M-1596.36974,1355.95205S-905.24222,1038.33977,63.21671,1132.44711c968.45893,94.10734,2024.95959,552.88064,2024.95959,552.88064,0,0,745.41991,459.87308,2553.20992,171.11945,1807.79001-288.75363,2214.24929-59.36698,2214.24929-59.36698v1401.31716H-1596.36974V1355.95205Z" style="fill:url(#m);"/><path d="M2826.91854,2197.03348s3.7979-112.77416-36.60648-98.87752c-40.40438,13.89664-63.27502,21.52882-63.27502,21.52882,0,0,18.5056-93.98305-30.51324-73.79783-49.01883,20.18521-67.53928,34.32532-67.53928,34.32532,0,0,9.74559-67.79173-25.7608-63.00412-35.50639,4.78761-52.77084,47.63402-52.77084,47.63402,0,0-6.52068-54.15232-43.81826-50.06063-37.29758,4.09169-38.55132,42.83491-38.55132,42.83491,0,0-33.81486-59.93907-69.30865-42.75804-35.49379,17.18103-23.84363,61.62602-23.84363,61.62602,0,0-50.28855-54.63926-87.74428-43.03825-37.45573,11.60101-12.19459,72.34624-12.19459,72.34624,0,0-21.89766-46.36165-59.00041-46.32378-37.10276,.03787-18.51932,47.86487-18.51932,47.86487,0,0-16.0485-33.07708-69.4416-10.46187-53.3931,22.6152,23.03104,52.30801,23.03104,52.30801,0,0-48.2292-51.08614-49.41995,49.62418-1.19075,100.71032,647.40145,302.46327,647.40145,302.46327,0,0,142.44039-2.47124,125.89224-37.8072-16.54816-35.33596-36.00717-31.19603-36.00717-31.19603,0,0,68.56378-5.02072,51.84488-45.24078-16.71891-40.22006-53.96722-20.27945-53.96722-20.27945,0,0,84.54929-33.91074,55.60948-60.29616-28.93981-26.38542-63.56838-6.11522-63.56838-6.11522,0,0,78.99237-53.27604,54.32942-80.06454-24.66296-26.7885-56.25806-23.23425-56.25806-23.23425Z" style="fill:url(#n);"/><path d="M-1596.36974,3198.39738V1878.32133s2335.49008-165.42306,4013.78539,413.55766c1678.29531,578.98072,2566.78302-294.08545,4438.21986,289.49036v617.02803H-1596.36974Z" style="fill:url(#o);"/><g style="mix-blend-mode:multiply; opacity:.29;"><path d="M-3413.45304,3198.39738S-1750.44327,1763.75054,497.55587,2142.14048c1301.88176,219.13663,2022.39761,830.69603,6559.48098,685.3808" style="fill:none; stroke:#226135; stroke-miterlimit:10; stroke-width:3px;"/></g><polygon points="-1143.55302 3873.32348 -2017.53712 3873.32348 -2098.18296 2149.969 -2483.11439 1648.23289 -2483.11439 1415.54367 -2059.68982 1771.84903 -2059.68982 -1565.78687 -1474.59405 -1565.78687 -1336.01873 -24.22083 -558.45724 -1136.76613 -697.03256 -1565.78687 -496.86821 -1565.78687 -358.2929 -1173.12382 -42.64912 -1565.78687 329.74656 -1893.68793 -1209.97916 629.53572 -1143.55302 3873.32348" style="fill:url(#p);"/><path d="M1337.05667,221.03279s3.91302-173.7237,103.69363-147.45665c99.78061,26.26705-103.69363,147.45665-103.69363,147.45665Z" style="fill:url(#q);"/></g></g><g><path d="M651.22947,1312.5079c-32.38013-14.97998-58.90015-31.08008-80.37012-47.96973-159.32007-125.33984-40.48999-293.97021,25.79004-367.76025,15.45996-17.20996,39.42993-22.25977,59.8501-14.45996,5.97998,2.27002,11.6499,5.66016,16.70996,10.16016,266.87988,237.23975,80.06982,467.23975-21.97998,420.02979Z" style="stroke:#000; stroke-miterlimit:10; stroke-width:10px;"/><path d="M889.93943,1027.04794c-4.02002-3.16992-7.93018-6.33984-11.72998-9.50977-247.49023-205.91992-41.70996-389.33984,61.07983-460.22021,17.15015-11.81982,38.21021-13.70996,56.33008-6.90967,11.20996,4.20996,21.31006,11.72998,28.66992,22.29004,230.0603,329.94971-34.95996,532.84961-134.34985,454.34961Z" style="stroke:#000; stroke-miterlimit:10; stroke-width:10px;"/><path d="M1390.36912,1027.04794c-37.1499,29.3501-97.44971,19.37012-146.38965-21.87988-81.96021-69.06982-132.02002-225.85986,12.02979-432.46973,18.56006-26.6001,54.43994-33.97021,81.84033-17.42041,1.06982,.64014,2.11963,1.32031,3.15967,2.04004,104.37012,71.97021,314.93018,259.95996,49.35986,469.72998Z" style="stroke:#000; stroke-miterlimit:10; stroke-width:10px;"/><path d="M1627.12937,1312.5079c-30.33008,14.03027-68.14014,3.58008-99.30029-24.27002-73.70996-65.85986-110.25-229.02002,77.31055-395.75977,15.17969-13.5,35.81982-16.93994,53.76953-10.80029,8.49023,2.90039,16.37012,7.9502,22.79004,15.1001,75.22021,83.72998,218.09033,289.59033-54.56982,415.72998Z" style="stroke:#000; stroke-miterlimit:10; stroke-width:10px;"/><path d="M1214.97947,1652.26816c-70.97021-63.25-169.71021-4.62988-169.71021-4.62988-134.76978,48.81006-208.20996,40.0498-244.56982,3.02979-88.93018-90.54004,43.98999-350.16992,43.98999-350.16992,0,0,207.25-327.31006,423.81006-191.70996,55.68994,34.87012,112.00977,100.37012,165.56982,209.92969,248.16016,507.64014-205.77002,345.43018-219.08984,333.55029Z" style="stroke:#000; stroke-miterlimit:10; stroke-width:10px;"/><path d="M625.74949,1294.39804c-20.6001-9.52979-38.83008-19.50977-54.89014-29.85986-159.32007-125.33984-40.48999-293.97021,25.79004-367.76025,15.45996-17.20996,39.42993-22.25977,59.8501-14.45996,253.94995,234.39014,70.15991,458.76025-30.75,412.08008Z" style="fill:#86643e;"/><path d="M878.20945,1017.53818c-247.49023-205.91992-41.70996-389.33984,61.07983-460.22021,17.15015-11.81982,38.21021-13.70996,56.33008-6.90967,1.11011,1.32959,2.17993,2.72998,3.18994,4.17969,220.13013,315.70996-13,515.08984-120.59985,462.9502Z" style="fill:#86643e;"/><path d="M1364.88962,1008.93808c-30.91016,24.41016-77.84033,21.60986-120.91016-3.77002-81.96021-69.06982-132.02002-225.85986,12.02979-432.46973,18.56006-26.6001,54.43994-33.97021,81.84033-17.42041,108.22949,81.28027,274.75,258,27.04004,453.66016Z" style="fill:#86643e;"/><path d="M1601.64939,1294.39804c-22.41992,10.37012-48.93018,7.35986-73.82031-6.16016-73.70996-65.85986-110.25-229.02002,77.31055-395.75977,15.17969-13.5,35.81982-16.93994,53.76953-10.80029,75.84033,85.56006,212.2002,288.07031-57.25977,412.72021Z" style="fill:#86643e;"/><path d="M1189.49949,1634.15829c-70.97021-63.26025-169.71021-4.63037-169.71021-4.63037-108.66992,39.3501-177.45996,41.28027-219.08984,21.14014-88.93018-90.54004,43.98999-350.16992,43.98999-350.16992,0,0,207.25-327.31006,423.81006-191.70996,47.2998,37.73975,94.68994,98.94971,140.08984,191.81982,248.16992,507.62988-205.76025,345.41992-219.08984,333.55029Z" style="fill:#86643e;"/></g><path d="M2171.68994,1100.95996c0,623.6499-505.56982,1129.21973-1129.21973,1129.21973-112.26025,0-220.7002-16.37988-323.05005-46.88965C299.68018,2018.6001,2.5,1609.87012,2.5,1131.71973,2.5,508.06982,508.07007,2.5,1131.72021,2.5c112.25977,0,220.69971,16.37988,323.0498,46.88989,419.74023,164.67993,716.91992,573.42017,716.91992,1051.57007Z" style="fill:none; stroke:#000; stroke-miterlimit:10; stroke-width:5px;"/><path d="M2260.93994,1131.71973c0,623.65039-505.56982,1129.22021-1129.21973,1129.22021-145.5,0-284.58008-27.52002-412.30005-77.6499,102.34985,30.50977,210.78979,46.88965,323.05005,46.88965,623.6499,0,1129.21973-505.56982,1129.21973-1129.21973,0-478.1499-297.17969-886.89014-716.91992-1051.57007,466.22998,138.94995,806.16992,570.94019,806.16992,1082.32983Z" style="fill:#453131; stroke:#000; stroke-miterlimit:10; stroke-width:5px;"/><path d="M2171.68994,1100.95996c0,623.6499-505.56982,1129.21973-1129.21973,1129.21973-112.26025,0-220.7002-16.37988-323.05005-46.88965C299.68018,2018.6001,2.5,1609.87012,2.5,1131.71973,2.5,508.06982,508.07007,2.5,1131.72021,2.5c112.25977,0,220.69971,16.37988,323.0498,46.88989,419.74023,164.67993,716.91992,573.42017,716.91992,1051.57007Z" style="fill:none; stroke:#000; stroke-miterlimit:10; stroke-width:5px;"/></g><g><path d="M504.15437,526.90699c-6.13672-6.85449-8.75-13.37305-8.88477-18.62109,14.5127-1.17969,31.58789-10.29102,42.46582-20.0293,6.11035-5.46875,7.74121-9.34473,5.47363-11.87793-2.53516-2.83105-6.7627-.65723-20.22266,7.09668-20.62012,11.74805-39.99512,18.89062-55.06836,2.05176-10.1377-11.3252-10.95703-27.23438-.65234-39.41113-9.37695-12.27441-4.08594-28.55371,20.05566-50.16309,25.33301-22.67676,47.33691-23.58398,60.40918-8.98047,6.40234,7.15332,9.8877,15.84473,10.55566,21.68848-11.31934,2.34766-26.80273,10.83984-37.53223,20.44336-5.81152,5.20215-6.28125,8.57617-4.28027,10.81152,1.86719,2.08594,4.4248,1.94434,10.00977-1.71289,20.11816-12.90918,44.74707-27.97656,64.35547-6.07031,17.74121,19.81934,16.86914,50.93066-15.91406,80.27734-34.42285,30.81348-56.63184,30.29297-70.77051,14.49707Z"/><path d="M636.59089,432.41578c-9.27344-14.00977-26.21777-39.9707-38.18262-62.03223-8.67285,5.74023-15.79297,11.65234-20.58887,19.625-6.37793-.57617-14.125-6.48145-20.6377-16.32129-9.60449-14.50977-5.89551-29.19727,9.94824-39.68652,11.17383-7.39648,43.02441-27.04004,56.36621-35.87207,13.17578-8.72168,17.34766-12.20215,20.35156-14.90918,6.32129,.85254,13.07031,6.69922,18.81055,15.37207,8.28027,12.50781,9.51074,26.32422-4.33203,35.4873-2.83496,1.87695-6.50195,3.58496-11.22559,6.23145,11.63574,20.84082,26.10059,41.96777,32.94531,52.30762,6.07129,9.17285,12.53516,17.12695,15.57715,19.91016-1.13184,6.98633-7.9209,13.39844-17.76074,19.91211-17.67871,11.70215-32.1084,13.81836-41.27148-.02441Z"/><path d="M847.81843,333.83668c-4.13867,6.76758-13.26172,15.62305-25.96484,21.50781-17.96484,8.32324-26.22363,6.19824-35.69922-6.16406-4.38184,2.91211-8.66602,5.55859-13.20312,7.66016-4.71777,2.18555-9.87012,3.91211-14.9248,5.37109,1.72559,5.15234,3.63281,10.2207,5.37207,14.9248-4.71484,5.0498-13.40723,11.50195-23.02539,15.95801-15.0625,6.97852-23.54688,3.41504-26.99414-4.02539-5.21289-11.25195-16.09961-63.29785-12.58301-85.20605l-.16895-.3623c-3.62891,1.68164-5.72266,2.87207-8.08203,3.96484-2.83691-.89062-6.97852-6.02441-10.25781-13.10254-7.56738-16.33203-1.54199-32.34863,25.67969-44.96094,19.78027-9.16406,38.92676-12.08301,53.17285,5.34277l2.72168-1.26074c19.41797-8.99609,36.95508,15.06055,71.65527,63.79004,7.09766,11.03906,10.83301,14.81836,12.30176,16.5625Zm-88.51855-8.36426c2.9043-1.3457,6.07324-2.59375,9.41016-3.47852-8.12012-12.76953-18.33887-27.21191-26.9375-32.92676,1.64062,14.00781,4.17578,28.04297,7.43652,41.74219,3.09766-1.87695,6.46191-3.65527,10.09082-5.33691Z"/><path d="M985.11628,268.03102c4.57031,16.78906-3.87793,39.81738-28.38574,46.48926-20.06934,5.46387-37.48242-8.24414-46.41797-29.64844-4.05273,1.10352-7.77148,1.90918-11.01758,2.16992,4.55371,15.96484,8.17969,27,10.5459,31.12305-4.82617,5.875-15.23145,11.81641-26.03809,14.75879-21.22754,5.77832-30.83691-1.34766-34.30371-14.08398-2.25977-8.29785-14.91895-59.36621-11.84473-67.87305l-.05273-.19238c-4.26367,2.61133-8.1416,5.11816-11.9668,7.81738-2.2959-3.10547-4.38184-7.71973-5.85254-13.12305-7.45996-27.40332,5.73926-45.9209,54.5625-59.21191,29.13965-7.93359,49.83789-6.52051,58.04102,7.62109,18.40137-1.69238,30.62207,9.69727,35.03516,25.90723,3.7832,13.89453-.45215,29.55664-14.10449,42.60156,10.85547,4.0918,21.81836,6.28906,31.7998,5.64453Zm-87.08594-16.08984c8.49121-2.31152,13.56348-8.04492,11.77734-14.60645-2.1543-7.91211-12.37988-9.68848-25.88867-6.01074l-.19238,.05273c2.10156,7.71875,4.09766,15.05176,5.98926,21.99902,2.61328-.29688,5.41992-.64648,8.31445-1.43457Z"/><path d="M1015.96492,279.68141c-1.87402-16.69434-5.13281-47.52246-5.73535-72.61133-10.33496,1.16016-19.36523,3.17969-27.2666,8.0918-5.41504-3.41699-9.62109-12.20215-10.9375-23.92871-1.94043-17.29102,8.05176-28.67578,26.93262-30.79688,13.31543-1.49414,50.61523-4.47363,66.51562-6.25781,15.7002-1.7627,21-2.96094,24.90723-4.00195,5.23828,3.6377,8.58203,11.91602,9.74219,22.25098,1.67285,14.90625-3.52441,27.76562-20.02051,29.61719-3.37891,.37891-7.41992,.22949-12.83105,.43359,.86621,23.85156,4.11914,49.24707,5.50195,61.56934,1.22656,10.93066,3.3584,20.95508,4.79785,24.81836-4.18945,5.70312-13.15332,8.31934-24.87891,9.63477-21.06738,2.36523-34.87598-2.32324-36.72754-18.81934Z"/><path d="M1154.1241,255.59938c.74805-9.16992,3.67578-15.55371,7.38965-19.26367,10.84668,9.71387,29.21094,15.82617,43.7627,17.01172,8.17383,.66699,12.10742-.81836,12.38379-4.20703,.30859-3.78809-4.17871-5.35742-19.06836-9.78223-22.71777-6.86816-41.2373-16.00391-39.40039-38.5293,1.23438-15.14941,12.20898-26.69629,28.13574-27.60547,2.44727-15.25195,17.89746-22.62109,50.19043-19.98828,33.88867,2.7627,49.69531,18.09766,48.10254,37.63379-.78027,9.56836-4.68457,18.0791-8.46387,22.58691-9.49512-6.59375-26.31348-11.97754-40.66602-13.14746-7.77441-.63379-10.54492,1.34766-10.78809,4.33789-.22754,2.79004,1.63574,4.54785,8.13281,6.08008,23.21289,5.70508,51.09668,13.19629,48.70801,42.49902-2.16113,26.5127-25.32715,47.29883-69.18164,43.72363-46.04785-3.75391-60.95996-20.21973-59.2373-41.34961Z"/><path d="M1297.61531,241.01246c6.1875-25.25391,23.33203-41.43945,47.78125-41.21582,10.19434-18.91797,28.16602-24.19336,53.22559-18.05371,29.52734,7.23438,48.9209,25.57617,43.30469,48.49805-1.95117,7.96484-9.52441,17.02344-16.73242,21.22949-9.93848-9.02441-20.20605-15.86426-35.74609-19.67188-16.5127-4.04492-28.4541,4.35449-31.54785,16.98145-3.42676,13.98633,3.94629,24.23535,22.9834,28.89941,13.01562,3.18945,25.9209,3.46777,37.83789,.20996,5.55859,5.8916,7.73828,15.48633,5.54883,24.42188-4.90234,20.00879-32.71777,25.96094-68.46191,17.2041-41.57129-10.18457-67.52148-40.42871-58.19336-78.50293Z"/><path d="M1571.55183,362.31129c-6.9668,15.94434-27.9873,28.58594-51.2627,18.41602-19.06055-8.32812-24.03027-29.92383-17.57031-52.20215-3.84863-1.68164-7.25-3.38574-9.94238-5.2168-6.46387,15.29102-10.55859,26.16113-11.30078,30.85742-7.44238,1.5498-19.27344-.3457-29.53711-4.83008-20.16016-8.80859-23.17773-20.38574-17.89258-32.48145,3.44336-7.88086,25.60352-55.60156,33.33203-60.30078l.08008-.18262c-4.95898-.63965-9.55176-1.11816-14.22461-1.41406,.1582-3.85938,1.42773-8.76074,3.66992-13.89258,11.37109-26.02539,33.26465-32.17383,79.63281-11.91406,27.67383,12.0918,42.91211,26.1709,40.43457,42.33105,15.39648,10.21973,17.77539,26.75488,11.04883,42.15039-5.76562,13.19531-18.88574,22.74121-37.7002,24.3418,5.89062,9.99512,13.05273,18.58105,21.23242,24.33789Zm-57.75098-67.13965c8.06348,3.52344,15.61035,2.2373,18.33301-3.99414,3.2832-7.51465-3.56934-15.30957-16.39844-20.91504l-.18359-.08008c-3.20312,7.33008-6.24609,14.29492-9.12891,20.89258,2.22266,1.40723,4.62891,2.89551,7.37793,4.09668Z"/><path d="M1681.83503,447.25563c-8.09961,12.3877-21.47168,18.21973-37.70801,7.60352-13.55859-8.86621-24.7666-21.69043-35.65332-35.73926-7.91895,1.5127-16.58496,.14844-25.45605-5.65332-18.58105-12.14844-21.76758-27.375-11.80664-42.60742,6.23828-9.54102,13.41016-13.93164,19.16602-15.4248l5.87109,5.27246c8.20898-12.55371,18.33691-27.67676,26.09473-41.00391l-8.88379-7.24316c.41211-3.55371,2.36914-8.00879,4.66699-11.52441,11.05469-16.90625,24.51758-18.85645,38.91895-8.72266,11.77539,7.93848,32.55078,23.67383,55.4834,38.66895,9.20605,6.01953,18.74121,11.53711,28.70703,15.66406-.06445,5.21484-3.59961,13.17871-6.22656,17.19629-8.64648,13.22363-24.50977,19.57812-41.08105,8.74219-8.7041-5.69141-18.5293-12.59375-28.5791-19.88184l-4.70605,7.19824c10.55859,8.33691,24.72852,17.36426,33.31055,21.78027,.36719,3.82422-2.125,10.55859-6.39355,17.08691-3.83105,5.8584-12.3291,10.81543-22.37207,4.24902-5.85938-3.83105-14.06738-9.91504-21.78027-16.39258l-5.58203,8.53711c7.93164,6.14258,15.41309,11.51172,21.60645,15.56152,12.05176,7.88086,25.35938,13.47559,31.17871,12.97949,.59277,4.21094-2.64551,14.28027-8.77539,23.65332Z"/><path d="M1785.22078,540.55739c-9.94043,10.96387-24.0625,14.62891-38.43359,1.59766-12.00098-10.88184-21.06055-25.30469-29.61133-40.88574-8.05762,.25293-16.40234-2.4541-24.25488-9.57422-16.44629-14.91113-17.20605-30.44922-4.98145-43.93164,7.65723-8.44531,15.42871-11.65723,21.34766-12.23047l4.97266,6.12793c10.0752-11.1123,22.44824-24.45996,32.19922-36.40625l-7.63965-8.5459c.96484-3.44531,3.5957-7.53906,6.41699-10.65039,13.56836-14.96484,27.16992-14.78027,39.80469-2.51465,10.38574,9.68652,28.4375,28.48438,48.73633,46.88867,8.14844,7.38867,16.70117,14.33203,25.89648,19.9707-.88086,5.14062-5.62012,12.45215-8.84473,16.00781-10.6123,11.70508-27.27637,15.49316-41.94434,2.19434-7.7041-6.98633-16.3252-15.34277-25.1084-24.11621l-5.77637,6.37109c9.12012,9.88965,21.7002,21.02637,29.48438,26.7334-.2373,3.83496-3.75391,10.09473-8.99316,15.87305-4.70215,5.18555-13.87207,8.75-22.76172,.68945-5.18652-4.70215-12.33887-11.99805-18.94141-19.60352l-6.85156,7.55664c6.87109,7.30957,13.41797,13.78516,18.89941,18.75586,10.66797,9.67188,22.93457,17.28418,28.75977,17.70703-.0752,4.25098-4.85156,13.68848-12.375,21.98535Z"/><path d="M1793.80085,548.94801c19.85254-15.51953,53.77441-37.7207,60.93848-41.54492l.47266-.36914c-3.11328-3.6582-5.43359-5.65234-6.64551-6.22852,1.74805-2.63477,6.99609-8.26074,11.56543-11.83301,14.81152-11.57715,29.81836-7.31641,42.50488,8.91211,11.45508,14.65332,14.8457,24.18652,11.67383,39.61328-1.05176,7.42188-8.38379,28.8916-16.75,50.66211,5.16504-3.78418,8.28223-5.9668,16.31738-12.24805,7.40625-5.78906,18.8877-15.78027,23.48047-24.19336,5.9502,1.44141,13.69824,6.80762,22.44336,17.99414,12.56348,16.07129,11.10449,29.14258,1.02051,37.02539-14.33887,11.20898-44.375,29.6123-64.70117,45.50098-11.34375,8.86816-19.70898,16.67676-21.67773,22.27637-8.15527,.2832-18.04102-3.91992-26.66309-14.94922-10.71582-13.70801-13.23535-25.69922-6.94629-43.30762,5.29395-15.30859,11.06543-36.82715,17.48242-51.99805l-.12305-.15723c-11.83691,8.23828-39.9375,29.44336-45.8252,39.12207-6.74316-3.10547-14.99805-7.82129-23.00391-18.0625-8.86816-11.34473-11.9502-23.40527,4.43652-36.21484Z"/></g><g style="filter:url(#r);"><path d="M498.65437,512.7395c-6.13672-6.85449-8.75-13.37305-8.88477-18.62109,14.5127-1.17969,31.58789-10.29102,42.46582-20.0293,6.11035-5.46875,7.74121-9.34473,5.47363-11.87793-2.53516-2.83105-6.7627-.65723-20.22266,7.09668-20.62012,11.74805-39.99512,18.89062-55.06836,2.05176-10.1377-11.3252-10.95703-27.23438-.65234-39.41113-9.37695-12.27441-4.08594-28.55371,20.05566-50.16309,25.33301-22.67676,47.33691-23.58398,60.40918-8.98047,6.40234,7.15332,9.8877,15.84473,10.55566,21.68848-11.31934,2.34766-26.80273,10.83984-37.53223,20.44336-5.81152,5.20215-6.28125,8.57617-4.28027,10.81152,1.86719,2.08594,4.4248,1.94434,10.00977-1.71289,20.11816-12.90918,44.74707-27.97656,64.35547-6.07031,17.74121,19.81934,16.86914,50.93066-15.91406,80.27734-34.42285,30.81348-56.63184,30.29297-70.77051,14.49707Z" style="fill:#86643e;"/><path d="M631.0909,418.24829c-9.27344-14.00977-26.21777-39.9707-38.18262-62.03223-8.67285,5.74023-15.79297,11.65234-20.58887,19.625-6.37793-.57617-14.125-6.48145-20.6377-16.32129-9.60449-14.50977-5.89551-29.19727,9.94824-39.68652,11.17383-7.39648,43.02441-27.04004,56.36621-35.87207,13.17578-8.72168,17.34766-12.20215,20.35156-14.90918,6.32129,.85254,13.07031,6.69922,18.81055,15.37207,8.28027,12.50781,9.51074,26.32422-4.33203,35.4873-2.83496,1.87695-6.50195,3.58496-11.22559,6.23145,11.63574,20.84082,26.10059,41.96777,32.94531,52.30762,6.07129,9.17285,12.53516,17.12695,15.57715,19.91016-1.13184,6.98633-7.9209,13.39844-17.76074,19.91211-17.67871,11.70215-32.1084,13.81836-41.27148-.02441Z" style="fill:#86643e;"/><path d="M842.31843,319.66919c-4.13867,6.76758-13.26172,15.62305-25.96484,21.50781-17.96484,8.32324-26.22363,6.19824-35.69922-6.16406-4.38184,2.91211-8.66602,5.55859-13.20312,7.66016-4.71777,2.18555-9.87012,3.91211-14.9248,5.37109,1.72559,5.15234,3.63281,10.2207,5.37207,14.9248-4.71484,5.0498-13.40723,11.50195-23.02539,15.95801-15.0625,6.97852-23.54688,3.41504-26.99414-4.02539-5.21289-11.25195-16.09961-63.29785-12.58301-85.20605l-.16895-.3623c-3.62891,1.68164-5.72266,2.87207-8.08203,3.96484-2.83691-.89062-6.97852-6.02441-10.25781-13.10254-7.56738-16.33203-1.54199-32.34863,25.67969-44.96094,19.78027-9.16406,38.92676-12.08301,53.17285,5.34277l2.72168-1.26074c19.41797-8.99609,36.95508,15.06055,71.65527,63.79004,7.09766,11.03906,10.83301,14.81836,12.30176,16.5625Zm-88.51855-8.36426c2.9043-1.3457,6.07324-2.59375,9.41016-3.47852-8.12012-12.76953-18.33887-27.21191-26.9375-32.92676,1.64062,14.00781,4.17578,28.04297,7.43652,41.74219,3.09766-1.87695,6.46191-3.65527,10.09082-5.33691Z" style="fill:#86643e;"/><path d="M979.61629,253.86353c4.57031,16.78906-3.87793,39.81738-28.38574,46.48926-20.06934,5.46387-37.48242-8.24414-46.41797-29.64844-4.05273,1.10352-7.77148,1.90918-11.01758,2.16992,4.55371,15.96484,8.17969,27,10.5459,31.12305-4.82617,5.875-15.23145,11.81641-26.03809,14.75879-21.22754,5.77832-30.83691-1.34766-34.30371-14.08398-2.25977-8.29785-14.91895-59.36621-11.84473-67.87305l-.05273-.19238c-4.26367,2.61133-8.1416,5.11816-11.9668,7.81738-2.2959-3.10547-4.38184-7.71973-5.85254-13.12305-7.45996-27.40332,5.73926-45.9209,54.5625-59.21191,29.13965-7.93359,49.83789-6.52051,58.04102,7.62109,18.40137-1.69238,30.62207,9.69727,35.03516,25.90723,3.7832,13.89453-.45215,29.55664-14.10449,42.60156,10.85547,4.0918,21.81836,6.28906,31.7998,5.64453Zm-87.08594-16.08984c8.49121-2.31152,13.56348-8.04492,11.77734-14.60645-2.1543-7.91211-12.37988-9.68848-25.88867-6.01074l-.19238,.05273c2.10156,7.71875,4.09766,15.05176,5.98926,21.99902,2.61328-.29688,5.41992-.64648,8.31445-1.43457Z" style="fill:#86643e;"/><path d="M1010.46492,265.51392c-1.87402-16.69434-5.13281-47.52246-5.73535-72.61133-10.33496,1.16016-19.36523,3.17969-27.2666,8.0918-5.41504-3.41699-9.62109-12.20215-10.9375-23.92871-1.94043-17.29102,8.05176-28.67578,26.93262-30.79688,13.31543-1.49414,50.61523-4.47363,66.51562-6.25781,15.7002-1.7627,21-2.96094,24.90723-4.00195,5.23828,3.6377,8.58203,11.91602,9.74219,22.25098,1.67285,14.90625-3.52441,27.76562-20.02051,29.61719-3.37891,.37891-7.41992,.22949-12.83105,.43359,.86621,23.85156,4.11914,49.24707,5.50195,61.56934,1.22656,10.93066,3.3584,20.95508,4.79785,24.81836-4.18945,5.70312-13.15332,8.31934-24.87891,9.63477-21.06738,2.36523-34.87598-2.32324-36.72754-18.81934Z" style="fill:#86643e;"/><path d="M1148.6241,241.43188c.74805-9.16992,3.67578-15.55371,7.38965-19.26367,10.84668,9.71387,29.21094,15.82617,43.7627,17.01172,8.17383,.66699,12.10742-.81836,12.38379-4.20703,.30859-3.78809-4.17871-5.35742-19.06836-9.78223-22.71777-6.86816-41.2373-16.00391-39.40039-38.5293,1.23438-15.14941,12.20898-26.69629,28.13574-27.60547,2.44727-15.25195,17.89746-22.62109,50.19043-19.98828,33.88867,2.7627,49.69531,18.09766,48.10254,37.63379-.78027,9.56836-4.68457,18.0791-8.46387,22.58691-9.49512-6.59375-26.31348-11.97754-40.66602-13.14746-7.77441-.63379-10.54492,1.34766-10.78809,4.33789-.22754,2.79004,1.63574,4.54785,8.13281,6.08008,23.21289,5.70508,51.09668,13.19629,48.70801,42.49902-2.16113,26.5127-25.32715,47.29883-69.18164,43.72363-46.04785-3.75391-60.95996-20.21973-59.2373-41.34961Z" style="fill:#86643e;"/><path d="M1292.11531,226.84497c6.1875-25.25391,23.33203-41.43945,47.78125-41.21582,10.19434-18.91797,28.16602-24.19336,53.22559-18.05371,29.52734,7.23438,48.9209,25.57617,43.30469,48.49805-1.95117,7.96484-9.52441,17.02344-16.73242,21.22949-9.93848-9.02441-20.20605-15.86426-35.74609-19.67188-16.5127-4.04492-28.4541,4.35449-31.54785,16.98145-3.42676,13.98633,3.94629,24.23535,22.9834,28.89941,13.01562,3.18945,25.9209,3.46777,37.83789,.20996,5.55859,5.8916,7.73828,15.48633,5.54883,24.42188-4.90234,20.00879-32.71777,25.96094-68.46191,17.2041-41.57129-10.18457-67.52148-40.42871-58.19336-78.50293Z" style="fill:#86643e;"/><path d="M1566.05183,348.1438c-6.9668,15.94434-27.9873,28.58594-51.2627,18.41602-19.06055-8.32812-24.03027-29.92383-17.57031-52.20215-3.84863-1.68164-7.25-3.38574-9.94238-5.2168-6.46387,15.29102-10.55859,26.16113-11.30078,30.85742-7.44238,1.5498-19.27344-.3457-29.53711-4.83008-20.16016-8.80859-23.17773-20.38574-17.89258-32.48145,3.44336-7.88086,25.60352-55.60156,33.33203-60.30078l.08008-.18262c-4.95898-.63965-9.55176-1.11816-14.22461-1.41406,.1582-3.85938,1.42773-8.76074,3.66992-13.89258,11.37109-26.02539,33.26465-32.17383,79.63281-11.91406,27.67383,12.0918,42.91211,26.1709,40.43457,42.33105,15.39648,10.21973,17.77539,26.75488,11.04883,42.15039-5.76562,13.19531-18.88574,22.74121-37.7002,24.3418,5.89062,9.99512,13.05273,18.58105,21.23242,24.33789Zm-57.75098-67.13965c8.06348,3.52344,15.61035,2.2373,18.33301-3.99414,3.2832-7.51465-3.56934-15.30957-16.39844-20.91504l-.18359-.08008c-3.20312,7.33008-6.24609,14.29492-9.12891,20.89258,2.22266,1.40723,4.62891,2.89551,7.37793,4.09668Z" style="fill:#86643e;"/><path d="M1676.33504,433.08813c-8.09961,12.3877-21.47168,18.21973-37.70801,7.60352-13.55859-8.86621-24.7666-21.69043-35.65332-35.73926-7.91895,1.5127-16.58496,.14844-25.45605-5.65332-18.58105-12.14844-21.76758-27.375-11.80664-42.60742,6.23828-9.54102,13.41016-13.93164,19.16602-15.4248l5.87109,5.27246c8.20898-12.55371,18.33691-27.67676,26.09473-41.00391l-8.88379-7.24316c.41211-3.55371,2.36914-8.00879,4.66699-11.52441,11.05469-16.90625,24.51758-18.85645,38.91895-8.72266,11.77539,7.93848,32.55078,23.67383,55.4834,38.66895,9.20605,6.01953,18.74121,11.53711,28.70703,15.66406-.06445,5.21484-3.59961,13.17871-6.22656,17.19629-8.64648,13.22363-24.50977,19.57812-41.08105,8.74219-8.7041-5.69141-18.5293-12.59375-28.5791-19.88184l-4.70605,7.19824c10.55859,8.33691,24.72852,17.36426,33.31055,21.78027,.36719,3.82422-2.125,10.55859-6.39355,17.08691-3.83105,5.8584-12.3291,10.81543-22.37207,4.24902-5.85938-3.83105-14.06738-9.91504-21.78027-16.39258l-5.58203,8.53711c7.93164,6.14258,15.41309,11.51172,21.60645,15.56152,12.05176,7.88086,25.35938,13.47559,31.17871,12.97949,.59277,4.21094-2.64551,14.28027-8.77539,23.65332Z" style="fill:#86643e;"/><path d="M1779.72078,526.38989c-9.94043,10.96387-24.0625,14.62891-38.43359,1.59766-12.00098-10.88184-21.06055-25.30469-29.61133-40.88574-8.05762,.25293-16.40234-2.4541-24.25488-9.57422-16.44629-14.91113-17.20605-30.44922-4.98145-43.93164,7.65723-8.44531,15.42871-11.65723,21.34766-12.23047l4.97266,6.12793c10.0752-11.1123,22.44824-24.45996,32.19922-36.40625l-7.63965-8.5459c.96484-3.44531,3.5957-7.53906,6.41699-10.65039,13.56836-14.96484,27.16992-14.78027,39.80469-2.51465,10.38574,9.68652,28.4375,28.48438,48.73633,46.88867,8.14844,7.38867,16.70117,14.33203,25.89648,19.9707-.88086,5.14062-5.62012,12.45215-8.84473,16.00781-10.6123,11.70508-27.27637,15.49316-41.94434,2.19434-7.7041-6.98633-16.3252-15.34277-25.1084-24.11621l-5.77637,6.37109c9.12012,9.88965,21.7002,21.02637,29.48438,26.7334-.2373,3.83496-3.75391,10.09473-8.99316,15.87305-4.70215,5.18555-13.87207,8.75-22.76172,.68945-5.18652-4.70215-12.33887-11.99805-18.94141-19.60352l-6.85156,7.55664c6.87109,7.30957,13.41797,13.78516,18.89941,18.75586,10.66797,9.67188,22.93457,17.28418,28.75977,17.70703-.0752,4.25098-4.85156,13.68848-12.375,21.98535Z" style="fill:#86643e;"/><path d="M1788.30086,534.78052c19.85254-15.51953,53.77441-37.7207,60.93848-41.54492l.47266-.36914c-3.11328-3.6582-5.43359-5.65234-6.64551-6.22852,1.74805-2.63477,6.99609-8.26074,11.56543-11.83301,14.81152-11.57715,29.81836-7.31641,42.50488,8.91211,11.45508,14.65332,14.8457,24.18652,11.67383,39.61328-1.05176,7.42188-8.38379,28.8916-16.75,50.66211,5.16504-3.78418,8.28223-5.9668,16.31738-12.24805,7.40625-5.78906,18.8877-15.78027,23.48047-24.19336,5.9502,1.44141,13.69824,6.80762,22.44336,17.99414,12.56348,16.07129,11.10449,29.14258,1.02051,37.02539-14.33887,11.20898-44.375,29.6123-64.70117,45.50098-11.34375,8.86816-19.70898,16.67676-21.67773,22.27637-8.15527,.2832-18.04102-3.91992-26.66309-14.94922-10.71582-13.70801-13.23535-25.69922-6.94629-43.30762,5.29395-15.30859,11.06543-36.82715,17.48242-51.99805l-.12305-.15723c-11.83691,8.23828-39.9375,29.44336-45.8252,39.12207-6.74316-3.10547-14.99805-7.82129-23.00391-18.0625-8.86816-11.34473-11.9502-23.40527,4.43652-36.21484Z" style="fill:#86643e;"/></g></g></g></g></svg>