<?xml version="1.0" encoding="UTF-8"?><svg xmlns="http://www.w3.org/2000/svg" xmlns:xlink="http://www.w3.org/1999/xlink" viewBox="0 0 626.13889 625.73728"><defs><style>.t{fill:#3f562a;}.u{fill:url(#l);}.v{fill:#497015;}.w{isolation:isolate;}.x{fill:url(#m);}.y{fill:#597634;}.a`{filter:url(#r);}.aa{fill:#453131;}.ab{fill:url(#f);}.ac{fill:#86643e;}.ad{fill:url(#p);}.ae{fill:url(#g);}.af{fill:url(#i);}.ag{clip-path:url(#e);}.ah{mix-blend-mode:multiply;opacity:.29;}.ai{clip-path:url(#d);}.aj{fill:url(#h);}.ak{fill:none;}.al{fill:url(#n);}.am{fill:url(#j);}.an{fill:url(#o);}.ao{fill:url(#q);}.ap{fill:url(#k);}</style><clipPath id="d"><ellipse cx="311.41636" cy="313.16497" rx="311.41636" ry="312.06689" style="fill:none;"/></clipPath><clipPath id="e"><rect x="-442.59108" y="-434.51922" width="2341.76462" height="1319.99422" style="fill:none;"/></clipPath><linearGradient id="f" x1="728.29123" y1="-449.59322" x2="728.29123" y2="653.66121" gradientTransform="matrix(1, 0, 0, 1, 0, 0)" gradientUnits="userSpaceOnUse"><stop offset="0" stop-color="#6a724d"/><stop offset="1" stop-color="#dbb872"/></linearGradient><linearGradient id="g" x1="216.50367" y1="787.5279" x2="221.39252" y2="-670.97949" xlink:href="#f"/><linearGradient id="h" x1="760.34873" y1="789.35565" x2="765.23759" y2="-669.1546" xlink:href="#f"/><linearGradient id="i" x1="415.19148" y1="726.93834" x2="441.2648" y2="-9.63286" gradientTransform="matrix(1, 0, 0, 1, 0, 0)" gradientUnits="userSpaceOnUse"><stop offset="0" stop-color="#635144"/><stop offset=".5929" stop-color="#405e45"/><stop offset="1" stop-color="#2e6646"/></linearGradient><linearGradient id="j" x1="80.00597" y1="342.4731" x2="80.00597" y2="230.94109" gradientTransform="matrix(1, 0, 0, 1, 0, 0)" gradientUnits="userSpaceOnUse"><stop offset="0" stop-color="#823423"/><stop offset="1" stop-color="#009245"/></linearGradient><linearGradient id="k" x1="113.73545" y1="343.67093" x2="113.73545" y2="244.48944" xlink:href="#j"/><linearGradient id="l" x1="140.02091" y1="348.1624" x2="140.02091" y2="293.46858" xlink:href="#j"/><linearGradient id="m" x1="725.45043" y1="658.64334" x2="756.39028" y2="349.24489" gradientTransform="matrix(1, 0, 0, 1, 0, 0)" gradientUnits="userSpaceOnUse"><stop offset="0" stop-color="#004826"/><stop offset="1" stop-color="#009245"/></linearGradient><linearGradient id="n" x1="674.08578" y1="730.03036" x2="701.79246" y2="573.56913" gradientTransform="matrix(1, 0, 0, 1, 0, 0)" gradientUnits="userSpaceOnUse"><stop offset="0" stop-color="#a25144"/><stop offset=".26543" stop-color="#85664d"/><stop offset=".75617" stop-color="#548a5c"/><stop offset="1" stop-color="#429962"/></linearGradient><linearGradient id="o" x1="866.03298" y1="867.9626" x2="-.87447" y2="440.20151" gradientTransform="matrix(1, 0, 0, 1, 0, 0)" gradientUnits="userSpaceOnUse"><stop offset="0" stop-color="#004223"/><stop offset="1" stop-color="#009245"/></linearGradient><linearGradient id="p" x1="-298.60373" y1="1072.47419" x2="-298.60373" y2="-525.3695" gradientTransform="matrix(1, 0, 0, 1, 0, 0)" gradientUnits="userSpaceOnUse"><stop offset="0" stop-color="#292821"/><stop offset="1" stop-color="#16164f"/></linearGradient><linearGradient id="q" x1="-72.56678" y1="-2431.76574" x2="-72.56678" y2="-2456.23487" gradientTransform="translate(1811.37755 2021.94769) rotate(-34.00984)" xlink:href="#p"/><filter id="r" filterUnits="userSpaceOnUse"><feOffset dx="0" dy="0"/><feGaussianBlur result="s" stdDeviation="15"/><feFlood flood-color="#86643e" flood-opacity="1"/><feComposite in2="s" operator="in"/><feComposite in="SourceGraphic"/></filter></defs><g style="isolation:isolate;"><g id="a"/><g id="b"><g id="c"><g><g style="clip-path:url(#d);"><g style="clip-path:url(#e);"><rect x="-442.59108" y="-434.51922" width="2341.76462" height="1319.99422" style="fill:url(#f);"/><g><polygon points="211.92161 556.69873 35.55605 556.69873 19.28213 242.63636 -58.39508 151.20048 -58.39508 108.79543 27.04985 173.72816 27.04985 -434.51922 145.11921 -434.51922 173.083 -153.58579 329.99097 -356.33491 302.02718 -434.51922 342.41933 -434.51922 370.38312 -362.9607 434.07843 -434.51922 497.77375 -434.51922 187.0649 25.3105 211.92161 556.69873" style="fill:url(#g);"/><path d="M781.98773,526.75432V246.79948L944.89479,3.02928l-22.83744-43.80246-58.61609,91.41383-6.85123-186.63656h-31.97241l-4.56749,219.01229s-28.67367,99.50776-38.0624,86.81139c-16.32304-22.07363,12.17997-471.51124,12.17997-471.51124l47.19737-132.83571h-108.09721l-45.67488,151.88026-73.0798-151.88026h-31.97241l85.25977,247.103-4.56749,714.17051h118.75468Z" style="fill:url(#h);"/></g><path d="M-17.62779,370.10689L28.32427-109.00212-47.82486-197.00174l6.56458-58.66641S27.01135-149.74268,36.20176-166.03891c9.19041-16.29622,10.50333-253.40622-23.63249-268.48027-34.13581-15.07405,74.83621,0,74.83621,0l7.8775,804.62607H-17.62779Z" style="fill:#597634;"/><path d="M536.67372,369.08754s21.21737-14.87789,23.9888-5.22361c2.77143,9.65427,4.38525,15.0897,4.38525,15.0897,0,0,15.61313-15.40306,18.33464-3.27362,2.72151,12.12944,2.49468,17.52859,2.49468,17.52859,0,0,11.74794-10.40495,15.61395-2.85152,3.86602,7.55343-2.06138,16.30441-2.06138,16.30441,0,0,11.31359-5.51,15.55526,2.30699,4.24167,7.81699-3.05437,12.91825-3.05437,12.91825,0,0,16.10957-.89011,17.5859,8.21414s-8.65861,12.39308-8.65861,12.39308c0,0,17.31009,3.00025,20.12618,11.78936,2.81609,8.78911-12.29523,11.45537-12.29523,11.45537,0,0,11.88625-1.52224,16.88275,5.74853,4.9965,7.27076-6.72513,9.62569-6.72513,9.62569,0,0,8.53771-1.00273,11.38093,12.28789,2.84322,13.29063-13.18486,2.04555-13.18486,2.04555,0,0,16.34773,3.04227-2.89676,15.89761-19.24449,12.85534-145.5899-88.87574-145.5899-88.87574,0,0-18.7338-28.20453-9.69345-29.39253,9.04035-1.18799,10.86696,3.14162,10.86696,3.14162,0,0-8.27933-14.05644,1.72513-15.82312s11.18568,8.02702,11.18568,8.02702c0,0-4.86859-20.80778,4.11832-18.44727,8.98691,2.36051,9.75133,11.68248,9.75133,11.68248,0,0-.38782-22.14662,8.09997-20.67419,8.48779,1.47243,12.06397,8.10532,12.06397,8.10532Z" style="fill:#3f562a;"/><path d="M355.47905,466.25462L405.89204-110.63174s8.13113-23.62953-152.86519-323.88747h25.20649l127.72713,209.8139,12.12825-209.8139h60.17034l39.84252,286.81356,84.56372-217.3509-35.77696-69.46266h24.39338l15.44914,36.2591,21.14093-36.2591h31.7114L524.60649,61.29343l-15.8557,404.96119h-153.27175Z" style="fill:url(#i);"/><path d="M99.2827,311.0033c-2.90981,13.66523-9.0789,24.16294-14.41502,31.29853l-.07972,.10718c-.01617,.02195-.03218,.04212-.04834,.06408-6.57165-6.22562-15.23177-16.30205-20.66075-30.74634-14.65699-38.99962,7.17829-75.40579,10.52223-80.78567,4.17345,4.64382,33.5556,38.38991,24.68161,80.06221Z" style="fill:url(#j);"/><path d="M75.07266,248.94114l9.79502,93.3607-.07972,.10718c-3.79812-27.70531-9.02709-37.607-9.7153-93.46788Z" style="fill:#497015;"/><path d="M117.66258,325.15377c-9.84675,9.89327-20.71471,15.35334-29.06172,18.443l-.12501,.04664c-.02547,.00964-.04985,.01787-.07532,.02752-2.14626-8.8034-3.96029-21.97691-.69452-37.06083,8.81868-40.72593,46.87906-59.42171,52.60186-62.12066,.98916,6.17034,7.38292,50.49492-22.64529,80.66432Z" style="fill:url(#k);"/><path d="M130.95248,259.86265l-42.35162,83.73412-.12501,.04664c11.81948-25.3335,12.7923-36.49367,42.47664-83.78076Z" style="fill:#497015;"/><path d="M124.50682,347.19191c-13.76626,2.22228-25.76389,.25416-34.33223-2.15135l-.12854-.03573c-.02627-.00717-.05083-.01484-.0771-.022,3.41625-8.39083,9.66017-20.12523,21.13624-30.42007,30.98586-27.7949,72.75318-20.5576,78.96769-19.37857-2.81164,5.57828-23.58548,45.2313-65.56604,52.00771Z" style="fill:url(#l);"/><path d="M173.49608,302.133l-83.32149,42.90756-.12854-.03573c24.40382-13.56588,31.72575-22.03139,83.45003-42.87183Z" style="fill:#497015;"/><path d="M-442.59108,374.99576s191.48804-87.99961,459.81524-61.92565c268.3272,26.07396,561.04777,153.18451,561.04777,153.18451,0,0,206.53063,127.41527,707.40806,47.41141,500.87743-80.00386,613.49354-16.44858,613.49354-16.44858v388.25756H-442.59108V374.99576Z" style="fill:url(#m);"/><path d="M782.95241,608.03096s1.05227-31.2459-10.14242-27.39561c-11.19469,3.85029-17.53137,5.96491-17.53137,5.96491,0,0,5.12728-26.03952-8.45418-20.44688-13.58146,5.59264-18.71285,9.51039-18.71285,9.51039,0,0,2.70017-18.78279-7.13745-17.45631-9.83762,1.32649-14.62101,13.19777-14.62101,13.19777,0,0-1.80666-15.00377-12.14056-13.87011-10.3339,1.13367-10.68127,11.8681-10.68127,11.8681,0,0-9.36895-16.60709-19.20308-11.8468s-6.60626,17.07448-6.60626,17.07448c0,0-13.93326-15.13869-24.31097-11.92444-10.37772,3.21425-3.37871,20.0447-3.37871,20.0447,0,0-6.0671-12.84524-16.34702-12.83475-10.27992,.01049-5.13108,13.26174-5.13108,13.26174,0,0-4.4465-9.16454-19.23992-2.89863-14.79342,6.26591,6.38112,14.49278,6.38112,14.49278,0,0-13.36268-14.15424-13.6926,13.74918-.32992,27.90342,179.37303,83.80234,179.37303,83.80234,0,0,39.46541-.6847,34.88048-10.4751-4.58493-9.7904-9.97637-8.64336-9.97637-8.64336,0,0,18.9967-1.39107,14.36446-12.53469-4.63224-11.14362-14.95249-5.61875-14.95249-5.61875,0,0,23.42575-9.39552,15.40751-16.70603s-17.61265-1.69432-17.61265-1.69432c0,0,21.88611-14.76099,15.05284-22.18318s-15.5872-6.43743-15.5872-6.43743Z" style="fill:url(#n);"/><path d="M-442.59108,885.47501v-365.7484s647.08526-45.83313,1112.0841,114.58283c464.99883,160.41596,711.16871-81.48112,1229.68052,80.20798v170.95759H-442.59108Z" style="fill:url(#o);"/><g style="mix-blend-mode:multiply; opacity:.29;"><path d="M-946.04337,885.47501S-485.27964,487.98292,137.56484,592.82197c360.70738,60.71534,560.33793,230.15776,1817.41019,189.89582" style="fill:none;"/></g><polygon points="-317.13089 1072.47419 -559.28231 1072.47419 -581.62654 594.99098 -688.27802 455.97689 -688.27802 391.50658 -570.9614 490.22674 -570.9614 -434.51922 -408.85116 -434.51922 -370.45663 -7.40344 -155.02065 -315.65209 -193.41518 -434.51922 -137.95642 -434.51922 -99.56189 -325.72557 -12.10768 -434.51922 91.07056 -525.3695 -335.53533 173.73038 -317.13089 1072.47419" style="fill:url(#p);"/><path d="M370.1621,60.54804s1.08417-48.13296,28.73-40.85525c27.64583,7.27771-28.73,40.85525-28.73,40.85525Z" style="fill:url(#q);"/></g></g><g><path d="M180.14259,362.95886c-8.97144-4.15045-16.31924-8.61124-22.26784-13.29079-44.1422-34.72743-11.21841-81.4492,7.14555-101.89392,4.28343-4.7683,10.9247-6.16743,16.58244-4.00637,1.65685,.62895,3.22779,1.56824,4.62976,2.81504,73.94338,65.7311,22.18464,129.45632-6.08991,116.37604Z"/><path d="M246.28105,283.86756c-1.11381-.87828-2.19718-1.75656-3.24998-2.63483-68.57117-57.05344-11.55642-107.87289,16.92315-127.51145,4.75173-3.27487,10.58675-3.79857,15.60716-1.91444,3.1059,1.16644,5.9043,3.24998,7.94347,6.17582,63.74192,91.4179-9.68622,147.63459-37.2238,125.8849Z"/><path d="M384.93318,283.86756c-10.29298,8.13192-27.00002,5.3668-40.55962-6.06218-22.7084-19.13691-36.57828-62.57812,3.33305-119.82273,5.14236-7.36999,15.08347-9.412,22.67519-4.82661,.29641,.17736,.58728,.36581,.87544,.56523,28.91743,19.94051,87.25649,72.02611,13.67595,130.14628Z"/><path d="M450.53143,362.95886c-8.40344,3.88731-18.87933,.99192-27.51275-6.7244-20.42254-18.24754-30.54654-63.4537,21.42014-109.65164,4.20578-3.74039,9.92446-4.69348,14.89772-2.9924,2.35236,.8036,4.53561,2.20273,6.31435,4.18373,20.84098,23.19874,60.42545,80.23568-15.11945,115.18471Z"/><path d="M336.33864,457.09492c-19.66344-17.52443-47.02095-1.28278-47.02095-1.28278-37.34014,13.52362-57.68793,11.09645-67.76202,.83945-24.63954-25.08558,12.18814-97.02023,12.18814-97.02023,0,0,57.42196-90.68654,117.42342-53.11634,15.4298,9.66133,31.03412,27.80916,45.8738,58.16441,68.75678,140.6499-57.01191,95.70701-60.70238,92.4155Z"/><path d="M173.08295,357.94123c-5.70759-2.64038-10.7585-5.4055-15.2082-8.27316-44.1422-34.72743-11.21841-81.4492,7.14555-101.89392,4.28343-4.7683,10.9247-6.16743,16.58244-4.00637,70.36094,64.94157,19.43894,127.10694-8.51978,114.17344Z" style="fill:#86643e;"/><path d="M243.03107,281.23273c-68.57117-57.05344-11.55642-107.87289,16.92315-127.51145,4.75173-3.27487,10.58675-3.79857,15.60716-1.91444,.30757,.36838,.60399,.75639,.88382,1.15805,60.99061,87.47255-3.60186,142.71396-33.41414,128.26783Z" style="fill:#86643e;"/><path d="M377.87367,278.84993c-8.56416,6.76323-21.56692,5.98736-33.50011-1.04454-22.7084-19.13691-36.57828-62.57812,3.33305-119.82273,5.14236-7.36999,15.08347-9.412,22.67519-4.82661,29.98673,22.52001,76.12393,71.48307,7.49188,125.69388Z" style="fill:#86643e;"/><path d="M443.47179,357.94123c-6.2118,2.87321-13.5569,2.03917-20.45311-1.70677-20.42254-18.24754-30.54654-63.4537,21.42014-109.65164,4.20578-3.74039,9.92446-4.69348,14.89772-2.9924,21.01279,23.7058,58.79349,79.81453-15.86474,114.3508Z" style="fill:#86643e;"/><path d="M329.279,452.07729c-19.66344-17.52728-47.02095-1.28292-47.02095-1.28292-30.10876,10.90258-49.16815,11.43737-60.70238,5.85722-24.63954-25.08558,12.18814-97.02023,12.18814-97.02023,0,0,57.42196-90.68654,117.42342-53.11634,13.10518,10.45641,26.23538,27.41562,38.81415,53.14678,68.75949,140.64706-57.0092,95.70417-60.70238,92.4155Z" style="fill:#86643e;"/></g><path d="M601.41074,304.34608c0,172.79228-140.07629,312.86857-312.86857,312.86857-31.10352,0-61.14856-4.53831-89.50624-12.99153C82.74018,558.59311,.40161,445.34786,.40161,312.86857,.40161,140.07629,140.47797,0,313.27032,0c31.10338,0,61.14842,4.53831,89.50617,12.9916,116.29581,45.62724,198.63425,158.87532,198.63425,291.35448Z" style="fill:none;"/><path d="M626.13889,312.86857c0,172.79242-140.07629,312.86871-312.86857,312.86871-40.31313,0-78.84751-7.62487-114.23439-21.51416,28.35768,8.45322,58.40272,12.99153,89.50624,12.99153,172.79228,0,312.86857-140.07629,312.86857-312.86857,0-132.47916-82.33843-245.72724-198.63425-291.35448,129.17655,38.49833,223.3624,158.1882,223.3624,299.87697Z" style="fill:#453131;"/><path d="M601.41074,304.34608c0,172.79228-140.07629,312.86857-312.86857,312.86857-31.10352,0-61.14856-4.53831-89.50624-12.99153C82.74018,558.59311,.40161,445.34786,.40161,312.86857,.40161,140.07629,140.47797,0,313.27032,0c31.10338,0,61.14842,4.53831,89.50617,12.9916,116.29581,45.62724,198.63425,158.87532,198.63425,291.35448Z" style="fill:none;"/><g style="filter:url(#r);"><g><path d="M102.49571,169.8183c-4.65466-3.53557-11.33725-9.49872-19.16329-15.44292-2.96683-2.2536-6.53703-4.56212-9.32122-5.14439,.22214-2.73495,1.78794-6.70803,4.7407-10.59535,4.235-5.57542,8.40181-6.28242,12.6471-3.05774,4.7572,3.61349,15.28653,12.9017,20.04346,16.51493,5.26859,4.00177,7.33089,5.0037,9.04929,5.50236-.48838,2.1294-2.0504,5.46015-5.23612,9.65457-3.88542,5.11517-8.30982,5.94881-12.75992,2.56854Z"/><path d="M117.69999,149.09218c-5.6252-5.81893-13.85818-15.90695-15.32062-18.06666l-.13393-.1388c-1.06389,1.11773-1.62262,1.92593-1.76576,2.33233-.90047-.46944-2.87429-1.95651-4.16898-3.29584-4.19658-4.34133-3.34049-9.2782,1.41645-13.87658,4.29507-4.15193,7.22591-5.55593,12.26018-5.06187,2.40593,.08604,9.51062,1.70569,16.746,3.64515-1.38235-1.52224-2.18433-2.44462-4.4612-4.79995-2.09829-2.17053-5.67607-5.50182-8.51789-6.68557,.26002-1.94893,1.71326-4.6046,4.99233-7.77436,4.71067-4.55373,8.93511-4.52776,11.79236-1.57203,4.06264,4.2028,10.95169,13.17769,16.71082,19.13542,3.2144,3.32534,5.98993,5.73451,7.84498,6.17473,.365,2.5956-.64504,5.89442-3.87784,9.01953-4.01773,3.88434-7.76326,5.09271-13.59951,3.67654-5.06782-1.17618-12.13544-2.29527-17.19731-3.83482l-.046,.04464c3.0296,3.50391,10.74849,11.76611,14.03838,13.32082-.76518,2.25847-1.99358,5.05402-4.99558,7.95591-3.32506,3.2144-7.07385,4.6046-11.71687-.1986Z"/><path d="M152.58624,112.10466c-1.62127-2.47033-2.13996-4.66521-1.93216-6.33843,4.66548,.31846,10.52391-1.75953,14.44424-4.33268,2.20165-1.44486,2.90459-2.59804,2.30555-3.51095-.66967-1.02033-2.11642-.53167-6.76133,1.28765-7.11037,2.74631-13.60519,4.08916-17.58802-1.97897-2.67867-4.08104-2.17892-9.17295,1.67565-12.54807-2.39159-4.34648,.06656-9.26359,8.76601-14.97348,9.12911-5.9921,16.16075-5.22881,19.61488,.03382,1.69189,2.57747,2.38347,5.50425,2.31637,7.39231-3.70711,.20482-9.03008,2.16214-12.89656,4.69984-2.09423,1.37451-2.40485,2.42352-1.87615,3.22901,.49352,.75192,1.31255,.82903,3.26094-.06575,7.0062-3.13864,15.54817-6.74753,20.72936,1.14642,4.68767,7.1423,2.92462,16.98167-8.88939,24.73573-12.40493,8.14207-19.43332,6.91583-23.16939,1.22353Z"/><path d="M199.18883,88.63223c-2.18677-4.93281-6.16337-14.06084-8.77169-21.68746-3.05368,1.35367-5.62466,2.84507-7.57035,5.11274-1.98871-.52356-4.12596-2.80827-5.66173-6.27295-2.26496-5.10868-.30439-9.56149,5.27427-12.03506,3.93439-1.74438,15.0717-6.2605,19.76964-8.3431,4.63923-2.05662,6.14659-2.93571,7.24295-3.63243,1.95597,.60852,3.78017,2.82126,5.13384,5.87467,1.95245,4.40438,1.60287,8.84555-3.27122,11.00634-.99814,.44266-2.25089,.7871-3.8884,1.37261,2.56963,7.22212,6.01942,14.68667,7.63339,18.32749,1.43187,3.22982,3.05341,6.09437,3.86756,7.13878-.73244,2.15159-3.22522,3.81886-6.6899,5.3549-6.22479,2.75957-10.90732,2.65756-13.06838-2.21653Z"/><path d="M274.34167,60.10903c1.29875,5.43553-1.64427,12.74315-9.5788,14.63905-6.4978,1.55254-11.94983-3.02284-14.60361-9.98358-1.31201,.31332-2.51416,.53465-3.55857,.58606,1.30172,5.17064,2.35479,8.7495,3.07316,10.09695-1.60855,1.83719-5.0083,3.64001-8.5068,4.47608-6.87254,1.6421-9.8859-.74191-10.87106-4.86543-.6418-2.68651-4.19306-19.20739-3.12105-21.90717l-.01488-.0625c-1.39507,.79548-2.66487,1.5612-3.92005,2.38943-.70592-1.02006-1.32905-2.52228-1.74709-4.27153-2.11993-8.8718,2.30338-14.68369,18.10995-18.46062,9.43405-2.25414,16.06443-1.59286,18.55559,3.02933,5.92418-.35878,9.73303,3.42031,10.98713,8.66833,1.07471,4.49827-.44184,9.48383-4.95553,13.5343,3.44385,1.42267,6.94099,2.23818,10.15161,2.1313Zm-27.79455-6.03918c2.74902-.65695,4.43495-2.44652,3.92736-4.57078-.61203-2.56151-3.87703-3.23442-8.25029-2.18947l-.0625,.01488c.59715,2.49901,1.16427,4.87328,1.70163,7.12228,.84229-.069,1.74682-.15314,2.68381-.37691Z"/><path d="M277.07147,55.31394c-.39774-9.88401,.52085-22.19911-.90534-27.28452,1.93297-1.49221,5.98885-2.94112,10.35318-3.11672,6.09708-.24541,10.13077,2.54933,10.34777,7.94049,.15774,3.91518-.11472,13.1187,.09199,18.25309,.18318,4.55698,1.44702,7.20588,3.82184,7.11037,2.31042-.09281,3.67816-2.84805,3.34482-11.12729-.25326-6.28973-2.1524-15.14881-3.98905-19.25339,1.53739-1.73329,5.18741-3.68006,10.83534-3.90734,5.5838-.22485,10.77582,4.19468,11.27935,16.71001,.43156,10.71819-2.31799,20.66443-11.38271,22.25052-.87963,3.69954-5.41767,7.54654-14.91639,7.92885-11.87326,.47783-18.44682-4.72176-18.88081-15.50407Z"/><path d="M325.86623,50.01695c1.17888-8.26653,6.14632-13.98156,13.96749-14.68288,2.66-6.36846,8.23677-8.6226,16.43971-7.45265,9.66566,1.3783,16.44323,6.62713,15.37311,14.13064-.37177,2.60724-2.5055,5.74155-4.6763,7.31357-3.46143-2.5699-6.95912-4.43116-12.04643-5.15657-5.40495-.77086-8.95595,2.29121-9.54552,6.42447-.65289,4.57836,2.02767,7.62067,8.25922,8.5095,4.2607,.60771,8.3937,.2887,12.09946-1.12937,1.96246,1.70731,2.9625,4.70471,2.54527,7.62987-.93402,6.54948-9.63563,9.33123-21.33599,7.66288-13.6079-1.94082-22.85742-10.7861-21.08003-23.24948Z"/><path d="M379.37274,72.84433c1.68945-5.1241,4.86841-14.55923,8.05386-21.9629-3.17192-1.04603-6.07868-1.66646-9.04307-1.29117-1.1226-1.72301-1.17347-4.85082,.01326-8.44998,1.75006-5.30701,6.19205-7.29166,11.98744-5.3806,4.087,1.34772,15.37365,5.4753,20.2537,7.08467,4.81917,1.58907,6.52675,1.9492,7.80683,2.16837,1.04143,1.76359,.90858,4.62814-.13745,7.80006-1.50871,4.57511-4.74882,7.63258-9.81177,5.96287-1.0371-.342-2.19678-.92725-3.80344-1.59232-2.94275,7.07817-5.39548,14.9264-6.64282,18.70873-1.10637,3.35483-1.82718,6.56652-1.92458,7.88719-1.98681,1.10339-4.95391,.66588-8.55306-.52085-6.46614-2.13211-9.86859-5.35084-8.19889-10.41406Z"/><path d="M411.22209,82.97889c2.55691-5.25641,7.09766-12.97638,11.39651-21.81409,1.62966-3.35023,3.19519-7.30329,3.22171-10.14755,2.72575-.31711,6.92828,.4413,11.31831,2.57693,6.29622,3.06261,7.80439,7.01053,5.47233,11.8048-2.61319,5.37194-9.66241,17.51469-12.2756,22.88664-2.89404,5.94962-3.47307,8.16804-3.62594,9.95084-2.18406-.06223-5.75589-.94267-10.49253-3.2466-5.77618-2.80962-7.45941-6.98564-5.01479-12.01098Z"/><path d="M440.02642,82.23698c4.26503-6.10953,13.06459-9.28848,20.15305-4.96663,4.75585-4.90521,11.71416-3.6511,17.50766,.39341,11.11322,7.75812,14.39743,20.78294,6.60278,31.94865-8.16263,11.69252-22.91072,13.06892-35.9726,3.95036-11.06046-7.72133-16.37991-19.73853-8.29088-31.32579Zm26.69495,16.52088c3.93412-5.63548,4.05047-9.39292,1.52224-11.15759-2.58072-1.80174-5.96233-.32388-9.89646,5.31161-4.19171,6.00427-4.49773,9.4722-1.75899,11.38433,2.58072,1.80147,5.9415,.46593,10.13321-5.53835Z"/><path d="M478.39359,125.28154c5.91011-5.52942,16.13126-13.59653,18.31478-15.02353l.1407-.1315c-1.10015-1.08202-1.89915-1.65401-2.30311-1.80364,.48405-.89289,2.00332-2.84182,3.36349-4.11459,4.40925-4.12488,9.3315-3.18843,13.85168,1.64292,4.08104,4.36217,5.43688,7.31601,4.86056,12.34108-.12528,2.40431-1.86073,9.48167-3.91843,16.68431,1.54497-1.35746,2.48007-2.14429,4.8722-4.38246,2.20462-2.0623,5.59408-5.58516,6.82411-8.40723,1.9446,.29195,4.57592,1.78848,7.69156,5.11869,4.47608,4.78453,4.38111,9.00763,1.37911,11.81617-4.26855,3.99338-13.35491,10.73496-19.40572,16.39588-3.37728,3.15974-5.83138,5.8955-6.3019,7.74324-2.60128,.32225-5.88333-.74137-8.95514-4.02476-3.81778-4.08077-4.965-7.84552-3.45359-13.65768,1.2587-5.04807,2.49332-12.09621,4.11514-17.1321l-.04383-.04708c-3.55289,2.97224-11.94009,10.55476-13.54837,13.81895-2.24548-.80198-5.02074-2.0761-7.87312-5.12491-3.15974-3.37728-4.48826-7.14798,.38989-11.71173Z"/><path d="M514.80587,160.76927c2.49657-1.58041,4.69984-2.06311,6.36927-1.82772-.39504,4.65953,1.58637,10.55124,4.09457,14.51296,1.4086,2.22519,2.54987,2.94707,3.47253,2.36291,1.03115-.65262,.56658-2.10695-1.17645-6.78136-2.62888-7.15448-3.86486-13.67013,2.26767-17.55257,4.12461-2.61129,9.20731-2.02794,12.51857,1.88156,4.38517-2.31989,9.26115,.21862,14.82737,9.0106,5.84085,9.22598,4.9623,16.24409-.35607,19.61136-2.60507,1.64914-5.54268,2.29256-7.42938,2.19461-.14394-3.71009-2.01333-9.06445-4.48717-12.97205-1.34015-2.11642-2.38374-2.44408-3.19762-1.92864-.75977,.48081-.85041,1.29848,.01191,3.26121,3.02338,7.0568,6.49103,15.65667-1.4868,20.70718-7.21806,4.5697-17.02685,2.64539-24.58583-9.29416-7.9367-12.5367-6.5952-19.54399-.84256-23.18589Z"/></g><g><path d="M97.80637,168.09914c-4.65466-3.53557-11.33725-9.49872-19.16329-15.44292-2.96683-2.2536-6.53703-4.56212-9.32122-5.14439,.22214-2.73495,1.78794-6.70803,4.7407-10.59535,4.235-5.57542,8.40181-6.28242,12.6471-3.05774,4.7572,3.61349,15.28653,12.9017,20.04346,16.51493,5.26859,4.00177,7.33089,5.0037,9.04929,5.50236-.48838,2.1294-2.0504,5.46015-5.23612,9.65457-3.88542,5.11517-8.30982,5.94881-12.75992,2.56854Z" style="fill:#86643e;"/><path d="M113.01064,147.37302c-5.6252-5.81893-13.85818-15.90695-15.32062-18.06666l-.13393-.1388c-1.06389,1.11773-1.62262,1.92593-1.76576,2.33233-.90047-.46944-2.87429-1.95651-4.16898-3.29584-4.19658-4.34133-3.34049-9.2782,1.41645-13.87658,4.29507-4.15193,7.22591-5.55593,12.26018-5.06187,2.40593,.08604,9.51062,1.70569,16.746,3.64515-1.38235-1.52224-2.18433-2.44462-4.4612-4.79995-2.09829-2.17053-5.67607-5.50182-8.51789-6.68557,.26002-1.94893,1.71326-4.6046,4.99233-7.77436,4.71067-4.55373,8.93511-4.52776,11.79236-1.57203,4.06264,4.2028,10.95169,13.17769,16.71082,19.13542,3.2144,3.32534,5.98993,5.73451,7.84498,6.17473,.365,2.5956-.64504,5.89442-3.87784,9.01953-4.01773,3.88434-7.76326,5.09271-13.59951,3.67654-5.06782-1.17618-12.13544-2.29527-17.19731-3.83482l-.046,.04464c3.0296,3.50391,10.74849,11.76611,14.03838,13.32082-.76518,2.25847-1.99358,5.05402-4.99558,7.95591-3.32506,3.2144-7.07385,4.6046-11.71687-.1986Z" style="fill:#86643e;"/><path d="M147.8969,110.3855c-1.62127-2.47033-2.13996-4.66521-1.93216-6.33843,4.66548,.31846,10.52391-1.75953,14.44424-4.33268,2.20165-1.44486,2.90459-2.59804,2.30555-3.51095-.66967-1.02033-2.11642-.53167-6.76133,1.28765-7.11037,2.74631-13.60519,4.08916-17.58802-1.97897-2.67867-4.08104-2.17892-9.17295,1.67565-12.54807-2.39159-4.34648,.06656-9.26359,8.76601-14.97348,9.12911-5.9921,16.16075-5.22881,19.61488,.03382,1.69189,2.57747,2.38347,5.50425,2.31637,7.39231-3.70711,.20482-9.03008,2.16214-12.89656,4.69984-2.09423,1.37451-2.40485,2.42352-1.87615,3.22901,.49352,.75192,1.31255,.82903,3.26094-.06575,7.0062-3.13864,15.54817-6.74753,20.72936,1.14642,4.68767,7.1423,2.92462,16.98167-8.88939,24.73573-12.40493,8.14207-19.43332,6.91583-23.16939,1.22353Z" style="fill:#86643e;"/><path d="M194.49948,86.91307c-2.18677-4.93281-6.16337-14.06084-8.77169-21.68746-3.05368,1.35367-5.62466,2.84507-7.57035,5.11274-1.98871-.52356-4.12596-2.80827-5.66173-6.27295-2.26496-5.10868-.30439-9.56149,5.27427-12.03506,3.93439-1.74438,15.0717-6.2605,19.76964-8.3431,4.63923-2.05662,6.14659-2.93571,7.24295-3.63243,1.95597,.60852,3.78017,2.82126,5.13384,5.87467,1.95245,4.40438,1.60287,8.84555-3.27122,11.00634-.99814,.44266-2.25089,.7871-3.8884,1.37261,2.56963,7.22212,6.01942,14.68667,7.63339,18.32749,1.43187,3.22982,3.05341,6.09437,3.86756,7.13878-.73244,2.15159-3.22522,3.81886-6.6899,5.3549-6.22479,2.75957-10.90732,2.65756-13.06838-2.21653Z" style="fill:#86643e;"/><path d="M269.65232,58.38987c1.29875,5.43553-1.64427,12.74315-9.5788,14.63905-6.4978,1.55254-11.94983-3.02284-14.60361-9.98358-1.31201,.31332-2.51416,.53465-3.55857,.58606,1.30172,5.17064,2.35479,8.7495,3.07316,10.09695-1.60855,1.83719-5.0083,3.64001-8.5068,4.47608-6.87254,1.6421-9.8859-.74191-10.87106-4.86543-.6418-2.68651-4.19306-19.20739-3.12105-21.90717l-.01488-.0625c-1.39507,.79548-2.66487,1.5612-3.92005,2.38943-.70592-1.02006-1.32905-2.52228-1.74709-4.27153-2.11993-8.8718,2.30338-14.68369,18.10995-18.46062,9.43405-2.25414,16.06443-1.59286,18.55559,3.02933,5.92418-.35878,9.73303,3.42031,10.98713,8.66833,1.07471,4.49827-.44184,9.48383-4.95553,13.5343,3.44385,1.42267,6.94099,2.23818,10.15161,2.1313Zm-27.79455-6.03918c2.74902-.65695,4.43495-2.44652,3.92736-4.57078-.61203-2.56151-3.87703-3.23442-8.25029-2.18947l-.0625,.01488c.59715,2.49901,1.16427,4.87328,1.70163,7.12228,.84229-.069,1.74682-.15314,2.68381-.37691Z" style="fill:#86643e;"/><path d="M272.38213,53.59478c-.39774-9.88401,.52085-22.19911-.90534-27.28452,1.93297-1.49221,5.98885-2.94112,10.35318-3.11672,6.09708-.24541,10.13077,2.54933,10.34777,7.94049,.15774,3.91518-.11472,13.1187,.09199,18.25309,.18318,4.55698,1.44702,7.20588,3.82184,7.11037,2.31042-.09281,3.67816-2.84805,3.34482-11.12729-.25326-6.28973-2.1524-15.14881-3.98905-19.25339,1.53739-1.73329,5.18741-3.68006,10.83534-3.90734,5.5838-.22485,10.77582,4.19468,11.27935,16.71001,.43156,10.71819-2.31799,20.66443-11.38271,22.25052-.87963,3.69954-5.41767,7.54654-14.91639,7.92885-11.87326,.47783-18.44682-4.72176-18.88081-15.50407Z" style="fill:#86643e;"/><path d="M321.17689,48.29779c1.17888-8.26653,6.14632-13.98156,13.96749-14.68288,2.66-6.36846,8.23677-8.6226,16.43971-7.45265,9.66566,1.3783,16.44323,6.62713,15.37311,14.13064-.37177,2.60724-2.5055,5.74155-4.6763,7.31357-3.46143-2.5699-6.95912-4.43116-12.04643-5.15657-5.40495-.77086-8.95595,2.29121-9.54552,6.42447-.65289,4.57836,2.02767,7.62067,8.25922,8.5095,4.2607,.60771,8.3937,.2887,12.09946-1.12937,1.96246,1.70731,2.9625,4.70471,2.54527,7.62987-.93402,6.54948-9.63563,9.33123-21.33599,7.66288-13.6079-1.94082-22.85742-10.7861-21.08003-23.24948Z" style="fill:#86643e;"/><path d="M374.6834,71.12517c1.68945-5.1241,4.86841-14.55923,8.05386-21.9629-3.17192-1.04603-6.07868-1.66646-9.04307-1.29117-1.1226-1.72301-1.17347-4.85082,.01326-8.44998,1.75006-5.30701,6.19205-7.29166,11.98744-5.3806,4.087,1.34772,15.37365,5.4753,20.2537,7.08467,4.81917,1.58907,6.52675,1.9492,7.80683,2.16837,1.04143,1.76359,.90858,4.62814-.13745,7.80006-1.50871,4.57511-4.74882,7.63258-9.81177,5.96287-1.0371-.342-2.19678-.92725-3.80344-1.59232-2.94275,7.07817-5.39548,14.9264-6.64282,18.70873-1.10637,3.35483-1.82718,6.56652-1.92458,7.88719-1.98681,1.10339-4.95391,.66588-8.55306-.52085-6.46614-2.13211-9.86859-5.35084-8.19889-10.41406Z" style="fill:#86643e;"/><path d="M406.53275,81.25973c2.55691-5.25641,7.09766-12.97638,11.39651-21.81409,1.62966-3.35023,3.19519-7.30329,3.22171-10.14755,2.72575-.31711,6.92828,.4413,11.31831,2.57693,6.29622,3.06261,7.80439,7.01053,5.47233,11.8048-2.61319,5.37194-9.66241,17.51469-12.2756,22.88664-2.89404,5.94962-3.47307,8.16804-3.62594,9.95084-2.18406-.06223-5.75589-.94267-10.49253-3.2466-5.77618-2.80962-7.45941-6.98564-5.01479-12.01098Z" style="fill:#86643e;"/><path d="M435.33707,80.51782c4.26503-6.10953,13.06459-9.28848,20.15305-4.96663,4.75585-4.90521,11.71416-3.6511,17.50766,.39341,11.11322,7.75812,14.39743,20.78294,6.60278,31.94865-8.16263,11.69252-22.91072,13.06892-35.9726,3.95036-11.06046-7.72133-16.37991-19.73853-8.29088-31.32579Zm26.69495,16.52088c3.93412-5.63548,4.05047-9.39292,1.52224-11.15759-2.58072-1.80174-5.96233-.32388-9.89646,5.31161-4.19171,6.00427-4.49773,9.4722-1.75899,11.38433,2.58072,1.80147,5.9415,.46593,10.13321-5.53835Z" style="fill:#86643e;"/><path d="M473.70424,123.56237c5.91011-5.52942,16.13126-13.59653,18.31478-15.02353l.1407-.1315c-1.10015-1.08202-1.89915-1.65401-2.30311-1.80364,.48405-.89289,2.00332-2.84182,3.36349-4.11459,4.40925-4.12488,9.3315-3.18843,13.85168,1.64292,4.08104,4.36217,5.43688,7.31601,4.86056,12.34108-.12528,2.40431-1.86073,9.48167-3.91843,16.68431,1.54497-1.35746,2.48007-2.14429,4.8722-4.38246,2.20462-2.0623,5.59408-5.58516,6.82411-8.40723,1.9446,.29195,4.57592,1.78848,7.69156,5.11869,4.47608,4.78453,4.38111,9.00763,1.37911,11.81617-4.26855,3.99338-13.35491,10.73496-19.40572,16.39588-3.37728,3.15974-5.83138,5.8955-6.3019,7.74324-2.60128,.32225-5.88333-.74137-8.95514-4.02476-3.81778-4.08077-4.965-7.84552-3.45359-13.65768,1.2587-5.04807,2.49332-12.09621,4.11514-17.1321l-.04383-.04708c-3.55289,2.97224-11.94009,10.55476-13.54837,13.81895-2.24548-.80198-5.02074-2.0761-7.87312-5.12491-3.15974-3.37728-4.48826-7.14798,.38989-11.71173Z" style="fill:#86643e;"/><path d="M510.11653,159.05011c2.49657-1.58041,4.69984-2.06311,6.36927-1.82772-.39504,4.65953,1.58637,10.55124,4.09457,14.51296,1.4086,2.22519,2.54987,2.94707,3.47253,2.36291,1.03115-.65262,.56658-2.10695-1.17645-6.78136-2.62888-7.15448-3.86486-13.67013,2.26767-17.55257,4.12461-2.61129,9.20731-2.02794,12.51857,1.88156,4.38517-2.31989,9.26115,.21862,14.82737,9.0106,5.84085,9.22598,4.9623,16.24409-.35607,19.61136-2.60507,1.64914-5.54268,2.29256-7.42938,2.19461-.14394-3.71009-2.01333-9.06445-4.48717-12.97205-1.34015-2.11642-2.38374-2.44408-3.19762-1.92864-.75977,.48081-.85041,1.29848,.01191,3.26121,3.02338,7.0568,6.49103,15.65667-1.4868,20.70718-7.21806,4.5697-17.02685,2.64539-24.58583-9.29416-7.9367-12.5367-6.5952-19.54399-.84256-23.18589Z" style="fill:#86643e;"/></g></g></g></g></g></g></svg>