<?xml version="1.0" encoding="UTF-8"?><svg xmlns="http://www.w3.org/2000/svg" xmlns:xlink="http://www.w3.org/1999/xlink" viewBox="0 0 1062.29387 1170.73613"><defs><style>.e{fill:#365938;}.e,.f{stroke:#000;stroke-linecap:round;stroke-linejoin:round;stroke-width:7.71277px;}.f{fill:none;}.g{fill:url(#d);}</style><linearGradient id="d" x1="4909.28801" y1="1946.48704" x2="5502.36936" y2="2134.7194" gradientTransform="translate(-2287.08419 5058.98304) rotate(-79.89316)" gradientUnits="userSpaceOnUse"><stop offset="0" stop-color="#365938"/><stop offset="1" stop-color="#609e64"/></linearGradient></defs><g id="a"/><g id="b"><g id="c"><g><path d="M1062.29387,0C1003.32161,798.52896,42.00058,1091.13916,42.00058,1091.13916l-.08406-.06654c-3.79972-7.82483-309.55781-641.42301,1020.37735-1091.07262Z" style="fill:url(#d);"/><path d="M142.75332,944.01274s203.09641-46.46165,217.51924-51.04253" style="fill:#365938; stroke:#000; stroke-linecap:round; stroke-linejoin:round; stroke-width:7.71277px;"/><path d="M118.97103,978.81243s-38.95684-83.92649-29.73787-133.42688" style="fill:#365938; stroke:#000; stroke-linecap:round; stroke-linejoin:round; stroke-width:7.71277px;"/><path d="M345.95086,694.26724s168.52285-45.75151,205.15882-63.71752" style="fill:#365938; stroke:#000; stroke-linecap:round; stroke-linejoin:round; stroke-width:7.71277px;"/><path d="M288.01286,760.18775c-1.27573-3.55987-46.2892-131.27603-46.80569-212.29562" style="fill:#365938; stroke:#000; stroke-linecap:round; stroke-linejoin:round; stroke-width:7.71277px;"/><path d="M630.28357,397.2655s195.9301-67.67252,219.18139-95.59394" style="fill:#365938; stroke:#000; stroke-linecap:round; stroke-linejoin:round; stroke-width:7.71277px;"/><path d="M575.99067,450.38346s-16.68733-94.67884,3.88311-159.87164" style="fill:#365938; stroke:#000; stroke-linecap:round; stroke-linejoin:round; stroke-width:7.71277px;"/><path d="M826.55497,215.10849s-21.67172-18.08142,23.78375-76.77098" style="fill:#365938; stroke:#000; stroke-linecap:round; stroke-linejoin:round; stroke-width:7.71277px;"/><path d="M3.85638,1166.87975S179.1799,770.84791,933.98087,120.41978" style="fill:none; stroke:#000; stroke-linecap:round; stroke-linejoin:round; stroke-width:7.71277px;"/></g></g></g></svg>