<?xml version="1.0" encoding="UTF-8"?><svg xmlns="http://www.w3.org/2000/svg" xmlns:xlink="http://www.w3.org/1999/xlink" viewBox="0 0 2693.33333 701.33333"><defs><style>.n{stroke-width:24px;}.n,.o,.p,.q{fill:none;stroke-linecap:round;}.n,.p,.q{stroke:#fec9db;stroke-miterlimit:10;}.r{fill:#eb596e;}.s{filter:url(#i);}.o{stroke:#ec596c;stroke-linejoin:round;stroke-width:26px;}.p{stroke-width:23px;}.t{filter:url(#g);}.u{fill:#de2a43;}.v{filter:url(#k);}.w{fill:#f5adbb;}.q{stroke-width:25px;}</style><filter id="g" filterUnits="userSpaceOnUse"><feOffset dx="13" dy="24"/><feGaussianBlur result="h" stdDeviation="5"/><feFlood flood-color="#c67f7f" flood-opacity=".75"/><feComposite in2="h" operator="in"/><feComposite in="SourceGraphic"/></filter><filter id="i" filterUnits="userSpaceOnUse"><feOffset dx="13" dy="24"/><feGaussianBlur result="j" stdDeviation="5"/><feFlood flood-color="#c67f7f" flood-opacity=".75"/><feComposite in2="j" operator="in"/><feComposite in="SourceGraphic"/></filter><filter id="k" filterUnits="userSpaceOnUse"><feOffset dx="13" dy="24"/><feGaussianBlur result="l" stdDeviation="5"/><feFlood flood-color="#c67f7f" flood-opacity=".75"/><feComposite in2="l" operator="in"/><feComposite in="SourceGraphic"/></filter></defs><g id="a"/><g id="b"/><g id="c"/><g id="d"/><g id="e"/><g id="f"><g style="filter:url(#g);"><path d="M719.07914,516.51642c-5.98999,32.89996-14.3501,59.91998-24.45007,81.95001-31.30994-.26001-77.64001-2.39001-102.98999-11.95001-40.67004-15.33002-84.45007,0-84.45007,0-30.90991,12.70996-52.71997,27.66998-67.51996,40.54999-.23999-.42999-.42999-.83002-.58997-1.22003-77,19-86.33002-47-86.33002-47l111.33002-76.65997,255.00006,14.33002Z" style="fill:#de2a43;"/><path d="M190.0824,523.84975S-47.9176,473.84975,62.0824,255.18308c0,0,17.33333-29.33333,96.66667-80.66667s55.21692-80.98479,192-126.66667C494.68974-.2226,722.40593,89.89461,778.08244,219.18307c62.66663,74,91.99996,305.33334-75.33337,366.00001,0,0-73.33337-3.99998-177.33337-35.33335,.31604,1.2702-202.92877,70.29266-253.99994,53.33337-50.23853-16.6828-81.33335-79.33335-81.33335-79.33335Z" style="fill:#f5adbb;"/><path d="M694.62907,598.46643c-73.65002,160.51996-239.94,56.06995-254.96002,28.59998,14.79999-12.88,36.61005-27.84003,67.51996-40.54999,0,0,43.78003-15.33002,84.45007,0,25.34998,9.56,71.68005,11.69,102.98999,11.95001Z" style="fill:#eb596e;"/><path d="M184.0824,492.18308s61.33333-100.66667,153-105.33333c0,0,46-2.66667,85.66667-16,39.66667-13.33333,88.33333-32.33333,129.33333-29,41,3.33333,96.33333-32.33333,96.33333-32.33333" style="fill:none; stroke:#ec596c; stroke-linecap:round; stroke-linejoin:round; stroke-width:26px;"/><path d="M92.5824,300.01642s18.83333-32.33333,49-48.16667c30.16667-15.83333,43.16667-19,59.66667-36.5" style="fill:none; stroke:#fec9db; stroke-linecap:round; stroke-miterlimit:10; stroke-width:25px;"/><path d="M395.0824,225.01642s19-15.66667,48.66667-12.33333" style="fill:none; stroke:#fec9db; stroke-linecap:round; stroke-miterlimit:10; stroke-width:24px;"/><path d="M268.5824,160.01642s19.5-42.66667,61.83333-51.33333" style="fill:none; stroke:#fec9db; stroke-linecap:round; stroke-miterlimit:10; stroke-width:23px;"/></g><g style="filter:url(#i);"><path d="M1637.74581,516.51642c-5.98999,32.89996-14.3501,59.91998-24.45007,81.95001-31.30994-.26001-77.64001-2.39001-102.98999-11.95001-40.67004-15.33002-84.45007,0-84.45007,0-30.90991,12.70996-52.71997,27.66998-67.51996,40.54999-.23999-.42999-.42999-.83002-.58997-1.22003-77,19-86.33002-47-86.33002-47l111.33002-76.65997,255.00006,14.33002Z" style="fill:#de2a43;"/><path d="M1108.74906,523.84975s-238-50-128-268.66667c0,0,17.33333-29.33333,96.66667-80.66667s55.21692-80.98479,192-126.66667C1413.35641-.2226,1641.07259,89.89461,1696.74911,219.18307c62.66663,74,91.99996,305.33334-75.33337,366.00001,0,0-73.33337-3.99998-177.33337-35.33335,.31604,1.2702-202.92877,70.29266-253.99994,53.33337-50.23853-16.6828-81.33335-79.33335-81.33335-79.33335Z" style="fill:#f5adbb;"/><path d="M1613.29574,598.46643c-73.65002,160.51996-239.94,56.06995-254.96002,28.59998,14.79999-12.88,36.61005-27.84003,67.51996-40.54999,0,0,43.78003-15.33002,84.45007,0,25.34998,9.56,71.68005,11.69,102.98999,11.95001Z" style="fill:#eb596e;"/><path d="M1102.74906,492.18308s61.33333-100.66667,153-105.33333c0,0,46-2.66667,85.66667-16,39.66667-13.33333,88.33333-32.33333,129.33333-29,41,3.33333,96.33333-32.33333,96.33333-32.33333" style="fill:none; stroke:#ec596c; stroke-linecap:round; stroke-linejoin:round; stroke-width:26px;"/><path d="M1011.24906,300.01642s18.83333-32.33333,49-48.16667c30.16667-15.83333,43.16667-19,59.66667-36.5" style="fill:none; stroke:#fec9db; stroke-linecap:round; stroke-miterlimit:10; stroke-width:25px;"/><path d="M1313.74906,225.01642s19-15.66667,48.66667-12.33333" style="fill:none; stroke:#fec9db; stroke-linecap:round; stroke-miterlimit:10; stroke-width:24px;"/><path d="M1187.24906,160.01642s19.5-42.66667,61.83333-51.33333" style="fill:none; stroke:#fec9db; stroke-linecap:round; stroke-miterlimit:10; stroke-width:23px;"/></g><g style="filter:url(#k);"><path d="M2556.41248,516.51642c-5.98999,32.89996-14.3501,59.91998-24.45007,81.95001-31.30994-.26001-77.64001-2.39001-102.98999-11.95001-40.67004-15.33002-84.45007,0-84.45007,0-30.90991,12.70996-52.71997,27.66998-67.51996,40.54999-.23999-.42999-.42999-.83002-.58997-1.22003-77,19-86.33002-47-86.33002-47l111.33002-76.65997,255.00006,14.33002Z" style="fill:#de2a43;"/><path d="M2027.41573,523.84975s-238-50-128-268.66667c0,0,17.33333-29.33333,96.66667-80.66667s55.21692-80.98479,192-126.66667c143.94067-48.07234,371.65686,42.04486,427.33337,171.33333,62.66663,74,91.99996,305.33334-75.33337,366.00001,0,0-73.33337-3.99998-177.33337-35.33335,.31604,1.2702-202.92877,70.29266-253.99994,53.33337-50.23853-16.6828-81.33335-79.33335-81.33335-79.33335Z" style="fill:#f5adbb;"/><path d="M2531.9624,598.46643c-73.65002,160.51996-239.94,56.06995-254.96002,28.59998,14.79999-12.88,36.61005-27.84003,67.51996-40.54999,0,0,43.78003-15.33002,84.45007,0,25.34998,9.56,71.68005,11.69,102.98999,11.95001Z" style="fill:#eb596e;"/><path d="M2021.41573,492.18308s61.33333-100.66667,153-105.33333c0,0,46-2.66667,85.66667-16,39.66667-13.33333,88.33333-32.33333,129.33333-29,41,3.33333,96.33333-32.33333,96.33333-32.33333" style="fill:none; stroke:#ec596c; stroke-linecap:round; stroke-linejoin:round; stroke-width:26px;"/><path d="M1929.91573,300.01642s18.83333-32.33333,49-48.16667c30.16667-15.83333,43.16667-19,59.66667-36.5" style="fill:none; stroke:#fec9db; stroke-linecap:round; stroke-miterlimit:10; stroke-width:25px;"/><path d="M2232.41573,225.01642s19-15.66667,48.66667-12.33333" style="fill:none; stroke:#fec9db; stroke-linecap:round; stroke-miterlimit:10; stroke-width:24px;"/><path d="M2105.91573,160.01642s19.5-42.66667,61.83333-51.33333" style="fill:none; stroke:#fec9db; stroke-linecap:round; stroke-miterlimit:10; stroke-width:23px;"/></g></g><g id="m"/></svg>