<?xml version="1.0" encoding="UTF-8"?><svg xmlns="http://www.w3.org/2000/svg" xmlns:xlink="http://www.w3.org/1999/xlink" viewBox="0 0 656.63388 650.83445"><defs><style>.t{fill:#3f562a;}.u{fill:url(#l);}.v{fill:#497015;}.w{isolation:isolate;}.x{fill:url(#m);}.y{fill:#597634;}.a`{filter:url(#r);}.aa{fill:#453131;}.ab{fill:url(#f);}.ac{fill:#86643e;}.ad{fill:url(#p);}.ae{fill:url(#g);}.af{fill:url(#i);}.ag{clip-path:url(#e);}.ah{mix-blend-mode:multiply;opacity:.29;}.ai{clip-path:url(#d);}.aj{fill:url(#h);}.ak{fill:none;}.al{fill:url(#n);}.am{fill:url(#j);}.an{fill:url(#o);}.ao{fill:url(#q);}.ap{fill:url(#k);}</style><clipPath id="d"><ellipse cx="322.12574" cy="322.79864" rx="322.12574" ry="322.79864" style="fill:none;"/></clipPath><clipPath id="e"><rect x="-457.81146" y="-450.59785" width="2422.29616" height="1365.38784" style="fill:none;"/></clipPath><linearGradient id="f" x1="753.33662" y1="-466.19025" x2="753.33662" y2="675.00428" gradientTransform="matrix(1, 0, 0, 1, 0, 0)" gradientUnits="userSpaceOnUse"><stop offset="0" stop-color="#6a724d"/><stop offset="1" stop-color="#dbb872"/></linearGradient><linearGradient id="g" x1="223.94907" y1="813.47455" x2="229.00604" y2="-695.18982" xlink:href="#f"/><linearGradient id="h" x1="786.49656" y1="815.36515" x2="791.55354" y2="-693.30217" xlink:href="#f"/><linearGradient id="i" x1="429.46961" y1="750.80136" x2="456.43957" y2="-11.09997" gradientTransform="matrix(1, 0, 0, 1, 0, 0)" gradientUnits="userSpaceOnUse"><stop offset="0" stop-color="#635144"/><stop offset=".5929" stop-color="#405e45"/><stop offset="1" stop-color="#2e6646"/></linearGradient><linearGradient id="j" x1="82.75731" y1="353.11465" x2="82.75731" y2="237.74714" gradientTransform="matrix(1, 0, 0, 1, 0, 0)" gradientUnits="userSpaceOnUse"><stop offset="0" stop-color="#823423"/><stop offset="1" stop-color="#009245"/></linearGradient><linearGradient id="k" x1="117.64672" y1="354.35368" x2="117.64672" y2="251.76141" xlink:href="#j"/><linearGradient id="l" x1="144.83612" y1="358.9996" x2="144.83612" y2="302.4249" xlink:href="#j"/><linearGradient id="m" x1="750.39813" y1="680.15774" x2="782.40198" y2="360.11932" gradientTransform="matrix(1, 0, 0, 1, 0, 0)" gradientUnits="userSpaceOnUse"><stop offset="0" stop-color="#004826"/><stop offset="1" stop-color="#009245"/></linearGradient><linearGradient id="n" x1="697.26709" y1="753.99971" x2="725.92658" y2="592.1579" gradientTransform="matrix(1, 0, 0, 1, 0, 0)" gradientUnits="userSpaceOnUse"><stop offset="0" stop-color="#a25144"/><stop offset=".26543" stop-color="#85664d"/><stop offset=".75617" stop-color="#548a5c"/><stop offset="1" stop-color="#429962"/></linearGradient><linearGradient id="o" x1="895.81521" y1="896.67534" x2="-.90455" y2="454.20386" gradientTransform="matrix(1, 0, 0, 1, 0, 0)" gradientUnits="userSpaceOnUse"><stop offset="0" stop-color="#004223"/><stop offset="1" stop-color="#009245"/></linearGradient><linearGradient id="p" x1="-308.87249" y1="1108.21993" x2="-308.87249" y2="-544.57242" gradientTransform="matrix(1, 0, 0, 1, 0, 0)" gradientUnits="userSpaceOnUse"><stop offset="0" stop-color="#292821"/><stop offset="1" stop-color="#16164f"/></linearGradient><linearGradient id="q" x1="-476.86473" y1="-819.84111" x2="-476.86473" y2="-845.15172" gradientTransform="translate(1258.35857 460.09002) rotate(-34.00984)" xlink:href="#p"/><filter id="r" filterUnits="userSpaceOnUse"><feOffset dx="0" dy="0"/><feGaussianBlur result="s" stdDeviation="15"/><feFlood flood-color="#86643e" flood-opacity="1"/><feComposite in2="s" operator="in"/><feComposite in="SourceGraphic"/></filter></defs><g style="isolation:isolate;"><g id="a"/><g id="b"><g id="c"><g><g style="clip-path:url(#d);"><g style="clip-path:url(#e);"><rect x="-457.81146" y="-450.59785" width="2422.29616" height="1365.38784" style="fill:url(#f);"/><g><polygon points="219.20944 574.70734 36.77879 574.70734 19.94522 249.8446 -60.40325 155.26431 -60.40325 111.40098 27.98007 178.5667 27.98007 -450.59785 150.10975 -450.59785 179.0352 -160.00333 341.33912 -369.72485 312.41367 -450.59785 354.19487 -450.59785 383.12032 -376.5785 449.00607 -450.59785 514.89182 -450.59785 193.49793 25.04506 219.20944 574.70734" style="fill:url(#g);"/><path d="M808.87971,543.73316V254.15088L977.38902,1.99761l-23.6228-45.30879-60.63185,94.55748-7.08684-193.05485h-33.07192l-4.72456,226.54396s-29.65974,102.92976-39.37133,89.79677c-16.88437-22.83273,12.59883-487.72616,12.59883-487.72616l48.82045-137.40384h-111.81459l-47.2456,157.10331-75.59296-157.10331h-33.07192l88.19179,255.60068-4.72456,738.7303h122.83856Z" style="fill:url(#h);"/></g><path d="M-18.234,381.69875L29.29832-113.88647-49.46952-204.91233l6.79033-60.6839S27.94025-156.02807,37.44671-172.88471c9.50646-16.85664,10.86453-262.12067-24.44519-277.71311-35.30972-15.59243,77.40977,0,77.40977,0l8.1484,832.29656H-18.234Z" style="fill:#597634;"/><path d="M555.12953,380.64434s21.94702-15.38953,24.81376-5.40325c2.86674,9.98628,4.53606,15.60862,4.53606,15.60862,0,0,16.15006-15.93276,18.96515-3.38619,2.8151,12.54656,2.58048,18.13138,2.58048,18.13138,0,0,12.15194-10.76277,16.1509-2.94958s-2.13227,16.8651-2.13227,16.8651c0,0,11.70265-5.69949,16.09019,2.38632,4.38754,8.08581-3.15941,13.3625-3.15941,13.3625,0,0,16.66356-.92072,18.19066,8.49662,1.5271,9.41733-8.95637,12.81927-8.95637,12.81927,0,0,17.90537,3.10343,20.8183,12.19479,2.91294,9.09136-12.71805,11.84931-12.71805,11.84931,0,0,12.29501-1.57459,17.46333,5.94621,5.16832,7.5208-6.9564,9.95671-6.9564,9.95671,0,0,8.83132-1.03722,11.77231,12.71047,2.94099,13.74768-13.63828,2.11589-13.63828,2.11589,0,0,16.90992,3.14689-2.99638,16.44432-19.9063,13.29743-150.59663-91.93211-150.59663-91.93211,0,0-19.37804-29.17447-10.02681-30.40331,9.35124-1.22885,11.24067,3.24966,11.24067,3.24966,0,0-8.56405-14.53983,1.78445-16.36727,10.3485-1.82744,11.57035,8.30306,11.57035,8.30306,0,0-5.03602-21.52335,4.25995-19.08166,9.29597,2.44169,10.08667,12.08424,10.08667,12.08424,0,0-.40116-22.90823,8.37852-21.38516,8.77968,1.52307,12.47884,8.38405,12.47884,8.38405Z" style="fill:#3f562a;"/><path d="M367.70371,481.15292L419.85036-115.57213s8.41075-24.44213-158.12211-335.02572h26.07333l132.11958,217.02924,12.54533-217.02924h62.23955l41.21268,296.67686,87.47181-224.82544-37.0073-71.85143h25.23225l15.98043,37.50602,21.86795-37.50602h32.80193L542.64732,62.26542l-16.40096,418.8875h-158.54265Z" style="fill:url(#i);"/><path d="M102.69695,320.56263c-3.00988,14.13517-9.39112,24.99389-14.91074,32.37487l-.08246,.11087c-.01673,.0227-.03329,.04357-.05001,.06629-6.79764-6.43972-15.75557-16.86267-21.37126-31.80369-15.16103-40.34078,7.42515-77.99894,10.88408-83.56382,4.31697,4.80351,34.70955,39.71011,25.53039,82.81549Z" style="fill:url(#j);"/><path d="M77.65435,256.36619l10.13186,96.57131-.08246,.11087c-3.92873-28.65808-9.33752-38.90027-10.0494-96.68217Z" style="fill:#497015;"/><path d="M121.7089,335.19972c-10.18538,10.23349-21.42707,15.88133-30.06113,19.07725l-.12931,.04825c-.02635,.00997-.05156,.01848-.07791,.02847-2.22007-9.10614-4.09649-22.73268-.7184-38.33532,9.12195-42.12647,48.4912-61.46518,54.4108-64.25695,1.02318,6.38253,7.63682,52.2314-23.42405,83.43831Z" style="fill:url(#k);"/><path d="M135.45584,267.66329l-43.80806,86.61367-.12931,.04825c12.22594-26.2047,13.23222-37.74866,43.93738-86.66192Z" style="fill:#497015;"/><path d="M128.78852,357.99573c-14.23967,2.2987-26.6499,.2629-35.51289-2.22534l-.13296-.03696c-.02717-.00742-.05258-.01535-.07976-.02275,3.53373-8.67939,9.99238-20.81732,21.8631-31.46619,32.05144-28.75075,75.25511-21.26456,81.68333-20.04498-2.90833,5.77011-24.39657,46.78678-67.82081,53.79622Z" style="fill:url(#l);"/><path d="M179.46248,311.38728l-86.18685,44.38311-.13296-.03696c25.24305-14.0324,32.81678-22.78904,86.31982-44.34616Z" style="fill:#497015;"/><path d="M-457.81146,386.75574s198.07318-91.02586,475.62794-64.05523c277.55477,26.97062,580.34179,158.45242,580.34179,158.45242,0,0,213.63306,131.79698,731.7353,49.04185,518.10223-82.75513,634.59113-17.01424,634.59113-17.01424v401.60945H-457.81146V386.75574Z" style="fill:url(#m);"/><path d="M809.87756,627.80485s1.08846-32.32043-10.49121-28.33773c-11.57966,3.9827-18.13426,6.17004-18.13426,6.17004,0,0,5.3036-26.935-8.74492-21.15004-14.04852,5.78497-19.35637,9.83744-19.35637,9.83744,0,0,2.79303-19.42872-7.3829-18.05662-10.17593,1.3721-15.12382,13.65164-15.12382,13.65164,0,0-1.86879-15.51974-12.55806-14.34709-10.68927,1.17265-11.04859,12.27624-11.04859,12.27624,0,0-9.69114-17.17819-19.86346-12.25421s-6.83345,17.66166-6.83345,17.66166c0,0-14.41241-15.6593-25.14701-12.33452-10.7346,3.32478-3.4949,20.73402-3.4949,20.73402,0,0-6.27574-13.28698-16.90918-13.27613-10.63344,.01085-5.30753,13.7178-5.30753,13.7178,0,0-4.59941-9.4797-19.90157-2.99831-15.30216,6.48139,6.60056,14.99118,6.60056,14.99118,0,0-13.82221-14.641-14.16347,14.22201-.34126,28.863,185.54154,86.68424,185.54154,86.68424,0,0,40.8226-.70824,36.07999-10.83533-4.74261-10.12708-10.31945-8.9406-10.31945-8.9406,0,0,19.64999-1.43891,14.85844-12.96575s-15.46669-5.81197-15.46669-5.81197c0,0,24.23134-9.71862,15.93736-17.28053-8.29398-7.56191-18.21833-1.75259-18.21833-1.75259,0,0,22.63876-15.26861,15.5705-22.94604-7.06826-7.67743-16.12324-6.6588-16.12324-6.6588Z" style="fill:url(#n);"/><path d="M-457.81146,914.78999v-378.32621s669.33804-47.4093,1150.32784,118.52325c480.9898,165.93255,735.62527-84.2832,1271.96832,82.96628v176.83669H-457.81146Z" style="fill:url(#o);"/><g style="mix-blend-mode:multiply; opacity:.29;"><path d="M-978.5771,914.78999S-501.96805,503.62844,142.29559,612.07283c373.11183,62.8033,579.60754,238.07271,1879.90958,196.4262" style="fill:none;"/></g><polygon points="-328.03679 1108.21993 -578.51561 1108.21993 -601.62825 614.31644 -711.94738 470.52175 -711.94738 403.83436 -590.59633 505.94942 -590.59633 -450.59785 -422.91124 -450.59785 -383.19636 -8.79388 -160.3517 -327.64298 -200.06659 -450.59785 -142.70064 -450.59785 -102.98575 -338.06288 -12.52405 -450.59785 94.20241 -544.57242 -347.07414 178.56899 -328.03679 1108.21993" style="fill:url(#p);"/><path d="M382.8917,61.4944s1.12145-49.78821,29.718-42.26023c28.59655,7.52798-29.718,42.26023-29.718,42.26023Z" style="fill:url(#q);"/></g></g><g><path d="M195.30011,379.01928c-9.27996-4.29318-16.88044-8.90737-23.03361-13.74785-45.66022-35.92168-11.6042-84.25018,7.39128-105.39798,4.43074-4.93228,11.30039-6.37952,17.15269-4.14414,1.71383,.65057,3.3388,1.62217,4.78898,2.91184,76.48624,67.99155,22.94755,133.90823-6.29934,120.37812Z"/><path d="M263.71301,297.20809c-1.15211-.90848-2.27274-1.81696-3.36175-2.72544-70.92928-59.01547-11.95384-111.58256,17.50513-131.89647,4.91513-3.38749,10.95083-3.9292,16.14388-1.98027,3.21271,1.20655,6.10734,3.36175,8.21663,6.3882,65.93396,94.56169-10.01932,152.71164-38.5039,130.21399Z"/><path d="M407.13328,297.20809c-10.64695,8.41157-27.92853,5.55136-41.95443-6.27065-23.48932-19.79501-37.83618-64.73014,3.44767-123.94334,5.31921-7.62344,15.60217-9.73567,23.45497-4.99259,.30661,.18346,.60747,.37839,.90554,.58466,29.91188,20.62625,90.25718,74.50303,14.14625,134.62191Z"/><path d="M474.98741,379.01928c-8.69243,4.021-19.52857,1.02603-28.45889-6.95565-21.12485-18.87506-31.59702-65.63582,22.15676-113.42248,4.35041-3.86902,10.26576-4.85489,15.41004-3.0953,2.43325,.83124,4.69158,2.27848,6.53149,4.3276,21.55768,23.99653,62.50344,82.99493-15.6394,119.14582Z"/><path d="M356.86762,476.39261c-20.33966-18.12709-48.63797-1.3269-48.63797-1.3269-38.62424,13.98868-59.67178,11.47804-70.09231,.86832-25.48688-25.94826,12.60728-100.35669,12.60728-100.35669,0,0,59.39666-93.80518,121.46153-54.94297,15.96042,9.99358,32.10136,28.7655,47.45136,60.16464,71.12128,145.48675-58.97251,98.9983-62.78989,95.5936Z"/><path d="M187.99769,373.82909c-5.90387-2.73118-11.12848-5.59139-15.7312-8.55767-45.66022-35.92168-11.6042-84.25018,7.39128-105.39798,4.43074-4.93228,11.30039-6.37952,17.15269-4.14414,72.7806,67.17487,20.10743,131.47805-8.81277,118.09978Z" style="fill:#86643e;"/><path d="M260.35126,294.48265c-70.92928-59.01547-11.95384-111.58256,17.50513-131.89647,4.91513-3.38749,10.95083-3.9292,16.14388-1.98027,.31815,.38105,.62476,.7824,.91422,1.19787,63.08803,90.48066-3.72573,147.62179-34.56323,132.67887Z" style="fill:#86643e;"/><path d="M399.83101,292.01791c-8.85867,6.99581-22.30859,6.19326-34.65216-1.08047-23.48932-19.79501-37.83618-64.73014,3.44767-123.94334,5.31921-7.62344,15.60217-9.73567,23.45497-4.99259,31.01795,23.29446,78.74177,73.94132,7.74952,130.0164Z" style="fill:#86643e;"/><path d="M467.685,373.82909c-6.42542,2.97202-14.02311,2.10929-21.15648-1.76547-21.12485-18.87506-31.59702-65.63582,22.15676-113.42248,4.35041-3.86902,10.26576-4.85489,15.41004-3.0953,21.7354,24.52102,60.81536,82.5593-16.41032,118.28324Z" style="fill:#86643e;"/><path d="M349.5652,471.20243c-20.33966-18.13003-48.63797-1.32704-48.63797-1.32704-31.14418,11.27751-50.85901,11.83069-62.78989,6.05864-25.48688-25.94826,12.60728-100.35669,12.60728-100.35669,0,0,59.39666-93.80518,121.46153-54.94297,13.55585,10.81599,27.13759,28.35842,40.14894,54.97446,71.12407,145.48381-58.96971,98.99537-62.78989,95.5936Z" style="fill:#86643e;"/></g><path d="M631.05534,318.39085c0,178.73448-144.89341,323.62789-323.62789,323.62789-32.17314,0-63.25141-4.69438-92.58429-13.4383C94.5481,581.38124,9.37797,464.24158,9.37797,327.20642,9.37797,148.47194,154.27144,3.57853,333.00599,3.57853c32.173,0,63.25127,4.69438,92.58422,13.43837,120.29514,47.19632,205.46513,164.33893,205.46513,301.37394Z" style="fill:none;"/><path d="M656.63388,327.20642c0,178.73462-144.89341,323.62803-323.62789,323.62803-41.69946,0-81.55902-7.88708-118.16283-22.25402,29.33288,8.74392,60.41114,13.4383,92.58429,13.4383,178.73448,0,323.62789-144.89341,323.62789-323.62789,0-137.03502-85.16999-254.17762-205.46513-301.37394,133.61883,39.82226,231.04367,163.62818,231.04367,310.18951Z" style="fill:#453131;"/><path d="M631.05534,318.39085c0,178.73448-144.89341,323.62789-323.62789,323.62789-32.17314,0-63.25141-4.69438-92.58429-13.4383C94.5481,581.38124,9.37797,464.24158,9.37797,327.20642,9.37797,148.47194,154.27144,3.57853,333.00599,3.57853c32.173,0,63.25127,4.69438,92.58422,13.43837,120.29514,47.19632,205.46513,164.33893,205.46513,301.37394Z" style="fill:none;"/><g><path d="M193.04158,86.02066c7.69382,10.17158,2.12623,22.28858-6.55976,28.8587-1.31402,.99412-2.55752,1.84467-3.77274,2.49455,2.49147,3.05626,4.5494,5.18305,5.85727,6.08061-.30786,1.84971-2.9166,5.17073-5.77387,7.33194-7.02856,5.31627-12.01905,4.41954-15.82258-.60901-4.49539-5.94291-10.37813-14.78899-12.79067-19.52227-.89729,1.30759-1.59418,2.64316-2.2337,3.93563-1.80801-.60901-3.66219-1.99133-5.08873-3.87714-5.31627-7.02856-2.95662-15.19201,8.18613-23.62052,7.88582-5.96474,15.45426-8.90485,20.22812-4.96922,4.90177-3.25861,12.84329-2.61769,17.77052,3.89673Zm-15.32803,11.68431c-2.07473-2.7428-5.57096-2.61405-9.85951-.08872,2.00364,2.88637,4.45341,6.24406,6.90345,9.60147,.44305-.24545,.90036-.5911,1.30031-.89365,2.97146-2.24769,3.94655-5.59055,1.65575-8.6191Z"/><path d="M242.18858,81.93642c2.74979,5.51414,2.90345,11.28185-3.70054,14.57489-5.0655,2.52589-10.09657,3.19312-14.87044,2.93171-.96502,3.36328-3.01848,5.98853-6.48084,7.71482-4.61657,2.30199-9.48532,.72656-12.87435-6.0697-1.56647-3.1419-2.36412-6.18669-2.36216-8.10916l2.50014-.7663c-5.01932-10.22671-11.76632-22.95469-15.03025-26.93146,1.50826-2.11307,5.70922-5.24854,9.10748-6.94291,8.59195-4.28436,12.53178-3.2866,16.08062,3.8304,3.00532,6.02716,7.06186,17.85477,8.46713,21.95777,5.64232-2.81361,11.02884-5.97986,13.88303-8.28353,1.34509,.61013,3.61769,2.75931,5.28016,6.09349Z"/><path d="M295.80353,75.3274c-1.86734,2.1419-5.61993,4.72293-10.45901,6.04031-6.84356,1.86342-9.63309,.61797-12.23875-4.31571-1.72208,.76574-3.39407,1.44361-5.12231,1.91436-1.79737,.48923-3.72013,.79009-5.59279,1.0028,.30059,1.92304,.67059,3.82732,1.00308,5.59307-1.96754,1.50098-5.42458,3.25889-9.08817,4.25665-5.73804,1.56199-8.52086-.20487-9.29248-3.03919-1.16709-4.28604-1.89421-23.31993,.66051-30.84667l-.03778-.13826c-1.38259,.37615-2.1934,.67115-3.09208,.91604-.9485-.48447-2.10384-2.54604-2.83795-5.24182-1.6941-6.22167,1.39351-11.51779,11.76296-14.34091,7.53541-2.0515,14.47245-1.93563,18.45958,5.07249l1.03722-.28212c7.39659-2.014,12.14947,7.53317,21.48505,26.82203,1.84579,4.32382,2.93843,5.88274,3.35293,6.58691Zm-30.76186-8.2575c1.10607-.30115,2.30003-.5522,3.53177-.66471-2.103-4.99665-4.84663-10.7095-7.54129-13.24323-.25973,5.04591-.20543,10.1545,.12538,15.1881,1.20683-.47719,2.50154-.904,3.88414-1.28016Z"/><path d="M320.91524,59.6316c.18724,4.65828,1.61181,11.15143,3.25217,14.31768-2.14834,1.76798-6.67703,3.45396-12.24491,3.93563-8.56592,.74111-11.6776-1.14722-12.17158-6.85783-.39519-4.56844-.41506-8.95355-.26197-11.34006-11.03444-2.85699-9.16234-18.62471-14.29109-28.03362,2.67619-2.31682,6.77667-3.96614,10.98798-4.33054,6.28184-.54324,10.14807,.92024,11.45537,6.05682,.97565,3.79905,1.81025,11.78171,4.18556,15.96308l.14274-.01231c2.95075-5.7929,4.44277-17.6443,3.03247-21.47778,2.86818-1.75819,5.52506-2.63532,9.1657-2.95019,5.63897-.48783,10.31515,1.19312,10.91409,8.11728,.71005,8.2088-4.80857,24.22001-14.16654,26.61184Z"/><path d="M355.84559,66.87231c1.66135-8.87351,5.52198-22.87492,6.54241-25.59981l.03946-.21103c-1.70333-.24601-2.79933-.23258-3.26141-.10048-.15449-1.12231-.07585-3.87742,.30647-5.91968,1.2393-6.61994,6.28268-9.02884,13.53626-7.67087,6.54941,1.22614,9.71874,2.98601,12.51947,7.88386,1.47495,2.24406,4.58859,9.75204,7.49567,17.58552,.4923-2.24042,.81332-3.56536,1.48559-7.15702,.61993-3.30983,1.34005-8.71482,.58214-12.06411,1.94067-1.02155,5.29444-1.41422,10.29444-.47803,7.18333,1.34481,9.88694,5.20404,9.04283,9.71118-1.19955,6.40863-4.91548,18.4691-6.6163,27.55391-.94934,5.07054-1.34873,9.15059-.55164,11.12204-2.12539,2.00756-5.77806,3.21887-10.70782,2.29611-6.12679-1.14722-9.64401-3.77386-12.12372-9.99665-2.20207-5.36888-5.747-12.52003-7.61462-18.11785l-.07053-.01315c-1.2309,5.01764-3.76267,17.37282-3.05318,21.3689-2.548,.76211-5.88414,1.44976-10.46153,.59278-5.07054-.94934-8.75512-3.46152-7.384-10.78563Z"/><path d="M416.79081,64.57004c3.41646-7.57656,12.4078-12.87519,21.06916-9.59839,4.20292-6.35741,12.08958-6.41674,19.2743-3.17689,13.78171,6.21439,20.06664,19.81615,13.82258,33.66335-6.53849,14.50016-22.42236,19.04872-38.62082,11.74449-13.7165-6.18529-22.02494-18.26283-15.54522-32.63256Zm32.66951,12.60931c3.15142-6.98881,2.50434-11.13184-.63084-12.5455-3.2004-1.44305-6.60314,.87378-9.75456,7.86259-3.35741,7.44613-2.97817,11.31124,.41814,12.84273,3.20068,1.44333,6.60958-.71369,9.96727-8.15982Z"/><path d="M542.95861,130.04395c-8.68179,10.48588-25.36779,13.78647-33.61241,17.56453-3.49986-1.50238-5.81613-2.86202-9.569-5.96922-4.80129-3.97538-5.39575-9.21188-1.88637-16.25919-2.76603,1.43045-5.81725,2.53205-8.8514,3.2754-4.47104-1.00392-8.04507-2.75399-11.74281-5.81557-8.05738-6.67143-10.41815-13.37001-3.53653-24.60233,7.40135-12.19733,11.42711-21.32888,13.67508-29.88613,2.918,.1836,6.7568,1.50154,10.73021,4.7915,9.38204,7.76799,6.9835,17.96784-3.84607,31.04734l-2.46768,2.98041c-2.51302,3.03527-2.25245,4.18109-1.6454,4.68375,.99328,.82256,4.74924-.90484,10.64373-8.02408,4.38652-5.29808,8.38344-12.03528,9.42962-17.68068,2.86454,.69745,6.62329,2.78618,8.94124,4.70558,8.71957,7.21971,8.46097,15.28437-1.08928,26.81867-2.4674,2.98013-5.74196,6.03611-7.20432,7.80214-1.27932,1.54548-1.35013,2.41702-.46712,3.14834,2.37336,1.96474,9.25358-3.87322,13.68572-9.22671,4.3868-5.29808,7.25666-11.57292,7.96922-15.35462,2.21187,.24965,4.9583,1.3143,8.3798,4.1475,7.22979,5.98601,8.72405,14.29277,2.46376,21.85337Z"/></g><g style="filter:url(#r);"><path d="M188.98692,82.98138c7.69382,10.17158,2.12623,22.28858-6.55976,28.8587-1.31402,.99412-2.55752,1.84467-3.77274,2.49455,2.49147,3.05626,4.5494,5.18305,5.85727,6.08061-.30786,1.84971-2.9166,5.17073-5.77387,7.33194-7.02856,5.31627-12.01905,4.41954-15.82258-.60901-4.49539-5.94291-10.37813-14.78899-12.79067-19.52227-.89729,1.30759-1.59418,2.64316-2.2337,3.93563-1.80801-.60901-3.66219-1.99133-5.08873-3.87714-5.31627-7.02856-2.95662-15.19201,8.18613-23.62052,7.88582-5.96474,15.45426-8.90485,20.22812-4.96922,4.90177-3.25861,12.84329-2.61769,17.77052,3.89673Zm-15.32803,11.68431c-2.07473-2.7428-5.57096-2.61405-9.85951-.08872,2.00364,2.88637,4.45341,6.24406,6.90345,9.60147,.44305-.24545,.90036-.5911,1.30031-.89365,2.97146-2.24769,3.94655-5.59055,1.65575-8.6191Z" style="fill:#86643e;"/><path d="M238.13392,78.89713c2.74979,5.51414,2.90345,11.28185-3.70054,14.57489-5.0655,2.52589-10.09657,3.19312-14.87044,2.93171-.96502,3.36328-3.01848,5.98853-6.48084,7.71482-4.61657,2.30199-9.48532,.72656-12.87435-6.0697-1.56647-3.1419-2.36412-6.18669-2.36216-8.10916l2.50014-.7663c-5.01932-10.22671-11.76632-22.95469-15.03025-26.93146,1.50826-2.11307,5.70922-5.24854,9.10748-6.94291,8.59195-4.28436,12.53178-3.2866,16.08062,3.8304,3.00532,6.02716,7.06186,17.85477,8.46713,21.95777,5.64232-2.81361,11.02884-5.97986,13.88303-8.28353,1.34509,.61013,3.61769,2.75931,5.28016,6.09349Z" style="fill:#86643e;"/><path d="M291.74888,72.28811c-1.86734,2.1419-5.61993,4.72293-10.45901,6.04031-6.84356,1.86342-9.63309,.61797-12.23875-4.31571-1.72208,.76574-3.39407,1.44361-5.12231,1.91436-1.79737,.48923-3.72013,.79009-5.59279,1.0028,.30059,1.92304,.67059,3.82732,1.00308,5.59307-1.96754,1.50098-5.42458,3.25889-9.08817,4.25665-5.73804,1.56199-8.52086-.20487-9.29248-3.03919-1.16709-4.28604-1.89421-23.31993,.66051-30.84667l-.03778-.13826c-1.38259,.37615-2.1934,.67115-3.09208,.91604-.9485-.48447-2.10384-2.54604-2.83795-5.24182-1.6941-6.22167,1.39351-11.51779,11.76296-14.34091,7.53541-2.0515,14.47245-1.93563,18.45958,5.07249l1.03722-.28212c7.39659-2.014,12.14947,7.53317,21.48505,26.82203,1.84579,4.32382,2.93843,5.88274,3.35293,6.58691Zm-30.76186-8.2575c1.10607-.30115,2.30003-.5522,3.53177-.66471-2.103-4.99665-4.84663-10.7095-7.54129-13.24323-.25973,5.04591-.20543,10.1545,.12538,15.1881,1.20683-.47719,2.50154-.904,3.88414-1.28016Z" style="fill:#86643e;"/><path d="M316.86058,56.59231c.18724,4.65828,1.61181,11.15143,3.25217,14.31768-2.14834,1.76798-6.67703,3.45396-12.24491,3.93563-8.56592,.74111-11.6776-1.14722-12.17158-6.85783-.39519-4.56844-.41506-8.95355-.26197-11.34006-11.03444-2.85699-9.16234-18.62471-14.29109-28.03362,2.67619-2.31682,6.77667-3.96614,10.98798-4.33054,6.28184-.54324,10.14807,.92024,11.45537,6.05682,.97565,3.79905,1.81025,11.78171,4.18556,15.96308l.14274-.01231c2.95075-5.7929,4.44277-17.6443,3.03247-21.47778,2.86818-1.75819,5.52506-2.63532,9.1657-2.95019,5.63897-.48783,10.31515,1.19312,10.91409,8.11728,.71005,8.2088-4.80857,24.22001-14.16654,26.61184Z" style="fill:#86643e;"/><path d="M351.79093,63.83302c1.66135-8.87351,5.52198-22.87492,6.54241-25.59981l.03946-.21103c-1.70333-.24601-2.79933-.23258-3.26141-.10048-.15449-1.12231-.07585-3.87742,.30647-5.91968,1.2393-6.61994,6.28268-9.02884,13.53626-7.67087,6.54941,1.22614,9.71874,2.98601,12.51947,7.88386,1.47495,2.24406,4.58859,9.75204,7.49567,17.58552,.4923-2.24042,.81332-3.56536,1.48559-7.15702,.61993-3.30983,1.34005-8.71482,.58214-12.06411,1.94067-1.02155,5.29444-1.41422,10.29444-.47803,7.18333,1.34481,9.88694,5.20404,9.04283,9.71118-1.19955,6.40863-4.91548,18.4691-6.6163,27.55391-.94934,5.07054-1.34873,9.15059-.55164,11.12204-2.12539,2.00756-5.77806,3.21887-10.70782,2.29611-6.12679-1.14722-9.64401-3.77386-12.12372-9.99665-2.20207-5.36888-5.747-12.52003-7.61462-18.11785l-.07053-.01315c-1.2309,5.01764-3.76267,17.37282-3.05318,21.3689-2.548,.76211-5.88414,1.44976-10.46153,.59278-5.07054-.94934-8.75512-3.46152-7.384-10.78563Z" style="fill:#86643e;"/><path d="M412.73615,61.53075c3.41646-7.57656,12.4078-12.87519,21.06916-9.59839,4.20292-6.35741,12.08958-6.41674,19.2743-3.17689,13.78171,6.21439,20.06664,19.81615,13.82258,33.66335-6.53849,14.50016-22.42236,19.04872-38.62082,11.74449-13.7165-6.18529-22.02494-18.26283-15.54522-32.63256Zm32.66951,12.60931c3.15142-6.98881,2.50434-11.13184-.63084-12.5455-3.2004-1.44305-6.60314,.87378-9.75456,7.86259-3.35741,7.44613-2.97817,11.31124,.41814,12.84273,3.20068,1.44333,6.60958-.71369,9.96727-8.15982Z" style="fill:#86643e;"/><path d="M538.90396,127.00466c-8.68179,10.48588-25.36779,13.78647-33.61241,17.56453-3.49986-1.50238-5.81613-2.86202-9.569-5.96922-4.80129-3.97538-5.39575-9.21188-1.88637-16.25919-2.76603,1.43045-5.81725,2.53205-8.8514,3.2754-4.47104-1.00392-8.04507-2.75399-11.74281-5.81557-8.05738-6.67143-10.41815-13.37001-3.53653-24.60233,7.40135-12.19733,11.42711-21.32888,13.67508-29.88613,2.918,.1836,6.7568,1.50154,10.73021,4.7915,9.38204,7.76799,6.9835,17.96784-3.84607,31.04734l-2.46768,2.98041c-2.51302,3.03527-2.25245,4.18109-1.6454,4.68375,.99328,.82256,4.74924-.90484,10.64373-8.02408,4.38652-5.29808,8.38344-12.03528,9.42962-17.68068,2.86454,.69745,6.62329,2.78618,8.94124,4.70558,8.71957,7.21971,8.46097,15.28437-1.08928,26.81867-2.4674,2.98013-5.74196,6.03611-7.20432,7.80214-1.27932,1.54548-1.35013,2.41702-.46712,3.14834,2.37336,1.96474,9.25358-3.87322,13.68572-9.22671,4.3868-5.29808,7.25666-11.57292,7.96922-15.35462,2.21187,.24965,4.9583,1.3143,8.3798,4.1475,7.22979,5.98601,8.72405,14.29277,2.46376,21.85337Z" style="fill:#86643e;"/></g></g></g></g></g></svg>