<?xml version="1.0" encoding="UTF-8"?><svg xmlns="http://www.w3.org/2000/svg" xmlns:xlink="http://www.w3.org/1999/xlink" viewBox="0 0 2263.43994 2263.43994"><defs><style>.t{fill:#3f562a;}.u{stroke:#226135;stroke-width:3px;}.u,.v,.w,.x,.y{stroke-miterlimit:10;}.u,.x,.a`{fill:none;}.v{fill:#453131;}.v,.w,.x,.y{stroke:#000;}.v,.x{stroke-width:5px;}.aa{fill:url(#l);}.w{fill:#497015;stroke-width:.10341px;}.ab{isolation:isolate;}.ac{fill:url(#m);}.ad{fill:#597634;}.ae{filter:url(#r);}.af{fill:url(#f);}.ag{fill:#86643e;}.ah{fill:url(#p);}.ai{fill:url(#g);}.aj{fill:url(#i);}.ak{clip-path:url(#e);}.al{mix-blend-mode:multiply;opacity:.29;}.am{clip-path:url(#d);}.an{fill:url(#h);}.ao{fill:url(#n);}.ap{fill:url(#j);}.aq{fill:url(#o);}.y{stroke-width:10px;}.ar{fill:url(#q);}.as{fill:url(#k);}</style><clipPath id="d"><ellipse cx="1125.02882" cy="1132.78951" rx="1123.97835" ry="1126.32626" style="fill:none;"/></clipPath><clipPath id="e"><rect x="-1596.36974" y="-1565.78687" width="8452.00525" height="4764.18425" style="fill:none;"/></clipPath><linearGradient id="f" x1="2629.63289" y1="-1620.19267" x2="2629.63289" y2="2361.72428" gradientTransform="matrix(1, 0, 0, 1, 0, 0)" gradientUnits="userSpaceOnUse"><stop offset="0" stop-color="#6a724d"/><stop offset="1" stop-color="#dbb872"/></linearGradient><linearGradient id="g" x1="782.46553" y1="2844.88213" x2="800.1106" y2="-2419.23022" xlink:href="#f"/><linearGradient id="h" x1="2745.33631" y1="2851.47893" x2="2762.98141" y2="-2412.64375" xlink:href="#f"/><linearGradient id="i" x1="1499.5788" y1="2626.1995" x2="1593.68382" y2="-32.26736" gradientTransform="matrix(1, 0, 0, 1, 0, 0)" gradientUnits="userSpaceOnUse"><stop offset="0" stop-color="#635144"/><stop offset=".5929" stop-color="#405e45"/><stop offset="1" stop-color="#2e6646"/></linearGradient><linearGradient id="j" x1="289.81172" y1="1238.56977" x2="289.81172" y2="836.02328" gradientTransform="matrix(1, 0, 0, 1, 0, 0)" gradientUnits="userSpaceOnUse"><stop offset="0" stop-color="#823423"/><stop offset="1" stop-color="#009245"/></linearGradient><linearGradient id="k" x1="411.54972" y1="1242.89304" x2="411.54972" y2="884.92262" xlink:href="#j"/><linearGradient id="l" x1="506.42041" y1="1259.10383" x2="506.42041" y2="1061.70038" xlink:href="#j"/><linearGradient id="m" x1="2619.37976" y1="2379.70601" x2="2731.04928" y2="1263.01083" gradientTransform="matrix(1, 0, 0, 1, 0, 0)" gradientUnits="userSpaceOnUse"><stop offset="0" stop-color="#004826"/><stop offset="1" stop-color="#009245"/></linearGradient><linearGradient id="n" x1="2433.99207" y1="2637.35935" x2="2533.99229" y2="2072.65224" gradientTransform="matrix(1, 0, 0, 1, 0, 0)" gradientUnits="userSpaceOnUse"><stop offset="0" stop-color="#a25144"/><stop offset=".26543" stop-color="#85664d"/><stop offset=".75617" stop-color="#548a5c"/><stop offset="1" stop-color="#429962"/></linearGradient><linearGradient id="o" x1="3126.77681" y1="3135.19078" x2="-2.10572" y2="1591.29565" gradientTransform="matrix(1, 0, 0, 1, 0, 0)" gradientUnits="userSpaceOnUse"><stop offset="0" stop-color="#004223"/><stop offset="1" stop-color="#009245"/></linearGradient><linearGradient id="p" x1="-1076.68392" y1="3873.32348" x2="-1076.68392" y2="-1893.68793" gradientTransform="matrix(1, 0, 0, 1, 0, 0)" gradientUnits="userSpaceOnUse"><stop offset="0" stop-color="#292821"/><stop offset="1" stop-color="#16164f"/></linearGradient><linearGradient id="q" x1="-1234.86214" y1="1570.61338" x2="-1234.86214" y2="1482.29824" gradientTransform="translate(1557.5809 -1821.43343) rotate(-34.00984)" xlink:href="#p"/><filter id="r" filterUnits="userSpaceOnUse"><feOffset dx="0" dy="0"/><feGaussianBlur result="s" stdDeviation="15"/><feFlood flood-color="#86643e" flood-opacity="1"/><feComposite in2="s" operator="in"/><feComposite in="SourceGraphic"/></filter></defs><g style="isolation:isolate;"><g id="a"/><g id="b"><g id="c"><g><g style="clip-path:url(#d);"><g style="clip-path:url(#e);"><rect x="-1596.36974" y="-1565.78687" width="8452.00525" height="4764.18425" style="fill:url(#f);"/><g><polygon points="765.92776 2011.76282 129.38101 2011.76282 70.64442 878.23438 -209.71177 548.21977 -209.71177 395.16951 98.68004 629.52771 98.68004 -1565.78687 524.82144 -1565.78687 625.74967 -551.82893 1192.06916 -1283.60046 1091.14094 -1565.78687 1236.92615 -1565.78687 1337.85438 -1307.51456 1567.74645 -1565.78687 1797.63853 -1565.78687 676.21378 93.85183 765.92776 2011.76282" style="fill:url(#g);"/><path d="M2823.4368,1903.68607V893.2601L3411.40849,13.43341l-82.42594-158.09386-211.55991,329.93501-24.72778-673.61731h-115.39631l-16.48519,790.46929s-103.49034,359.148-137.37656,313.3237c-58.91386-79.66916,43.9605-1701.80019,43.9605-1701.80019l170.34694-479.43681h-390.14944l-164.85188,548.17327-263.763-548.17327h-115.39631l307.7235,891.85557-16.48519,2577.61726h428.61488Z" style="fill:url(#h);"/></g><path d="M-62.57256,1338.30693L103.27973-390.9155-171.56121-708.52779l23.69318-211.74152S98.5411-537.95823,131.71156-596.77532c33.17046-58.81709,37.9091-914.60547-85.29547-969.01141-123.20456-54.40594,270.10231,0,270.10231,0l28.43182,2904.09366H-62.57256Z" style="fill:#597634;"/><path d="M1938.03812,1334.62783s76.57872-53.69796,86.58149-18.85331c10.00277,34.84465,15.82745,54.46243,15.82745,54.46243,0,0,56.35164-55.59342,66.17422-11.81529,9.82258,43.77813,9.00393,63.26499,9.00393,63.26499,0,0,42.40119-37.55403,56.3546-10.29184,13.95341,27.26219-7.44004,58.84662-7.44004,58.84662,0,0,40.83352-19.88695,56.14277,8.32648,15.30925,28.21343-11.02397,46.62514-11.02397,46.62514,0,0,58.1434-3.21262,63.47183,29.64685,5.32843,32.85946-31.25104,44.72968-31.25104,44.72968,0,0,62.47636,10.82864,72.64033,42.5507,10.16397,31.72206-44.37651,41.34526-44.37651,41.34526,0,0,42.90041-5.49413,60.934,20.74785,18.03359,26.24198-24.27266,34.7415-24.27266,34.7415,0,0,30.81472-3.61911,41.07659,44.35004,10.26187,47.96915-47.58741,7.38288-47.58741,7.38288,0,0,59.00299,10.98031-10.45513,57.37841-69.45812,46.3981-525.4698-320.77442-525.4698-320.77442,0,0-67.6149-101.79711-34.98607-106.08486,32.62884-4.28776,39.22153,11.3389,39.22153,11.3389,0,0-29.88213-50.73315,6.2264-57.10954,36.10854-6.3764,40.37187,28.97149,40.37187,28.97149,0,0-17.57195-75.10042,14.86404-66.58075,32.43599,8.51966,35.19494,42.16496,35.19494,42.16496,0,0-1.39974-79.93261,29.23479-74.61824,30.63453,5.31437,43.54183,29.25409,43.54183,29.25409Z" style="fill:#3f562a;"/><path d="M1284.06191,1685.32775L1466.0148-396.79721s29.34724-85.28478-551.72812-1168.98965h90.97645l460.99868,757.27003,43.77385-757.27003h217.16958l143.80148,1035.18077,305.2113-784.47293-129.12786-250.70784h88.04172l55.75976,130.86802,76.30283-130.86802h114.45424L1894.48452,223.72308l-57.22712,1461.60467h-553.19548Z" style="fill:url(#i);"/><path d="M359.38618,1124.98751c-10.50222,49.32117-32.76798,87.21001-52.02736,112.96412-.09477,.12796-.19295,.25888-.28772,.38684-.05837,.07922-.11615,.15203-.17449,.2313-23.7187-22.46981-54.97519-58.83813-74.56973-110.97112-52.90069-140.75922,25.90821-272.15808,37.9773-291.57536,15.06302,16.76067,121.11042,138.55863,89.082,288.96424Z" style="fill:url(#j);"/><path d="M272.00619,900.98987l35.35262,336.96176c-.09477,.12796-.19295,.25888-.28772,.38684-13.70835-99.9953-32.58098-135.73291-35.0649-337.3486Z" style="fill:#497015; stroke:#000; stroke-miterlimit:10; stroke-width:.10341px;"/><path d="M425.72369,1176.06003c-35.53936,35.70725-74.76448,55.414-104.8909,66.56535-.1489,.05591-.30229,.11244-.4512,.16835-.09194,.03478-.17991,.06449-.27184,.09932-7.74639-31.77364-14.29368-79.32007-2.50668-133.76166,31.82878-146.98992,169.19808-214.46758,189.85306-224.20877,3.57012,22.27026,26.64679,182.24859-81.73244,291.13741Z" style="fill:url(#k);"/><path d="M473.69024,940.40832l-152.85744,302.21705c-.1489,.05591-.30229,.11244-.4512,.16835,42.65941-91.43484,46.17057-131.71464,153.30864-302.3854Z" style="fill:#497015; stroke:#000; stroke-miterlimit:10; stroke-width:.10341px;"/><path d="M450.42627,1255.6011c-49.68581,8.02074-92.98824,.91733-123.91348-7.76476-.15331-.04227-.31063-.08667-.46394-.12895-.09481-.02589-.18345-.05355-.27829-.07939,12.33007-30.28458,34.86594-72.6369,76.28589-109.79351,111.83561-100.31865,262.58415-74.19745,285.01382-69.94202-10.14789,20.13339-85.12581,163.25092-236.644,187.70864Z" style="fill:url(#l);"/><path d="M627.24057,1092.9724l-300.72778,154.86393c-.15331-.04227-.31063-.08667-.46394-.12895,88.07941-48.96261,114.50606-79.51672,301.19172-154.73499Z" style="fill:#497015; stroke:#000; stroke-miterlimit:10; stroke-width:.10341px;"/><path d="M-1596.36974,1355.95205S-905.24222,1038.33977,63.21671,1132.44711c968.45893,94.10734,2024.95959,552.88064,2024.95959,552.88064,0,0,745.41991,459.87308,2553.20992,171.11945,1807.79001-288.75363,2214.24929-59.36698,2214.24929-59.36698v1401.31716H-1596.36974V1355.95205Z" style="fill:url(#m);"/><path d="M2826.91854,2197.03348s3.7979-112.77416-36.60648-98.87752c-40.40438,13.89664-63.27502,21.52882-63.27502,21.52882,0,0,18.5056-93.98305-30.51324-73.79783-49.01883,20.18521-67.53928,34.32532-67.53928,34.32532,0,0,9.74559-67.79173-25.7608-63.00412-35.50639,4.78761-52.77084,47.63402-52.77084,47.63402,0,0-6.52068-54.15232-43.81826-50.06063-37.29758,4.09169-38.55132,42.83491-38.55132,42.83491,0,0-33.81486-59.93907-69.30865-42.75804-35.49379,17.18103-23.84363,61.62602-23.84363,61.62602,0,0-50.28855-54.63926-87.74428-43.03825-37.45573,11.60101-12.19459,72.34624-12.19459,72.34624,0,0-21.89766-46.36165-59.00041-46.32378-37.10276,.03787-18.51932,47.86487-18.51932,47.86487,0,0-16.0485-33.07708-69.4416-10.46187-53.3931,22.6152,23.03104,52.30801,23.03104,52.30801,0,0-48.2292-51.08614-49.41995,49.62418-1.19075,100.71032,647.40145,302.46327,647.40145,302.46327,0,0,142.44039-2.47124,125.89224-37.8072-16.54816-35.33596-36.00717-31.19603-36.00717-31.19603,0,0,68.56378-5.02072,51.84488-45.24078-16.71891-40.22006-53.96722-20.27945-53.96722-20.27945,0,0,84.54929-33.91074,55.60948-60.29616-28.93981-26.38542-63.56838-6.11522-63.56838-6.11522,0,0,78.99237-53.27604,54.32942-80.06454-24.66296-26.7885-56.25806-23.23425-56.25806-23.23425Z" style="fill:url(#n);"/><path d="M-1596.36974,3198.39738V1878.32133s2335.49008-165.42306,4013.78539,413.55766c1678.29531,578.98072,2566.78302-294.08545,4438.21986,289.49036v617.02803H-1596.36974Z" style="fill:url(#o);"/><g style="mix-blend-mode:multiply; opacity:.29;"><path d="M-3413.45304,3198.39738S-1750.44327,1763.75054,497.55587,2142.14048c1301.88176,219.13663,2022.39761,830.69603,6559.48098,685.3808" style="fill:none; stroke:#226135; stroke-miterlimit:10; stroke-width:3px;"/></g><polygon points="-1143.55302 3873.32348 -2017.53712 3873.32348 -2098.18296 2149.969 -2483.11439 1648.23289 -2483.11439 1415.54367 -2059.68982 1771.84903 -2059.68982 -1565.78687 -1474.59405 -1565.78687 -1336.01873 -24.22083 -558.45724 -1136.76613 -697.03256 -1565.78687 -496.86821 -1565.78687 -358.2929 -1173.12382 -42.64912 -1565.78687 329.74656 -1893.68793 -1209.97916 629.53572 -1143.55302 3873.32348" style="fill:url(#p);"/><path d="M1337.05667,221.03279s3.91302-173.7237,103.69363-147.45665c99.78061,26.26705-103.69363,147.45665-103.69363,147.45665Z" style="fill:url(#q);"/></g></g><g><path d="M651.22947,1312.5079c-32.38013-14.97998-58.90015-31.08008-80.37012-47.96973-159.32007-125.33984-40.48999-293.97021,25.79004-367.76025,15.45996-17.20996,39.42993-22.25977,59.8501-14.45996,5.97998,2.27002,11.6499,5.66016,16.70996,10.16016,266.87988,237.23975,80.06982,467.23975-21.97998,420.02979Z" style="stroke:#000; stroke-miterlimit:10; stroke-width:10px;"/><path d="M889.93943,1027.04794c-4.02002-3.16992-7.93018-6.33984-11.72998-9.50977-247.49023-205.91992-41.70996-389.33984,61.07983-460.22021,17.15015-11.81982,38.21021-13.70996,56.33008-6.90967,11.20996,4.20996,21.31006,11.72998,28.66992,22.29004,230.0603,329.94971-34.95996,532.84961-134.34985,454.34961Z" style="stroke:#000; stroke-miterlimit:10; stroke-width:10px;"/><path d="M1390.36912,1027.04794c-37.1499,29.3501-97.44971,19.37012-146.38965-21.87988-81.96021-69.06982-132.02002-225.85986,12.02979-432.46973,18.56006-26.6001,54.43994-33.97021,81.84033-17.42041,1.06982,.64014,2.11963,1.32031,3.15967,2.04004,104.37012,71.97021,314.93018,259.95996,49.35986,469.72998Z" style="stroke:#000; stroke-miterlimit:10; stroke-width:10px;"/><path d="M1627.12937,1312.5079c-30.33008,14.03027-68.14014,3.58008-99.30029-24.27002-73.70996-65.85986-110.25-229.02002,77.31055-395.75977,15.17969-13.5,35.81982-16.93994,53.76953-10.80029,8.49023,2.90039,16.37012,7.9502,22.79004,15.1001,75.22021,83.72998,218.09033,289.59033-54.56982,415.72998Z" style="stroke:#000; stroke-miterlimit:10; stroke-width:10px;"/><path d="M1214.97947,1652.26816c-70.97021-63.25-169.71021-4.62988-169.71021-4.62988-134.76978,48.81006-208.20996,40.0498-244.56982,3.02979-88.93018-90.54004,43.98999-350.16992,43.98999-350.16992,0,0,207.25-327.31006,423.81006-191.70996,55.68994,34.87012,112.00977,100.37012,165.56982,209.92969,248.16016,507.64014-205.77002,345.43018-219.08984,333.55029Z" style="stroke:#000; stroke-miterlimit:10; stroke-width:10px;"/><path d="M625.74949,1294.39804c-20.6001-9.52979-38.83008-19.50977-54.89014-29.85986-159.32007-125.33984-40.48999-293.97021,25.79004-367.76025,15.45996-17.20996,39.42993-22.25977,59.8501-14.45996,253.94995,234.39014,70.15991,458.76025-30.75,412.08008Z" style="fill:#86643e;"/><path d="M878.20945,1017.53818c-247.49023-205.91992-41.70996-389.33984,61.07983-460.22021,17.15015-11.81982,38.21021-13.70996,56.33008-6.90967,1.11011,1.32959,2.17993,2.72998,3.18994,4.17969,220.13013,315.70996-13,515.08984-120.59985,462.9502Z" style="fill:#86643e;"/><path d="M1364.88962,1008.93808c-30.91016,24.41016-77.84033,21.60986-120.91016-3.77002-81.96021-69.06982-132.02002-225.85986,12.02979-432.46973,18.56006-26.6001,54.43994-33.97021,81.84033-17.42041,108.22949,81.28027,274.75,258,27.04004,453.66016Z" style="fill:#86643e;"/><path d="M1601.64939,1294.39804c-22.41992,10.37012-48.93018,7.35986-73.82031-6.16016-73.70996-65.85986-110.25-229.02002,77.31055-395.75977,15.17969-13.5,35.81982-16.93994,53.76953-10.80029,75.84033,85.56006,212.2002,288.07031-57.25977,412.72021Z" style="fill:#86643e;"/><path d="M1189.49949,1634.15829c-70.97021-63.26025-169.71021-4.63037-169.71021-4.63037-108.66992,39.3501-177.45996,41.28027-219.08984,21.14014-88.93018-90.54004,43.98999-350.16992,43.98999-350.16992,0,0,207.25-327.31006,423.81006-191.70996,47.2998,37.73975,94.68994,98.94971,140.08984,191.81982,248.16992,507.62988-205.76025,345.41992-219.08984,333.55029Z" style="fill:#86643e;"/></g><path d="M2171.68994,1100.95996c0,623.6499-505.56982,1129.21973-1129.21973,1129.21973-112.26025,0-220.7002-16.37988-323.05005-46.88965C299.68018,2018.6001,2.5,1609.87012,2.5,1131.71973,2.5,508.06982,508.07007,2.5,1131.72021,2.5c112.25977,0,220.69971,16.37988,323.0498,46.88989,419.74023,164.67993,716.91992,573.42017,716.91992,1051.57007Z" style="fill:none; stroke:#000; stroke-miterlimit:10; stroke-width:5px;"/><path d="M2260.93994,1131.71973c0,623.65039-505.56982,1129.22021-1129.21973,1129.22021-145.5,0-284.58008-27.52002-412.30005-77.6499,102.34985,30.50977,210.78979,46.88965,323.05005,46.88965,623.6499,0,1129.21973-505.56982,1129.21973-1129.21973,0-478.1499-297.17969-886.89014-716.91992-1051.57007,466.22998,138.94995,806.16992,570.94019,806.16992,1082.32983Z" style="fill:#453131; stroke:#000; stroke-miterlimit:10; stroke-width:5px;"/><path d="M2171.68994,1100.95996c0,623.6499-505.56982,1129.21973-1129.21973,1129.21973-112.26025,0-220.7002-16.37988-323.05005-46.88965C299.68018,2018.6001,2.5,1609.87012,2.5,1131.71973,2.5,508.06982,508.07007,2.5,1131.72021,2.5c112.25977,0,220.69971,16.37988,323.0498,46.88989,419.74023,164.67993,716.91992,573.42017,716.91992,1051.57007Z" style="fill:none; stroke:#000; stroke-miterlimit:10; stroke-width:5px;"/></g><g><path d="M668.72496,326.57843c20.06836,29.4043,2.89941,62.43164-22.20996,79.56934-3.7998,2.59277-7.38086,4.79492-10.8584,6.44238,6.53125,8.85938,11.98047,15.06836,15.50391,17.74805-1.1084,5.11621-8.83301,14.02051-17.09277,19.6582-20.31934,13.86719-34.11133,10.68945-44.03223-3.84766-11.72656-17.17969-26.92578-42.64258-33.00879-56.16699-2.67969,3.52344-4.80371,7.15234-6.7627,10.66895-4.95801-1.94336-9.94043-6.0498-13.66113-11.50098-13.86719-20.31836-6.17969-42.75781,26.0332-64.74414,22.7959-15.55859,44.29688-22.72754,57.07227-11.10645,14.10938-8.41895,36.16309-5.55273,49.0166,13.2793Zm-44.32422,30.49414c-5.41211-7.92969-15.17676-8.04492-27.47656-1.58691,5.19434,8.32031,11.56836,18.01367,17.94238,27.70801,1.26953-.62402,2.59082-1.52637,3.74707-2.31543,8.58984-5.86328,11.7627-15.05078,5.78711-23.80566Z"/><path d="M804.27964,317.56379c7.50977,15.47461,7.7666,31.57812-10.7666,40.57324-14.21387,6.89844-28.27832,8.61133-41.5957,7.73828-2.79395,9.35938-8.60449,16.62598-18.32129,21.34082-12.95508,6.28809-26.49805,1.74512-35.75391-17.32812-4.2793-8.81641-6.41504-17.33984-6.35156-22.70605l7.00195-2.06348c-13.70508-28.69629-32.15723-64.42676-41.14941-75.62402,4.27344-5.85352,16.09277-14.48047,25.62988-19.1084,24.11035-11.70215,35.0791-8.79883,44.77148,11.17285,8.20898,16.91406,19.17773,50.05078,22.97852,61.54492,15.83398-7.68457,30.96387-16.36133,39-22.70703,3.73633,1.74316,10.01562,7.81055,14.55664,17.16699Z"/><path d="M953.51109,294.96027c-5.03223,6.13281-15.28809,13.64648-28.68164,17.72559-18.94141,5.76953-26.82812,2.52637-34.50977-11.02441-4.74121,2.28027-9.34961,4.31152-14.13281,5.76855-4.97461,1.51465-10.31543,2.51367-15.52344,3.26465,.99902,5.33984,2.19043,10.62305,3.26465,15.52246-5.36523,4.35254-14.86523,9.54492-25.00586,12.63379-15.87988,4.83691-23.79199,.1377-26.18164-7.70703-3.61328-11.8623-7.22559-64.91309-.72461-86.12793l-.11621-.38281c-3.82715,1.16504-6.06445,2.05566-8.55176,2.81348-2.6875-1.27246-6.08301-6.92871-8.35547-14.39062-5.24512-17.21973,2.92969-32.25391,31.62988-40.99512,20.85449-6.35156,40.22168-6.60547,51.93066,12.61816l2.87012-.87402c20.47266-6.23535,34.52832,20.00879,62.18457,73.05469,5.50977,11.91211,8.68848,16.1709,9.90332,18.10059Zm-86.52441-20.48047c3.06152-.93262,6.37207-1.73242,9.7998-2.14844-6.28418-13.76758-14.41504-29.48047-22.14453-36.32617-.30469,14.10156,.27148,28.35254,1.61426,42.37012,3.32715-1.43164,6.9043-2.73047,10.73047-3.89551Z"/><path d="M1021.24058,246.01496c1.38379,12.94043,6.55371,30.76172,11.70898,39.27734-5.65723,5.32227-17.95898,10.85742-33.37793,13.22852-23.7207,3.64941-32.73828-1.03418-35.1709-16.84766-1.94629-12.65137-2.8125-24.8623-2.82812-31.53711-31.26367-5.91602-28.9668-50.17969-44.99414-75.4375,7.02539-6.94922,18.14062-12.30176,29.80371-14.0957,17.39551-2.67578,28.43555,.68457,33.02734,14.75,3.4209,10.40137,7.22266,32.48047,14.6123,43.68652l.39551-.06055c7.14746-16.68066,9.10938-49.9668,4.47168-60.38281,7.66309-5.42871,14.90137-8.36328,24.9834-9.91406,15.61621-2.40234,28.95215,1.41406,31.90137,20.58887,3.49707,22.7334-8.91113,68.35059-34.5332,76.74414Z"/><path d="M1248.68394,282.92316c-6.7959,4.08984-18.97656,7.73047-32.96191,7.08398-19.77832-.91602-26.12207-6.61523-28.81543-21.95605-5.23047,.55859-10.25293,.92676-15.24805,.69629-5.19434-.24121-10.56055-1.08984-15.71777-2.12891-.84961,5.36621-1.49902,10.74121-2.12891,15.71777-6.51367,2.30078-17.2041,4.00879-27.79199,3.51855-16.58203-.76758-22.46094-7.84668-22.08203-16.03809,.57324-12.38672,14.95508-63.5752,28.19238-81.38184l.01855-.39941c-3.99609-.18555-6.40234-.09668-9-.2168-2.10449-2.09961-3.40723-8.56641-3.04688-16.3584,.83301-17.98047,13.57422-29.40332,43.54199-28.01562,21.77637,1.00781,40.10645,7.26172,44.69238,29.29688l2.99707,.13867c21.37598,.98926,25.82031,30.42578,34.08984,89.6709,1.19629,13.06934,2.76367,18.14648,3.26074,20.37207Zm-74.64453-48.30176c3.19629,.14746,6.58301,.50488,9.95215,1.26074-1.30469-15.07617-3.69727-32.60449-8.68457-41.64551-5.01465,13.18262-9.24805,26.80078-12.68359,40.45703,3.61426-.2334,7.41992-.25781,11.41602-.07227Z"/><path d="M1407.0941,260.16242c-7.54004,34.58594-40.87891,56.99805-88.55762,46.60352-45.5293-9.92676-68.70801-39.74805-59.97461-79.80566,5.07031-23.25293,21.70117-41.32422,49.07812-41.08691,8.58398-17.7793,27.8916-22.78125,54.07617-17.07227,32.4375,7.07227,48.0957,22.56348,44.30469,39.9541-1.66211,7.62109-6.18652,15.23145-9.63867,19.80078-7.19531-3.61621-24.73633-12.35254-38.41406-15.33496-26.77051-5.83691-37.80664,6.29004-41.59863,23.68164-3.70605,17,3.45801,29.20605,15.96387,31.93262,8.01074,1.74609,13.99414,.59473,18.50879-4.15234l-.58691-.12793c-12.89648-2.81152-19.79785-14.34668-16.81543-28.02441,1.53418-7.03516,4.70605-11.25586,8.47168-13.50488,4.8418,1.25977,18.82617,4.71875,26.05566,6.29492,9.37988,2.04492,17.28125,3.35742,24.31543,4.8916,13.67871,2.98242,17.87891,11.88086,14.81152,25.9502Z"/><path d="M1529.49742,369.96418c-7.77539,1.57031-20.47168,.9082-33.42676-4.39746-18.32227-7.50488-22.38281-15.00391-19.76758-30.35742-5.11523-1.23047-9.96973-2.57129-14.59668-4.46582-4.81152-1.9707-9.58105-4.57324-14.08984-7.28516-2.60254,4.76953-5.01953,9.61523-7.28418,14.09082-6.9082-.02051-17.55078-2.00195-27.35938-6.01953-15.36133-6.29199-18.52148-14.93457-15.41309-22.52246,4.69922-11.47461,35.4375-54.86035,53.88672-67.1875l.15137-.37012c-3.70117-1.51562-5.99805-2.24023-8.4043-3.22559-1.27734-2.68457-.33203-9.21387,2.62402-16.43164,6.82227-16.65625,22.66016-23.13672,50.42188-11.76562,20.17285,8.2627,35.33789,20.30957,32.25684,42.60449l2.77637,1.1377c19.80273,8.11133,14.10254,37.33008,1.99414,95.91113-3.26172,12.71191-3.49121,18.02148-3.76953,20.28418Zm-54.08789-70.56543c2.96094,1.21289,6.03125,2.68652,8.9502,4.53027,3.83496-14.63867,7.46875-31.95312,5.80762-42.14258-9.15039,10.73242-17.71289,22.1377-25.53418,33.84668,3.48242,.99414,7.0752,2.24902,10.77637,3.76562Z"/><path d="M1540.82847,358.56086c8.93359-15.85547,24.49707-38.99512,39.51758-65.65332,5.69434-10.10645,11.30273-22.09668,11.91895-30.93164,8.53027-.47363,21.44922,2.67383,34.69141,10.13477,18.99219,10.70117,22.9375,23.25391,14.78906,37.71582-9.12988,16.20508-33.32031,52.61816-42.4502,68.82227-10.1123,17.94727-12.3291,24.73242-13.13867,30.24512-6.77637-.60449-17.71191-4.01172-31.99902-12.06152-17.42383-9.81738-21.87012-23.1123-13.3291-38.27148Z"/><path d="M1611.18101,396.88605c15.25781-20.05664,42.4248-50.15234,48.38281-55.67188l.36328-.47754c-3.94141-2.74707-6.69238-4.08594-8.01074-4.33496,1.02051-2.99316,4.66699-9.76855,8.17871-14.38477,11.38281-14.96289,26.98145-14.65625,43.37695-2.18359,14.80371,11.26172,20.50684,19.62109,21.35938,35.34766,.86914,7.44629-.76562,30.07617-3.32422,53.25977,4.03418-4.97266,6.49414-7.87598,12.66992-15.99414,5.69141-7.48145,14.25781-20.06348,16.56152-29.36816,6.12109-.11816,14.97949,3.10254,26.28125,11.7002,16.23633,12.35156,18.14746,25.36523,10.39746,35.55273-11.01953,14.48535-35.39453,39.91992-51.01562,60.4541-8.71875,11.46094-14.8252,21.13965-15.30566,27.05664-7.81641,2.34668-18.44629,.79395-29.58887-7.68262-13.84863-10.53516-19.33398-21.49316-17.72656-40.12305,1.23047-16.15234,1.34277-38.43262,3.69434-54.7373l-.15918-.12109c-9.35547,10.97656-31.14551,38.62891-34.37988,49.4873-7.31152-1.29004-16.49512-3.75293-26.8418-11.62402-11.46094-8.71875-17.50684-19.60059-4.91309-36.15527Z"/></g><g style="filter:url(#r);"><path d="M656.32918,317.30396c20.06836,29.4043,2.89941,62.43164-22.20996,79.56934-3.7998,2.59277-7.38086,4.79492-10.8584,6.44238,6.53125,8.85938,11.98047,15.06836,15.50391,17.74805-1.1084,5.11621-8.83301,14.02051-17.09277,19.6582-20.31934,13.86719-34.11133,10.68945-44.03223-3.84766-11.72656-17.17969-26.92578-42.64258-33.00879-56.16699-2.67969,3.52344-4.80371,7.15234-6.7627,10.66895-4.95801-1.94336-9.94043-6.0498-13.66113-11.50098-13.86719-20.31836-6.17969-42.75781,26.0332-64.74414,22.7959-15.55859,44.29688-22.72754,57.07227-11.10645,14.10938-8.41895,36.16309-5.55273,49.0166,13.2793Zm-44.32422,30.49414c-5.41211-7.92969-15.17676-8.04492-27.47656-1.58691,5.19434,8.32031,11.56836,18.01367,17.94238,27.70801,1.26953-.62402,2.59082-1.52637,3.74707-2.31543,8.58984-5.86328,11.7627-15.05078,5.78711-23.80566Z" style="fill:#86643e;"/><path d="M791.88386,308.28931c7.50977,15.47461,7.7666,31.57812-10.7666,40.57324-14.21387,6.89844-28.27832,8.61133-41.5957,7.73828-2.79395,9.35938-8.60449,16.62598-18.32129,21.34082-12.95508,6.28809-26.49805,1.74512-35.75391-17.32812-4.2793-8.81641-6.41504-17.33984-6.35156-22.70605l7.00195-2.06348c-13.70508-28.69629-32.15723-64.42676-41.14941-75.62402,4.27344-5.85352,16.09277-14.48047,25.62988-19.1084,24.11035-11.70215,35.0791-8.79883,44.77148,11.17285,8.20898,16.91406,19.17773,50.05078,22.97852,61.54492,15.83398-7.68457,30.96387-16.36133,39-22.70703,3.73633,1.74316,10.01562,7.81055,14.55664,17.16699Z" style="fill:#86643e;"/><path d="M941.11531,285.68579c-5.03223,6.13281-15.28809,13.64648-28.68164,17.72559-18.94141,5.76953-26.82812,2.52637-34.50977-11.02441-4.74121,2.28027-9.34961,4.31152-14.13281,5.76855-4.97461,1.51465-10.31543,2.51367-15.52344,3.26465,.99902,5.33984,2.19043,10.62305,3.26465,15.52246-5.36523,4.35254-14.86523,9.54492-25.00586,12.63379-15.87988,4.83691-23.79199,.1377-26.18164-7.70703-3.61328-11.8623-7.22559-64.91309-.72461-86.12793l-.11621-.38281c-3.82715,1.16504-6.06445,2.05566-8.55176,2.81348-2.6875-1.27246-6.08301-6.92871-8.35547-14.39062-5.24512-17.21973,2.92969-32.25391,31.62988-40.99512,20.85449-6.35156,40.22168-6.60547,51.93066,12.61816l2.87012-.87402c20.47266-6.23535,34.52832,20.00879,62.18457,73.05469,5.50977,11.91211,8.68848,16.1709,9.90332,18.10059Zm-86.52441-20.48047c3.06152-.93262,6.37207-1.73242,9.7998-2.14844-6.28418-13.76758-14.41504-29.48047-22.14453-36.32617-.30469,14.10156,.27148,28.35254,1.61426,42.37012,3.32715-1.43164,6.9043-2.73047,10.73047-3.89551Z" style="fill:#86643e;"/><path d="M1008.8448,236.74048c1.38379,12.94043,6.55371,30.76172,11.70898,39.27734-5.65723,5.32227-17.95898,10.85742-33.37793,13.22852-23.7207,3.64941-32.73828-1.03418-35.1709-16.84766-1.94629-12.65137-2.8125-24.8623-2.82812-31.53711-31.26367-5.91602-28.9668-50.17969-44.99414-75.4375,7.02539-6.94922,18.14062-12.30176,29.80371-14.0957,17.39551-2.67578,28.43555,.68457,33.02734,14.75,3.4209,10.40137,7.22266,32.48047,14.6123,43.68652l.39551-.06055c7.14746-16.68066,9.10938-49.9668,4.47168-60.38281,7.66309-5.42871,14.90137-8.36328,24.9834-9.91406,15.61621-2.40234,28.95215,1.41406,31.90137,20.58887,3.49707,22.7334-8.91113,68.35059-34.5332,76.74414Z" style="fill:#86643e;"/><path d="M1236.28816,273.64868c-6.7959,4.08984-18.97656,7.73047-32.96191,7.08398-19.77832-.91602-26.12207-6.61523-28.81543-21.95605-5.23047,.55859-10.25293,.92676-15.24805,.69629-5.19434-.24121-10.56055-1.08984-15.71777-2.12891-.84961,5.36621-1.49902,10.74121-2.12891,15.71777-6.51367,2.30078-17.2041,4.00879-27.79199,3.51855-16.58203-.76758-22.46094-7.84668-22.08203-16.03809,.57324-12.38672,14.95508-63.5752,28.19238-81.38184l.01855-.39941c-3.99609-.18555-6.40234-.09668-9-.2168-2.10449-2.09961-3.40723-8.56641-3.04688-16.3584,.83301-17.98047,13.57422-29.40332,43.54199-28.01562,21.77637,1.00781,40.10645,7.26172,44.69238,29.29688l2.99707,.13867c21.37598,.98926,25.82031,30.42578,34.08984,89.6709,1.19629,13.06934,2.76367,18.14648,3.26074,20.37207Zm-74.64453-48.30176c3.19629,.14746,6.58301,.50488,9.95215,1.26074-1.30469-15.07617-3.69727-32.60449-8.68457-41.64551-5.01465,13.18262-9.24805,26.80078-12.68359,40.45703,3.61426-.2334,7.41992-.25781,11.41602-.07227Z" style="fill:#86643e;"/><path d="M1394.69832,250.88794c-7.54004,34.58594-40.87891,56.99805-88.55762,46.60352-45.5293-9.92676-68.70801-39.74805-59.97461-79.80566,5.07031-23.25293,21.70117-41.32422,49.07812-41.08691,8.58398-17.7793,27.8916-22.78125,54.07617-17.07227,32.4375,7.07227,48.0957,22.56348,44.30469,39.9541-1.66211,7.62109-6.18652,15.23145-9.63867,19.80078-7.19531-3.61621-24.73633-12.35254-38.41406-15.33496-26.77051-5.83691-37.80664,6.29004-41.59863,23.68164-3.70605,17,3.45801,29.20605,15.96387,31.93262,8.01074,1.74609,13.99414,.59473,18.50879-4.15234l-.58691-.12793c-12.89648-2.81152-19.79785-14.34668-16.81543-28.02441,1.53418-7.03516,4.70605-11.25586,8.47168-13.50488,4.8418,1.25977,18.82617,4.71875,26.05566,6.29492,9.37988,2.04492,17.28125,3.35742,24.31543,4.8916,13.67871,2.98242,17.87891,11.88086,14.81152,25.9502Z" style="fill:#86643e;"/><path d="M1517.10164,360.6897c-7.77539,1.57031-20.47168,.9082-33.42676-4.39746-18.32227-7.50488-22.38281-15.00391-19.76758-30.35742-5.11523-1.23047-9.96973-2.57129-14.59668-4.46582-4.81152-1.9707-9.58105-4.57324-14.08984-7.28516-2.60254,4.76953-5.01953,9.61523-7.28418,14.09082-6.9082-.02051-17.55078-2.00195-27.35938-6.01953-15.36133-6.29199-18.52148-14.93457-15.41309-22.52246,4.69922-11.47461,35.4375-54.86035,53.88672-67.1875l.15137-.37012c-3.70117-1.51562-5.99805-2.24023-8.4043-3.22559-1.27734-2.68457-.33203-9.21387,2.62402-16.43164,6.82227-16.65625,22.66016-23.13672,50.42188-11.76562,20.17285,8.2627,35.33789,20.30957,32.25684,42.60449l2.77637,1.1377c19.80273,8.11133,14.10254,37.33008,1.99414,95.91113-3.26172,12.71191-3.49121,18.02148-3.76953,20.28418Zm-54.08789-70.56543c2.96094,1.21289,6.03125,2.68652,8.9502,4.53027,3.83496-14.63867,7.46875-31.95312,5.80762-42.14258-9.15039,10.73242-17.71289,22.1377-25.53418,33.84668,3.48242,.99414,7.0752,2.24902,10.77637,3.76562Z" style="fill:#86643e;"/><path d="M1528.43269,349.28638c8.93359-15.85547,24.49707-38.99512,39.51758-65.65332,5.69434-10.10645,11.30273-22.09668,11.91895-30.93164,8.53027-.47363,21.44922,2.67383,34.69141,10.13477,18.99219,10.70117,22.9375,23.25391,14.78906,37.71582-9.12988,16.20508-33.32031,52.61816-42.4502,68.82227-10.1123,17.94727-12.3291,24.73242-13.13867,30.24512-6.77637-.60449-17.71191-4.01172-31.99902-12.06152-17.42383-9.81738-21.87012-23.1123-13.3291-38.27148Z" style="fill:#86643e;"/><path d="M1598.78523,387.61157c15.25781-20.05664,42.4248-50.15234,48.38281-55.67188l.36328-.47754c-3.94141-2.74707-6.69238-4.08594-8.01074-4.33496,1.02051-2.99316,4.66699-9.76855,8.17871-14.38477,11.38281-14.96289,26.98145-14.65625,43.37695-2.18359,14.80371,11.26172,20.50684,19.62109,21.35938,35.34766,.86914,7.44629-.76562,30.07617-3.32422,53.25977,4.03418-4.97266,6.49414-7.87598,12.66992-15.99414,5.69141-7.48145,14.25781-20.06348,16.56152-29.36816,6.12109-.11816,14.97949,3.10254,26.28125,11.7002,16.23633,12.35156,18.14746,25.36523,10.39746,35.55273-11.01953,14.48535-35.39453,39.91992-51.01562,60.4541-8.71875,11.46094-14.8252,21.13965-15.30566,27.05664-7.81641,2.34668-18.44629,.79395-29.58887-7.68262-13.84863-10.53516-19.33398-21.49316-17.72656-40.12305,1.23047-16.15234,1.34277-38.43262,3.69434-54.7373l-.15918-.12109c-9.35547,10.97656-31.14551,38.62891-34.37988,49.4873-7.31152-1.29004-16.49512-3.75293-26.8418-11.62402-11.46094-8.71875-17.50684-19.60059-4.91309-36.15527Z" style="fill:#86643e;"/></g></g></g></g></svg>