<?xml version="1.0" encoding="UTF-8"?><svg xmlns="http://www.w3.org/2000/svg" viewBox="0 0 1011.42996 657.30474"><g id="a"/><g id="b"><g id="c"><g><path d="M878.10988,3.07475c-3.75-1.25-63.95996-.36005-140.46997,1.32996-.27002,.01001-.53003,.01001-.79993,.02002-1.89001,.03998-3.78003,.08002-5.69006,.13-7.61987,.16998-15.38989,.34003-23.28003,.53003-3.93994,.08997-7.90991,.17999-11.8999,.27997-6.12012,.14001-12.30005,.28998-18.51001,.44-1.88,.04999-3.77002,.09003-5.67004,.14001-2.80994,.07001-5.64001,.14001-8.45996,.20996-2.10999,.05005-4.2301,.10004-6.34998,.15002-2.38013,.06-4.77002,.12-7.15002,.17999l-7.17004,.17999c-1.19995,.03003-2.38989,.06-3.58997,.09003-3.40002,.08997-6.78992,.17999-10.18005,.26001-3.77002,.09998-7.54004,.19995-11.29993,.28998-1.19006,.03003-2.38,.06-3.56995,.09003-9.32007,.25-18.59009,.48999-27.74005,.72998-1.13,.02997-2.26001,.06-3.38,.08997-1.40002,.04004-2.79004,.07001-4.17999,.11005-2.32001,.06-4.64001,.12-6.94,.17999-.42004,.01001-.84003,.02997-1.26001,.03998-1.88,.04999-3.75,.10004-5.62,.15002-6.66003,.17999-13.24005,.34998-19.70001,.52997-1.90002,.04999-3.79004,.10004-5.66998,.15002-.94,.02997-1.88,.04999-2.81,.08002-1.75,.04999-3.49005,.08997-5.21002,.13995-4.32001,.12-8.58002,.23004-12.78003,.35004-1.04999,.02997-2.08997,.06-3.13,.08997-.25995,.01001-.52997,.01001-.78998,.02002-2.84998,.08002-5.66998,.15002-8.45001,.22998-3.28998,.09003-6.53998,.17999-9.72998,.27002-4.65997,.13-9.21002,.25-13.63,.38-.35999,.01001-.72998,.02002-1.09003,.02997-2.16998,.06-4.31,.12006-6.41998,.18005-.46997,.00995-.94,.02997-1.40997,.03998-1.54999,.04999-3.09003,.08997-4.60999,.13-.46002,.02002-.92004,.02997-1.38,.03998-5.19,.14001-10.15002,.28003-14.86005,.41998l-1.10999,.03003c-.96997,.03003-1.91998,.04999-2.87,.08002-2.59998,.07001-5.13,.14996-7.56,.21997-1.83002,.04999-3.59998,.10004-5.33002,.15002-.57001,.01001-1.13995,.02997-1.70001,.04999-1.68994,.04999-3.32996,.09003-4.90997,.14001-.21002,.01001-.40997,.01001-.60999,.01996-.60999,.02002-1.21002,.03003-1.79999,.05005-1.24005,.03998-2.44,.07001-3.61005,.09998-.94995,.03003-1.88,.06-2.77997,.08002-3.16998,.09998-6.01001,.17999-8.5,.25-.35004,.01001-.69,.01996-1.02002,.02997-.22998,.01001-.45001,.01001-.66998,.02002-.29999,.01001-.59003,.02002-.88,.02002-.04999,.00995-.10999,.00995-.15997,.00995-.69,.02002-1.34003,.04004-1.95001,.06006-.79004,.01996-1.53003,.03998-2.20001,.06-.32001,.00995-.63,.01996-.92999,.02997-.38,.01001-.73004,.02002-1.07001,.03003-.32001,.00995-.60999,.01996-.89001,.01996-.70996,.03003-1.27002,.04004-1.69,.04999-.17999,.01001-.33002,.01001-.45996,.02002h-.07001c-.23004,.01001-.35004,.01001-.35004,.01001L58.13997,241.85472,4.10994,277.96471s-7.33997,7.34003,0,14c.14001,.13,.46002,.24005,.96002,.35004h.01001c4.76996,.98999,26.03998,.78998,57.28998-.22003,.16998,0,.34003-.00995,.51001-.00995,10.90002-.35004,23.01001-.80005,36.03998-1.32001,.20001,0,.41003-.01001,.61005-.03003,144.51996-5.81,402.12994-20.98999,402.12994-20.98999L809.28993,64.18474l72.81995-48.66003s6.66016-8.88995-4-12.44995ZM414.05995,45.29473c1.52002-.02997,3.07001,.08002,4.63,.35004,.40997,.06995,.81,.14996,1.21002,.23999-1.99005,.45001-3.91003,1.14996-5.71002,2.06-6.71002,3.41998-11.78003,9.84998-13.14001,17.83997-2.01001,11.75,4.66003,22.98004,15.38,27.11005,1.13,.44,2.32001,.79999,3.54004,1.06995-1.13,.25-2.28003,.43005-3.46002,.5-2,.18005-4.04999,.09003-6.10999-.25995-13.41003-2.29004-22.42004-15.01001-20.14001-28.42004,2.02002-11.84998,12.20001-20.26996,23.79999-20.48999Z" style="fill:#ffc38a;"/><path d="M936.28004,145.00475c-.62012,4.28998-3.1001,8.14996-6.68018,10.95996-.17993,.14001-.35986,.28003-.54993,.41003-.54993,.40997-1.13,.79999-1.72998,1.14996-3.19006,1.89001-6.98999,3.03003-11,3.11005-6.26001,.13-11.89001,.52997-16.97998,1.17999-44.96008,5.77997-46.59998,31.12-49.56995,56.38-.72009,4.39001-1.82007,9.53998-3.48999,15.04999-1.12012,3.70001-2.5,7.56-4.20007,11.47998-10.82996,25.02002-34.62,52.14001-86.80994,51.28003-1.75-.03003-3.54004-.08002-5.36011-.17999-.67993-.03003-1.35999-.07001-2.05005-.11005-6.43994-.40997-13.28992-1.22998-20.55994-2.5-4.26001-.44995-8.55994-.58997-12.83997-.28998-1.86011,.13-3.69995,.27002-5.5,.44-96.81006,8.62-115.84009,62.54999-130.53003,95.97003-1.34998,3.06-2.65997,5.95996-3.98999,8.62-2.89001,5.78998-5.87,10.52997-9.52002,13.69995-.59998,.53003-1.20996,1.05005-1.78998,1.61005-41.34003,40.32001-79.13,48.57001-107.59998,45.96997-19.60004-1.77997-34.78003-8.71002-43.65002-13.84998-4.79999-2.79004-8.98999-6.51001-12.38-10.91003-2.02997-2.63995-4.95001-6.15997-8.79999-10.19-8.95001-9.35999-22.95001-21.45996-42.62-31.52997-17.04999-8.73004-38.35004-15.94-64.32001-18.51001-1.91003-.19-3.82001-.45001-5.72998-.73999-.88-.14001-1.75-.26001-2.62006-.38-8.88995-1.19-17.29999-1.34003-25.31-.66003-57.77997,4.91003-94.28998,53.73004-132.76996,77.73004-16.94,14.37-36.59003,18.66998-54.87,16.20001-14.47003-1.94-28.08002-8.13-38.83002-16.90002-10.94-8.92999-18.90997-20.53003-21.78003-33.08002-7.81995-20.70001,11.01001-52.92999,21.84003-68.95001,4.03998-5.98999,6.96997-9.70996,6.96997-9.70996l143.20001-5.26001,309.62-11.38,19.17999-.70001,233.05005-158.89996,6.72998-4.59003,140.89001-96.04999,10.44006-7.12c44.27991,33.34998,45.58984,70.14001,42.51001,91.25Z" style="fill:#f39642;"/><path d="M917.07997,145.00475c-1.16003,8-8.76001,14.47998-17.91003,15.5-.67993,.07001-1.35999,.12-2.05005,.13-61.59985,1.22998-63.25,29.44-66.54993,57.56-3.89001,23.66998-18.72998,69.14001-75.15002,76.73999-1.75,.23999-3.55005,.44-5.38,.59998-.71997,.07001-1.44995,.13-2.18005,.17999-11.35986,.80005-24.26001,.15002-38.8999-2.34998-.29004-.04999-.58008-.09998-.87-.15002-4.26001-.44995-8.55994-.58997-12.83997-.28998-130.56006,9.04999-125.50006,97.84003-149.54004,118.72998-.60004,.53003-1.21002,1.05005-1.78003,1.61005-32.62,31.82001-63.03998,43.65997-88.39996,45.96997-19.60004-1.77997-34.78003-8.71002-43.65002-13.84998-4.79999-2.79004-8.98999-6.51001-12.38-10.91003-2.02997-2.63995-4.95001-6.15997-8.79999-10.19-8.95001-9.35999-22.95001-21.45996-42.62-31.52997-17.04999-8.73004-38.35004-15.94-64.32001-18.51001-1.91003-.19-3.82001-.45001-5.72998-.73999-.88-.14001-1.75-.26001-2.62006-.38-8.88995-1.19-17.29999-1.34003-25.31-.66003-69.23999-5.75-109.40997,51.18005-151.97998,77.73004-11.10999,9.41998-23.37,14.51001-35.65997,16.20001-14.47003-1.94-28.08002-8.13-38.83002-16.90002-10.94-8.92999-18.90997-20.53003-21.78003-33.08002-7.81995-20.70001,11.01001-52.92999,21.84003-68.95001,4.03998-5.98999,6.96997-9.70996,6.96997-9.70996l143.20001-5.26001,309.62-11.38,19.17999-.70001,233.05005-158.89996,6.72998-4.59003,140.89001-96.04999c35.68005,31.34998,36.59998,64.51001,33.75,84.13Z" style="fill:#ffb345;"/><path d="M667.67995,536.28472c-12.21997,15.87-28.42993,27.40002-48.57007,21.91003-6.13989-1.67999-12.12988-2.79999-17.93994-3.48004-40.78998-4.76996-72.35999,12.68005-82.32001,19.06-.89996,.58002-1.62994,1.07001-2.16998,1.44-.62,.43005-1.26001,.82001-1.92999,1.19-10.63,6.01001-31.46997,48.54004-96.09003,20.46002-69.44995-30.19-140,5.33002-140,5.33002,0,0-68.88995,37.32996-84,6.66998-6.39996-12.98999-14.78998-20.54999-23.91998-24.15002-10.41998-4.10999-21.81-3.04999-32.31,1.01001-2.02997,.79004-4.02997,1.69-5.98999,2.69-14.70001,7.51001-35.97998,8.38-47.28998,8.23999-4.32001-.04999-8.58002-.97998-12.5-2.72998-1.08002-.47998-2.14001-1.02002-3.16003-1.63-30.26996-17.90997-16.54999-36.40997-4.64001-46.41998-6.38995,10.03998-6.97998,23,14.41003,35.65997,4.75,2.81,10.14996,4.29004,15.65997,4.36005,2,.01996,4.32001,.01996,6.86005-.05005,.37-.00995,.73999-.01996,1.12-.03998,11.69995-.40002,27.59998-2.15997,39.32001-8.15002,16.98999-8.66998,37.5-10,52.68994,6.30005,3.5,3.73999,6.71002,8.41998,9.53003,14.14996,15.10999,30.66003,84-6.66998,84-6.66998,0,0,12.69-6.39001,32.60999-11.45001,20.95001-5.31,49.89001-9.15997,80.47003-2.52997,8.88995,1.92999,17.90997,4.73999,26.91998,8.64996,50.26001,21.85004,74.03998,.96002,87.13-12.22998,3.72998-3.76001,6.59998-6.90002,8.96002-8.22998,.65997-.37006,1.31-.76001,1.92999-1.19,6.69995-4.62,42.47998-27.29004,89.40991-19.82001,4.25,.66998,8.59009,1.58997,13.01001,2.79999,15.17004,4.14001,28.11011-1.38,38.80005-11.15002Z" style="fill:#cadb9a;"/><path d="M844.95998,400.99474c-16.28003,23.98999-43.64001,23.35999-52.40002,22.46997-1.77991-.19-2.78992-.37994-2.78992-.37994-38.92017-.38-61.79004,9.71997-75.22009,21.37,10.83997-15.34003,34.29993-32.63,85-32.13,0,0,3.22009,.60999,8.26001,.67999,9.18005,.13,24.41003-1.54004,37.15002-12.01001Z" style="fill:#cadb9a;"/><path d="M957.64992,245.39476c-8.47998,7.45996-24.12988,20.00995-47.66992,34.28998l47.66992-34.28998Z" style="fill:none; stroke:lime; stroke-miterlimit:10;"/><path d="M991.81996,293.35472c-7.28003,11.04004-19.98999,20.64001-42.12,22.35004-2.52002,.19995-5.16003,.28998-7.92993,.26996-29.02002-.20001-46.83008,6-59.17017,16.69,12.44006-17.15997,31.24011-27.70996,68.95007-27.45001,5.54004,.04004,10.56995-.37,15.13-1.15997,10.76001-1.84003,18.92993-5.73999,25.14001-10.70001Z" style="fill:#cadb9a;"/><path d="M909.90993,279.72472l-344.57996,247.79999-456.27002,10.04004-.02002-.81,.48004-.16998c2.09998-.20001,4.23999-.42004,6.40997-.67004h.01001c16.60999-1.87,35.32001-5.07996,55.58002-11.28998,15.53998-4.78003,31.98999-11.32001,49.12-20.41003,4.65997,9.08002,10.87,15.42004,19.13,15.54004,26.95996,.39996,110.28998-1.04004,156.59998-24.39001h153.73999l55.22003-46.16998c45.84998-15.98004,98.03992-39.03003,154.21997-72.33002,5.13-4.21997,13.92004-9.57001,11.06995-32.77002,.54004,.22003,1.09009,.42004,1.65015,.60004,25,6.82996,105.85986-45.69,137.63989-64.97003Z" style="fill:#ffdfac;"/><path d="M999.08998,276.78472c-1.14001,4.31-2.82996,8.88-5.30005,13.33002-.60999,1.09003-1.25989,2.16998-1.96997,3.23999-6.21008,4.96002-14.38,8.85999-25.14001,10.70001-4.56006,.78998-9.58997,1.20001-15.13,1.15997-37.70996-.25995-56.51001,10.29004-68.95007,27.45001-13.43994,11.63-20.37988,28.59003-28.21997,48.41003-1.06995,2.69-2.1499,5.44-3.27002,8.22998-1.7699,4.42999-3.84985,8.31-6.1499,11.69-12.73999,10.46997-27.96997,12.14001-37.15002,12.01001-5.03992-.07001-8.26001-.67999-8.26001-.67999-50.70007-.5-74.16003,16.78998-85,32.13-17.83997,15.5-19,33.73999-19,33.73999,0,0-1.71997,6.26996-5.15002,15.32996-4.56995,12.05005-12.1499,29.03003-22.71997,42.76001-10.68994,9.77002-23.63,15.29004-38.80005,11.15002-4.41992-1.21002-8.76001-2.13-13.01001-2.79999-46.92993-7.47003-82.70996,15.20001-89.40991,19.82001-.62,.42999-1.27002,.81995-1.92999,1.19-2.36005,1.32996-5.23004,4.46997-8.96002,8.22998-13.09003,13.19-36.87,34.08002-87.13,12.22998-9.01001-3.90997-18.03003-6.71997-26.91998-8.64996-30.58002-6.63-59.52002-2.78003-80.47003,2.52997-19.91998,5.06-32.60999,11.45001-32.60999,11.45001,0,0-68.89001,37.33002-84,6.66998-2.82001-5.72998-6.03003-10.40997-9.53003-14.14996-15.18994-16.30005-35.69995-14.97003-52.68994-6.30005-11.72003,5.99005-27.62006,7.75-39.32001,8.15002-.38,.02002-.75,.03003-1.12,.03998-2.54004,.07001-4.86005,.07001-6.86005,.05005-5.51001-.07001-10.90997-1.55005-15.65997-4.36005-21.39001-12.65997-20.79999-25.62-14.41003-35.65997,5.61005-4.72998,10.81-7.57001,10.81-7.57001l33.40002-.73999,456.27002-10.04004,344.57996-247.79999h.01001c.02002-.01001,.04004-.01996,.06006-.03998,22.10896-15.90344,38.45996-27.6011,47.66992-34.28998l.01001-.01001,16.05005-11.54004c19.09998,4.33002,30.40991,24.01001,25.38,42.94Z" style="fill:#80b952;"/><path d="M601.16994,554.71471l-25.16998,17.26001-57.15002,1.79999c9.96002-6.37994,41.53003-23.82996,82.32001-19.06Z" style="fill:#ffc38a;"/><path d="M792.55995,423.46471l-94.56995,64.85004-7.59009,5.20996c3.43005-9.06,5.15002-15.32996,5.15002-15.32996,0,0,1.16003-18.23999,19-33.73999,13.43005-11.65002,36.29993-21.75,75.22009-21.37,0,0,1.01001,.18994,2.78992,.37994Z" style="fill:#ffc38a;"/><path d="M949.69997,315.70476l-87.76001,60.17999-7.56006,5.19c7.84009-19.82001,14.78003-36.78003,28.21997-48.41003,12.34009-10.69,30.15015-16.89001,59.17017-16.69,2.7699,.02002,5.40991-.07001,7.92993-.26996Z" style="fill:#ffc38a;"/><path d="M1008.56996,314.66472c-39.18005-.82996-47.46008,30.53003-47.46008,30.53003,0,0-6.77991,16.85999-24.44995,29.45996-8.03003,5.72003-18.31006,10.56-31.21997,12.54004-41.33008,6.32996-59.66992,38.32996-63,54.66998-.92993,4.53998-4.19995,7.91998-8.43994,10.41998-3.01001,1.78003-6.51001,3.12-10,4.12-6.87012,1.99005-13.71008,2.70001-16.83008,2.93005-1.28003,.09998-2.56006,.25995-3.82996,.50995-46.38,9.25-65.14001,33.73004-71.38,58.78003-1.98999,7.97998-2.71997,16.02002-2.65002,23.64996l-39.90002,29.17004-.81006,.58997-33.54993,24.54004-8.41003,6.14996-74.63995,54.58002-100.88-2.12c-24.69-11.45001-47.25-14.39001-66.51001-13.70001-28,1-53.32996-6.33002-53.32996-6.33002,0,0-50.67004-15-91.67004-2.66998-41,12.34003-83.65997,1.34003-83.65997,1.34003-39.67999-31.20001-69.41003-17.81-88.33002,1.07001l-1.83002-5-2.54999-6.98004-10.58997-28.98999c3.91998,1.75,8.17999,2.67999,12.5,2.72998,11.31,.14001,32.58997-.72998,47.28998-8.23999,1.96002-1,3.96002-1.89996,5.98999-2.69,10.5-4.06,21.89001-5.12,32.31-1.01001,9.13,3.60004,17.52002,11.16003,23.91998,24.15002,15.11005,30.65997,84-6.66998,84-6.66998,0,0,70.55005-35.52002,140-5.33002,64.62006,28.08002,85.46002-14.45001,96.09003-20.46002,.66998-.37,1.31-.75995,1.92999-1.19,.54004-.37,1.27002-.85999,2.16998-1.44l57.15002-1.79999,25.16998-17.26001c5.81006,.68005,11.80005,1.80005,17.93994,3.48004,20.14014,5.48999,36.3501-6.04004,48.57007-21.91003,10.57007-13.72998,18.15002-30.70996,22.71997-42.76001l7.59009-5.20996,94.56995-64.85004c8.76001,.89001,36.12,1.52002,52.40002-22.46997,2.30005-3.38,4.38-7.26001,6.1499-11.69,1.12012-2.78998,2.20007-5.53998,3.27002-8.22998l7.56006-5.19,87.76001-60.17999c22.13-1.71002,34.83997-11.31,42.12-22.35004,.96008-.76996,1.87-1.56,2.73999-2.38,7.43005,8.37,11.65002,16.60004,14.01001,23.69Z" style="fill:#d9a264;"/><path d="M1008.56996,314.66475c.6,1.79,1.08,3.52,1.46,5.15,1.11,4.76,1.4,8.77,1.4,11.63v.01c0,3-.32,4.74-.32,4.74l-39.43,28.84-104.81,76.64-89.73,65.62-47.83,34.98" style="fill:none;"/><polyline points="87.61996 634.89475 92.10996 647.19475 444.76996 654.62475 471.11996 655.18475" style="fill:none;"/><path d="M412.29106,12.53472c-7.29999,.21002-11.32001,.33002-11.32001,.33002l-.64996,.42999L59.00108,241.41472C391.62107,274.83476,643.71098,200.93474,737.50102,4.40471c.07007-.13995,.13013-.27997,.20007-.41998-120.80005,2.66003-281.77002,7.28003-325.41003,8.54999Zm4.08002,81.92999c-2,.18005-4.04999,.09003-6.10999-.25995-13.41003-2.29004-22.42004-15.01001-20.14001-28.42004,2.02002-11.84998,12.20001-20.26996,23.79999-20.48999,1.52002-.02997,3.07001,.08002,4.63,.35004,.40997,.06995,.81,.14996,1.21002,.23999-1.99005,.45001-3.91003,1.14996-5.71002,2.06-6.71002,3.41998-11.78003,9.84998-13.14001,17.83997-2.01001,11.75,4.66003,22.98004,15.38,27.11005,1.13,.44,2.32001,.79999,3.54004,1.06995-1.13,.25-2.28003,.43005-3.46002,.5Z" style="fill:#ffdfa9;"/><path d="M275.40993,373.12474c-43.73999,30.96002-59.75,52.52002-65.12,65.96002-.96997,2.41998-1.59998,4.57996-1.96997,6.47998-.13,.59998-.22003,1.16998-.28998,1.71997-.19,.10004-.38,.19-.57001,.27002-.25,.13-.5,.25-.75,.35999-47.01001,22.14001-109.46002,26.19-179.89001,20.85999-1-.62-1.78998-1.19995-2.38-1.71997-5.40002-4.73999-3.52002-12.03998-.81-17.56,10.75,8.77002,24.35999,14.96002,38.83002,16.90002,18.27997,2.46997,37.92999-1.83002,54.87-16.20001,38.47998-24,74.98999-72.82001,132.76996-77.73004,8.01001-.67999,16.42004-.52997,25.31,.66003Z" style="fill:#df4949;"/><path d="M208.41996,456.79475c-.11,.05-.21,.09-.32,.13" style="fill:none; stroke:red; stroke-miterlimit:10;"/><path d="M220.63997,504.21471c-39.63,25.28003-111.60004,32.54004-111.60004,32.54004h-.03998c-15.37,.39001-28.06,1.14996-36.34998,.03998-20.03003-2.67999-31.72003-11.37-35.37-15.64001-.82001-.95996-1.40002-2.08997-1.70001-3.31l-12.14001-49.32001c1.13,.09003,2.26001,.18005,3.38,.25,15.26001,9.55005,77.96002,29.26001,181.27997-11.84998,.36005,2.03003,.73004,4.09003,1.17004,6.16998,0,.02002,.01001,.04004,.01001,.06,0,.02002,.00995,.05005,.00995,.07001,1.94,13.26001,5.37,29.36005,11.35004,40.98004v.00995Z" style="fill:#b93427;"/><path d="M407.40993,484.83476c-4.48999,4.84998-8.92999,9.45996-11.03998,10.52997-46.31,23.34998-129.64001,24.78998-156.59998,24.39001-8.26001-.12-14.47003-6.46002-19.13-15.54004v-.00995c-5.98004-11.62-9.41003-27.72003-11.35004-40.98004,0-.01996-.00995-.04999-.00995-.07001,0-.01996-.01001-.03998-.01001-.06-.32001-2.19-.60004-4.29999-.85004-6.29999,.23004-.08002,.46002-.17999,.69-.27002,0,0-.79999-1.21997-1.13995-3.76996-.01001-.02002-.01001-.04004-.01001-.06-.02002-.15002-.03003-.29004-.05005-.42999-.13995-1.34003-.14996-3,.12006-4.98004,.29999-.13995,.59998-.27997,.89996-.42999,2.17999,4.17999,5.96002,7.39001,10.92999,9.79999,33.25,16.14001,119.48004-3.31995,131.42004-6.13,6.75995,14.03003,19.78998,26.21002,43.37994,31.98004h.01001c.01001,0,.02002,0,.02002,.01001,.03998,.01996,.07001,.02997,.09998,.03998h.02002v-.01001h.01001c.63,.15002,1.25,.29004,1.89001,.44,.87,.19,1.76001,.38,2.65997,.54999,2.56,.51001,5.23999,.94,8.03998,1.30005Z" style="fill:#68a94e;"/><path d="M207.96996,452.75475c.13,1.28,.28,2.63,.45,4.04" style="fill:none; stroke:#006837; stroke-miterlimit:10;"/><path d="M207.90996,452.26475c-.18-1.7-.33-3.28-.45-4.71" style="fill:none; stroke:#006837; stroke-miterlimit:10;"/><path d="M208.09993,456.92473c-103.31995,41.10999-166.01996,21.40002-181.27997,11.84998,70.42999,5.33002,132.88,1.28003,179.89001-20.85999,.39996,2.87,.84998,5.90002,1.38995,9.01001Z" style="fill:#f8706f;"/><path d="M346.99995,438.51476c-19.26001,4.39996-112.71997,24.25-136.71002,.57001,5.37-13.44,21.38-35,65.12-65.96002,.87006,.12,1.74005,.23999,2.62006,.38,1.90997,.28998,3.81995,.54999,5.72998,.73999,25.96997,2.57001,47.27002,9.77997,64.32001,18.51001-1.45001,6.13-2.82001,13.94-3.17004,22.40997-.31,7.48999,.17004,15.5,2.09003,23.35004Z" style="fill:#adbe51;"/><path d="M351.27998,450.52471c-11.94,2.81006-98.17004,22.27002-131.42004,6.13-4.96997-2.40997-8.75-5.62-10.92999-9.79999-.21997-.41998-.41998-.84998-.60999-1.28998,.37-1.90002,1-4.06,1.96997-6.47998,23.99005,23.67999,117.45001,3.82996,136.71002-.57001,1,4.07996,2.40002,8.12,4.28003,12.00995Z" style="fill:#d0e0a1;"/><path d="M750.03996,295.53475c-.05,.1-.09,.19-.13,.29" style="fill:none; stroke:red; stroke-miterlimit:10;"/><path d="M390.69997,424.28472c-17.19,1.85004-34.54004-4.03998-45.79004-9.12,.35004-8.46997,1.72003-16.27997,3.17004-22.40997,19.66998,10.07001,33.66998,22.16998,42.62,31.52997Z" style="fill:#de4a4a;"/><path d="M965.32997,238.19475s-2.5,2.64996-7.67004,7.19l-.01001,.01001-47.66992,34.28998c-.02002,.02002-.04004,.02997-.06006,.03998h-.01001c-31.78003,19.28003-112.63989,71.79999-137.63989,64.97003-.56006-.17999-1.11011-.38-1.65015-.60004v-.00995c-14.94995-5.89001-18.67993-22.25-16.46997-39.75,.01001-.01001,.01001-.02002,.01001-.03003v-.01001c.3501-2.77997,.72998-5.54999,1.11011-8.27997v-.01001c52.18994,.85999,75.97998-26.26001,86.80994-51.28003,23.43005-5.75,113.70996-31.88995,89.46997-88.31,0,0,39.10999,42.22003,33.78003,81.78003Z" style="fill:#68a94e;"/><path d="M966.35368,239.17514s-2.5,2.64996-7.67004,7.19l-.01001,.01001-47.66992,34.28998c-.02002,.02002-.04004,.02997-.06006,.03998h-.01001c-31.78003,19.28003-112.63989,71.79999-137.63989,64.97003-.56006-.17999-1.11011-.38-1.65015-.60004v-.00995c-14.94995-5.89001-18.67993-22.25-16.46997-39.75,.01001-.01001,.01001-.02002,.01001-.03003v-.01001c.3501-2.77997,.72998-5.54999,1.11011-8.27997v-.01001c52.18994,.85999,75.97998-26.26001,86.80994-51.28003,23.43005-5.75,113.70996-31.88995,89.46997-88.31,0,0,39.10999,42.22003,33.78003,81.78003Z" style="fill:#68a94e;"/><path d="M759.54994,376.86473c-56.18005,33.29999-108.37,56.34998-154.21997,72.33002-110.10004,38.37-183.60999,35.92999-188,36.56-3.46002-.20001-6.77002-.51001-9.92004-.91998-2.79999-.36005-5.47998-.79004-8.03998-1.30005-.89996-.16998-1.78998-.35999-2.65997-.54999-.64001-.14996-1.26001-.28998-1.89001-.44h-.01001c-.03998-.01001-.07001-.02997-.12-.02997,0-.01001-.01001-.01001-.02002-.01001h-.01001c-23.58997-5.77002-36.62-17.95001-43.37994-31.98004-1.88-3.88995-3.28003-7.92999-4.28003-12.00995-1.91998-7.85004-2.40002-15.86005-2.09003-23.35004,11.25,5.08002,28.60004,10.97003,45.79004,9.12,3.84998,4.03003,6.77002,7.55005,8.79999,10.19,3.39001,4.40002,7.58002,8.12,12.38,10.91003,8.87,5.13995,24.04999,12.07001,43.65002,13.84998,28.46997,2.60004,66.25995-5.64996,107.59998-45.96997,.58002-.56,1.19-1.08002,1.78998-1.61005,3.65002-3.16998,6.63-7.90997,9.52002-13.69995,137.90002-18.01001,171.30005-73.61005,179.70996-93.62-2.20996,17.5,1.52002,33.85999,16.46997,39.75v.00995c2.8501,23.20001-5.93994,28.55005-11.06995,32.77002Z" style="fill:#b93427;"/><path d="M749.90993,295.82475c-11.42993,27.13-62.30005,83.75-171.47998,93.51001,14.68994-33.42004,33.71997-87.35004,130.53003-95.97003,14.63989,2.5,27.54004,3.15002,38.8999,2.34998,.69006,.04004,1.37012,.08002,2.05005,.11005Z" style="fill:#de4a4a;"/><path d="M755.27003,296.00475v.01001c-.38013,2.72998-.76001,5.5-1.11011,8.27997v.01001c0,.01001,0,.02002-.01001,.03003-8.40991,20.00995-41.80994,75.60999-179.70996,93.62,1.33002-2.66003,2.64001-5.56,3.98999-8.62,109.17993-9.76001,160.05005-66.38,171.47998-93.51001,1.82007,.09998,3.61011,.14996,5.36011,.17999Z" style="fill:#ff6e73;"/><path d="M755.41996,294.93475c-.04,.36-.1,.71-.15,1.07" style="fill:none; stroke:#006837; stroke-miterlimit:10;"/><path d="M842.07997,244.72472c1.70007-3.91998,3.07996-7.77997,4.20007-11.47998,27.12988-2.51001,96.0199-24.65002,81.03992-75.72003,.59998-.34998,1.18005-.73999,1.72998-1.14996l2.5,.03998c24.23999,56.42004-66.03992,82.56-89.46997,88.31Z" style="fill:#d0e0a1;"/><path d="M846.28004,233.24474c1.66992-5.51001,2.7699-10.65997,3.48999-15.04999,2.96997-25.26001,4.60986-50.60004,49.56995-56.38,5.08997-.65002,10.71997-1.04999,16.97998-1.17999,4.01001-.08002,7.80994-1.22003,11-3.11005,14.97998,51.07001-53.91003,73.21002-81.03992,75.72003Z" style="fill:#adbe51;"/><path d="M605.32997,449.19475l-55.22003,46.16998h-153.73999c2.10999-1.07001,6.54999-5.67999,11.03998-10.52997,3.15002,.40997,6.46002,.71997,9.92004,.91998,4.39001-.63,77.89996,1.81,188-36.56Z" style="fill:#663b16;"/><path d="M174.36937,332.532l-147.70945,5.59477c-4.19005,.15871-8.03411-2.30529-9.63198-6.18195-4.98087-12.08432-14.86131-37.16255-12.15449-39.67118,.26001-.3981,28.40478,.30781,58.96477-.87646,.16998,0,.34003-.01016,.51001-.01016,10.90002-.35735,23.01001-.81676,36.03998-1.34758,.20001,0,.41003-.01022,.61005-.03066,36.41998-1.30671,69.62994-2.42972,69.62994-2.42972,0,0-3.47886,14.38748,3.74118,44.95294Z" style="fill:#ffa954;"/><path d="M742.51497,156.04039l.38,.54999-6.72998,4.59003-233.05005,158.89996-19.17999,.70001-309.66168,11.72687c-5.62476-21.16376-6.52448-35.69031-3.65833-44.92688l332.5-18.60998L810.74495,63.41039l.32996,.48999c-62.53992,41.82001-140.3999,94.28998-140.3999,94.28998,0,0-12,22.45001-10,52.67004,.21997,.51001,33.38989-21.85004,75.10999-50.23999,2.21997-1.51001,4.46997-3.04004,6.72998-4.58002Z" style="fill:#d9a264;"/><path d="M903.02329,47.88919s-90.32332,61.1855-160.58333,109.03554c-2.26001,1.53998-4.89001,2.52002-7.10999,4.03003-41.72009,28.38995-74.89001,50.75-75.10999,50.23999-2-30.22003,9.4908-53.85417,9.4908-53.85417,0,0,78.02258-51.93694,140.5625-93.75694,41.57007-27.78998,75.25675-51.20471,75.91667-51.03472,15.67004,9.73004,16.83333,35.34028,16.83333,35.34028Z" style="fill:#ffa954;"/><path d="M389.60743,143.16529s7.66837-18.51336,28.95989-7.21475c0,0,.83771-18.1173,25.74045-14.76891" style="fill:none; stroke:#000; stroke-miterlimit:10;"/><polyline points="411.80996 .02475 412.42996 12.53475 412.44996 12.94475 414.05996 45.29475" style="fill:none; stroke:#000; stroke-miterlimit:10;"/><path d="M414.18996,47.94475l.33,6.61,.3,6.07s.01,0,0,.01l.23,4.63v.01l.31,6.08,1.07,21.54" style="fill:none; stroke:#000; stroke-miterlimit:10;"/><line x1="418.56996" y1="135.95475" x2="416.50996" y2="94.46475" style="fill:none; stroke:#000; stroke-miterlimit:10;"/><path d="M419.96999,93.96471c-1.13,.25-2.28003,.43005-3.46002,.5-2,.18005-4.04999,.09003-6.10999-.25995-13.41003-2.29004-22.42004-15.01001-20.14001-28.42004,2.02002-11.84998,12.20001-20.26996,23.79999-20.48999,1.52002-.02997,3.07001,.08002,4.63,.35004,.40997,.06995,.81,.14996,1.21002,.23999-1.99005,.45001-3.91003,1.14996-5.71002,2.06-6.71002,3.41998-11.78003,9.84998-13.14001,17.83997-2.01001,11.75,4.66003,22.98004,15.38,27.11005,1.13,.44,2.32001,.79999,3.54004,1.06995Z" style="fill:#d3e4a3;"/><path d="M416.42995,92.89476c-10.71997-4.13-17.39001-15.36005-15.38-27.11005,1.35999-7.98999,6.42999-14.41998,13.14001-17.83997l.33002,6.60999,.29999,6.07001s.01001,0,0,.01001l.22998,4.63v.00995l.01001,.01001,.15002,3.12,.14996,2.95001,1.07001,21.54004Z" style="fill:#ffa954; stroke:#000; stroke-miterlimit:10;"/><path d="M416.42995,92.89476c-10.71997-4.13-17.39001-15.36005-15.38-27.11005,1.35999-7.98999,6.42999-14.41998,13.14001-17.83997l.33002,6.60999,.29999,6.07001s.01001,0,0,.01001l.22998,4.63v.00995l.16003,3.13,.14996,2.95001,1.07001,21.54004Z" style="fill:#ffa954;"/><path d="M419.96996,93.96475c9.44-2.14,17.12-9.77,18.85-19.89,2.22-13-6.18-25.37-18.92-28.19" style="fill:none;"/><path d="M437.4555,74.02977c-1.72998,10.12-9.41003,17.75-18.84998,19.88995-1.22003-.26996-2.41003-.62994-3.54004-1.06995-10.71997-4.13-17.39001-15.36005-15.38-27.11005,1.35999-7.98999,6.42999-14.41998,13.14001-17.83997,1.79999-.91003,3.71997-1.60999,5.71002-2.06,12.73999,2.82001,21.13995,15.19,18.91998,28.19Z" style="fill:#67994e;"/><circle cx="421.27873" cy="62.63919" r="10.53929" style="fill:#cf503f;"/><circle cx="421.27873" cy="62.63919" r="6.75832" style="fill:#ff6b72;"/><g><circle cx="331.80275" cy="139.52808" r="3.63721" style="fill:#d5b57f;"/><circle cx="445.80275" cy="148.86142" r="3.63721" style="fill:#d5b57f;"/><circle cx="482.80275" cy="126.57322" r="3.63721" style="fill:#d5b57f;"/><circle cx="491.46941" cy="92.52808" r="3.63721" style="fill:#d5b57f;"/><circle cx="544.56852" cy="67.98931" r="3.63721" style="fill:#d5b57f;"/><circle cx="465.01032" cy="55.88087" r="3.63721" style="fill:#d5b57f;"/><circle cx="380.13608" cy="167.19475" r="3.63721" style="fill:#d5b57f;"/><circle cx="439.17553" cy="105.86142" r="3.63721" style="fill:#d5b57f;"/><circle cx="380.13608" cy="126.57322" r="3.63721" style="fill:#d5b57f;"/><circle cx="352.13608" cy="110.86142" r="3.63721" style="fill:#d5b57f;"/></g><path d="M1011.42995,331.44475v.01001c0,3-.32007,4.73999-.32007,4.73999l-39.42993,28.83997-104.81006,76.64001-89.72998,65.62-47.82996,34.97998c-.06995-7.62994,.66003-15.66998,2.65002-23.64996,6.23999-25.04999,25-49.53003,71.38-58.78003,1.2699-.25,2.54993-.40997,3.82996-.50995,3.12-.23004,9.95996-.94,16.83008-2.93005,3.48999-1,6.98999-2.33997,10-4.12,4.23999-2.5,7.51001-5.88,8.43994-10.41998,3.33008-16.34003,21.66992-48.34003,63-54.66998,12.90991-1.98004,23.18994-6.82001,31.21997-12.54004,17.67004-12.59998,24.44995-29.45996,24.44995-29.45996,0,0,8.28003-31.35999,47.46008-30.53003,.59998,1.79004,1.07996,3.52002,1.46008,5.15002,1.10986,4.76001,1.3999,8.77002,1.3999,11.63Z" style="fill:#ffc17f;"/><path d="M471.11996,655.18475l-26.34998-.56-352.66003-7.42999-4.48999-12.29999c18.91998-18.88,48.65002-32.27002,88.33002-1.07001,0,0,42.65997,11,83.65997-1.34003,41-12.33002,91.67004,2.66998,91.67004,2.66998,0,0,25.32996,7.33002,53.32996,6.33002,19.26001-.69,41.82001,2.25,66.51001,13.70001Z" style="fill:#f3ba78;"/></g></g></g></svg>