<?xml version="1.0" encoding="UTF-8"?><svg xmlns="http://www.w3.org/2000/svg" xmlns:xlink="http://www.w3.org/1999/xlink" viewBox="0 0 853.71 175.89"><defs><style>.ai{fill:url(#t);}.aj{fill:url(#r);}.ak{clip-path:url(#h);}.al{fill:url(#y);}.am{fill:url(#l);}.an{fill:url(#af);}.ao{fill:url(#u);}.ap{fill:url(#ah);}.aq{fill:url(#v);}.ar{fill:url(#a`);}.as{fill:url(#m);}.at{fill:#597634;}.au{fill:url(#f);}.av{fill:url(#ae);}.aw{fill:url(#p);}.ax{fill:url(#ad);}.ay{fill:url(#ab);}.b`{filter:url(#d);}.ba{fill:none;}.bb{fill:url(#x);}.bc{fill:url(#aa);}.bd{fill:url(#s);}.be{fill:url(#n);}.bf{fill:url(#ac);}.bg{fill:url(#w);}.bh{fill:url(#j);}.bi{fill:url(#o);}.bj{fill:url(#q);}.bk{fill:url(#ag);}.bl{fill:url(#k);}.bm{clip-path:url(#i);}.bn{clip-path:url(#g);}</style><filter id="d" filterUnits="userSpaceOnUse"><feOffset dx="0" dy="0"/><feGaussianBlur result="e" stdDeviation="20"/><feFlood flood-color="#006837" flood-opacity="1"/><feComposite in2="e" operator="in"/><feComposite in="SourceGraphic"/></filter><linearGradient id="f" x1="8.23" y1="92.57" x2="853.71" y2="92.57" gradientTransform="matrix(1, 0, 0, 1, 0, 0)" gradientUnits="userSpaceOnUse"><stop offset="0" stop-color="#292821"/><stop offset="1" stop-color="#16164f"/></linearGradient><clipPath id="g"><rect class="ba" y="0" width="845.49" height="166.63" rx="61.44" ry="61.44"/></clipPath><clipPath id="h"><rect class="ba" x="-586.13" y="-6.52" width="1445.3" height="812.98"/></clipPath><clipPath id="i"><rect class="ba" x="-823.48" y="-140.03" width="1920" height="1080"/></clipPath><linearGradient id="j" x1="136.52" y1="-152.36" x2="136.52" y2="750.31" gradientTransform="matrix(1, 0, 0, 1, 0, 0)" gradientUnits="userSpaceOnUse"><stop offset="0" stop-color="#6a724d"/><stop offset="1" stop-color="#dbb872"/></linearGradient><linearGradient id="k" x1="747.49" y1="863.29" x2="751.49" y2="-330.04" xlink:href="#j"/><linearGradient id="l" x1="162.81" y1="861.33" x2="166.81" y2="-332" xlink:href="#j"/><linearGradient id="m" x1="-76.72" y1="-144.87" x2="-68.72" y2="288.46" xlink:href="#j"/><linearGradient id="n" x1="774.59" y1="-160.59" x2="782.59" y2="272.74" xlink:href="#j"/><linearGradient id="o" x1="376.59" y1="-153.24" x2="384.59" y2="280.09" xlink:href="#j"/><linearGradient id="p" x1="539.14" y1="-156.24" x2="547.14" y2="277.09" xlink:href="#j"/><linearGradient id="q" x1="181.05" y1="-149.63" x2="189.05" y2="283.7" xlink:href="#j"/><linearGradient id="r" x1="282.27" y1="-151.5" x2="290.27" y2="281.83" xlink:href="#j"/><linearGradient id="s" x1="256.84" y1="-151.03" x2="264.84" y2="282.3" xlink:href="#j"/><linearGradient id="t" x1="764.01" y1="108.63" x2="772.01" y2="-115.37" gradientTransform="matrix(1, 0, 0, 1, 0, 0)" gradientUnits="userSpaceOnUse"><stop offset="0" stop-color="#004223"/><stop offset="1" stop-color="#009245"/></linearGradient><linearGradient id="u" x1="291.62" y1="91.76" x2="299.62" y2="-132.24" xlink:href="#t"/><linearGradient id="v" x1="485.54" y1="98.69" x2="493.54" y2="-125.31" xlink:href="#t"/><linearGradient id="w" x1="58.74" y1="83.45" x2="66.74" y2="-140.55" xlink:href="#t"/><linearGradient id="x" x1="-120.12" y1="810.27" x2="-98.79" y2="207.61" gradientTransform="matrix(1, 0, 0, 1, 0, 0)" gradientUnits="userSpaceOnUse"><stop offset="0" stop-color="#635144"/><stop offset=".59" stop-color="#405e45"/><stop offset="1" stop-color="#2e6646"/></linearGradient><linearGradient id="y" x1="497.22" y1="832.13" x2="518.56" y2="229.46" gradientTransform="matrix(1, 0, 0, 1, 0, 0)" gradientUnits="userSpaceOnUse"><stop offset="0" stop-color="#485144"/><stop offset=".25" stop-color="#405644"/><stop offset="1" stop-color="#2e6646"/></linearGradient><linearGradient id="a`" x1="890.44" y1="846.04" x2="911.77" y2="243.38" gradientTransform="matrix(1, 0, 0, 1, 0, 0)" gradientUnits="userSpaceOnUse"><stop offset="0" stop-color="#a25144"/><stop offset=".38" stop-color="#715944"/><stop offset=".79" stop-color="#406245"/><stop offset="1" stop-color="#2e6646"/></linearGradient><linearGradient id="aa" x1="852.96" y1="-324.45" x2="832.96" y2="56.89" gradientTransform="matrix(1, 0, 0, 1, 0, 0)" gradientUnits="userSpaceOnUse"><stop offset="0" stop-color="#786837"/><stop offset=".08" stop-color="#716738"/><stop offset=".69" stop-color="#406642"/><stop offset="1" stop-color="#2e6646"/></linearGradient><linearGradient id="ab" x1="546.89" y1="-340.5" x2="526.89" y2="40.84" xlink:href="#aa"/><linearGradient id="ac" x1="1052.25" y1="1386.45" x2="1052.25" y2="-141.3" xlink:href="#f"/><linearGradient id="ad" x1="701.57" y1="15.76" x2="701.57" y2="-4.26" xlink:href="#f"/><linearGradient id="ae" x1="-3010.92" y1="-1217.46" x2="-3010.92" y2="-1248.25" gradientTransform="translate(-2346.56 -1019.23) rotate(-134.87) scale(.96 -1) skewX(1.13)" xlink:href="#f"/><linearGradient id="af" x1="817.56" y1="-293.68" x2="254.69" y2="1012.24" gradientTransform="matrix(1, 0, 0, 1, 0, 0)" gradientUnits="userSpaceOnUse"><stop offset="0" stop-color="#ffff9f" stop-opacity=".3"/><stop offset=".11" stop-color="#ffa" stop-opacity=".26"/><stop offset=".7" stop-color="#ffffe7" stop-opacity=".07"/><stop offset="1" stop-color="#fff" stop-opacity="0"/></linearGradient><linearGradient id="ag" x1="1146.29" y1="-293.45" x2="580.97" y2="1018.16" xlink:href="#af"/><linearGradient id="ah" x1="1036.22" y1="57.76" x2="1036.22" y2="-211.35" xlink:href="#f"/></defs><g id="a"/><g id="b"><g id="c"><g class="b`"><rect class="au" x="8.23" y="9.26" width="845.49" height="166.63" rx="61.44" ry="61.44"/><g class="bn"><g class="ak"><g class="bm"><rect class="bh" x="-823.48" y="-140.03" width="1920" height="1080"/><g><path class="bl" d="M833.52,646.47l-41.33-503.7s-6.67-20.63,125.33-282.8h-20.67l-104.72,183.2-9.94-183.2h-49.33l-32.67,250.43-69.33-189.78,29.33-60.65h-20l-12.67,31.66-17.33-31.66h-26l110.67,432.91,13,353.59h125.67Z"/><path class="am" d="M180.55,646.47v-229.05l133.57-199.45-18.72-35.84-48.06,74.79-5.62-152.7h-26.21l-3.74,179.19s-23.51,81.42-31.21,71.03c-13.38-18.06,9.99-385.78,9.99-385.78l38.7-108.68h-88.63L103.15-15.76l-59.92-124.27H17.02L86.92,62.15l-3.74,584.32h97.37Z"/></g><path class="as" d="M-153.97,55.31s10.69,30.6,20.09,22.67c9.4-7.93,14.75-12.35,14.75-12.35,0,0,4.79,27.1,15.85,16.59s14.56-16.22,14.56-16.22c0,0,4.42,19.17,13.46,14.19s9.22-18.25,9.22-18.25c0,0,7.37,13.83,16.96,8.85,9.59-4.98,5.9-15.48,5.9-15.48,0,0,15.3,12.53,23.04,4.24,7.74-8.3,0-18.99,0-18.99,0,0,19.17,9.4,28.02,2.4,8.85-7-4.24-20.65-4.24-20.65,0,0,10.69,10.14,20.65,6.27s0-14.75,0-14.75c0,0,7.74,7.19,19.72-4.42C55.98-2.2,32.39-2.2,32.39-2.2c0,0,18.25,8.66,8.11-18.43-10.14-27.1-205.16-13.64-205.16-13.64,0,0-37.97,15.48-29.86,23.23,8.11,7.74,12.9,4.61,12.9,4.61,0,0-17.88,8.48-9.22,17.51,8.66,9.03,16.59-.18,16.59-.18,0,0-19.17,17.88-8.66,21.94s17.7-4.98,17.7-4.98c0,0-15.67,22.49-6.27,27.1,9.4,4.61,17.51,.37,17.51,.37Z"/><path class="be" d="M714.46,85.06s17.66,27.18,24.91,17.24,11.39-15.5,11.39-15.5c0,0,11.1,25.18,19.34,12.34,8.24-12.84,10.29-19.22,10.29-19.22,0,0,8.86,17.57,16.45,10.59,7.59-6.98,4.61-19.92,4.61-19.92,0,0,10.45,11.67,18.58,4.56,8.13-7.11,2.05-16.44,2.05-16.44,0,0,17.84,8.54,23.39-1.36,5.55-9.9-4.52-18.44-4.52-18.44,0,0,20.86,4.57,27.78-4.34,6.93-8.91-9.03-19.04-9.03-19.04,0,0,12.8,7.3,21.54,1.18,8.75-6.13-3.51-14.32-3.51-14.32,0,0,9.23,5.14,18.11-8.99,8.88-14.13-14.04-8.52-14.04-8.52,0,0,19.79,4.07,3.49-19.83C869-58.87,682.77,.58,682.77,.58c0,0-33.2,24.07-23.48,29.66,9.72,5.59,13.63,1.41,13.63,1.41,0,0-15.35,12.49-4.79,19.2s16.07-4.12,16.07-4.12c0,0-14.37,21.93-3.2,23.37,11.17,1.44,16-9.04,16-9.04,0,0-9.87,25.57,.36,27.81,10.23,2.24,17.1-3.81,17.1-3.81Z"/><path class="bi" d="M459.44,70.14s-10.69,30.6-20.09,22.67c-9.4-7.93-14.75-12.35-14.75-12.35,0,0-4.79,27.1-15.85,16.59-11.06-10.51-14.56-16.22-14.56-16.22,0,0-4.42,19.17-13.46,14.19s-9.22-18.25-9.22-18.25c0,0-7.37,13.83-16.96,8.85-9.59-4.98-5.9-15.48-5.9-15.48,0,0-15.3,12.53-23.04,4.24s0-18.99,0-18.99c0,0-19.17,9.4-28.02,2.4s4.24-20.65,4.24-20.65c0,0-10.69,10.14-20.65,6.27s0-14.75,0-14.75c0,0-7.74,7.19-19.72-4.42-11.98-11.61,11.61-11.61,11.61-11.61,0,0-18.25,8.66-8.11-18.43,10.14-27.1,205.16-13.64,205.16-13.64,0,0,37.97,15.48,29.86,23.23-8.11,7.74-12.9,4.61-12.9,4.61,0,0,17.88,8.48,9.22,17.51-8.66,9.03-16.59-.18-16.59-.18,0,0,19.17,17.88,8.66,21.94s-17.7-4.98-17.7-4.98c0,0,15.67,22.49,6.27,27.1s-17.51,.37-17.51,.37Z"/><path class="aw" d="M641.02,57.31s-3.5,35.07-15.46,29.09c-11.96-5.98-18.74-9.3-18.74-9.3,0,0,1.84,29.87-12.53,21.58-14.37-8.29-19.53-13.43-19.53-13.43,0,0,.21,21.39-10.61,18.44-10.82-2.96-14.4-16.94-14.4-16.94,0,0-4.27,16.5-15.67,13.68-11.4-2.82-10.18-14.86-10.18-14.86,0,0-12.98,17.15-23.28,10.36-10.3-6.79-4.84-20.07-4.84-20.07,0,0-17.87,14.83-29.01,9.68-11.14-5.15-.78-22.91-.78-22.91,0,0-8.72,13.44-20.23,11.89-11.51-1.55-3.76-15.59-3.76-15.59,0,0-6.35,9.57-21.98,.35-15.63-9.22,9.32-15.24,9.32-15.24,0,0-17.08,13.81-13.27-17.42s213.41-66.73,213.41-66.73c0,0,44.09,6.69,37.49,16.94-6.6,10.25-12.47,8.16-12.47,8.16,0,0,21.06,4.4,14.21,16.16s-17.58,4.04-17.58,4.04c0,0,24.83,14.01,14.75,20.98-10.07,6.97-19.98-.75-19.98-.75,0,0,22.3,19.78,13.53,27.05s-18.42,4.86-18.42,4.86Z"/><path class="bj" d="M92.25,57.45s9.06,34.06,19.91,26.25c10.85-7.82,17.01-12.17,17.01-12.17,0,0,2.96,29.78,15.82,19.3,12.86-10.48,17.13-16.39,17.13-16.39,0,0,3.21,21.15,13.42,16.5,10.21-4.65,11.5-19.03,11.5-19.03,0,0,6.85,15.6,17.66,11,10.8-4.6,7.68-16.3,7.68-16.3,0,0,15.55,14.86,24.63,6.5,9.08-8.35,1.57-20.59,1.57-20.59,0,0,20.01,11.78,30.18,4.91,10.17-6.86-2.89-22.74-2.89-22.74,0,0,10.75,11.88,21.87,8.5,11.11-3.37,1.22-15.99,1.22-15.99,0,0,7.8,8.43,21.75-3.17,13.95-11.6-11.63-13.55-11.63-13.55,0,0,19.07,10.9,10.32-19.32-8.75-30.22-221.33-31.75-221.33-31.75,0,0-42.45,13.65-34.3,22.72s13.61,6.06,13.61,6.06c0,0-20.09,7.72-11.44,18.23,8.65,10.51,18,1.17,18,1.17,0,0-22.26,17.8-11.21,23.07,11.06,5.27,19.6-3.93,19.6-3.93,0,0-18.85,23.09-9.04,28.86s18.96,1.85,18.96,1.85Z"/><path class="aj" d="M368.46,152.63s4.93-26.99-5.31-25.08-16.01,2.92-16.01,2.92c0,0,7.8-21.94-4.73-18.83-12.53,3.11-17.5,5.85-17.5,5.85,0,0,4.76-15.96-3.97-16.07s-14.41,9.57-14.41,9.57c0,0,.35-13.26-8.78-13.6-9.13-.35-10.81,8.93-10.81,8.93,0,0-6.02-15.62-15.18-12.75-9.16,2.87-7.94,13.97-7.94,13.97,0,0-10.18-14.93-19.61-13.48s-5.51,16.96-5.51,16.96c0,0-3.63-11.93-12.57-13.24-8.94-1.31-6.17,10.85-6.17,10.85,0,0-2.69-8.53-16.36-4.99-13.67,3.54,3.69,13.4,3.69,13.4,0,0-9.81-14-13.67,10.17-3.87,24.18,145.26,95.81,145.26,95.81,0,0,34.41,4.48,31.68-4.61-2.73-9.09-7.57-8.79-7.57-8.79,0,0,16.7,1.24,14.1-9.03-2.6-10.27-12.28-6.8-12.28-6.8,0,0,21.58-5.14,15.55-12.52-6.04-7.38-15.1-3.74-15.1-3.74,0,0,20.93-10,15.94-17.32-4.99-7.32-12.73-7.59-12.73-7.59Z"/><path class="bd" d="M203.13,171.32s-4.97,19.88,2.75,18.96,12.08-1.41,12.08-1.41c0,0-6.87,15.98,2.62,14.27s13.33-3.52,13.33-3.52c0,0-4.31,11.67,2.19,12.17,6.5,.5,11.2-6.45,11.2-6.45,0,0-.9,9.87,5.89,10.56,6.79,.7,8.49-6.14,8.49-6.14,0,0,3.74,11.93,10.71,10.24,6.97-1.7,6.59-10.03,6.59-10.03,0,0,6.87,11.62,13.98,10.99s4.92-12.38,4.92-12.38c0,0,2.13,9.07,8.74,10.48s5.12-7.79,5.12-7.79c0,0,1.6,6.49,11.96,4.51,10.36-1.98-2.11-10.17-2.11-10.17,0,0,6.64,10.91,10.68-6.93s-103.7-78.4-103.7-78.4c0,0-25.44-4.99-23.84,1.91,1.6,6.91,5.22,6.91,5.22,6.91,0,0-12.39-1.72-10.95,6.06,1.44,7.78,8.83,5.66,8.83,5.66,0,0-16.34,2.8-12.19,8.59,4.15,5.79,11.08,3.51,11.08,3.51,0,0-16.08,6.45-12.71,12.15,3.37,5.7,9.13,6.27,9.13,6.27Z"/><g><path class="ai" d="M694.29,48.66s20.99,32.3,29.6,20.49,13.53-18.42,13.53-18.42c0,0,13.19,29.92,22.99,14.67s12.22-22.84,12.22-22.84c0,0,10.52,20.88,19.54,12.58,9.02-8.3,5.48-23.67,5.48-23.67,0,0,12.42,13.87,22.08,5.42,9.66-8.45,2.43-19.54,2.43-19.54,0,0,21.2,10.14,27.8-1.62s-5.37-21.92-5.37-21.92c0,0,24.79,5.43,33.02-5.15,8.23-10.59-10.73-22.63-10.73-22.63,0,0,15.21,8.68,25.6,1.4s-4.17-17.02-4.17-17.02c0,0,10.97,6.11,21.52-10.68s-16.69-10.12-16.69-10.12c0,0,23.51,4.84,4.15-23.57-19.36-28.41-240.68,42.24-240.68,42.24,0,0-39.46,28.61-27.91,35.25,11.55,6.64,16.2,1.67,16.2,1.67,0,0-18.24,14.84-5.69,22.82s19.1-4.9,19.1-4.9c0,0-17.08,26.06-3.8,27.77,13.27,1.71,19.02-10.75,19.02-10.75,0,0-11.73,30.39,.42,33.05s20.32-4.52,20.32-4.52Z"/><path class="ao" d="M391.22,30.94s-12.71,36.36-23.88,26.94c-11.17-9.42-17.52-14.68-17.52-14.68,0,0-5.7,32.2-18.84,19.72s-17.31-19.28-17.31-19.28c0,0-5.26,22.78-15.99,16.87-10.73-5.91-10.95-21.69-10.95-21.69,0,0-8.76,16.43-20.15,10.51-11.39-5.91-7.01-18.4-7.01-18.4,0,0-18.18,14.9-27.38,5.04-9.2-9.86,0-22.56,0-22.56,0,0-22.78,11.17-33.3,2.85-10.51-8.32,5.04-24.53,5.04-24.53,0,0-12.71,12.05-24.53,7.45s0-17.52,0-17.52c0,0-9.2,8.54-23.44-5.26-14.24-13.8,13.8-13.8,13.8-13.8,0,0-21.69,10.3-9.64-21.91,12.05-32.2,243.82-16.21,243.82-16.21,0,0,45.13,18.4,35.49,27.6-9.64,9.2-15.33,5.48-15.33,5.48,0,0,21.25,10.08,10.95,20.81-10.3,10.73-19.72-.22-19.72-.22,0,0,22.78,21.25,10.3,26.07-12.49,4.82-21.03-5.91-21.03-5.91,0,0,18.62,26.73,7.45,32.2s-20.81,.44-20.81,.44Z"/><path class="aq" d="M607.01,15.69s-4.16,41.68-18.37,34.57c-14.21-7.11-22.27-11.05-22.27-11.05,0,0,2.19,35.49-14.89,25.65-17.08-9.85-23.21-15.97-23.21-15.97,0,0,.25,25.42-12.6,21.91-12.86-3.52-17.11-20.13-17.11-20.13,0,0-5.07,19.6-18.62,16.25-13.55-3.35-12.1-17.67-12.1-17.67,0,0-15.42,20.38-27.66,12.31s-5.75-23.85-5.75-23.85c0,0-21.24,17.62-34.47,11.5-13.24-6.12-.93-27.22-.93-27.22,0,0-10.36,15.98-24.04,14.13s-4.47-18.53-4.47-18.53c0,0-7.55,11.38-26.12,.42C325.82,7.06,355.46-.09,355.46-.09c0,0-20.3,16.41-15.78-20.7,4.53-37.11,253.61-79.31,253.61-79.31,0,0,52.4,7.95,44.55,20.13-7.84,12.18-14.81,9.7-14.81,9.7,0,0,25.03,5.23,16.89,19.21-8.15,13.97-20.9,4.8-20.9,4.8,0,0,29.5,16.65,17.53,24.93-11.97,8.28-23.74-.89-23.74-.89,0,0,26.5,23.5,16.08,32.14-10.41,8.64-21.89,5.77-21.89,5.77Z"/><path class="bg" d="M-45.15,15.86s10.77,40.48,23.66,31.19C-8.59,37.75-1.27,32.58-1.27,32.58c0,0,3.51,35.39,18.8,22.93,15.28-12.45,20.36-19.47,20.36-19.47,0,0,3.82,25.14,15.95,19.61,12.13-5.53,13.67-22.61,13.67-22.61,0,0,8.14,18.54,20.98,13.07,12.84-5.47,9.12-19.37,9.12-19.37,0,0,18.48,17.65,29.27,7.73,10.79-9.93,1.86-24.47,1.86-24.47,0,0,23.78,14,35.87,5.84s-3.44-27.02-3.44-27.02c0,0,12.78,14.11,25.99,10.1s1.45-19,1.45-19c0,0,9.27,10.02,25.85-3.76,16.58-13.79-13.82-16.11-13.82-16.11,0,0,22.66,12.96,12.26-22.96-10.4-35.91-263.03-37.73-263.03-37.73,0,0-50.45,16.22-40.76,27,9.69,10.77,16.17,7.21,16.17,7.21,0,0-23.87,9.17-13.6,21.66,10.28,12.49,21.4,1.39,21.4,1.39,0,0-26.46,21.16-13.32,27.42,13.14,6.26,23.29-4.68,23.29-4.68,0,0-22.4,27.44-10.74,34.3,11.66,6.86,22.53,2.2,22.53,2.2Z"/></g><g><path class="at" d="M675.52,656.46l-46.67-476.25,77.33-87.47-6.67-58.32s-69.33,105.29-78.67,89.09c-9.33-16.2-10.67-251.89,24-266.88s-76,0-76,0l-8,799.82h114.67Z"/><path class="at" d="M256.67,695.97l4.54-259.94s-15.4-25.3-35.02-54.39c-.36-.53,2.89-2.32,6.89-4.78,1.44-.89,28.13,22.28,28.13,22.28l10.21-320.86s-13.05-44.61-39.71-99.52h24.96l10.21,22.78,9.64-22.78h39.71l6.24,181.88L403.03-21.23h30.07l-107.22,297.69,9.08,412.65-75.45,6.86"/></g><path class="bb" d="M-169.15,596.97L-127.81,124.97s6.67-19.33-125.33-265h20.67L-127.76,31.64l9.94-171.67h49.33L-35.81,94.64,33.52-83.19,4.19-140.03H24.19l12.67,29.67,17.33-29.67h26L-30.48,265.64l-13,331.33h-125.67Z"/><path class="al" d="M398.14,695.97l8-303s-10.81-32.42-50.92-69.02c-.16-.15,.01-.41,.21-.31l50.71,26.33L424.14-24.03s-23-52-70-116h44l18,26.56,17-26.56h70l11,212,142-212h53l-189,347,16,481-133,8"/><polygon class="ar" points="922.52 607.97 1036.04 607.97 1046.52 370.97 1096.52 301.97 1096.52 269.97 1041.52 318.97 1041.52 -140.03 965.52 -140.03 947.52 71.97 846.52 -81.03 864.52 -140.03 838.52 -140.03 820.52 -86.03 779.52 -140.03 738.52 -140.03 938.52 206.97 922.52 607.97"/><path class="bc" d="M753.25-21.78s25.02,38.51,35.29,24.43c10.27-14.08,16.13-21.97,16.13-21.97,0,0,15.73,35.67,27.41,17.49,11.68-18.19,14.57-27.23,14.57-27.23,0,0,12.55,24.89,23.3,15,10.75-9.89,6.53-28.22,6.53-28.22,0,0,14.81,16.54,26.32,6.46,11.51-10.08,2.9-23.3,2.9-23.3,0,0,25.28,12.09,33.14-1.93,7.86-14.02-6.4-26.13-6.4-26.13,0,0,29.55,6.48,39.37-6.14,9.82-12.62-12.79-26.98-12.79-26.98,0,0,18.13,10.35,30.52,1.67s-4.97-20.29-4.97-20.29c0,0,13.08,7.28,25.65-12.73s-19.89-12.07-19.89-12.07c0,0,28.03,5.77,4.95-28.1-23.08-33.87-286.93,50.36-286.93,50.36,0,0-47.04,34.1-33.27,42.02s19.31,1.99,19.31,1.99c0,0-21.75,17.69-6.78,27.2,14.97,9.51,22.77-5.84,22.77-5.84,0,0-20.36,31.07-4.53,33.11,15.83,2.04,22.68-12.81,22.68-12.81,0,0-13.98,36.23,.51,39.4s24.22-5.39,24.22-5.39Z"/><path class="ay" d="M674.53-61.08s-4.96,49.69-21.9,41.22c-16.94-8.48-26.55-13.17-26.55-13.17,0,0,2.61,42.32-17.75,30.58-20.36-11.74-27.67-19.03-27.67-19.03,0,0,.3,30.31-15.03,26.12-15.33-4.19-20.4-24-20.4-24,0,0-6.05,23.37-22.2,19.38-16.15-3.99-14.43-21.06-14.43-21.06,0,0-18.39,24.3-32.98,14.67-14.59-9.63-6.86-28.44-6.86-28.44,0,0-25.32,21.01-41.1,13.71-15.78-7.29-1.11-32.45-1.11-32.45,0,0-12.35,19.05-28.66,16.85-16.31-2.2-5.33-22.09-5.33-22.09,0,0-9,13.56-31.14,.5s13.2-21.59,13.2-21.59c0,0-24.2,19.57-18.81-24.68,5.4-44.25,302.36-94.55,302.36-94.55,0,0,62.47,9.47,53.12,24-9.35,14.53-17.66,11.56-17.66,11.56,0,0,29.84,6.24,20.13,22.9s-24.91,5.72-24.91,5.72c0,0,35.17,19.85,20.9,29.72-14.27,9.87-28.3-1.06-28.3-1.06,0,0,31.59,28.02,19.18,38.32-12.42,10.3-26.1,6.88-26.1,6.88Z"/><path class="bf" d="M1201.74,1386.45l-74.75-978.42s-12.06-40.08,226.65-549.33h-37.37l-189.38,355.85-17.98-355.85h-89.21l-59.07,486.45L861.52,46.75l76.44-186.78-51.12-.76-51.99,126.31-36.98-126.82h-47.02l200.12,840.92,23.51,686.83h227.25Z"/><path class="ax" d="M681.06,15.55s22.76-32.15,38.22-14.53c15.46,17.61-38.22,14.53-38.22,14.53Z"/><path class="av" d="M555.45,171.6s25.82,40.45,46.71,19.32-46.71-19.32-46.71-19.32Z"/><polygon class="an" points="135.74 937.3 635.27 -143.31 766.41 -140.32 436.95 940.28 135.74 937.3"/><polygon class="bk" points="462.36 943.26 961.88 -137.35 1094.57 -139.57 765.11 941.04 462.36 943.26"/><path class="ap" d="M860.85-52.12s-5.17,59.68,16.68,53.44c21.85-6.23,34.22-9.64,34.22-9.64,0,0-12.46,49.3,14.14,39.98,26.61-9.33,36.84-16.3,36.84-16.3,0,0-7.07,35.66,11.92,34.12,19-1.54,29.37-23.77,29.37-23.77,0,0,1.95,28.89,21.88,27.77,19.93-1.12,21.68-21.63,21.68-21.63,0,0,16.29,32.72,35.62,24.61,19.34-8.11,14.39-32,14.39-32,0,0,25.19,30.38,45.41,25.28,20.22-5.1,8.5-38.01,8.5-38.01,0,0,10.33,25.19,30.05,26.21s11.18-24.85,11.18-24.85c0,0,7.6,17.99,36.6,7.49,29-10.49-10.77-28.38-10.77-28.38,0,0,24.19,28.43,27.64-24.92,3.45-53.36-335.45-178.5-335.45-178.5,0,0-75.74-2.69-67.94,16.51,7.8,19.2,18.25,17.55,18.25,17.55,0,0-36.56,.74-28.81,22.53,7.76,21.79,28.1,12.26,28.1,12.26,0,0-45.86,15.61-31.23,30.4s33.6,5.03,33.6,5.03c0,0-43.45,26.03-31.1,40.92,12.35,14.89,29.24,13.9,29.24,13.9Z"/></g></g></g></g></g></g></svg>